# Generated by generate_bionic_fish.py
# Units: meters
# Dorsal-fin link-local mesh. Apply the configured Body mount transform.
o DorsalFin
v 0.060000000 -0.001500000 0.000000000
v 0.000000000 -0.001500000 0.000000000
v -0.025455000 -0.001500000 -0.095000000
v -0.024670000 -0.001500000 -0.094981000
v -0.023858000 -0.001500000 -0.094925000
v -0.023019000 -0.001500000 -0.094832000
v -0.022154000 -0.001500000 -0.094702000
v -0.021263000 -0.001500000 -0.094536000
v -0.020347000 -0.001500000 -0.094334000
v -0.019407000 -0.001500000 -0.094098000
v -0.018445000 -0.001500000 -0.093828000
v -0.017462000 -0.001500000 -0.093526000
v -0.016458000 -0.001500000 -0.093192000
v -0.015437000 -0.001500000 -0.092829000
v -0.014398000 -0.001500000 -0.092437000
v -0.013345000 -0.001500000 -0.092017000
v -0.012278000 -0.001500000 -0.091572000
v -0.011200000 -0.001500000 -0.091103000
v -0.010113000 -0.001500000 -0.090612000
v -0.009018000 -0.001500000 -0.090099000
v -0.007918000 -0.001500000 -0.089568000
v -0.006814000 -0.001500000 -0.089018000
v -0.005708000 -0.001500000 -0.088453000
v -0.004603000 -0.001500000 -0.087874000
v -0.003500000 -0.001500000 -0.087282000
v -0.001308000 -0.001500000 -0.086065000
v 0.000854000 -0.001500000 -0.084817000
v 0.001918000 -0.001500000 -0.084185000
v 0.002971000 -0.001500000 -0.083549000
v 0.004009000 -0.001500000 -0.082910000
v 0.005031000 -0.001500000 -0.082270000
v 0.006037000 -0.001500000 -0.081630000
v 0.007025000 -0.001500000 -0.080990000
v 0.007994000 -0.001500000 -0.080352000
v 0.008944000 -0.001500000 -0.079717000
v 0.009873000 -0.001500000 -0.079083000
v 0.010783000 -0.001500000 -0.078453000
v 0.011673000 -0.001500000 -0.077825000
v 0.012542000 -0.001500000 -0.077200000
v 0.013392000 -0.001500000 -0.076578000
v 0.014224000 -0.001500000 -0.075957000
v 0.015037000 -0.001500000 -0.075338000
v 0.015834000 -0.001500000 -0.074720000
v 0.016615000 -0.001500000 -0.074100000
v 0.017382000 -0.001500000 -0.073480000
v 0.018881000 -0.001500000 -0.072228000
v 0.020344000 -0.001500000 -0.070952000
v 0.021788000 -0.001500000 -0.069642000
v 0.023225000 -0.001500000 -0.068287000
v 0.023944000 -0.001500000 -0.067590000
v 0.024665000 -0.001500000 -0.066879000
v 0.025388000 -0.001500000 -0.066153000
v 0.026115000 -0.001500000 -0.065413000
v 0.026845000 -0.001500000 -0.064657000
v 0.027579000 -0.001500000 -0.063886000
v 0.028317000 -0.001500000 -0.063100000
v 0.029058000 -0.001500000 -0.062299000
v 0.029803000 -0.001500000 -0.061483000
v 0.030551000 -0.001500000 -0.060652000
v 0.031303000 -0.001500000 -0.059807000
v 0.032058000 -0.001500000 -0.058948000
v 0.032815000 -0.001500000 -0.058074000
v 0.033574000 -0.001500000 -0.057188000
v 0.035098000 -0.001500000 -0.055376000
v 0.036624000 -0.001500000 -0.053517000
v 0.038146000 -0.001500000 -0.051616000
v 0.039658000 -0.001500000 -0.049679000
v 0.041152000 -0.001500000 -0.047713000
v 0.042622000 -0.001500000 -0.045724000
v 0.044060000 -0.001500000 -0.043719000
v 0.045457000 -0.001500000 -0.041705000
v 0.046808000 -0.001500000 -0.039689000
v 0.047464000 -0.001500000 -0.038681000
v 0.048105000 -0.001500000 -0.037675000
v 0.048732000 -0.001500000 -0.036672000
v 0.049343000 -0.001500000 -0.035671000
v 0.049938000 -0.001500000 -0.034674000
v 0.050516000 -0.001500000 -0.033681000
v 0.051077000 -0.001500000 -0.032692000
v 0.051621000 -0.001500000 -0.031709000
v 0.052147000 -0.001500000 -0.030730000
v 0.052654000 -0.001500000 -0.029758000
v 0.053143000 -0.001500000 -0.028791000
v 0.053613000 -0.001500000 -0.027831000
v 0.054065000 -0.001500000 -0.026877000
v 0.054498000 -0.001500000 -0.025929000
v 0.054912000 -0.001500000 -0.024988000
v 0.055307000 -0.001500000 -0.024054000
v 0.055685000 -0.001500000 -0.023126000
v 0.056043000 -0.001500000 -0.022205000
v 0.056384000 -0.001500000 -0.021290000
v 0.056707000 -0.001500000 -0.020382000
v 0.057012000 -0.001500000 -0.019480000
v 0.057300000 -0.001500000 -0.018585000
v 0.057571000 -0.001500000 -0.017695000
v 0.057825000 -0.001500000 -0.016811000
v 0.058064000 -0.001500000 -0.015933000
v 0.058286000 -0.001500000 -0.015060000
v 0.058493000 -0.001500000 -0.014192000
v 0.058684000 -0.001500000 -0.013329000
v 0.058861000 -0.001500000 -0.012471000
v 0.059024000 -0.001500000 -0.011617000
v 0.059173000 -0.001500000 -0.010768000
v 0.059308000 -0.001500000 -0.009922000
v 0.059430000 -0.001500000 -0.009080000
v 0.059539000 -0.001500000 -0.008241000
v 0.059721000 -0.001500000 -0.006574000
v 0.059856000 -0.001500000 -0.004917000
v 0.059947000 -0.001500000 -0.003270000
v 0.059994000 -0.001500000 -0.001631000
v 0.000000000 0.001500000 0.000000000
v -0.025455000 0.001500000 -0.095000000
v -0.024670000 0.001500000 -0.094981000
v -0.023858000 0.001500000 -0.094925000
v -0.023019000 0.001500000 -0.094832000
v -0.022154000 0.001500000 -0.094702000
v -0.021263000 0.001500000 -0.094536000
v -0.020347000 0.001500000 -0.094334000
v -0.019407000 0.001500000 -0.094098000
v -0.018445000 0.001500000 -0.093828000
v -0.017462000 0.001500000 -0.093526000
v -0.016458000 0.001500000 -0.093192000
v -0.015437000 0.001500000 -0.092829000
v -0.014398000 0.001500000 -0.092437000
v -0.013345000 0.001500000 -0.092017000
v -0.012278000 0.001500000 -0.091572000
v -0.011200000 0.001500000 -0.091103000
v -0.010113000 0.001500000 -0.090612000
v -0.009018000 0.001500000 -0.090099000
v -0.007918000 0.001500000 -0.089568000
v -0.006814000 0.001500000 -0.089018000
v -0.005708000 0.001500000 -0.088453000
v -0.004603000 0.001500000 -0.087874000
v -0.003500000 0.001500000 -0.087282000
v -0.001308000 0.001500000 -0.086065000
v 0.000854000 0.001500000 -0.084817000
v 0.001918000 0.001500000 -0.084185000
v 0.002971000 0.001500000 -0.083549000
v 0.004009000 0.001500000 -0.082910000
v 0.005031000 0.001500000 -0.082270000
v 0.006037000 0.001500000 -0.081630000
v 0.007025000 0.001500000 -0.080990000
v 0.007994000 0.001500000 -0.080352000
v 0.008944000 0.001500000 -0.079717000
v 0.009873000 0.001500000 -0.079083000
v 0.010783000 0.001500000 -0.078453000
v 0.011673000 0.001500000 -0.077825000
v 0.012542000 0.001500000 -0.077200000
v 0.013392000 0.001500000 -0.076578000
v 0.014224000 0.001500000 -0.075957000
v 0.015037000 0.001500000 -0.075338000
v 0.015834000 0.001500000 -0.074720000
v 0.016615000 0.001500000 -0.074100000
v 0.017382000 0.001500000 -0.073480000
v 0.018881000 0.001500000 -0.072228000
v 0.020344000 0.001500000 -0.070952000
v 0.021788000 0.001500000 -0.069642000
v 0.023225000 0.001500000 -0.068287000
v 0.023944000 0.001500000 -0.067590000
v 0.024665000 0.001500000 -0.066879000
v 0.025388000 0.001500000 -0.066153000
v 0.026115000 0.001500000 -0.065413000
v 0.026845000 0.001500000 -0.064657000
v 0.027579000 0.001500000 -0.063886000
v 0.028317000 0.001500000 -0.063100000
v 0.029058000 0.001500000 -0.062299000
v 0.029803000 0.001500000 -0.061483000
v 0.030551000 0.001500000 -0.060652000
v 0.031303000 0.001500000 -0.059807000
v 0.032058000 0.001500000 -0.058948000
v 0.032815000 0.001500000 -0.058074000
v 0.033574000 0.001500000 -0.057188000
v 0.035098000 0.001500000 -0.055376000
v 0.036624000 0.001500000 -0.053517000
v 0.038146000 0.001500000 -0.051616000
v 0.039658000 0.001500000 -0.049679000
v 0.041152000 0.001500000 -0.047713000
v 0.042622000 0.001500000 -0.045724000
v 0.044060000 0.001500000 -0.043719000
v 0.045457000 0.001500000 -0.041705000
v 0.046808000 0.001500000 -0.039689000
v 0.047464000 0.001500000 -0.038681000
v 0.048105000 0.001500000 -0.037675000
v 0.048732000 0.001500000 -0.036672000
v 0.049343000 0.001500000 -0.035671000
v 0.049938000 0.001500000 -0.034674000
v 0.050516000 0.001500000 -0.033681000
v 0.051077000 0.001500000 -0.032692000
v 0.051621000 0.001500000 -0.031709000
v 0.052147000 0.001500000 -0.030730000
v 0.052654000 0.001500000 -0.029758000
v 0.053143000 0.001500000 -0.028791000
v 0.053613000 0.001500000 -0.027831000
v 0.054065000 0.001500000 -0.026877000
v 0.054498000 0.001500000 -0.025929000
v 0.054912000 0.001500000 -0.024988000
v 0.055307000 0.001500000 -0.024054000
v 0.055685000 0.001500000 -0.023126000
v 0.056043000 0.001500000 -0.022205000
v 0.056384000 0.001500000 -0.021290000
v 0.056707000 0.001500000 -0.020382000
v 0.057012000 0.001500000 -0.019480000
v 0.057300000 0.001500000 -0.018585000
v 0.057571000 0.001500000 -0.017695000
v 0.057825000 0.001500000 -0.016811000
v 0.058064000 0.001500000 -0.015933000
v 0.058286000 0.001500000 -0.015060000
v 0.058493000 0.001500000 -0.014192000
v 0.058684000 0.001500000 -0.013329000
v 0.058861000 0.001500000 -0.012471000
v 0.059024000 0.001500000 -0.011617000
v 0.059173000 0.001500000 -0.010768000
v 0.059308000 0.001500000 -0.009922000
v 0.059430000 0.001500000 -0.009080000
v 0.059539000 0.001500000 -0.008241000
v 0.059721000 0.001500000 -0.006574000
v 0.059856000 0.001500000 -0.004917000
v 0.059947000 0.001500000 -0.003270000
v 0.059994000 0.001500000 -0.001631000
v 0.060000000 0.001500000 0.000000000
f 1 2 110
f 110 2 109
f 109 2 108
f 108 2 107
f 107 2 106
f 106 2 105
f 105 2 104
f 104 2 103
f 103 2 102
f 102 2 101
f 101 2 100
f 100 2 99
f 99 2 98
f 98 2 97
f 97 2 96
f 96 2 95
f 95 2 94
f 94 2 93
f 93 2 92
f 92 2 91
f 91 2 90
f 90 2 89
f 89 2 88
f 88 2 87
f 87 2 86
f 86 2 85
f 85 2 84
f 84 2 83
f 83 2 82
f 82 2 81
f 81 2 80
f 80 2 79
f 79 2 78
f 78 2 77
f 77 2 76
f 76 2 75
f 75 2 74
f 74 2 73
f 73 2 72
f 72 2 71
f 71 2 70
f 70 2 69
f 69 2 68
f 68 2 67
f 67 2 66
f 66 2 65
f 65 2 64
f 64 2 63
f 63 2 62
f 62 2 61
f 61 2 60
f 60 2 59
f 59 2 58
f 58 2 57
f 57 2 56
f 56 2 55
f 55 2 54
f 54 2 53
f 53 2 52
f 52 2 51
f 51 2 50
f 50 2 49
f 49 2 48
f 48 2 47
f 47 2 46
f 46 2 45
f 45 2 44
f 44 2 43
f 43 2 42
f 42 2 41
f 41 2 40
f 40 2 39
f 39 2 38
f 38 2 37
f 37 2 36
f 36 2 35
f 35 2 34
f 34 2 33
f 33 2 32
f 32 2 31
f 31 2 30
f 30 2 29
f 29 2 28
f 28 2 27
f 27 2 26
f 26 2 25
f 25 2 24
f 24 2 23
f 23 2 22
f 22 2 21
f 21 2 20
f 20 2 19
f 19 2 18
f 18 2 17
f 17 2 16
f 16 2 3
f 16 3 15
f 15 3 14
f 14 3 13
f 13 3 12
f 12 3 11
f 11 3 10
f 10 3 9
f 9 3 8
f 8 3 7
f 7 3 6
f 6 3 5
f 5 3 4
f 111 112 2
f 2 112 3
f 112 113 3
f 3 113 4
f 4 113 114
f 4 114 5
f 5 114 115
f 5 115 6
f 6 115 116
f 6 116 7
f 7 116 117
f 7 117 8
f 8 117 118
f 8 118 9
f 9 118 119
f 9 119 10
f 10 119 120
f 10 120 11
f 11 120 121
f 11 121 12
f 12 121 122
f 12 122 13
f 13 122 123
f 13 123 14
f 14 123 124
f 14 124 15
f 15 124 125
f 15 125 16
f 16 125 126
f 16 126 17
f 17 126 127
f 17 127 18
f 18 127 128
f 18 128 19
f 19 128 129
f 19 129 20
f 20 129 130
f 20 130 21
f 21 130 131
f 21 131 22
f 22 131 132
f 22 132 23
f 23 132 133
f 23 133 24
f 24 133 134
f 24 134 25
f 25 134 135
f 25 135 26
f 26 135 136
f 26 136 27
f 27 136 137
f 27 137 28
f 28 137 138
f 28 138 29
f 29 138 139
f 29 139 30
f 30 139 140
f 30 140 31
f 31 140 141
f 31 141 32
f 32 141 142
f 32 142 33
f 33 142 143
f 33 143 34
f 34 143 144
f 34 144 35
f 35 144 145
f 35 145 36
f 36 145 146
f 36 146 37
f 37 146 147
f 37 147 38
f 38 147 148
f 38 148 39
f 39 148 149
f 39 149 40
f 40 149 150
f 40 150 41
f 41 150 151
f 41 151 42
f 42 151 152
f 42 152 43
f 43 152 153
f 43 153 44
f 44 153 154
f 44 154 45
f 45 154 155
f 45 155 46
f 46 155 156
f 46 156 47
f 47 156 157
f 47 157 48
f 48 157 158
f 48 158 49
f 49 158 159
f 49 159 50
f 50 159 160
f 50 160 51
f 51 160 161
f 51 161 52
f 52 161 162
f 52 162 53
f 53 162 163
f 53 163 54
f 54 163 164
f 54 164 55
f 55 164 165
f 55 165 56
f 56 165 166
f 56 166 57
f 57 166 167
f 57 167 58
f 58 167 168
f 58 168 59
f 59 168 169
f 59 169 60
f 60 169 170
f 60 170 61
f 61 170 171
f 61 171 62
f 62 171 172
f 62 172 63
f 63 172 173
f 63 173 64
f 64 173 174
f 64 174 65
f 65 174 175
f 65 175 66
f 66 175 176
f 66 176 67
f 67 176 177
f 67 177 68
f 68 177 178
f 68 178 69
f 69 178 179
f 69 179 70
f 70 179 180
f 70 180 71
f 71 180 181
f 71 181 72
f 72 181 182
f 72 182 73
f 73 182 183
f 73 183 74
f 74 183 184
f 74 184 75
f 75 184 185
f 75 185 76
f 76 185 186
f 76 186 77
f 77 186 187
f 77 187 78
f 78 187 188
f 78 188 79
f 79 188 189
f 79 189 80
f 80 189 190
f 80 190 81
f 81 190 191
f 81 191 82
f 82 191 192
f 82 192 83
f 83 192 193
f 83 193 84
f 84 193 194
f 84 194 85
f 85 194 195
f 85 195 86
f 86 195 196
f 86 196 87
f 87 196 197
f 87 197 88
f 88 197 198
f 88 198 89
f 89 198 199
f 89 199 90
f 90 199 200
f 90 200 91
f 91 200 201
f 91 201 92
f 92 201 202
f 92 202 93
f 93 202 203
f 93 203 94
f 94 203 204
f 94 204 95
f 95 204 205
f 95 205 96
f 96 205 206
f 96 206 97
f 97 206 207
f 97 207 98
f 98 207 208
f 98 208 99
f 99 208 209
f 99 209 100
f 100 209 210
f 100 210 101
f 101 210 211
f 101 211 102
f 102 211 212
f 102 212 103
f 103 212 213
f 103 213 104
f 104 213 214
f 104 214 105
f 105 214 215
f 105 215 106
f 106 215 216
f 106 216 107
f 107 216 217
f 107 217 108
f 108 217 218
f 108 218 109
f 109 218 219
f 109 219 110
f 110 219 220
f 110 220 1
f 220 111 1
f 1 111 2
f 220 219 111
f 111 219 218
f 111 218 217
f 217 216 111
f 111 216 215
f 111 215 214
f 214 213 111
f 111 213 212
f 111 212 211
f 211 210 111
f 111 210 209
f 111 209 208
f 208 207 111
f 111 207 206
f 111 206 205
f 205 204 111
f 111 204 203
f 111 203 202
f 202 201 111
f 111 201 200
f 111 200 199
f 199 198 111
f 111 198 197
f 111 197 196
f 196 195 111
f 111 195 194
f 111 194 193
f 193 192 111
f 111 192 191
f 111 191 190
f 190 189 111
f 111 189 188
f 111 188 187
f 187 186 111
f 111 186 185
f 111 185 184
f 184 183 111
f 111 183 182
f 111 182 181
f 181 180 111
f 111 180 179
f 111 179 178
f 178 177 111
f 111 177 176
f 111 176 175
f 175 174 111
f 111 174 173
f 111 173 172
f 172 171 111
f 111 171 170
f 111 170 169
f 169 168 111
f 111 168 167
f 111 167 166
f 166 165 111
f 111 165 164
f 111 164 163
f 163 162 111
f 111 162 161
f 111 161 160
f 160 159 111
f 111 159 158
f 111 158 157
f 157 156 111
f 111 156 155
f 111 155 154
f 154 153 111
f 111 153 152
f 111 152 151
f 151 150 111
f 111 150 149
f 111 149 148
f 148 147 111
f 111 147 146
f 111 146 145
f 145 144 111
f 111 144 143
f 111 143 142
f 142 141 111
f 111 141 140
f 111 140 139
f 139 138 111
f 111 138 137
f 111 137 136
f 136 135 111
f 111 135 134
f 111 134 133
f 133 132 111
f 111 132 131
f 111 131 130
f 130 129 111
f 111 129 128
f 111 128 127
f 127 126 111
f 111 126 125
f 111 125 112
f 112 125 124
f 112 124 123
f 123 122 112
f 112 122 121
f 112 121 120
f 120 119 112
f 112 119 118
f 112 118 117
f 117 116 112
f 112 116 115
f 112 115 114
f 114 113 112
