# Generated by generate_bionic_fish.py
# Units: meters
# Left pectoral link-local hydrofoil. Origin is left pectoral joint.
o LeftPectoralFin
v 0.052500000 -0.000000000 0.000000006
v 0.051606088 -0.000000000 0.000525929
v 0.048954792 -0.000000000 0.000998219
v 0.044636400 -0.000000000 0.001399167
v 0.038797968 -0.000000000 0.001708490
v 0.031638318 -0.000000000 0.001909894
v 0.023401264 -0.000000000 0.001996316
v 0.014367307 -0.000000000 0.001972109
v 0.004844089 -0.000000000 0.001851795
v -0.004844089 -0.000000000 0.001656469
v -0.014367307 -0.000000000 0.001409684
v -0.023401264 -0.000000000 0.001134465
v -0.031638318 -0.000000000 0.000852188
v -0.038797968 -0.000000000 0.000582922
v -0.044636400 -0.000000000 0.000346056
v -0.048954792 -0.000000000 0.000160080
v -0.051606088 -0.000000000 0.000041021
v -0.052500000 -0.000000000 -0.000000000
v -0.051606088 -0.000000000 -0.000041021
v -0.048954792 -0.000000000 -0.000160080
v -0.044636400 -0.000000000 -0.000346056
v -0.038797968 -0.000000000 -0.000582922
v -0.031638318 -0.000000000 -0.000852188
v -0.023401264 -0.000000000 -0.001134465
v -0.014367307 -0.000000000 -0.001409684
v -0.004844089 -0.000000000 -0.001656469
v 0.004844089 -0.000000000 -0.001851795
v 0.014367307 -0.000000000 -0.001972109
v 0.023401264 -0.000000000 -0.001996316
v 0.031638318 -0.000000000 -0.001909894
v 0.038797968 -0.000000000 -0.001708490
v 0.044636400 -0.000000000 -0.001399167
v 0.048954792 -0.000000000 -0.000998219
v 0.051606088 -0.000000000 -0.000525929
v 0.047854520 -0.007857143 0.000000006
v 0.046991013 -0.007857143 0.000514660
v 0.044429897 -0.007857143 0.000976829
v 0.040258389 -0.007857143 0.001369185
v 0.034618543 -0.007857143 0.001671880
v 0.027702419 -0.007857143 0.001868967
v 0.019745536 -0.007857143 0.001953538
v 0.011018857 -0.007857143 0.001929850
v 0.001819558 -0.007857143 0.001812113
v -0.007539090 -0.007857143 0.001620973
v -0.016738389 -0.007857143 0.001379476
v -0.025465068 -0.007857143 0.001110155
v -0.033421951 -0.007857143 0.000833927
v -0.040338075 -0.007857143 0.000570430
v -0.045977921 -0.007857143 0.000338640
v -0.050149429 -0.007857143 0.000156650
v -0.052710545 -0.007857143 0.000040142
v -0.053574052 -0.007857143 -0.000000000
v -0.052710545 -0.007857143 -0.000040142
v -0.050149429 -0.007857143 -0.000156650
v -0.045977921 -0.007857143 -0.000338640
v -0.040338075 -0.007857143 -0.000570430
v -0.033421951 -0.007857143 -0.000833927
v -0.025465068 -0.007857143 -0.001110155
v -0.016738389 -0.007857143 -0.001379476
v -0.007539090 -0.007857143 -0.001620973
v 0.001819558 -0.007857143 -0.001812113
v 0.011018857 -0.007857143 -0.001929850
v 0.019745536 -0.007857143 -0.001953538
v 0.027702419 -0.007857143 -0.001868967
v 0.034618543 -0.007857143 -0.001671880
v 0.040258389 -0.007857143 -0.001369185
v 0.044429897 -0.007857143 -0.000976829
v 0.046991013 -0.007857143 -0.000514660
v 0.043209039 -0.015714286 0.000000006
v 0.042375937 -0.015714286 0.000503390
v 0.039905002 -0.015714286 0.000955439
v 0.035880378 -0.015714286 0.001339203
v 0.030439118 -0.015714286 0.001635269
v 0.023766520 -0.015714286 0.001828041
v 0.016089809 -0.015714286 0.001910760
v 0.007670407 -0.015714286 0.001887590
v -0.001204973 -0.015714286 0.001772432
v -0.010234091 -0.015714286 0.001585477
v -0.019109471 -0.015714286 0.001349269
v -0.027528873 -0.015714286 0.001085845
v -0.035205584 -0.015714286 0.000815666
v -0.041878183 -0.015714286 0.000557939
v -0.047319442 -0.015714286 0.000331225
v -0.051344066 -0.015714286 0.000153219
v -0.053815002 -0.015714286 0.000039263
v -0.054648104 -0.015714286 -0.000000000
v -0.053815002 -0.015714286 -0.000039263
v -0.051344066 -0.015714286 -0.000153219
v -0.047319442 -0.015714286 -0.000331225
v -0.041878183 -0.015714286 -0.000557939
v -0.035205584 -0.015714286 -0.000815666
v -0.027528873 -0.015714286 -0.001085845
v -0.019109471 -0.015714286 -0.001349269
v -0.010234091 -0.015714286 -0.001585477
v -0.001204973 -0.015714286 -0.001772432
v 0.007670407 -0.015714286 -0.001887590
v 0.016089809 -0.015714286 -0.001910760
v 0.023766520 -0.015714286 -0.001828041
v 0.030439118 -0.015714286 -0.001635269
v 0.035880378 -0.015714286 -0.001339203
v 0.039905002 -0.015714286 -0.000955439
v 0.042375937 -0.015714286 -0.000503390
v 0.038563559 -0.023571429 0.000000006
v 0.037760862 -0.023571429 0.000492120
v 0.035380107 -0.023571429 0.000934048
v 0.031502367 -0.023571429 0.001309221
v 0.026259693 -0.023571429 0.001598659
v 0.019830620 -0.023571429 0.001787115
v 0.012434081 -0.023571429 0.001867981
v 0.004321957 -0.023571429 0.001845331
v -0.004229504 -0.023571429 0.001732751
v -0.012929092 -0.023571429 0.001549981
v -0.021480554 -0.023571429 0.001319061
v -0.029592678 -0.023571429 0.001061535
v -0.036989217 -0.023571429 0.000797405
v -0.043418290 -0.023571429 0.000545448
v -0.048660963 -0.023571429 0.000323809
v -0.052538703 -0.023571429 0.000149789
v -0.054919459 -0.023571429 0.000038384
v -0.055722156 -0.023571429 -0.000000000
v -0.054919459 -0.023571429 -0.000038384
v -0.052538703 -0.023571429 -0.000149789
v -0.048660963 -0.023571429 -0.000323809
v -0.043418290 -0.023571429 -0.000545448
v -0.036989217 -0.023571429 -0.000797405
v -0.029592678 -0.023571429 -0.001061535
v -0.021480554 -0.023571429 -0.001319061
v -0.012929092 -0.023571429 -0.001549981
v -0.004229504 -0.023571429 -0.001732751
v 0.004321957 -0.023571429 -0.001845331
v 0.012434081 -0.023571429 -0.001867981
v 0.019830620 -0.023571429 -0.001787115
v 0.026259693 -0.023571429 -0.001598659
v 0.031502367 -0.023571429 -0.001309221
v 0.035380107 -0.023571429 -0.000934048
v 0.037760862 -0.023571429 -0.000492120
v 0.033918078 -0.031428571 0.000000005
v 0.033145787 -0.031428571 0.000480850
v 0.030855212 -0.031428571 0.000912658
v 0.027124356 -0.031428571 0.001279238
v 0.022080269 -0.031428571 0.001562048
v 0.015894721 -0.031428571 0.001746188
v 0.008778354 -0.031428571 0.001825203
v 0.000973507 -0.031428571 0.001803071
v -0.007254035 -0.031428571 0.001693069
v -0.015624094 -0.031428571 0.001514486
v -0.023851636 -0.031428571 0.001288854
v -0.031656483 -0.031428571 0.001037225
v -0.038772850 -0.031428571 0.000779144
v -0.044958398 -0.031428571 0.000532957
v -0.050002485 -0.031428571 0.000316394
v -0.053733341 -0.031428571 0.000146359
v -0.056023916 -0.031428571 0.000037505
v -0.056796207 -0.031428571 -0.000000000
v -0.056023916 -0.031428571 -0.000037505
v -0.053733341 -0.031428571 -0.000146359
v -0.050002485 -0.031428571 -0.000316394
v -0.044958398 -0.031428571 -0.000532957
v -0.038772850 -0.031428571 -0.000779144
v -0.031656483 -0.031428571 -0.001037225
v -0.023851636 -0.031428571 -0.001288854
v -0.015624094 -0.031428571 -0.001514486
v -0.007254035 -0.031428571 -0.001693069
v 0.000973507 -0.031428571 -0.001803071
v 0.008778354 -0.031428571 -0.001825203
v 0.015894721 -0.031428571 -0.001746188
v 0.022080269 -0.031428571 -0.001562048
v 0.027124356 -0.031428571 -0.001279238
v 0.030855212 -0.031428571 -0.000912658
v 0.033145787 -0.031428571 -0.000480850
v 0.029272598 -0.039285714 0.000000005
v 0.028530712 -0.039285714 0.000469580
v 0.026330317 -0.039285714 0.000891267
v 0.022746345 -0.039285714 0.001249256
v 0.017900844 -0.039285714 0.001525438
v 0.011958821 -0.039285714 0.001705262
v 0.005122626 -0.039285714 0.001782425
v -0.002374943 -0.039285714 0.001760812
v -0.010278566 -0.039285714 0.001653388
v -0.018319095 -0.039285714 0.001478990
v -0.026222718 -0.039285714 0.001258646
v -0.033720288 -0.039285714 0.001012915
v -0.040556483 -0.039285714 0.000760882
v -0.046498505 -0.039285714 0.000520466
v -0.051344006 -0.039285714 0.000308978
v -0.054927978 -0.039285714 0.000142928
v -0.057128373 -0.039285714 0.000036626
v -0.057870259 -0.039285714 -0.000000000
v -0.057128373 -0.039285714 -0.000036626
v -0.054927978 -0.039285714 -0.000142928
v -0.051344006 -0.039285714 -0.000308978
v -0.046498505 -0.039285714 -0.000520466
v -0.040556483 -0.039285714 -0.000760882
v -0.033720288 -0.039285714 -0.001012915
v -0.026222718 -0.039285714 -0.001258646
v -0.018319095 -0.039285714 -0.001478990
v -0.010278566 -0.039285714 -0.001653388
v -0.002374943 -0.039285714 -0.001760812
v 0.005122626 -0.039285714 -0.001782425
v 0.011958821 -0.039285714 -0.001705262
v 0.017900844 -0.039285714 -0.001525438
v 0.022746345 -0.039285714 -0.001249256
v 0.026330317 -0.039285714 -0.000891267
v 0.028530712 -0.039285714 -0.000469580
v 0.024627118 -0.047142857 0.000000005
v 0.023915636 -0.047142857 0.000458310
v 0.021805421 -0.047142857 0.000869877
v 0.018368334 -0.047142857 0.001219274
v 0.013721419 -0.047142857 0.001488827
v 0.008022922 -0.047142857 0.001664336
v 0.001466899 -0.047142857 0.001739647
v -0.005723393 -0.047142857 0.001718552
v -0.013303097 -0.047142857 0.001613707
v -0.021014096 -0.047142857 0.001443494
v -0.028593800 -0.047142857 0.001228439
v -0.035784092 -0.047142857 0.000988605
v -0.042340115 -0.047142857 0.000742621
v -0.048038612 -0.047142857 0.000507975
v -0.052685527 -0.047142857 0.000301563
v -0.056122615 -0.047142857 0.000139498
v -0.058232830 -0.047142857 0.000035747
v -0.058944311 -0.047142857 -0.000000000
v -0.058232830 -0.047142857 -0.000035747
v -0.056122615 -0.047142857 -0.000139498
v -0.052685527 -0.047142857 -0.000301563
v -0.048038612 -0.047142857 -0.000507975
v -0.042340115 -0.047142857 -0.000742621
v -0.035784092 -0.047142857 -0.000988605
v -0.028593800 -0.047142857 -0.001228439
v -0.021014096 -0.047142857 -0.001443494
v -0.013303097 -0.047142857 -0.001613707
v -0.005723393 -0.047142857 -0.001718552
v 0.001466899 -0.047142857 -0.001739647
v 0.008022922 -0.047142857 -0.001664336
v 0.013721419 -0.047142857 -0.001488827
v 0.018368334 -0.047142857 -0.001219274
v 0.021805421 -0.047142857 -0.000869877
v 0.023915636 -0.047142857 -0.000458310
v 0.019981637 -0.055000000 0.000000005
v 0.019300561 -0.055000000 0.000447040
v 0.017280526 -0.055000000 0.000848486
v 0.013990323 -0.055000000 0.001189292
v 0.009541994 -0.055000000 0.001452217
v 0.004087023 -0.055000000 0.001623409
v -0.002188829 -0.055000000 0.001696869
v -0.009071843 -0.055000000 0.001676293
v -0.016327629 -0.055000000 0.001574025
v -0.023709097 -0.055000000 0.001407998
v -0.030964882 -0.055000000 0.001198231
v -0.037847897 -0.055000000 0.000964295
v -0.044123748 -0.055000000 0.000724360
v -0.049578720 -0.055000000 0.000495483
v -0.054027048 -0.055000000 0.000294147
v -0.057317252 -0.055000000 0.000136068
v -0.059337287 -0.055000000 0.000034868
v -0.060018363 -0.055000000 -0.000000000
v -0.059337287 -0.055000000 -0.000034868
v -0.057317252 -0.055000000 -0.000136068
v -0.054027048 -0.055000000 -0.000294147
v -0.049578720 -0.055000000 -0.000495483
v -0.044123748 -0.055000000 -0.000724360
v -0.037847897 -0.055000000 -0.000964295
v -0.030964882 -0.055000000 -0.001198231
v -0.023709097 -0.055000000 -0.001407998
v -0.016327629 -0.055000000 -0.001574025
v -0.009071843 -0.055000000 -0.001676293
v -0.002188829 -0.055000000 -0.001696869
v 0.004087023 -0.055000000 -0.001623409
v 0.009541994 -0.055000000 -0.001452217
v 0.013990323 -0.055000000 -0.001189292
v 0.017280526 -0.055000000 -0.000848486
v 0.019300561 -0.055000000 -0.000447040
v 0.015336157 -0.062857143 0.000000005
v 0.014685486 -0.062857143 0.000435770
v 0.012755631 -0.062857143 0.000827096
v 0.009612312 -0.062857143 0.001159310
v 0.005362569 -0.062857143 0.001415606
v 0.000151123 -0.062857143 0.001582483
v -0.005844556 -0.062857143 0.001654090
v -0.012420293 -0.062857143 0.001634033
v -0.019352160 -0.062857143 0.001534344
v -0.026404098 -0.062857143 0.001372503
v -0.033335965 -0.062857143 0.001168024
v -0.039911702 -0.062857143 0.000939985
v -0.045907381 -0.062857143 0.000706099
v -0.051118827 -0.062857143 0.000482992
v -0.055368570 -0.062857143 0.000286732
v -0.058511889 -0.062857143 0.000132638
v -0.060441744 -0.062857143 0.000033989
v -0.061092415 -0.062857143 -0.000000000
v -0.060441744 -0.062857143 -0.000033989
v -0.058511889 -0.062857143 -0.000132638
v -0.055368570 -0.062857143 -0.000286732
v -0.051118827 -0.062857143 -0.000482992
v -0.045907381 -0.062857143 -0.000706099
v -0.039911702 -0.062857143 -0.000939985
v -0.033335965 -0.062857143 -0.001168024
v -0.026404098 -0.062857143 -0.001372503
v -0.019352160 -0.062857143 -0.001534344
v -0.012420293 -0.062857143 -0.001634033
v -0.005844556 -0.062857143 -0.001654090
v 0.000151123 -0.062857143 -0.001582483
v 0.005362569 -0.062857143 -0.001415606
v 0.009612312 -0.062857143 -0.001159310
v 0.012755631 -0.062857143 -0.000827096
v 0.014685486 -0.062857143 -0.000435770
v 0.010690676 -0.070714286 0.000000005
v 0.010070411 -0.070714286 0.000424500
v 0.008230736 -0.070714286 0.000805706
v 0.005234301 -0.070714286 0.001129328
v 0.001183144 -0.070714286 0.001378996
v -0.003784776 -0.070714286 0.001541557
v -0.009500284 -0.070714286 0.001611312
v -0.015768743 -0.070714286 0.001591774
v -0.022376691 -0.070714286 0.001494663
v -0.029099100 -0.070714286 0.001337007
v -0.035707047 -0.070714286 0.001137816
v -0.041975507 -0.070714286 0.000915675
v -0.047691014 -0.070714286 0.000687838
v -0.052658934 -0.070714286 0.000470501
v -0.056710091 -0.070714286 0.000279316
v -0.059706526 -0.070714286 0.000129207
v -0.061546201 -0.070714286 0.000033110
v -0.062166467 -0.070714286 -0.000000000
v -0.061546201 -0.070714286 -0.000033110
v -0.059706526 -0.070714286 -0.000129207
v -0.056710091 -0.070714286 -0.000279316
v -0.052658934 -0.070714286 -0.000470501
v -0.047691014 -0.070714286 -0.000687838
v -0.041975507 -0.070714286 -0.000915675
v -0.035707047 -0.070714286 -0.001137816
v -0.029099100 -0.070714286 -0.001337007
v -0.022376691 -0.070714286 -0.001494663
v -0.015768743 -0.070714286 -0.001591774
v -0.009500284 -0.070714286 -0.001611312
v -0.003784776 -0.070714286 -0.001541557
v 0.001183144 -0.070714286 -0.001378996
v 0.005234301 -0.070714286 -0.001129328
v 0.008230736 -0.070714286 -0.000805706
v 0.010070411 -0.070714286 -0.000424500
v 0.006045196 -0.078571429 0.000000005
v 0.005455335 -0.078571429 0.000413230
v 0.003705841 -0.078571429 0.000784315
v 0.000856290 -0.078571429 0.001099346
v -0.002996281 -0.078571429 0.001342385
v -0.007720676 -0.078571429 0.001500631
v -0.013156011 -0.078571429 0.001568534
v -0.019117193 -0.078571429 0.001549514
v -0.025401222 -0.078571429 0.001454981
v -0.031794101 -0.078571429 0.001301511
v -0.038078129 -0.078571429 0.001107609
v -0.044039311 -0.078571429 0.000891365
v -0.049474647 -0.078571429 0.000669577
v -0.054199042 -0.078571429 0.000458010
v -0.058051612 -0.078571429 0.000271901
v -0.060901163 -0.078571429 0.000125777
v -0.062650658 -0.078571429 0.000032231
v -0.063240518 -0.078571429 -0.000000000
v -0.062650658 -0.078571429 -0.000032231
v -0.060901163 -0.078571429 -0.000125777
v -0.058051612 -0.078571429 -0.000271901
v -0.054199042 -0.078571429 -0.000458010
v -0.049474647 -0.078571429 -0.000669577
v -0.044039311 -0.078571429 -0.000891365
v -0.038078129 -0.078571429 -0.001107609
v -0.031794101 -0.078571429 -0.001301511
v -0.025401222 -0.078571429 -0.001454981
v -0.019117193 -0.078571429 -0.001549514
v -0.013156011 -0.078571429 -0.001568534
v -0.007720676 -0.078571429 -0.001500631
v -0.002996281 -0.078571429 -0.001342385
v 0.000856290 -0.078571429 -0.001099346
v 0.003705841 -0.078571429 -0.000784315
v 0.005455335 -0.078571429 -0.000413230
v 0.001399715 -0.086428571 0.000000005
v 0.000840260 -0.086428571 0.000401960
v -0.000819054 -0.086428571 0.000762925
v -0.003521722 -0.086428571 0.001069363
v -0.007175706 -0.086428571 0.001305775
v -0.011656575 -0.086428571 0.001459704
v -0.016811739 -0.086428571 0.001525756
v -0.022465643 -0.086428571 0.001507255
v -0.028425753 -0.086428571 0.001415300
v -0.034489102 -0.086428571 0.001266015
v -0.040449211 -0.086428571 0.001077401
v -0.046103116 -0.086428571 0.000867055
v -0.051258280 -0.086428571 0.000651315
v -0.055739149 -0.086428571 0.000445519
v -0.059393133 -0.086428571 0.000264485
v -0.062095801 -0.086428571 0.000122347
v -0.063755115 -0.086428571 0.000031352
v -0.064314570 -0.086428571 -0.000000000
v -0.063755115 -0.086428571 -0.000031352
v -0.062095801 -0.086428571 -0.000122347
v -0.059393133 -0.086428571 -0.000264485
v -0.055739149 -0.086428571 -0.000445519
v -0.051258280 -0.086428571 -0.000651315
v -0.046103116 -0.086428571 -0.000867055
v -0.040449211 -0.086428571 -0.001077401
v -0.034489102 -0.086428571 -0.001266015
v -0.028425753 -0.086428571 -0.001415300
v -0.022465643 -0.086428571 -0.001507255
v -0.016811739 -0.086428571 -0.001525756
v -0.011656575 -0.086428571 -0.001459704
v -0.007175706 -0.086428571 -0.001305775
v -0.003521722 -0.086428571 -0.001069363
v -0.000819054 -0.086428571 -0.000762925
v 0.000840260 -0.086428571 -0.000401960
v -0.003245765 -0.094285714 0.000000004
v -0.003774815 -0.094285714 0.000390690
v -0.005343949 -0.094285714 0.000741534
v -0.007899733 -0.094285714 0.001039381
v -0.011355131 -0.094285714 0.001269164
v -0.015592474 -0.094285714 0.001418778
v -0.020467466 -0.094285714 0.001482978
v -0.025814093 -0.094285714 0.001464995
v -0.031450284 -0.094285714 0.001375619
v -0.037184103 -0.094285714 0.001230520
v -0.042820294 -0.094285714 0.001047194
v -0.048166921 -0.094285714 0.000842745
v -0.053041913 -0.094285714 0.000633054
v -0.057279256 -0.094285714 0.000433027
v -0.060734655 -0.094285714 0.000257070
v -0.063290438 -0.094285714 0.000118916
v -0.064859572 -0.094285714 0.000030473
v -0.065388622 -0.094285714 -0.000000000
v -0.064859572 -0.094285714 -0.000030473
v -0.063290438 -0.094285714 -0.000118916
v -0.060734655 -0.094285714 -0.000257070
v -0.057279256 -0.094285714 -0.000433027
v -0.053041913 -0.094285714 -0.000633054
v -0.048166921 -0.094285714 -0.000842745
v -0.042820294 -0.094285714 -0.001047194
v -0.037184103 -0.094285714 -0.001230520
v -0.031450284 -0.094285714 -0.001375619
v -0.025814093 -0.094285714 -0.001464995
v -0.020467466 -0.094285714 -0.001482978
v -0.015592474 -0.094285714 -0.001418778
v -0.011355131 -0.094285714 -0.001269164
v -0.007899733 -0.094285714 -0.001039381
v -0.005343949 -0.094285714 -0.000741534
v -0.003774815 -0.094285714 -0.000390690
v -0.007891245 -0.102142857 0.000000004
v -0.008389890 -0.102142857 0.000379421
v -0.009868844 -0.102142857 0.000720144
v -0.012277744 -0.102142857 0.001009399
v -0.015534556 -0.102142857 0.001232554
v -0.019528374 -0.102142857 0.001377852
v -0.024123194 -0.102142857 0.001440199
v -0.029162544 -0.102142857 0.001422736
v -0.034474815 -0.102142857 0.001335938
v -0.039879104 -0.102142857 0.001195024
v -0.045191376 -0.102142857 0.001016986
v -0.050230726 -0.102142857 0.000818435
v -0.054825545 -0.102142857 0.000614793
v -0.058819364 -0.102142857 0.000420536
v -0.062076176 -0.102142857 0.000249654
v -0.064485075 -0.102142857 0.000115486
v -0.065964029 -0.102142857 0.000029594
v -0.066462674 -0.102142857 -0.000000000
v -0.065964029 -0.102142857 -0.000029594
v -0.064485075 -0.102142857 -0.000115486
v -0.062076176 -0.102142857 -0.000249654
v -0.058819364 -0.102142857 -0.000420536
v -0.054825545 -0.102142857 -0.000614793
v -0.050230726 -0.102142857 -0.000818435
v -0.045191376 -0.102142857 -0.001016986
v -0.039879104 -0.102142857 -0.001195024
v -0.034474815 -0.102142857 -0.001335938
v -0.029162544 -0.102142857 -0.001422736
v -0.024123194 -0.102142857 -0.001440199
v -0.019528374 -0.102142857 -0.001377852
v -0.015534556 -0.102142857 -0.001232554
v -0.012277744 -0.102142857 -0.001009399
v -0.009868844 -0.102142857 -0.000720144
v -0.008389890 -0.102142857 -0.000379421
v -0.012536726 -0.110000000 0.000000004
v -0.013004966 -0.110000000 0.000368151
v -0.014393739 -0.110000000 0.000698754
v -0.016655755 -0.110000000 0.000979417
v -0.019713981 -0.110000000 0.001195943
v -0.023464273 -0.110000000 0.001336925
v -0.027778921 -0.110000000 0.001397421
v -0.032510994 -0.110000000 0.001380476
v -0.037499346 -0.110000000 0.001296256
v -0.042574106 -0.110000000 0.001159528
v -0.047562458 -0.110000000 0.000986779
v -0.052294531 -0.110000000 0.000794125
v -0.056609178 -0.110000000 0.000596532
v -0.060359471 -0.110000000 0.000408045
v -0.063417697 -0.110000000 0.000242239
v -0.065679712 -0.110000000 0.000112056
v -0.067068486 -0.110000000 0.000028715
v -0.067536726 -0.110000000 -0.000000000
v -0.067068486 -0.110000000 -0.000028715
v -0.065679712 -0.110000000 -0.000112056
v -0.063417697 -0.110000000 -0.000242239
v -0.060359471 -0.110000000 -0.000408045
v -0.056609178 -0.110000000 -0.000596532
v -0.052294531 -0.110000000 -0.000794125
v -0.047562458 -0.110000000 -0.000986779
v -0.042574106 -0.110000000 -0.001159528
v -0.037499346 -0.110000000 -0.001296256
v -0.032510994 -0.110000000 -0.001380476
v -0.027778921 -0.110000000 -0.001397421
v -0.023464273 -0.110000000 -0.001336925
v -0.019713981 -0.110000000 -0.001195943
v -0.016655755 -0.110000000 -0.000979417
v -0.014393739 -0.110000000 -0.000698754
v -0.013004966 -0.110000000 -0.000368151
v 0.000000000 0.000000000 0.000000000
v -0.040036726 -0.110000000 0.000000000
f 1 36 35
f 1 2 36
f 2 37 36
f 2 3 37
f 3 38 37
f 3 4 38
f 4 39 38
f 4 5 39
f 5 40 39
f 5 6 40
f 6 41 40
f 6 7 41
f 7 42 41
f 7 8 42
f 8 43 42
f 8 9 43
f 9 44 43
f 9 10 44
f 10 45 44
f 10 11 45
f 11 46 45
f 11 12 46
f 12 47 46
f 12 13 47
f 13 48 47
f 13 14 48
f 14 49 48
f 14 15 49
f 15 50 49
f 15 16 50
f 16 51 50
f 16 17 51
f 17 52 51
f 17 18 52
f 18 53 52
f 18 19 53
f 19 54 53
f 19 20 54
f 20 55 54
f 20 21 55
f 21 56 55
f 21 22 56
f 22 57 56
f 22 23 57
f 23 58 57
f 23 24 58
f 24 59 58
f 24 25 59
f 25 60 59
f 25 26 60
f 26 61 60
f 26 27 61
f 27 62 61
f 27 28 62
f 28 63 62
f 28 29 63
f 29 64 63
f 29 30 64
f 30 65 64
f 30 31 65
f 31 66 65
f 31 32 66
f 32 67 66
f 32 33 67
f 33 68 67
f 33 34 68
f 34 35 68
f 34 1 35
f 35 70 69
f 35 36 70
f 36 71 70
f 36 37 71
f 37 72 71
f 37 38 72
f 38 73 72
f 38 39 73
f 39 74 73
f 39 40 74
f 40 75 74
f 40 41 75
f 41 76 75
f 41 42 76
f 42 77 76
f 42 43 77
f 43 78 77
f 43 44 78
f 44 79 78
f 44 45 79
f 45 80 79
f 45 46 80
f 46 81 80
f 46 47 81
f 47 82 81
f 47 48 82
f 48 83 82
f 48 49 83
f 49 84 83
f 49 50 84
f 50 85 84
f 50 51 85
f 51 86 85
f 51 52 86
f 52 87 86
f 52 53 87
f 53 88 87
f 53 54 88
f 54 89 88
f 54 55 89
f 55 90 89
f 55 56 90
f 56 91 90
f 56 57 91
f 57 92 91
f 57 58 92
f 58 93 92
f 58 59 93
f 59 94 93
f 59 60 94
f 60 95 94
f 60 61 95
f 61 96 95
f 61 62 96
f 62 97 96
f 62 63 97
f 63 98 97
f 63 64 98
f 64 99 98
f 64 65 99
f 65 100 99
f 65 66 100
f 66 101 100
f 66 67 101
f 67 102 101
f 67 68 102
f 68 69 102
f 68 35 69
f 69 104 103
f 69 70 104
f 70 105 104
f 70 71 105
f 71 106 105
f 71 72 106
f 72 107 106
f 72 73 107
f 73 108 107
f 73 74 108
f 74 109 108
f 74 75 109
f 75 110 109
f 75 76 110
f 76 111 110
f 76 77 111
f 77 112 111
f 77 78 112
f 78 113 112
f 78 79 113
f 79 114 113
f 79 80 114
f 80 115 114
f 80 81 115
f 81 116 115
f 81 82 116
f 82 117 116
f 82 83 117
f 83 118 117
f 83 84 118
f 84 119 118
f 84 85 119
f 85 120 119
f 85 86 120
f 86 121 120
f 86 87 121
f 87 122 121
f 87 88 122
f 88 123 122
f 88 89 123
f 89 124 123
f 89 90 124
f 90 125 124
f 90 91 125
f 91 126 125
f 91 92 126
f 92 127 126
f 92 93 127
f 93 128 127
f 93 94 128
f 94 129 128
f 94 95 129
f 95 130 129
f 95 96 130
f 96 131 130
f 96 97 131
f 97 132 131
f 97 98 132
f 98 133 132
f 98 99 133
f 99 134 133
f 99 100 134
f 100 135 134
f 100 101 135
f 101 136 135
f 101 102 136
f 102 103 136
f 102 69 103
f 103 138 137
f 103 104 138
f 104 139 138
f 104 105 139
f 105 140 139
f 105 106 140
f 106 141 140
f 106 107 141
f 107 142 141
f 107 108 142
f 108 143 142
f 108 109 143
f 109 144 143
f 109 110 144
f 110 145 144
f 110 111 145
f 111 146 145
f 111 112 146
f 112 147 146
f 112 113 147
f 113 148 147
f 113 114 148
f 114 149 148
f 114 115 149
f 115 150 149
f 115 116 150
f 116 151 150
f 116 117 151
f 117 152 151
f 117 118 152
f 118 153 152
f 118 119 153
f 119 154 153
f 119 120 154
f 120 155 154
f 120 121 155
f 121 156 155
f 121 122 156
f 122 157 156
f 122 123 157
f 123 158 157
f 123 124 158
f 124 159 158
f 124 125 159
f 125 160 159
f 125 126 160
f 126 161 160
f 126 127 161
f 127 162 161
f 127 128 162
f 128 163 162
f 128 129 163
f 129 164 163
f 129 130 164
f 130 165 164
f 130 131 165
f 131 166 165
f 131 132 166
f 132 167 166
f 132 133 167
f 133 168 167
f 133 134 168
f 134 169 168
f 134 135 169
f 135 170 169
f 135 136 170
f 136 137 170
f 136 103 137
f 137 172 171
f 137 138 172
f 138 173 172
f 138 139 173
f 139 174 173
f 139 140 174
f 140 175 174
f 140 141 175
f 141 176 175
f 141 142 176
f 142 177 176
f 142 143 177
f 143 178 177
f 143 144 178
f 144 179 178
f 144 145 179
f 145 180 179
f 145 146 180
f 146 181 180
f 146 147 181
f 147 182 181
f 147 148 182
f 148 183 182
f 148 149 183
f 149 184 183
f 149 150 184
f 150 185 184
f 150 151 185
f 151 186 185
f 151 152 186
f 152 187 186
f 152 153 187
f 153 188 187
f 153 154 188
f 154 189 188
f 154 155 189
f 155 190 189
f 155 156 190
f 156 191 190
f 156 157 191
f 157 192 191
f 157 158 192
f 158 193 192
f 158 159 193
f 159 194 193
f 159 160 194
f 160 195 194
f 160 161 195
f 161 196 195
f 161 162 196
f 162 197 196
f 162 163 197
f 163 198 197
f 163 164 198
f 164 199 198
f 164 165 199
f 165 200 199
f 165 166 200
f 166 201 200
f 166 167 201
f 167 202 201
f 167 168 202
f 168 203 202
f 168 169 203
f 169 204 203
f 169 170 204
f 170 171 204
f 170 137 171
f 171 206 205
f 171 172 206
f 172 207 206
f 172 173 207
f 173 208 207
f 173 174 208
f 174 209 208
f 174 175 209
f 175 210 209
f 175 176 210
f 176 211 210
f 176 177 211
f 177 212 211
f 177 178 212
f 178 213 212
f 178 179 213
f 179 214 213
f 179 180 214
f 180 215 214
f 180 181 215
f 181 216 215
f 181 182 216
f 182 217 216
f 182 183 217
f 183 218 217
f 183 184 218
f 184 219 218
f 184 185 219
f 185 220 219
f 185 186 220
f 186 221 220
f 186 187 221
f 187 222 221
f 187 188 222
f 188 223 222
f 188 189 223
f 189 224 223
f 189 190 224
f 190 225 224
f 190 191 225
f 191 226 225
f 191 192 226
f 192 227 226
f 192 193 227
f 193 228 227
f 193 194 228
f 194 229 228
f 194 195 229
f 195 230 229
f 195 196 230
f 196 231 230
f 196 197 231
f 197 232 231
f 197 198 232
f 198 233 232
f 198 199 233
f 199 234 233
f 199 200 234
f 200 235 234
f 200 201 235
f 201 236 235
f 201 202 236
f 202 237 236
f 202 203 237
f 203 238 237
f 203 204 238
f 204 205 238
f 204 171 205
f 205 240 239
f 205 206 240
f 206 241 240
f 206 207 241
f 207 242 241
f 207 208 242
f 208 243 242
f 208 209 243
f 209 244 243
f 209 210 244
f 210 245 244
f 210 211 245
f 211 246 245
f 211 212 246
f 212 247 246
f 212 213 247
f 213 248 247
f 213 214 248
f 214 249 248
f 214 215 249
f 215 250 249
f 215 216 250
f 216 251 250
f 216 217 251
f 217 252 251
f 217 218 252
f 218 253 252
f 218 219 253
f 219 254 253
f 219 220 254
f 220 255 254
f 220 221 255
f 221 256 255
f 221 222 256
f 222 257 256
f 222 223 257
f 223 258 257
f 223 224 258
f 224 259 258
f 224 225 259
f 225 260 259
f 225 226 260
f 226 261 260
f 226 227 261
f 227 262 261
f 227 228 262
f 228 263 262
f 228 229 263
f 229 264 263
f 229 230 264
f 230 265 264
f 230 231 265
f 231 266 265
f 231 232 266
f 232 267 266
f 232 233 267
f 233 268 267
f 233 234 268
f 234 269 268
f 234 235 269
f 235 270 269
f 235 236 270
f 236 271 270
f 236 237 271
f 237 272 271
f 237 238 272
f 238 239 272
f 238 205 239
f 239 274 273
f 239 240 274
f 240 275 274
f 240 241 275
f 241 276 275
f 241 242 276
f 242 277 276
f 242 243 277
f 243 278 277
f 243 244 278
f 244 279 278
f 244 245 279
f 245 280 279
f 245 246 280
f 246 281 280
f 246 247 281
f 247 282 281
f 247 248 282
f 248 283 282
f 248 249 283
f 249 284 283
f 249 250 284
f 250 285 284
f 250 251 285
f 251 286 285
f 251 252 286
f 252 287 286
f 252 253 287
f 253 288 287
f 253 254 288
f 254 289 288
f 254 255 289
f 255 290 289
f 255 256 290
f 256 291 290
f 256 257 291
f 257 292 291
f 257 258 292
f 258 293 292
f 258 259 293
f 259 294 293
f 259 260 294
f 260 295 294
f 260 261 295
f 261 296 295
f 261 262 296
f 262 297 296
f 262 263 297
f 263 298 297
f 263 264 298
f 264 299 298
f 264 265 299
f 265 300 299
f 265 266 300
f 266 301 300
f 266 267 301
f 267 302 301
f 267 268 302
f 268 303 302
f 268 269 303
f 269 304 303
f 269 270 304
f 270 305 304
f 270 271 305
f 271 306 305
f 271 272 306
f 272 273 306
f 272 239 273
f 273 308 307
f 273 274 308
f 274 309 308
f 274 275 309
f 275 310 309
f 275 276 310
f 276 311 310
f 276 277 311
f 277 312 311
f 277 278 312
f 278 313 312
f 278 279 313
f 279 314 313
f 279 280 314
f 280 315 314
f 280 281 315
f 281 316 315
f 281 282 316
f 282 317 316
f 282 283 317
f 283 318 317
f 283 284 318
f 284 319 318
f 284 285 319
f 285 320 319
f 285 286 320
f 286 321 320
f 286 287 321
f 287 322 321
f 287 288 322
f 288 323 322
f 288 289 323
f 289 324 323
f 289 290 324
f 290 325 324
f 290 291 325
f 291 326 325
f 291 292 326
f 292 327 326
f 292 293 327
f 293 328 327
f 293 294 328
f 294 329 328
f 294 295 329
f 295 330 329
f 295 296 330
f 296 331 330
f 296 297 331
f 297 332 331
f 297 298 332
f 298 333 332
f 298 299 333
f 299 334 333
f 299 300 334
f 300 335 334
f 300 301 335
f 301 336 335
f 301 302 336
f 302 337 336
f 302 303 337
f 303 338 337
f 303 304 338
f 304 339 338
f 304 305 339
f 305 340 339
f 305 306 340
f 306 307 340
f 306 273 307
f 307 342 341
f 307 308 342
f 308 343 342
f 308 309 343
f 309 344 343
f 309 310 344
f 310 345 344
f 310 311 345
f 311 346 345
f 311 312 346
f 312 347 346
f 312 313 347
f 313 348 347
f 313 314 348
f 314 349 348
f 314 315 349
f 315 350 349
f 315 316 350
f 316 351 350
f 316 317 351
f 317 352 351
f 317 318 352
f 318 353 352
f 318 319 353
f 319 354 353
f 319 320 354
f 320 355 354
f 320 321 355
f 321 356 355
f 321 322 356
f 322 357 356
f 322 323 357
f 323 358 357
f 323 324 358
f 324 359 358
f 324 325 359
f 325 360 359
f 325 326 360
f 326 361 360
f 326 327 361
f 327 362 361
f 327 328 362
f 328 363 362
f 328 329 363
f 329 364 363
f 329 330 364
f 330 365 364
f 330 331 365
f 331 366 365
f 331 332 366
f 332 367 366
f 332 333 367
f 333 368 367
f 333 334 368
f 334 369 368
f 334 335 369
f 335 370 369
f 335 336 370
f 336 371 370
f 336 337 371
f 337 372 371
f 337 338 372
f 338 373 372
f 338 339 373
f 339 374 373
f 339 340 374
f 340 341 374
f 340 307 341
f 341 376 375
f 341 342 376
f 342 377 376
f 342 343 377
f 343 378 377
f 343 344 378
f 344 379 378
f 344 345 379
f 345 380 379
f 345 346 380
f 346 381 380
f 346 347 381
f 347 382 381
f 347 348 382
f 348 383 382
f 348 349 383
f 349 384 383
f 349 350 384
f 350 385 384
f 350 351 385
f 351 386 385
f 351 352 386
f 352 387 386
f 352 353 387
f 353 388 387
f 353 354 388
f 354 389 388
f 354 355 389
f 355 390 389
f 355 356 390
f 356 391 390
f 356 357 391
f 357 392 391
f 357 358 392
f 358 393 392
f 358 359 393
f 359 394 393
f 359 360 394
f 360 395 394
f 360 361 395
f 361 396 395
f 361 362 396
f 362 397 396
f 362 363 397
f 363 398 397
f 363 364 398
f 364 399 398
f 364 365 399
f 365 400 399
f 365 366 400
f 366 401 400
f 366 367 401
f 367 402 401
f 367 368 402
f 368 403 402
f 368 369 403
f 369 404 403
f 369 370 404
f 370 405 404
f 370 371 405
f 371 406 405
f 371 372 406
f 372 407 406
f 372 373 407
f 373 408 407
f 373 374 408
f 374 375 408
f 374 341 375
f 375 410 409
f 375 376 410
f 376 411 410
f 376 377 411
f 377 412 411
f 377 378 412
f 378 413 412
f 378 379 413
f 379 414 413
f 379 380 414
f 380 415 414
f 380 381 415
f 381 416 415
f 381 382 416
f 382 417 416
f 382 383 417
f 383 418 417
f 383 384 418
f 384 419 418
f 384 385 419
f 385 420 419
f 385 386 420
f 386 421 420
f 386 387 421
f 387 422 421
f 387 388 422
f 388 423 422
f 388 389 423
f 389 424 423
f 389 390 424
f 390 425 424
f 390 391 425
f 391 426 425
f 391 392 426
f 392 427 426
f 392 393 427
f 393 428 427
f 393 394 428
f 394 429 428
f 394 395 429
f 395 430 429
f 395 396 430
f 396 431 430
f 396 397 431
f 397 432 431
f 397 398 432
f 398 433 432
f 398 399 433
f 399 434 433
f 399 400 434
f 400 435 434
f 400 401 435
f 401 436 435
f 401 402 436
f 402 437 436
f 402 403 437
f 403 438 437
f 403 404 438
f 404 439 438
f 404 405 439
f 405 440 439
f 405 406 440
f 406 441 440
f 406 407 441
f 407 442 441
f 407 408 442
f 408 409 442
f 408 375 409
f 409 444 443
f 409 410 444
f 410 445 444
f 410 411 445
f 411 446 445
f 411 412 446
f 412 447 446
f 412 413 447
f 413 448 447
f 413 414 448
f 414 449 448
f 414 415 449
f 415 450 449
f 415 416 450
f 416 451 450
f 416 417 451
f 417 452 451
f 417 418 452
f 418 453 452
f 418 419 453
f 419 454 453
f 419 420 454
f 420 455 454
f 420 421 455
f 421 456 455
f 421 422 456
f 422 457 456
f 422 423 457
f 423 458 457
f 423 424 458
f 424 459 458
f 424 425 459
f 425 460 459
f 425 426 460
f 426 461 460
f 426 427 461
f 427 462 461
f 427 428 462
f 428 463 462
f 428 429 463
f 429 464 463
f 429 430 464
f 430 465 464
f 430 431 465
f 431 466 465
f 431 432 466
f 432 467 466
f 432 433 467
f 433 468 467
f 433 434 468
f 434 469 468
f 434 435 469
f 435 470 469
f 435 436 470
f 436 471 470
f 436 437 471
f 437 472 471
f 437 438 472
f 438 473 472
f 438 439 473
f 439 474 473
f 439 440 474
f 440 475 474
f 440 441 475
f 441 476 475
f 441 442 476
f 442 443 476
f 442 409 443
f 443 478 477
f 443 444 478
f 444 479 478
f 444 445 479
f 445 480 479
f 445 446 480
f 446 481 480
f 446 447 481
f 447 482 481
f 447 448 482
f 448 483 482
f 448 449 483
f 449 484 483
f 449 450 484
f 450 485 484
f 450 451 485
f 451 486 485
f 451 452 486
f 452 487 486
f 452 453 487
f 453 488 487
f 453 454 488
f 454 489 488
f 454 455 489
f 455 490 489
f 455 456 490
f 456 491 490
f 456 457 491
f 457 492 491
f 457 458 492
f 458 493 492
f 458 459 493
f 459 494 493
f 459 460 494
f 460 495 494
f 460 461 495
f 461 496 495
f 461 462 496
f 462 497 496
f 462 463 497
f 463 498 497
f 463 464 498
f 464 499 498
f 464 465 499
f 465 500 499
f 465 466 500
f 466 501 500
f 466 467 501
f 467 502 501
f 467 468 502
f 468 503 502
f 468 469 503
f 469 504 503
f 469 470 504
f 470 505 504
f 470 471 505
f 471 506 505
f 471 472 506
f 472 507 506
f 472 473 507
f 473 508 507
f 473 474 508
f 474 509 508
f 474 475 509
f 475 510 509
f 475 476 510
f 476 477 510
f 476 443 477
f 511 2 1
f 511 3 2
f 511 4 3
f 511 5 4
f 511 6 5
f 511 7 6
f 511 8 7
f 511 9 8
f 511 10 9
f 511 11 10
f 511 12 11
f 511 13 12
f 511 14 13
f 511 15 14
f 511 16 15
f 511 17 16
f 511 18 17
f 511 19 18
f 511 20 19
f 511 21 20
f 511 22 21
f 511 23 22
f 511 24 23
f 511 25 24
f 511 26 25
f 511 27 26
f 511 28 27
f 511 29 28
f 511 30 29
f 511 31 30
f 511 32 31
f 511 33 32
f 511 34 33
f 511 1 34
f 512 477 478
f 512 478 479
f 512 479 480
f 512 480 481
f 512 481 482
f 512 482 483
f 512 483 484
f 512 484 485
f 512 485 486
f 512 486 487
f 512 487 488
f 512 488 489
f 512 489 490
f 512 490 491
f 512 491 492
f 512 492 493
f 512 493 494
f 512 494 495
f 512 495 496
f 512 496 497
f 512 497 498
f 512 498 499
f 512 499 500
f 512 500 501
f 512 501 502
f 512 502 503
f 512 503 504
f 512 504 505
f 512 505 506
f 512 506 507
f 512 507 508
f 512 508 509
f 512 509 510
f 512 510 477
