# Generated by generate_bionic_fish.py
# Units: meters
# Right pectoral link-local hydrofoil. Origin is right pectoral joint.
o RightPectoralFin
v 0.052500000 0.000000000 0.000000006
v 0.051606088 0.000000000 0.000525929
v 0.048954792 0.000000000 0.000998219
v 0.044636400 0.000000000 0.001399167
v 0.038797968 0.000000000 0.001708490
v 0.031638318 0.000000000 0.001909894
v 0.023401264 0.000000000 0.001996316
v 0.014367307 0.000000000 0.001972109
v 0.004844089 0.000000000 0.001851795
v -0.004844089 0.000000000 0.001656469
v -0.014367307 0.000000000 0.001409684
v -0.023401264 0.000000000 0.001134465
v -0.031638318 0.000000000 0.000852188
v -0.038797968 0.000000000 0.000582922
v -0.044636400 0.000000000 0.000346056
v -0.048954792 0.000000000 0.000160080
v -0.051606088 0.000000000 0.000041021
v -0.052500000 0.000000000 -0.000000000
v -0.051606088 0.000000000 -0.000041021
v -0.048954792 0.000000000 -0.000160080
v -0.044636400 0.000000000 -0.000346056
v -0.038797968 0.000000000 -0.000582922
v -0.031638318 0.000000000 -0.000852188
v -0.023401264 0.000000000 -0.001134465
v -0.014367307 0.000000000 -0.001409684
v -0.004844089 0.000000000 -0.001656469
v 0.004844089 0.000000000 -0.001851795
v 0.014367307 0.000000000 -0.001972109
v 0.023401264 0.000000000 -0.001996316
v 0.031638318 0.000000000 -0.001909894
v 0.038797968 0.000000000 -0.001708490
v 0.044636400 0.000000000 -0.001399167
v 0.048954792 0.000000000 -0.000998219
v 0.051606088 0.000000000 -0.000525929
v 0.047854520 0.007857143 0.000000006
v 0.046991013 0.007857143 0.000514660
v 0.044429897 0.007857143 0.000976829
v 0.040258389 0.007857143 0.001369185
v 0.034618543 0.007857143 0.001671880
v 0.027702419 0.007857143 0.001868967
v 0.019745536 0.007857143 0.001953538
v 0.011018857 0.007857143 0.001929850
v 0.001819558 0.007857143 0.001812113
v -0.007539090 0.007857143 0.001620973
v -0.016738389 0.007857143 0.001379476
v -0.025465068 0.007857143 0.001110155
v -0.033421951 0.007857143 0.000833927
v -0.040338075 0.007857143 0.000570430
v -0.045977921 0.007857143 0.000338640
v -0.050149429 0.007857143 0.000156650
v -0.052710545 0.007857143 0.000040142
v -0.053574052 0.007857143 -0.000000000
v -0.052710545 0.007857143 -0.000040142
v -0.050149429 0.007857143 -0.000156650
v -0.045977921 0.007857143 -0.000338640
v -0.040338075 0.007857143 -0.000570430
v -0.033421951 0.007857143 -0.000833927
v -0.025465068 0.007857143 -0.001110155
v -0.016738389 0.007857143 -0.001379476
v -0.007539090 0.007857143 -0.001620973
v 0.001819558 0.007857143 -0.001812113
v 0.011018857 0.007857143 -0.001929850
v 0.019745536 0.007857143 -0.001953538
v 0.027702419 0.007857143 -0.001868967
v 0.034618543 0.007857143 -0.001671880
v 0.040258389 0.007857143 -0.001369185
v 0.044429897 0.007857143 -0.000976829
v 0.046991013 0.007857143 -0.000514660
v 0.043209039 0.015714286 0.000000006
v 0.042375937 0.015714286 0.000503390
v 0.039905002 0.015714286 0.000955439
v 0.035880378 0.015714286 0.001339203
v 0.030439118 0.015714286 0.001635269
v 0.023766520 0.015714286 0.001828041
v 0.016089809 0.015714286 0.001910760
v 0.007670407 0.015714286 0.001887590
v -0.001204973 0.015714286 0.001772432
v -0.010234091 0.015714286 0.001585477
v -0.019109471 0.015714286 0.001349269
v -0.027528873 0.015714286 0.001085845
v -0.035205584 0.015714286 0.000815666
v -0.041878183 0.015714286 0.000557939
v -0.047319442 0.015714286 0.000331225
v -0.051344066 0.015714286 0.000153219
v -0.053815002 0.015714286 0.000039263
v -0.054648104 0.015714286 -0.000000000
v -0.053815002 0.015714286 -0.000039263
v -0.051344066 0.015714286 -0.000153219
v -0.047319442 0.015714286 -0.000331225
v -0.041878183 0.015714286 -0.000557939
v -0.035205584 0.015714286 -0.000815666
v -0.027528873 0.015714286 -0.001085845
v -0.019109471 0.015714286 -0.001349269
v -0.010234091 0.015714286 -0.001585477
v -0.001204973 0.015714286 -0.001772432
v 0.007670407 0.015714286 -0.001887590
v 0.016089809 0.015714286 -0.001910760
v 0.023766520 0.015714286 -0.001828041
v 0.030439118 0.015714286 -0.001635269
v 0.035880378 0.015714286 -0.001339203
v 0.039905002 0.015714286 -0.000955439
v 0.042375937 0.015714286 -0.000503390
v 0.038563559 0.023571429 0.000000006
v 0.037760862 0.023571429 0.000492120
v 0.035380107 0.023571429 0.000934048
v 0.031502367 0.023571429 0.001309221
v 0.026259693 0.023571429 0.001598659
v 0.019830620 0.023571429 0.001787115
v 0.012434081 0.023571429 0.001867981
v 0.004321957 0.023571429 0.001845331
v -0.004229504 0.023571429 0.001732751
v -0.012929092 0.023571429 0.001549981
v -0.021480554 0.023571429 0.001319061
v -0.029592678 0.023571429 0.001061535
v -0.036989217 0.023571429 0.000797405
v -0.043418290 0.023571429 0.000545448
v -0.048660963 0.023571429 0.000323809
v -0.052538703 0.023571429 0.000149789
v -0.054919459 0.023571429 0.000038384
v -0.055722156 0.023571429 -0.000000000
v -0.054919459 0.023571429 -0.000038384
v -0.052538703 0.023571429 -0.000149789
v -0.048660963 0.023571429 -0.000323809
v -0.043418290 0.023571429 -0.000545448
v -0.036989217 0.023571429 -0.000797405
v -0.029592678 0.023571429 -0.001061535
v -0.021480554 0.023571429 -0.001319061
v -0.012929092 0.023571429 -0.001549981
v -0.004229504 0.023571429 -0.001732751
v 0.004321957 0.023571429 -0.001845331
v 0.012434081 0.023571429 -0.001867981
v 0.019830620 0.023571429 -0.001787115
v 0.026259693 0.023571429 -0.001598659
v 0.031502367 0.023571429 -0.001309221
v 0.035380107 0.023571429 -0.000934048
v 0.037760862 0.023571429 -0.000492120
v 0.033918078 0.031428571 0.000000005
v 0.033145787 0.031428571 0.000480850
v 0.030855212 0.031428571 0.000912658
v 0.027124356 0.031428571 0.001279238
v 0.022080269 0.031428571 0.001562048
v 0.015894721 0.031428571 0.001746188
v 0.008778354 0.031428571 0.001825203
v 0.000973507 0.031428571 0.001803071
v -0.007254035 0.031428571 0.001693069
v -0.015624094 0.031428571 0.001514486
v -0.023851636 0.031428571 0.001288854
v -0.031656483 0.031428571 0.001037225
v -0.038772850 0.031428571 0.000779144
v -0.044958398 0.031428571 0.000532957
v -0.050002485 0.031428571 0.000316394
v -0.053733341 0.031428571 0.000146359
v -0.056023916 0.031428571 0.000037505
v -0.056796207 0.031428571 -0.000000000
v -0.056023916 0.031428571 -0.000037505
v -0.053733341 0.031428571 -0.000146359
v -0.050002485 0.031428571 -0.000316394
v -0.044958398 0.031428571 -0.000532957
v -0.038772850 0.031428571 -0.000779144
v -0.031656483 0.031428571 -0.001037225
v -0.023851636 0.031428571 -0.001288854
v -0.015624094 0.031428571 -0.001514486
v -0.007254035 0.031428571 -0.001693069
v 0.000973507 0.031428571 -0.001803071
v 0.008778354 0.031428571 -0.001825203
v 0.015894721 0.031428571 -0.001746188
v 0.022080269 0.031428571 -0.001562048
v 0.027124356 0.031428571 -0.001279238
v 0.030855212 0.031428571 -0.000912658
v 0.033145787 0.031428571 -0.000480850
v 0.029272598 0.039285714 0.000000005
v 0.028530712 0.039285714 0.000469580
v 0.026330317 0.039285714 0.000891267
v 0.022746345 0.039285714 0.001249256
v 0.017900844 0.039285714 0.001525438
v 0.011958821 0.039285714 0.001705262
v 0.005122626 0.039285714 0.001782425
v -0.002374943 0.039285714 0.001760812
v -0.010278566 0.039285714 0.001653388
v -0.018319095 0.039285714 0.001478990
v -0.026222718 0.039285714 0.001258646
v -0.033720288 0.039285714 0.001012915
v -0.040556483 0.039285714 0.000760882
v -0.046498505 0.039285714 0.000520466
v -0.051344006 0.039285714 0.000308978
v -0.054927978 0.039285714 0.000142928
v -0.057128373 0.039285714 0.000036626
v -0.057870259 0.039285714 -0.000000000
v -0.057128373 0.039285714 -0.000036626
v -0.054927978 0.039285714 -0.000142928
v -0.051344006 0.039285714 -0.000308978
v -0.046498505 0.039285714 -0.000520466
v -0.040556483 0.039285714 -0.000760882
v -0.033720288 0.039285714 -0.001012915
v -0.026222718 0.039285714 -0.001258646
v -0.018319095 0.039285714 -0.001478990
v -0.010278566 0.039285714 -0.001653388
v -0.002374943 0.039285714 -0.001760812
v 0.005122626 0.039285714 -0.001782425
v 0.011958821 0.039285714 -0.001705262
v 0.017900844 0.039285714 -0.001525438
v 0.022746345 0.039285714 -0.001249256
v 0.026330317 0.039285714 -0.000891267
v 0.028530712 0.039285714 -0.000469580
v 0.024627118 0.047142857 0.000000005
v 0.023915636 0.047142857 0.000458310
v 0.021805421 0.047142857 0.000869877
v 0.018368334 0.047142857 0.001219274
v 0.013721419 0.047142857 0.001488827
v 0.008022922 0.047142857 0.001664336
v 0.001466899 0.047142857 0.001739647
v -0.005723393 0.047142857 0.001718552
v -0.013303097 0.047142857 0.001613707
v -0.021014096 0.047142857 0.001443494
v -0.028593800 0.047142857 0.001228439
v -0.035784092 0.047142857 0.000988605
v -0.042340115 0.047142857 0.000742621
v -0.048038612 0.047142857 0.000507975
v -0.052685527 0.047142857 0.000301563
v -0.056122615 0.047142857 0.000139498
v -0.058232830 0.047142857 0.000035747
v -0.058944311 0.047142857 -0.000000000
v -0.058232830 0.047142857 -0.000035747
v -0.056122615 0.047142857 -0.000139498
v -0.052685527 0.047142857 -0.000301563
v -0.048038612 0.047142857 -0.000507975
v -0.042340115 0.047142857 -0.000742621
v -0.035784092 0.047142857 -0.000988605
v -0.028593800 0.047142857 -0.001228439
v -0.021014096 0.047142857 -0.001443494
v -0.013303097 0.047142857 -0.001613707
v -0.005723393 0.047142857 -0.001718552
v 0.001466899 0.047142857 -0.001739647
v 0.008022922 0.047142857 -0.001664336
v 0.013721419 0.047142857 -0.001488827
v 0.018368334 0.047142857 -0.001219274
v 0.021805421 0.047142857 -0.000869877
v 0.023915636 0.047142857 -0.000458310
v 0.019981637 0.055000000 0.000000005
v 0.019300561 0.055000000 0.000447040
v 0.017280526 0.055000000 0.000848486
v 0.013990323 0.055000000 0.001189292
v 0.009541994 0.055000000 0.001452217
v 0.004087023 0.055000000 0.001623409
v -0.002188829 0.055000000 0.001696869
v -0.009071843 0.055000000 0.001676293
v -0.016327629 0.055000000 0.001574025
v -0.023709097 0.055000000 0.001407998
v -0.030964882 0.055000000 0.001198231
v -0.037847897 0.055000000 0.000964295
v -0.044123748 0.055000000 0.000724360
v -0.049578720 0.055000000 0.000495483
v -0.054027048 0.055000000 0.000294147
v -0.057317252 0.055000000 0.000136068
v -0.059337287 0.055000000 0.000034868
v -0.060018363 0.055000000 -0.000000000
v -0.059337287 0.055000000 -0.000034868
v -0.057317252 0.055000000 -0.000136068
v -0.054027048 0.055000000 -0.000294147
v -0.049578720 0.055000000 -0.000495483
v -0.044123748 0.055000000 -0.000724360
v -0.037847897 0.055000000 -0.000964295
v -0.030964882 0.055000000 -0.001198231
v -0.023709097 0.055000000 -0.001407998
v -0.016327629 0.055000000 -0.001574025
v -0.009071843 0.055000000 -0.001676293
v -0.002188829 0.055000000 -0.001696869
v 0.004087023 0.055000000 -0.001623409
v 0.009541994 0.055000000 -0.001452217
v 0.013990323 0.055000000 -0.001189292
v 0.017280526 0.055000000 -0.000848486
v 0.019300561 0.055000000 -0.000447040
v 0.015336157 0.062857143 0.000000005
v 0.014685486 0.062857143 0.000435770
v 0.012755631 0.062857143 0.000827096
v 0.009612312 0.062857143 0.001159310
v 0.005362569 0.062857143 0.001415606
v 0.000151123 0.062857143 0.001582483
v -0.005844556 0.062857143 0.001654090
v -0.012420293 0.062857143 0.001634033
v -0.019352160 0.062857143 0.001534344
v -0.026404098 0.062857143 0.001372503
v -0.033335965 0.062857143 0.001168024
v -0.039911702 0.062857143 0.000939985
v -0.045907381 0.062857143 0.000706099
v -0.051118827 0.062857143 0.000482992
v -0.055368570 0.062857143 0.000286732
v -0.058511889 0.062857143 0.000132638
v -0.060441744 0.062857143 0.000033989
v -0.061092415 0.062857143 -0.000000000
v -0.060441744 0.062857143 -0.000033989
v -0.058511889 0.062857143 -0.000132638
v -0.055368570 0.062857143 -0.000286732
v -0.051118827 0.062857143 -0.000482992
v -0.045907381 0.062857143 -0.000706099
v -0.039911702 0.062857143 -0.000939985
v -0.033335965 0.062857143 -0.001168024
v -0.026404098 0.062857143 -0.001372503
v -0.019352160 0.062857143 -0.001534344
v -0.012420293 0.062857143 -0.001634033
v -0.005844556 0.062857143 -0.001654090
v 0.000151123 0.062857143 -0.001582483
v 0.005362569 0.062857143 -0.001415606
v 0.009612312 0.062857143 -0.001159310
v 0.012755631 0.062857143 -0.000827096
v 0.014685486 0.062857143 -0.000435770
v 0.010690676 0.070714286 0.000000005
v 0.010070411 0.070714286 0.000424500
v 0.008230736 0.070714286 0.000805706
v 0.005234301 0.070714286 0.001129328
v 0.001183144 0.070714286 0.001378996
v -0.003784776 0.070714286 0.001541557
v -0.009500284 0.070714286 0.001611312
v -0.015768743 0.070714286 0.001591774
v -0.022376691 0.070714286 0.001494663
v -0.029099100 0.070714286 0.001337007
v -0.035707047 0.070714286 0.001137816
v -0.041975507 0.070714286 0.000915675
v -0.047691014 0.070714286 0.000687838
v -0.052658934 0.070714286 0.000470501
v -0.056710091 0.070714286 0.000279316
v -0.059706526 0.070714286 0.000129207
v -0.061546201 0.070714286 0.000033110
v -0.062166467 0.070714286 -0.000000000
v -0.061546201 0.070714286 -0.000033110
v -0.059706526 0.070714286 -0.000129207
v -0.056710091 0.070714286 -0.000279316
v -0.052658934 0.070714286 -0.000470501
v -0.047691014 0.070714286 -0.000687838
v -0.041975507 0.070714286 -0.000915675
v -0.035707047 0.070714286 -0.001137816
v -0.029099100 0.070714286 -0.001337007
v -0.022376691 0.070714286 -0.001494663
v -0.015768743 0.070714286 -0.001591774
v -0.009500284 0.070714286 -0.001611312
v -0.003784776 0.070714286 -0.001541557
v 0.001183144 0.070714286 -0.001378996
v 0.005234301 0.070714286 -0.001129328
v 0.008230736 0.070714286 -0.000805706
v 0.010070411 0.070714286 -0.000424500
v 0.006045196 0.078571429 0.000000005
v 0.005455335 0.078571429 0.000413230
v 0.003705841 0.078571429 0.000784315
v 0.000856290 0.078571429 0.001099346
v -0.002996281 0.078571429 0.001342385
v -0.007720676 0.078571429 0.001500631
v -0.013156011 0.078571429 0.001568534
v -0.019117193 0.078571429 0.001549514
v -0.025401222 0.078571429 0.001454981
v -0.031794101 0.078571429 0.001301511
v -0.038078129 0.078571429 0.001107609
v -0.044039311 0.078571429 0.000891365
v -0.049474647 0.078571429 0.000669577
v -0.054199042 0.078571429 0.000458010
v -0.058051612 0.078571429 0.000271901
v -0.060901163 0.078571429 0.000125777
v -0.062650658 0.078571429 0.000032231
v -0.063240518 0.078571429 -0.000000000
v -0.062650658 0.078571429 -0.000032231
v -0.060901163 0.078571429 -0.000125777
v -0.058051612 0.078571429 -0.000271901
v -0.054199042 0.078571429 -0.000458010
v -0.049474647 0.078571429 -0.000669577
v -0.044039311 0.078571429 -0.000891365
v -0.038078129 0.078571429 -0.001107609
v -0.031794101 0.078571429 -0.001301511
v -0.025401222 0.078571429 -0.001454981
v -0.019117193 0.078571429 -0.001549514
v -0.013156011 0.078571429 -0.001568534
v -0.007720676 0.078571429 -0.001500631
v -0.002996281 0.078571429 -0.001342385
v 0.000856290 0.078571429 -0.001099346
v 0.003705841 0.078571429 -0.000784315
v 0.005455335 0.078571429 -0.000413230
v 0.001399715 0.086428571 0.000000005
v 0.000840260 0.086428571 0.000401960
v -0.000819054 0.086428571 0.000762925
v -0.003521722 0.086428571 0.001069363
v -0.007175706 0.086428571 0.001305775
v -0.011656575 0.086428571 0.001459704
v -0.016811739 0.086428571 0.001525756
v -0.022465643 0.086428571 0.001507255
v -0.028425753 0.086428571 0.001415300
v -0.034489102 0.086428571 0.001266015
v -0.040449211 0.086428571 0.001077401
v -0.046103116 0.086428571 0.000867055
v -0.051258280 0.086428571 0.000651315
v -0.055739149 0.086428571 0.000445519
v -0.059393133 0.086428571 0.000264485
v -0.062095801 0.086428571 0.000122347
v -0.063755115 0.086428571 0.000031352
v -0.064314570 0.086428571 -0.000000000
v -0.063755115 0.086428571 -0.000031352
v -0.062095801 0.086428571 -0.000122347
v -0.059393133 0.086428571 -0.000264485
v -0.055739149 0.086428571 -0.000445519
v -0.051258280 0.086428571 -0.000651315
v -0.046103116 0.086428571 -0.000867055
v -0.040449211 0.086428571 -0.001077401
v -0.034489102 0.086428571 -0.001266015
v -0.028425753 0.086428571 -0.001415300
v -0.022465643 0.086428571 -0.001507255
v -0.016811739 0.086428571 -0.001525756
v -0.011656575 0.086428571 -0.001459704
v -0.007175706 0.086428571 -0.001305775
v -0.003521722 0.086428571 -0.001069363
v -0.000819054 0.086428571 -0.000762925
v 0.000840260 0.086428571 -0.000401960
v -0.003245765 0.094285714 0.000000004
v -0.003774815 0.094285714 0.000390690
v -0.005343949 0.094285714 0.000741534
v -0.007899733 0.094285714 0.001039381
v -0.011355131 0.094285714 0.001269164
v -0.015592474 0.094285714 0.001418778
v -0.020467466 0.094285714 0.001482978
v -0.025814093 0.094285714 0.001464995
v -0.031450284 0.094285714 0.001375619
v -0.037184103 0.094285714 0.001230520
v -0.042820294 0.094285714 0.001047194
v -0.048166921 0.094285714 0.000842745
v -0.053041913 0.094285714 0.000633054
v -0.057279256 0.094285714 0.000433027
v -0.060734655 0.094285714 0.000257070
v -0.063290438 0.094285714 0.000118916
v -0.064859572 0.094285714 0.000030473
v -0.065388622 0.094285714 -0.000000000
v -0.064859572 0.094285714 -0.000030473
v -0.063290438 0.094285714 -0.000118916
v -0.060734655 0.094285714 -0.000257070
v -0.057279256 0.094285714 -0.000433027
v -0.053041913 0.094285714 -0.000633054
v -0.048166921 0.094285714 -0.000842745
v -0.042820294 0.094285714 -0.001047194
v -0.037184103 0.094285714 -0.001230520
v -0.031450284 0.094285714 -0.001375619
v -0.025814093 0.094285714 -0.001464995
v -0.020467466 0.094285714 -0.001482978
v -0.015592474 0.094285714 -0.001418778
v -0.011355131 0.094285714 -0.001269164
v -0.007899733 0.094285714 -0.001039381
v -0.005343949 0.094285714 -0.000741534
v -0.003774815 0.094285714 -0.000390690
v -0.007891245 0.102142857 0.000000004
v -0.008389890 0.102142857 0.000379421
v -0.009868844 0.102142857 0.000720144
v -0.012277744 0.102142857 0.001009399
v -0.015534556 0.102142857 0.001232554
v -0.019528374 0.102142857 0.001377852
v -0.024123194 0.102142857 0.001440199
v -0.029162544 0.102142857 0.001422736
v -0.034474815 0.102142857 0.001335938
v -0.039879104 0.102142857 0.001195024
v -0.045191376 0.102142857 0.001016986
v -0.050230726 0.102142857 0.000818435
v -0.054825545 0.102142857 0.000614793
v -0.058819364 0.102142857 0.000420536
v -0.062076176 0.102142857 0.000249654
v -0.064485075 0.102142857 0.000115486
v -0.065964029 0.102142857 0.000029594
v -0.066462674 0.102142857 -0.000000000
v -0.065964029 0.102142857 -0.000029594
v -0.064485075 0.102142857 -0.000115486
v -0.062076176 0.102142857 -0.000249654
v -0.058819364 0.102142857 -0.000420536
v -0.054825545 0.102142857 -0.000614793
v -0.050230726 0.102142857 -0.000818435
v -0.045191376 0.102142857 -0.001016986
v -0.039879104 0.102142857 -0.001195024
v -0.034474815 0.102142857 -0.001335938
v -0.029162544 0.102142857 -0.001422736
v -0.024123194 0.102142857 -0.001440199
v -0.019528374 0.102142857 -0.001377852
v -0.015534556 0.102142857 -0.001232554
v -0.012277744 0.102142857 -0.001009399
v -0.009868844 0.102142857 -0.000720144
v -0.008389890 0.102142857 -0.000379421
v -0.012536726 0.110000000 0.000000004
v -0.013004966 0.110000000 0.000368151
v -0.014393739 0.110000000 0.000698754
v -0.016655755 0.110000000 0.000979417
v -0.019713981 0.110000000 0.001195943
v -0.023464273 0.110000000 0.001336925
v -0.027778921 0.110000000 0.001397421
v -0.032510994 0.110000000 0.001380476
v -0.037499346 0.110000000 0.001296256
v -0.042574106 0.110000000 0.001159528
v -0.047562458 0.110000000 0.000986779
v -0.052294531 0.110000000 0.000794125
v -0.056609178 0.110000000 0.000596532
v -0.060359471 0.110000000 0.000408045
v -0.063417697 0.110000000 0.000242239
v -0.065679712 0.110000000 0.000112056
v -0.067068486 0.110000000 0.000028715
v -0.067536726 0.110000000 -0.000000000
v -0.067068486 0.110000000 -0.000028715
v -0.065679712 0.110000000 -0.000112056
v -0.063417697 0.110000000 -0.000242239
v -0.060359471 0.110000000 -0.000408045
v -0.056609178 0.110000000 -0.000596532
v -0.052294531 0.110000000 -0.000794125
v -0.047562458 0.110000000 -0.000986779
v -0.042574106 0.110000000 -0.001159528
v -0.037499346 0.110000000 -0.001296256
v -0.032510994 0.110000000 -0.001380476
v -0.027778921 0.110000000 -0.001397421
v -0.023464273 0.110000000 -0.001336925
v -0.019713981 0.110000000 -0.001195943
v -0.016655755 0.110000000 -0.000979417
v -0.014393739 0.110000000 -0.000698754
v -0.013004966 0.110000000 -0.000368151
v 0.000000000 0.000000000 0.000000000
v -0.040036726 0.110000000 0.000000000
f 1 35 36
f 1 36 2
f 2 36 37
f 2 37 3
f 3 37 38
f 3 38 4
f 4 38 39
f 4 39 5
f 5 39 40
f 5 40 6
f 6 40 41
f 6 41 7
f 7 41 42
f 7 42 8
f 8 42 43
f 8 43 9
f 9 43 44
f 9 44 10
f 10 44 45
f 10 45 11
f 11 45 46
f 11 46 12
f 12 46 47
f 12 47 13
f 13 47 48
f 13 48 14
f 14 48 49
f 14 49 15
f 15 49 50
f 15 50 16
f 16 50 51
f 16 51 17
f 17 51 52
f 17 52 18
f 18 52 53
f 18 53 19
f 19 53 54
f 19 54 20
f 20 54 55
f 20 55 21
f 21 55 56
f 21 56 22
f 22 56 57
f 22 57 23
f 23 57 58
f 23 58 24
f 24 58 59
f 24 59 25
f 25 59 60
f 25 60 26
f 26 60 61
f 26 61 27
f 27 61 62
f 27 62 28
f 28 62 63
f 28 63 29
f 29 63 64
f 29 64 30
f 30 64 65
f 30 65 31
f 31 65 66
f 31 66 32
f 32 66 67
f 32 67 33
f 33 67 68
f 33 68 34
f 34 68 35
f 34 35 1
f 35 69 70
f 35 70 36
f 36 70 71
f 36 71 37
f 37 71 72
f 37 72 38
f 38 72 73
f 38 73 39
f 39 73 74
f 39 74 40
f 40 74 75
f 40 75 41
f 41 75 76
f 41 76 42
f 42 76 77
f 42 77 43
f 43 77 78
f 43 78 44
f 44 78 79
f 44 79 45
f 45 79 80
f 45 80 46
f 46 80 81
f 46 81 47
f 47 81 82
f 47 82 48
f 48 82 83
f 48 83 49
f 49 83 84
f 49 84 50
f 50 84 85
f 50 85 51
f 51 85 86
f 51 86 52
f 52 86 87
f 52 87 53
f 53 87 88
f 53 88 54
f 54 88 89
f 54 89 55
f 55 89 90
f 55 90 56
f 56 90 91
f 56 91 57
f 57 91 92
f 57 92 58
f 58 92 93
f 58 93 59
f 59 93 94
f 59 94 60
f 60 94 95
f 60 95 61
f 61 95 96
f 61 96 62
f 62 96 97
f 62 97 63
f 63 97 98
f 63 98 64
f 64 98 99
f 64 99 65
f 65 99 100
f 65 100 66
f 66 100 101
f 66 101 67
f 67 101 102
f 67 102 68
f 68 102 69
f 68 69 35
f 69 103 104
f 69 104 70
f 70 104 105
f 70 105 71
f 71 105 106
f 71 106 72
f 72 106 107
f 72 107 73
f 73 107 108
f 73 108 74
f 74 108 109
f 74 109 75
f 75 109 110
f 75 110 76
f 76 110 111
f 76 111 77
f 77 111 112
f 77 112 78
f 78 112 113
f 78 113 79
f 79 113 114
f 79 114 80
f 80 114 115
f 80 115 81
f 81 115 116
f 81 116 82
f 82 116 117
f 82 117 83
f 83 117 118
f 83 118 84
f 84 118 119
f 84 119 85
f 85 119 120
f 85 120 86
f 86 120 121
f 86 121 87
f 87 121 122
f 87 122 88
f 88 122 123
f 88 123 89
f 89 123 124
f 89 124 90
f 90 124 125
f 90 125 91
f 91 125 126
f 91 126 92
f 92 126 127
f 92 127 93
f 93 127 128
f 93 128 94
f 94 128 129
f 94 129 95
f 95 129 130
f 95 130 96
f 96 130 131
f 96 131 97
f 97 131 132
f 97 132 98
f 98 132 133
f 98 133 99
f 99 133 134
f 99 134 100
f 100 134 135
f 100 135 101
f 101 135 136
f 101 136 102
f 102 136 103
f 102 103 69
f 103 137 138
f 103 138 104
f 104 138 139
f 104 139 105
f 105 139 140
f 105 140 106
f 106 140 141
f 106 141 107
f 107 141 142
f 107 142 108
f 108 142 143
f 108 143 109
f 109 143 144
f 109 144 110
f 110 144 145
f 110 145 111
f 111 145 146
f 111 146 112
f 112 146 147
f 112 147 113
f 113 147 148
f 113 148 114
f 114 148 149
f 114 149 115
f 115 149 150
f 115 150 116
f 116 150 151
f 116 151 117
f 117 151 152
f 117 152 118
f 118 152 153
f 118 153 119
f 119 153 154
f 119 154 120
f 120 154 155
f 120 155 121
f 121 155 156
f 121 156 122
f 122 156 157
f 122 157 123
f 123 157 158
f 123 158 124
f 124 158 159
f 124 159 125
f 125 159 160
f 125 160 126
f 126 160 161
f 126 161 127
f 127 161 162
f 127 162 128
f 128 162 163
f 128 163 129
f 129 163 164
f 129 164 130
f 130 164 165
f 130 165 131
f 131 165 166
f 131 166 132
f 132 166 167
f 132 167 133
f 133 167 168
f 133 168 134
f 134 168 169
f 134 169 135
f 135 169 170
f 135 170 136
f 136 170 137
f 136 137 103
f 137 171 172
f 137 172 138
f 138 172 173
f 138 173 139
f 139 173 174
f 139 174 140
f 140 174 175
f 140 175 141
f 141 175 176
f 141 176 142
f 142 176 177
f 142 177 143
f 143 177 178
f 143 178 144
f 144 178 179
f 144 179 145
f 145 179 180
f 145 180 146
f 146 180 181
f 146 181 147
f 147 181 182
f 147 182 148
f 148 182 183
f 148 183 149
f 149 183 184
f 149 184 150
f 150 184 185
f 150 185 151
f 151 185 186
f 151 186 152
f 152 186 187
f 152 187 153
f 153 187 188
f 153 188 154
f 154 188 189
f 154 189 155
f 155 189 190
f 155 190 156
f 156 190 191
f 156 191 157
f 157 191 192
f 157 192 158
f 158 192 193
f 158 193 159
f 159 193 194
f 159 194 160
f 160 194 195
f 160 195 161
f 161 195 196
f 161 196 162
f 162 196 197
f 162 197 163
f 163 197 198
f 163 198 164
f 164 198 199
f 164 199 165
f 165 199 200
f 165 200 166
f 166 200 201
f 166 201 167
f 167 201 202
f 167 202 168
f 168 202 203
f 168 203 169
f 169 203 204
f 169 204 170
f 170 204 171
f 170 171 137
f 171 205 206
f 171 206 172
f 172 206 207
f 172 207 173
f 173 207 208
f 173 208 174
f 174 208 209
f 174 209 175
f 175 209 210
f 175 210 176
f 176 210 211
f 176 211 177
f 177 211 212
f 177 212 178
f 178 212 213
f 178 213 179
f 179 213 214
f 179 214 180
f 180 214 215
f 180 215 181
f 181 215 216
f 181 216 182
f 182 216 217
f 182 217 183
f 183 217 218
f 183 218 184
f 184 218 219
f 184 219 185
f 185 219 220
f 185 220 186
f 186 220 221
f 186 221 187
f 187 221 222
f 187 222 188
f 188 222 223
f 188 223 189
f 189 223 224
f 189 224 190
f 190 224 225
f 190 225 191
f 191 225 226
f 191 226 192
f 192 226 227
f 192 227 193
f 193 227 228
f 193 228 194
f 194 228 229
f 194 229 195
f 195 229 230
f 195 230 196
f 196 230 231
f 196 231 197
f 197 231 232
f 197 232 198
f 198 232 233
f 198 233 199
f 199 233 234
f 199 234 200
f 200 234 235
f 200 235 201
f 201 235 236
f 201 236 202
f 202 236 237
f 202 237 203
f 203 237 238
f 203 238 204
f 204 238 205
f 204 205 171
f 205 239 240
f 205 240 206
f 206 240 241
f 206 241 207
f 207 241 242
f 207 242 208
f 208 242 243
f 208 243 209
f 209 243 244
f 209 244 210
f 210 244 245
f 210 245 211
f 211 245 246
f 211 246 212
f 212 246 247
f 212 247 213
f 213 247 248
f 213 248 214
f 214 248 249
f 214 249 215
f 215 249 250
f 215 250 216
f 216 250 251
f 216 251 217
f 217 251 252
f 217 252 218
f 218 252 253
f 218 253 219
f 219 253 254
f 219 254 220
f 220 254 255
f 220 255 221
f 221 255 256
f 221 256 222
f 222 256 257
f 222 257 223
f 223 257 258
f 223 258 224
f 224 258 259
f 224 259 225
f 225 259 260
f 225 260 226
f 226 260 261
f 226 261 227
f 227 261 262
f 227 262 228
f 228 262 263
f 228 263 229
f 229 263 264
f 229 264 230
f 230 264 265
f 230 265 231
f 231 265 266
f 231 266 232
f 232 266 267
f 232 267 233
f 233 267 268
f 233 268 234
f 234 268 269
f 234 269 235
f 235 269 270
f 235 270 236
f 236 270 271
f 236 271 237
f 237 271 272
f 237 272 238
f 238 272 239
f 238 239 205
f 239 273 274
f 239 274 240
f 240 274 275
f 240 275 241
f 241 275 276
f 241 276 242
f 242 276 277
f 242 277 243
f 243 277 278
f 243 278 244
f 244 278 279
f 244 279 245
f 245 279 280
f 245 280 246
f 246 280 281
f 246 281 247
f 247 281 282
f 247 282 248
f 248 282 283
f 248 283 249
f 249 283 284
f 249 284 250
f 250 284 285
f 250 285 251
f 251 285 286
f 251 286 252
f 252 286 287
f 252 287 253
f 253 287 288
f 253 288 254
f 254 288 289
f 254 289 255
f 255 289 290
f 255 290 256
f 256 290 291
f 256 291 257
f 257 291 292
f 257 292 258
f 258 292 293
f 258 293 259
f 259 293 294
f 259 294 260
f 260 294 295
f 260 295 261
f 261 295 296
f 261 296 262
f 262 296 297
f 262 297 263
f 263 297 298
f 263 298 264
f 264 298 299
f 264 299 265
f 265 299 300
f 265 300 266
f 266 300 301
f 266 301 267
f 267 301 302
f 267 302 268
f 268 302 303
f 268 303 269
f 269 303 304
f 269 304 270
f 270 304 305
f 270 305 271
f 271 305 306
f 271 306 272
f 272 306 273
f 272 273 239
f 273 307 308
f 273 308 274
f 274 308 309
f 274 309 275
f 275 309 310
f 275 310 276
f 276 310 311
f 276 311 277
f 277 311 312
f 277 312 278
f 278 312 313
f 278 313 279
f 279 313 314
f 279 314 280
f 280 314 315
f 280 315 281
f 281 315 316
f 281 316 282
f 282 316 317
f 282 317 283
f 283 317 318
f 283 318 284
f 284 318 319
f 284 319 285
f 285 319 320
f 285 320 286
f 286 320 321
f 286 321 287
f 287 321 322
f 287 322 288
f 288 322 323
f 288 323 289
f 289 323 324
f 289 324 290
f 290 324 325
f 290 325 291
f 291 325 326
f 291 326 292
f 292 326 327
f 292 327 293
f 293 327 328
f 293 328 294
f 294 328 329
f 294 329 295
f 295 329 330
f 295 330 296
f 296 330 331
f 296 331 297
f 297 331 332
f 297 332 298
f 298 332 333
f 298 333 299
f 299 333 334
f 299 334 300
f 300 334 335
f 300 335 301
f 301 335 336
f 301 336 302
f 302 336 337
f 302 337 303
f 303 337 338
f 303 338 304
f 304 338 339
f 304 339 305
f 305 339 340
f 305 340 306
f 306 340 307
f 306 307 273
f 307 341 342
f 307 342 308
f 308 342 343
f 308 343 309
f 309 343 344
f 309 344 310
f 310 344 345
f 310 345 311
f 311 345 346
f 311 346 312
f 312 346 347
f 312 347 313
f 313 347 348
f 313 348 314
f 314 348 349
f 314 349 315
f 315 349 350
f 315 350 316
f 316 350 351
f 316 351 317
f 317 351 352
f 317 352 318
f 318 352 353
f 318 353 319
f 319 353 354
f 319 354 320
f 320 354 355
f 320 355 321
f 321 355 356
f 321 356 322
f 322 356 357
f 322 357 323
f 323 357 358
f 323 358 324
f 324 358 359
f 324 359 325
f 325 359 360
f 325 360 326
f 326 360 361
f 326 361 327
f 327 361 362
f 327 362 328
f 328 362 363
f 328 363 329
f 329 363 364
f 329 364 330
f 330 364 365
f 330 365 331
f 331 365 366
f 331 366 332
f 332 366 367
f 332 367 333
f 333 367 368
f 333 368 334
f 334 368 369
f 334 369 335
f 335 369 370
f 335 370 336
f 336 370 371
f 336 371 337
f 337 371 372
f 337 372 338
f 338 372 373
f 338 373 339
f 339 373 374
f 339 374 340
f 340 374 341
f 340 341 307
f 341 375 376
f 341 376 342
f 342 376 377
f 342 377 343
f 343 377 378
f 343 378 344
f 344 378 379
f 344 379 345
f 345 379 380
f 345 380 346
f 346 380 381
f 346 381 347
f 347 381 382
f 347 382 348
f 348 382 383
f 348 383 349
f 349 383 384
f 349 384 350
f 350 384 385
f 350 385 351
f 351 385 386
f 351 386 352
f 352 386 387
f 352 387 353
f 353 387 388
f 353 388 354
f 354 388 389
f 354 389 355
f 355 389 390
f 355 390 356
f 356 390 391
f 356 391 357
f 357 391 392
f 357 392 358
f 358 392 393
f 358 393 359
f 359 393 394
f 359 394 360
f 360 394 395
f 360 395 361
f 361 395 396
f 361 396 362
f 362 396 397
f 362 397 363
f 363 397 398
f 363 398 364
f 364 398 399
f 364 399 365
f 365 399 400
f 365 400 366
f 366 400 401
f 366 401 367
f 367 401 402
f 367 402 368
f 368 402 403
f 368 403 369
f 369 403 404
f 369 404 370
f 370 404 405
f 370 405 371
f 371 405 406
f 371 406 372
f 372 406 407
f 372 407 373
f 373 407 408
f 373 408 374
f 374 408 375
f 374 375 341
f 375 409 410
f 375 410 376
f 376 410 411
f 376 411 377
f 377 411 412
f 377 412 378
f 378 412 413
f 378 413 379
f 379 413 414
f 379 414 380
f 380 414 415
f 380 415 381
f 381 415 416
f 381 416 382
f 382 416 417
f 382 417 383
f 383 417 418
f 383 418 384
f 384 418 419
f 384 419 385
f 385 419 420
f 385 420 386
f 386 420 421
f 386 421 387
f 387 421 422
f 387 422 388
f 388 422 423
f 388 423 389
f 389 423 424
f 389 424 390
f 390 424 425
f 390 425 391
f 391 425 426
f 391 426 392
f 392 426 427
f 392 427 393
f 393 427 428
f 393 428 394
f 394 428 429
f 394 429 395
f 395 429 430
f 395 430 396
f 396 430 431
f 396 431 397
f 397 431 432
f 397 432 398
f 398 432 433
f 398 433 399
f 399 433 434
f 399 434 400
f 400 434 435
f 400 435 401
f 401 435 436
f 401 436 402
f 402 436 437
f 402 437 403
f 403 437 438
f 403 438 404
f 404 438 439
f 404 439 405
f 405 439 440
f 405 440 406
f 406 440 441
f 406 441 407
f 407 441 442
f 407 442 408
f 408 442 409
f 408 409 375
f 409 443 444
f 409 444 410
f 410 444 445
f 410 445 411
f 411 445 446
f 411 446 412
f 412 446 447
f 412 447 413
f 413 447 448
f 413 448 414
f 414 448 449
f 414 449 415
f 415 449 450
f 415 450 416
f 416 450 451
f 416 451 417
f 417 451 452
f 417 452 418
f 418 452 453
f 418 453 419
f 419 453 454
f 419 454 420
f 420 454 455
f 420 455 421
f 421 455 456
f 421 456 422
f 422 456 457
f 422 457 423
f 423 457 458
f 423 458 424
f 424 458 459
f 424 459 425
f 425 459 460
f 425 460 426
f 426 460 461
f 426 461 427
f 427 461 462
f 427 462 428
f 428 462 463
f 428 463 429
f 429 463 464
f 429 464 430
f 430 464 465
f 430 465 431
f 431 465 466
f 431 466 432
f 432 466 467
f 432 467 433
f 433 467 468
f 433 468 434
f 434 468 469
f 434 469 435
f 435 469 470
f 435 470 436
f 436 470 471
f 436 471 437
f 437 471 472
f 437 472 438
f 438 472 473
f 438 473 439
f 439 473 474
f 439 474 440
f 440 474 475
f 440 475 441
f 441 475 476
f 441 476 442
f 442 476 443
f 442 443 409
f 443 477 478
f 443 478 444
f 444 478 479
f 444 479 445
f 445 479 480
f 445 480 446
f 446 480 481
f 446 481 447
f 447 481 482
f 447 482 448
f 448 482 483
f 448 483 449
f 449 483 484
f 449 484 450
f 450 484 485
f 450 485 451
f 451 485 486
f 451 486 452
f 452 486 487
f 452 487 453
f 453 487 488
f 453 488 454
f 454 488 489
f 454 489 455
f 455 489 490
f 455 490 456
f 456 490 491
f 456 491 457
f 457 491 492
f 457 492 458
f 458 492 493
f 458 493 459
f 459 493 494
f 459 494 460
f 460 494 495
f 460 495 461
f 461 495 496
f 461 496 462
f 462 496 497
f 462 497 463
f 463 497 498
f 463 498 464
f 464 498 499
f 464 499 465
f 465 499 500
f 465 500 466
f 466 500 501
f 466 501 467
f 467 501 502
f 467 502 468
f 468 502 503
f 468 503 469
f 469 503 504
f 469 504 470
f 470 504 505
f 470 505 471
f 471 505 506
f 471 506 472
f 472 506 507
f 472 507 473
f 473 507 508
f 473 508 474
f 474 508 509
f 474 509 475
f 475 509 510
f 475 510 476
f 476 510 477
f 476 477 443
f 511 1 2
f 511 2 3
f 511 3 4
f 511 4 5
f 511 5 6
f 511 6 7
f 511 7 8
f 511 8 9
f 511 9 10
f 511 10 11
f 511 11 12
f 511 12 13
f 511 13 14
f 511 14 15
f 511 15 16
f 511 16 17
f 511 17 18
f 511 18 19
f 511 19 20
f 511 20 21
f 511 21 22
f 511 22 23
f 511 23 24
f 511 24 25
f 511 25 26
f 511 26 27
f 511 27 28
f 511 28 29
f 511 29 30
f 511 30 31
f 511 31 32
f 511 32 33
f 511 33 34
f 511 34 1
f 512 478 477
f 512 479 478
f 512 480 479
f 512 481 480
f 512 482 481
f 512 483 482
f 512 484 483
f 512 485 484
f 512 486 485
f 512 487 486
f 512 488 487
f 512 489 488
f 512 490 489
f 512 491 490
f 512 492 491
f 512 493 492
f 512 494 493
f 512 495 494
f 512 496 495
f 512 497 496
f 512 498 497
f 512 499 498
f 512 500 499
f 512 501 500
f 512 502 501
f 512 503 502
f 512 504 503
f 512 505 504
f 512 506 505
f 512 507 506
f 512 508 507
f 512 509 508
f 512 510 509
f 512 477 510
