# Generated by generate_bionic_fish.py
# Units: meters
# Explicit smooth normals included for Stonefish.
# Tail2 link-local mesh. Origin is Joint2.
o Tail2
s 1
v -0.030500000 0.020084243 0.000000000
v -0.030500000 0.019580690 0.009496975
v -0.030500000 0.018095278 0.018517732
v -0.030500000 0.015702494 0.026609932
v -0.030500000 0.012522321 0.033367799
v -0.030500000 0.008714227 0.038452466
v -0.030500000 0.004469165 0.041608965
v -0.030500000 0.000000000 0.042679017
v -0.030500000 -0.004469165 0.041608965
v -0.030500000 -0.008714227 0.038452466
v -0.030500000 -0.012522321 0.033367799
v -0.030500000 -0.015702494 0.026609932
v -0.030500000 -0.018095278 0.018517732
v -0.030500000 -0.019580690 0.009496975
v -0.030500000 -0.020084243 0.000000000
v -0.030500000 -0.019580690 -0.009496975
v -0.030500000 -0.018095278 -0.018517732
v -0.030500000 -0.015702494 -0.026609932
v -0.030500000 -0.012522321 -0.033367799
v -0.030500000 -0.008714227 -0.038452466
v -0.030500000 -0.004469165 -0.041608965
v -0.030500000 -0.000000000 -0.042679017
v -0.030500000 0.004469165 -0.041608965
v -0.030500000 0.008714227 -0.038452466
v -0.030500000 0.012522321 -0.033367799
v -0.030500000 0.015702494 -0.026609932
v -0.030500000 0.018095278 -0.018517732
v -0.030500000 0.019580690 -0.009496975
v -0.025416667 0.020828104 0.000000000
v -0.025416667 0.020305900 0.009538356
v -0.025416667 0.018765474 0.018598419
v -0.025416667 0.016284068 0.026725879
v -0.025416667 0.012986111 0.033513193
v -0.025416667 0.009036976 0.038620015
v -0.025416667 0.004634689 0.041790268
v -0.025416667 0.000000000 0.042864983
v -0.025416667 -0.004634689 0.041790268
v -0.025416667 -0.009036976 0.038620015
v -0.025416667 -0.012986111 0.033513193
v -0.025416667 -0.016284068 0.026725879
v -0.025416667 -0.018765474 0.018598419
v -0.025416667 -0.020305900 0.009538356
v -0.025416667 -0.020828104 0.000000000
v -0.025416667 -0.020305900 -0.009538356
v -0.025416667 -0.018765474 -0.018598419
v -0.025416667 -0.016284068 -0.026725879
v -0.025416667 -0.012986111 -0.033513193
v -0.025416667 -0.009036976 -0.038620015
v -0.025416667 -0.004634689 -0.041790268
v -0.025416667 -0.000000000 -0.042864983
v -0.025416667 0.004634689 -0.041790268
v -0.025416667 0.009036976 -0.038620015
v -0.025416667 0.012986111 -0.033513193
v -0.025416667 0.016284068 -0.026725879
v -0.025416667 0.018765474 -0.018598419
v -0.025416667 0.020305900 -0.009538356
v -0.020333333 0.022687756 0.000000000
v -0.020333333 0.022118927 0.009641809
v -0.020333333 0.020440962 0.018800137
v -0.020333333 0.017738002 0.027015748
v -0.020333333 0.014145585 0.033876677
v -0.020333333 0.009843849 0.039038887
v -0.020333333 0.005048501 0.042243525
v -0.020333333 0.000000000 0.043329896
v -0.020333333 -0.005048501 0.042243525
v -0.020333333 -0.009843849 0.039038887
v -0.020333333 -0.014145585 0.033876677
v -0.020333333 -0.017738002 0.027015748
v -0.020333333 -0.020440962 0.018800137
v -0.020333333 -0.022118927 0.009641809
v -0.020333333 -0.022687756 0.000000000
v -0.020333333 -0.022118927 -0.009641809
v -0.020333333 -0.020440962 -0.018800137
v -0.020333333 -0.017738002 -0.027015748
v -0.020333333 -0.014145585 -0.033876677
v -0.020333333 -0.009843849 -0.039038887
v -0.020333333 -0.005048501 -0.042243525
v -0.020333333 -0.000000000 -0.043329896
v -0.020333333 0.005048501 -0.042243525
v -0.020333333 0.009843849 -0.039038887
v -0.020333333 0.014145585 -0.033876677
v -0.020333333 0.017738002 -0.027015748
v -0.020333333 0.020440962 -0.018800137
v -0.020333333 0.022118927 -0.009641809
v -0.015250000 0.025105304 0.000000000
v -0.015250000 0.024475862 0.009776298
v -0.015250000 0.022619098 0.019062371
v -0.015250000 0.019628117 0.027392577
v -0.015250000 0.015652901 0.034349205
v -0.015250000 0.010892783 0.039583421
v -0.015250000 0.005586456 0.042832758
v -0.015250000 0.000000000 0.043934283
v -0.015250000 -0.005586456 0.042832758
v -0.015250000 -0.010892783 0.039583421
v -0.015250000 -0.015652901 0.034349205
v -0.015250000 -0.019628117 0.027392577
v -0.015250000 -0.022619098 0.019062371
v -0.015250000 -0.024475862 0.009776298
v -0.015250000 -0.025105304 0.000000000
v -0.015250000 -0.024475862 -0.009776298
v -0.015250000 -0.022619098 -0.019062371
v -0.015250000 -0.019628117 -0.027392577
v -0.015250000 -0.015652901 -0.034349205
v -0.015250000 -0.010892783 -0.039583421
v -0.015250000 -0.005586456 -0.042832758
v -0.015250000 -0.000000000 -0.043934283
v -0.015250000 0.005586456 -0.042832758
v -0.015250000 0.010892783 -0.039583421
v -0.015250000 0.015652901 -0.034349205
v -0.015250000 0.019628117 -0.027392577
v -0.015250000 0.022619098 -0.019062371
v -0.015250000 0.024475862 -0.009776298
v -0.010166667 0.027522852 0.000000000
v -0.010166667 0.026832797 0.009910786
v -0.010166667 0.024797233 0.019324604
v -0.010166667 0.021518232 0.027769406
v -0.010166667 0.017160218 0.034821734
v -0.010166667 0.011941718 0.040127955
v -0.010166667 0.006124411 0.043421992
v -0.010166667 0.000000000 0.044538670
v -0.010166667 -0.006124411 0.043421992
v -0.010166667 -0.011941718 0.040127955
v -0.010166667 -0.017160218 0.034821734
v -0.010166667 -0.021518232 0.027769406
v -0.010166667 -0.024797233 0.019324604
v -0.010166667 -0.026832797 0.009910786
v -0.010166667 -0.027522852 0.000000000
v -0.010166667 -0.026832797 -0.009910786
v -0.010166667 -0.024797233 -0.019324604
v -0.010166667 -0.021518232 -0.027769406
v -0.010166667 -0.017160218 -0.034821734
v -0.010166667 -0.011941718 -0.040127955
v -0.010166667 -0.006124411 -0.043421992
v -0.010166667 -0.000000000 -0.044538670
v -0.010166667 0.006124411 -0.043421992
v -0.010166667 0.011941718 -0.040127955
v -0.010166667 0.017160218 -0.034821734
v -0.010166667 0.021518232 -0.027769406
v -0.010166667 0.024797233 -0.019324604
v -0.010166667 0.026832797 -0.009910786
v -0.005083333 0.029382504 0.000000000
v -0.005083333 0.028645824 0.010014239
v -0.005083333 0.026472722 0.019526323
v -0.005083333 0.022972167 0.028059275
v -0.005083333 0.018319692 0.035185218
v -0.005083333 0.012748591 0.040546827
v -0.005083333 0.006538222 0.043875249
v -0.005083333 0.000000000 0.045003583
v -0.005083333 -0.006538222 0.043875249
v -0.005083333 -0.012748591 0.040546827
v -0.005083333 -0.018319692 0.035185218
v -0.005083333 -0.022972167 0.028059275
v -0.005083333 -0.026472722 0.019526323
v -0.005083333 -0.028645824 0.010014239
v -0.005083333 -0.029382504 0.000000000
v -0.005083333 -0.028645824 -0.010014239
v -0.005083333 -0.026472722 -0.019526323
v -0.005083333 -0.022972167 -0.028059275
v -0.005083333 -0.018319692 -0.035185218
v -0.005083333 -0.012748591 -0.040546827
v -0.005083333 -0.006538222 -0.043875249
v -0.005083333 -0.000000000 -0.045003583
v -0.005083333 0.006538222 -0.043875249
v -0.005083333 0.012748591 -0.040546827
v -0.005083333 0.018319692 -0.035185218
v -0.005083333 0.022972167 -0.028059275
v -0.005083333 0.026472722 -0.019526323
v -0.005083333 0.028645824 -0.010014239
v 0.000000000 0.030126365 0.000000000
v 0.000000000 0.029371034 0.010055620
v 0.000000000 0.027142917 0.019607010
v 0.000000000 0.023553741 0.028175222
v 0.000000000 0.018783481 0.035330611
v 0.000000000 0.013071340 0.040714376
v 0.000000000 0.006703747 0.044056551
v 0.000000000 0.000000000 0.045189548
v 0.000000000 -0.006703747 0.044056551
v 0.000000000 -0.013071340 0.040714376
v 0.000000000 -0.018783481 0.035330611
v 0.000000000 -0.023553741 0.028175222
v 0.000000000 -0.027142917 0.019607010
v 0.000000000 -0.029371034 0.010055620
v 0.000000000 -0.030126365 0.000000000
v 0.000000000 -0.029371034 -0.010055620
v 0.000000000 -0.027142917 -0.019607010
v 0.000000000 -0.023553741 -0.028175222
v 0.000000000 -0.018783481 -0.035330611
v 0.000000000 -0.013071340 -0.040714376
v 0.000000000 -0.006703747 -0.044056551
v 0.000000000 -0.000000000 -0.045189548
v 0.000000000 0.006703747 -0.044056551
v 0.000000000 0.013071340 -0.040714376
v 0.000000000 0.018783481 -0.035330611
v 0.000000000 0.023553741 -0.028175222
v 0.000000000 0.027142917 -0.019607010
v 0.000000000 0.029371034 -0.010055620
v -0.030500000 0.000000000 0.000000000
v 0.000000000 0.000000000 0.000000000
vn -0.940778151 0.338966049 0.006203826
vn -0.943185626 0.329578193 0.042179249
vn -0.948999498 0.305722593 0.077030179
vn -0.957452479 0.267021133 0.109473579
vn -0.967177613 0.213507068 0.137775893
vn -0.976233814 0.146400689 0.159794800
vn -0.982455244 0.068834874 0.173330473
vn -0.984154986 -0.013995669 0.176757133
vn -0.980852245 -0.095664338 0.169638462
vn -0.973499056 -0.170053725 0.152909514
vn -0.964022501 -0.232705998 0.128485545
vn -0.954553488 -0.281260522 0.098590863
vn -0.946842587 -0.315016979 0.065218230
vn -0.942048393 -0.334141246 0.029907423
vn -0.940778151 -0.338966049 -0.006203826
vn -0.943185626 -0.329578193 -0.042179249
vn -0.948999498 -0.305722593 -0.077030179
vn -0.957452479 -0.267021133 -0.109473579
vn -0.967177613 -0.213507068 -0.137775893
vn -0.976233814 -0.146400689 -0.159794800
vn -0.982455244 -0.068834874 -0.173330473
vn -0.984154986 0.013995669 -0.176757133
vn -0.980852245 0.095664338 -0.169638462
vn -0.973499056 0.170053725 -0.152909514
vn -0.964022501 0.232705998 -0.128485545
vn -0.954553488 0.281260522 -0.098590863
vn -0.946842587 0.315016979 -0.065218230
vn -0.942048393 0.334141246 -0.029907423
vn -0.246621861 0.969111159 0.001104151
vn -0.238771005 0.964943511 0.108960669
vn -0.219919862 0.949223115 0.224968293
vn -0.191031799 0.913952410 0.358047264
vn -0.154188326 0.841455601 0.517859470
vn -0.113855502 0.695995618 0.708961934
vn -0.079718433 0.420489809 0.903788300
vn -0.068263031 -0.000580288 0.997667190
vn -0.088450456 -0.421408958 0.902546955
vn -0.127110606 -0.696079103 0.706623504
vn -0.167934684 -0.840562988 0.515026024
vn -0.202783609 -0.912513883 0.355242483
vn -0.228314720 -0.947840681 0.222419497
vn -0.243113442 -0.964116321 0.106656332
vn -0.246621861 -0.969111159 -0.001104151
vn -0.238771005 -0.964943511 -0.108960669
vn -0.219919862 -0.949223115 -0.224968293
vn -0.191031799 -0.913952410 -0.358047264
vn -0.154188326 -0.841455601 -0.517859470
vn -0.113855502 -0.695995618 -0.708961934
vn -0.079718433 -0.420489809 -0.903788300
vn -0.068263031 0.000580288 -0.997667190
vn -0.088450456 0.421408958 -0.902546955
vn -0.127110606 0.696079103 -0.706623504
vn -0.167934684 0.840562988 -0.515026024
vn -0.202783609 0.912513883 -0.355242483
vn -0.228314720 0.947840681 -0.222419497
vn -0.243113442 0.964116321 -0.106656332
vn -0.385568253 0.922677734 0.001709454
vn -0.376370645 0.919672457 0.112016560
vn -0.350747934 0.907439868 0.231362860
vn -0.309106065 0.876499623 0.369055350
vn -0.253377604 0.806945523 0.533515429
vn -0.189692071 0.662417901 0.724720252
vn -0.133376793 0.393900275 0.909424656
vn -0.110733275 -0.000876034 0.993849774
vn -0.137461168 -0.395560121 0.908095049
vn -0.195945814 -0.663504327 0.722057647
vn -0.259817098 -0.807175727 0.530058885
vn -0.314510589 -0.876117972 0.365377050
vn -0.354530786 -0.906881643 0.227757780
vn -0.378298285 -0.919298210 0.108541280
vn -0.385568253 -0.922677734 -0.001709454
vn -0.376370645 -0.919672457 -0.112016560
vn -0.350747934 -0.907439868 -0.231362860
vn -0.309106065 -0.876499623 -0.369055350
vn -0.253377604 -0.806945523 -0.533515429
vn -0.189692071 -0.662417901 -0.724720252
vn -0.133376793 -0.393900275 -0.909424656
vn -0.110733275 0.000876034 -0.993849774
vn -0.137461168 0.395560121 -0.908095049
vn -0.195945814 0.663504327 -0.722057647
vn -0.259817098 0.807175727 -0.530058885
vn -0.314510589 0.876117972 -0.365377050
vn -0.354530786 0.906881643 -0.227757780
vn -0.378298285 0.919298210 -0.108541280
vn -0.426971650 0.904263080 0.001868808
vn -0.417902253 0.900619797 0.119338547
vn -0.390684949 0.887046169 0.245996674
vn -0.345395466 0.853240866 0.390745437
vn -0.283826300 0.778499564 0.559804483
vn -0.212920962 0.628613344 0.748003962
vn -0.150231216 0.365744629 0.918510451
vn -0.123895678 -0.000897199 0.992294843
vn -0.150348863 -0.367691946 0.917713382
vn -0.213153959 -0.630652995 0.746218594
vn -0.284113682 -0.780298240 0.557148161
vn -0.345662411 -0.854604259 0.387516527
vn -0.390881879 -0.887935047 0.242451458
vn -0.418005103 -0.901053938 0.115644005
vn -0.426971650 -0.904263080 -0.001868808
vn -0.417902253 -0.900619797 -0.119338547
vn -0.390684949 -0.887046169 -0.245996674
vn -0.345395466 -0.853240866 -0.390745437
vn -0.283826300 -0.778499564 -0.559804483
vn -0.212920962 -0.628613344 -0.748003962
vn -0.150231216 -0.365744629 -0.918510451
vn -0.123895678 0.000897199 -0.992294843
vn -0.150348863 0.367691946 -0.917713382
vn -0.213153959 0.630652995 -0.746218594
vn -0.284113682 0.780298240 -0.557148161
vn -0.345662411 0.854604259 -0.387516527
vn -0.390881879 0.887935047 -0.242451458
vn -0.418005103 0.901053938 -0.115644005
vn -0.385281099 0.922797758 0.001665037
vn -0.377409873 0.916790004 0.130605804
vn -0.352097603 0.896832684 0.267802938
vn -0.309821266 0.852664175 0.420683478
vn -0.252947457 0.764741144 0.592611649
vn -0.188690154 0.603842645 0.774448246
vn -0.133015359 0.343461739 0.929699386
vn -0.108994314 -0.000727694 0.994042107
vn -0.129712039 -0.345215364 0.929516616
vn -0.183464155 -0.606215084 0.773850228
vn -0.247415184 -0.767533991 0.591335183
vn -0.305098300 -0.855373155 0.418630855
vn -0.348762249 -0.898944314 0.265073602
vn -0.375703460 -0.917937079 0.127430099
vn -0.385281099 -0.922797758 -0.001665037
vn -0.377409873 -0.916790004 -0.130605804
vn -0.352097603 -0.896832684 -0.267802938
vn -0.309821266 -0.852664175 -0.420683478
vn -0.252947457 -0.764741144 -0.592611649
vn -0.188690154 -0.603842645 -0.774448246
vn -0.133015359 -0.343461739 -0.929699386
vn -0.108994314 0.000727694 -0.994042107
vn -0.129712039 0.345215364 -0.929516616
vn -0.183464155 0.606215084 -0.773850228
vn -0.247415184 0.767533991 -0.591335183
vn -0.305098300 0.855373155 -0.418630855
vn -0.348762249 0.898944314 -0.265073602
vn -0.375703460 0.917937079 -0.127430099
vn -0.246206033 0.969216941 0.001054025
vn -0.241954072 0.959647570 0.143299573
vn -0.225262745 0.929582513 0.291775681
vn -0.197032825 0.870143441 0.451695093
vn -0.159627345 0.764952749 0.623992309
vn -0.118276282 0.590934237 0.798002160
vn -0.082780996 0.329969253 0.940355038
vn -0.066227734 -0.000417717 0.997804446
vn -0.076291732 -0.331066642 0.940518182
vn -0.107624728 -0.592702487 0.798198397
vn -0.147811917 -0.767402321 0.623895275
vn -0.186472401 -0.872829593 0.450995061
vn -0.217520260 -0.931858544 0.290386967
vn -0.237895715 -0.960945232 0.141385610
vn -0.246206033 -0.969216941 -0.001054025
vn -0.241954072 -0.959647570 -0.143299573
vn -0.225262745 -0.929582513 -0.291775681
vn -0.197032825 -0.870143441 -0.451695093
vn -0.159627345 -0.764952749 -0.623992309
vn -0.118276282 -0.590934237 -0.798002160
vn -0.082780996 -0.329969253 -0.940355038
vn -0.066227734 0.000417717 -0.997804446
vn -0.076291732 0.331066642 -0.940518182
vn -0.107624728 0.592702487 -0.798198397
vn -0.147811917 0.767402321 -0.623895275
vn -0.186472401 0.872829593 -0.450995061
vn -0.217520260 0.931858544 -0.290386967
vn -0.237895715 0.960945232 -0.141385610
vn 0.967238335 0.253794179 -0.006206217
vn 0.967864872 0.249510807 0.031336029
vn 0.970279933 0.232460895 0.067221904
vn 0.973971800 0.203631999 0.099563756
vn 0.978176166 0.164657352 0.126725470
vn 0.982052501 0.117653596 0.147412740
vn 0.984856250 0.065041766 0.160710099
vn 0.986068681 0.009394797 0.166073161
vn 0.985472185 -0.046663741 0.163300542
vn 0.983176605 -0.100516083 0.152513212
vn 0.979603696 -0.149594389 0.134157065
vn 0.975428176 -0.191451406 0.109023997
vn 0.971468850 -0.223879835 0.078269360
vn 0.968532780 -0.245073062 0.043398724
vn 0.967238335 -0.253794179 0.006206217
vn 0.967864872 -0.249510807 -0.031336029
vn 0.970279933 -0.232460895 -0.067221904
vn 0.973971800 -0.203631999 -0.099563756
vn 0.978176166 -0.164657352 -0.126725470
vn 0.982052501 -0.117653596 -0.147412740
vn 0.984856250 -0.065041766 -0.160710099
vn 0.986068681 -0.009394797 -0.166073161
vn 0.985472185 0.046663741 -0.163300542
vn 0.983176605 0.100516083 -0.152513212
vn 0.979603696 0.149594389 -0.134157065
vn 0.975428176 0.191451406 -0.109023997
vn 0.971468850 0.223879835 -0.078269360
vn 0.968532780 0.245073062 -0.043398724
vn -1.000000000 0.000000000 0.000000000
vn 1.000000000 0.000000000 0.000000000
f 1//1 30//30 29//29
f 1//1 2//2 30//30
f 2//2 31//31 30//30
f 2//2 3//3 31//31
f 3//3 32//32 31//31
f 3//3 4//4 32//32
f 4//4 33//33 32//32
f 4//4 5//5 33//33
f 5//5 34//34 33//33
f 5//5 6//6 34//34
f 6//6 35//35 34//34
f 6//6 7//7 35//35
f 7//7 36//36 35//35
f 7//7 8//8 36//36
f 8//8 37//37 36//36
f 8//8 9//9 37//37
f 9//9 38//38 37//37
f 9//9 10//10 38//38
f 10//10 39//39 38//38
f 10//10 11//11 39//39
f 11//11 40//40 39//39
f 11//11 12//12 40//40
f 12//12 41//41 40//40
f 12//12 13//13 41//41
f 13//13 42//42 41//41
f 13//13 14//14 42//42
f 14//14 43//43 42//42
f 14//14 15//15 43//43
f 15//15 44//44 43//43
f 15//15 16//16 44//44
f 16//16 45//45 44//44
f 16//16 17//17 45//45
f 17//17 46//46 45//45
f 17//17 18//18 46//46
f 18//18 47//47 46//46
f 18//18 19//19 47//47
f 19//19 48//48 47//47
f 19//19 20//20 48//48
f 20//20 49//49 48//48
f 20//20 21//21 49//49
f 21//21 50//50 49//49
f 21//21 22//22 50//50
f 22//22 51//51 50//50
f 22//22 23//23 51//51
f 23//23 52//52 51//51
f 23//23 24//24 52//52
f 24//24 53//53 52//52
f 24//24 25//25 53//53
f 25//25 54//54 53//53
f 25//25 26//26 54//54
f 26//26 55//55 54//54
f 26//26 27//27 55//55
f 27//27 56//56 55//55
f 27//27 28//28 56//56
f 28//28 29//29 56//56
f 28//28 1//1 29//29
f 29//29 58//58 57//57
f 29//29 30//30 58//58
f 30//30 59//59 58//58
f 30//30 31//31 59//59
f 31//31 60//60 59//59
f 31//31 32//32 60//60
f 32//32 61//61 60//60
f 32//32 33//33 61//61
f 33//33 62//62 61//61
f 33//33 34//34 62//62
f 34//34 63//63 62//62
f 34//34 35//35 63//63
f 35//35 64//64 63//63
f 35//35 36//36 64//64
f 36//36 65//65 64//64
f 36//36 37//37 65//65
f 37//37 66//66 65//65
f 37//37 38//38 66//66
f 38//38 67//67 66//66
f 38//38 39//39 67//67
f 39//39 68//68 67//67
f 39//39 40//40 68//68
f 40//40 69//69 68//68
f 40//40 41//41 69//69
f 41//41 70//70 69//69
f 41//41 42//42 70//70
f 42//42 71//71 70//70
f 42//42 43//43 71//71
f 43//43 72//72 71//71
f 43//43 44//44 72//72
f 44//44 73//73 72//72
f 44//44 45//45 73//73
f 45//45 74//74 73//73
f 45//45 46//46 74//74
f 46//46 75//75 74//74
f 46//46 47//47 75//75
f 47//47 76//76 75//75
f 47//47 48//48 76//76
f 48//48 77//77 76//76
f 48//48 49//49 77//77
f 49//49 78//78 77//77
f 49//49 50//50 78//78
f 50//50 79//79 78//78
f 50//50 51//51 79//79
f 51//51 80//80 79//79
f 51//51 52//52 80//80
f 52//52 81//81 80//80
f 52//52 53//53 81//81
f 53//53 82//82 81//81
f 53//53 54//54 82//82
f 54//54 83//83 82//82
f 54//54 55//55 83//83
f 55//55 84//84 83//83
f 55//55 56//56 84//84
f 56//56 57//57 84//84
f 56//56 29//29 57//57
f 57//57 86//86 85//85
f 57//57 58//58 86//86
f 58//58 87//87 86//86
f 58//58 59//59 87//87
f 59//59 88//88 87//87
f 59//59 60//60 88//88
f 60//60 89//89 88//88
f 60//60 61//61 89//89
f 61//61 90//90 89//89
f 61//61 62//62 90//90
f 62//62 91//91 90//90
f 62//62 63//63 91//91
f 63//63 92//92 91//91
f 63//63 64//64 92//92
f 64//64 93//93 92//92
f 64//64 65//65 93//93
f 65//65 94//94 93//93
f 65//65 66//66 94//94
f 66//66 95//95 94//94
f 66//66 67//67 95//95
f 67//67 96//96 95//95
f 67//67 68//68 96//96
f 68//68 97//97 96//96
f 68//68 69//69 97//97
f 69//69 98//98 97//97
f 69//69 70//70 98//98
f 70//70 99//99 98//98
f 70//70 71//71 99//99
f 71//71 100//100 99//99
f 71//71 72//72 100//100
f 72//72 101//101 100//100
f 72//72 73//73 101//101
f 73//73 102//102 101//101
f 73//73 74//74 102//102
f 74//74 103//103 102//102
f 74//74 75//75 103//103
f 75//75 104//104 103//103
f 75//75 76//76 104//104
f 76//76 105//105 104//104
f 76//76 77//77 105//105
f 77//77 106//106 105//105
f 77//77 78//78 106//106
f 78//78 107//107 106//106
f 78//78 79//79 107//107
f 79//79 108//108 107//107
f 79//79 80//80 108//108
f 80//80 109//109 108//108
f 80//80 81//81 109//109
f 81//81 110//110 109//109
f 81//81 82//82 110//110
f 82//82 111//111 110//110
f 82//82 83//83 111//111
f 83//83 112//112 111//111
f 83//83 84//84 112//112
f 84//84 85//85 112//112
f 84//84 57//57 85//85
f 85//85 114//114 113//113
f 85//85 86//86 114//114
f 86//86 115//115 114//114
f 86//86 87//87 115//115
f 87//87 116//116 115//115
f 87//87 88//88 116//116
f 88//88 117//117 116//116
f 88//88 89//89 117//117
f 89//89 118//118 117//117
f 89//89 90//90 118//118
f 90//90 119//119 118//118
f 90//90 91//91 119//119
f 91//91 120//120 119//119
f 91//91 92//92 120//120
f 92//92 121//121 120//120
f 92//92 93//93 121//121
f 93//93 122//122 121//121
f 93//93 94//94 122//122
f 94//94 123//123 122//122
f 94//94 95//95 123//123
f 95//95 124//124 123//123
f 95//95 96//96 124//124
f 96//96 125//125 124//124
f 96//96 97//97 125//125
f 97//97 126//126 125//125
f 97//97 98//98 126//126
f 98//98 127//127 126//126
f 98//98 99//99 127//127
f 99//99 128//128 127//127
f 99//99 100//100 128//128
f 100//100 129//129 128//128
f 100//100 101//101 129//129
f 101//101 130//130 129//129
f 101//101 102//102 130//130
f 102//102 131//131 130//130
f 102//102 103//103 131//131
f 103//103 132//132 131//131
f 103//103 104//104 132//132
f 104//104 133//133 132//132
f 104//104 105//105 133//133
f 105//105 134//134 133//133
f 105//105 106//106 134//134
f 106//106 135//135 134//134
f 106//106 107//107 135//135
f 107//107 136//136 135//135
f 107//107 108//108 136//136
f 108//108 137//137 136//136
f 108//108 109//109 137//137
f 109//109 138//138 137//137
f 109//109 110//110 138//138
f 110//110 139//139 138//138
f 110//110 111//111 139//139
f 111//111 140//140 139//139
f 111//111 112//112 140//140
f 112//112 113//113 140//140
f 112//112 85//85 113//113
f 113//113 142//142 141//141
f 113//113 114//114 142//142
f 114//114 143//143 142//142
f 114//114 115//115 143//143
f 115//115 144//144 143//143
f 115//115 116//116 144//144
f 116//116 145//145 144//144
f 116//116 117//117 145//145
f 117//117 146//146 145//145
f 117//117 118//118 146//146
f 118//118 147//147 146//146
f 118//118 119//119 147//147
f 119//119 148//148 147//147
f 119//119 120//120 148//148
f 120//120 149//149 148//148
f 120//120 121//121 149//149
f 121//121 150//150 149//149
f 121//121 122//122 150//150
f 122//122 151//151 150//150
f 122//122 123//123 151//151
f 123//123 152//152 151//151
f 123//123 124//124 152//152
f 124//124 153//153 152//152
f 124//124 125//125 153//153
f 125//125 154//154 153//153
f 125//125 126//126 154//154
f 126//126 155//155 154//154
f 126//126 127//127 155//155
f 127//127 156//156 155//155
f 127//127 128//128 156//156
f 128//128 157//157 156//156
f 128//128 129//129 157//157
f 129//129 158//158 157//157
f 129//129 130//130 158//158
f 130//130 159//159 158//158
f 130//130 131//131 159//159
f 131//131 160//160 159//159
f 131//131 132//132 160//160
f 132//132 161//161 160//160
f 132//132 133//133 161//161
f 133//133 162//162 161//161
f 133//133 134//134 162//162
f 134//134 163//163 162//162
f 134//134 135//135 163//163
f 135//135 164//164 163//163
f 135//135 136//136 164//164
f 136//136 165//165 164//164
f 136//136 137//137 165//165
f 137//137 166//166 165//165
f 137//137 138//138 166//166
f 138//138 167//167 166//166
f 138//138 139//139 167//167
f 139//139 168//168 167//167
f 139//139 140//140 168//168
f 140//140 141//141 168//168
f 140//140 113//113 141//141
f 141//141 170//170 169//169
f 141//141 142//142 170//170
f 142//142 171//171 170//170
f 142//142 143//143 171//171
f 143//143 172//172 171//171
f 143//143 144//144 172//172
f 144//144 173//173 172//172
f 144//144 145//145 173//173
f 145//145 174//174 173//173
f 145//145 146//146 174//174
f 146//146 175//175 174//174
f 146//146 147//147 175//175
f 147//147 176//176 175//175
f 147//147 148//148 176//176
f 148//148 177//177 176//176
f 148//148 149//149 177//177
f 149//149 178//178 177//177
f 149//149 150//150 178//178
f 150//150 179//179 178//178
f 150//150 151//151 179//179
f 151//151 180//180 179//179
f 151//151 152//152 180//180
f 152//152 181//181 180//180
f 152//152 153//153 181//181
f 153//153 182//182 181//181
f 153//153 154//154 182//182
f 154//154 183//183 182//182
f 154//154 155//155 183//183
f 155//155 184//184 183//183
f 155//155 156//156 184//184
f 156//156 185//185 184//184
f 156//156 157//157 185//185
f 157//157 186//186 185//185
f 157//157 158//158 186//186
f 158//158 187//187 186//186
f 158//158 159//159 187//187
f 159//159 188//188 187//187
f 159//159 160//160 188//188
f 160//160 189//189 188//188
f 160//160 161//161 189//189
f 161//161 190//190 189//189
f 161//161 162//162 190//190
f 162//162 191//191 190//190
f 162//162 163//163 191//191
f 163//163 192//192 191//191
f 163//163 164//164 192//192
f 164//164 193//193 192//192
f 164//164 165//165 193//193
f 165//165 194//194 193//193
f 165//165 166//166 194//194
f 166//166 195//195 194//194
f 166//166 167//167 195//195
f 167//167 196//196 195//195
f 167//167 168//168 196//196
f 168//168 169//169 196//196
f 168//168 141//141 169//169
f 197//197 2//2 1//1
f 198//198 169//169 170//170
f 197//197 3//3 2//2
f 198//198 170//170 171//171
f 197//197 4//4 3//3
f 198//198 171//171 172//172
f 197//197 5//5 4//4
f 198//198 172//172 173//173
f 197//197 6//6 5//5
f 198//198 173//173 174//174
f 197//197 7//7 6//6
f 198//198 174//174 175//175
f 197//197 8//8 7//7
f 198//198 175//175 176//176
f 197//197 9//9 8//8
f 198//198 176//176 177//177
f 197//197 10//10 9//9
f 198//198 177//177 178//178
f 197//197 11//11 10//10
f 198//198 178//178 179//179
f 197//197 12//12 11//11
f 198//198 179//179 180//180
f 197//197 13//13 12//12
f 198//198 180//180 181//181
f 197//197 14//14 13//13
f 198//198 181//181 182//182
f 197//197 15//15 14//14
f 198//198 182//182 183//183
f 197//197 16//16 15//15
f 198//198 183//183 184//184
f 197//197 17//17 16//16
f 198//198 184//184 185//185
f 197//197 18//18 17//17
f 198//198 185//185 186//186
f 197//197 19//19 18//18
f 198//198 186//186 187//187
f 197//197 20//20 19//19
f 198//198 187//187 188//188
f 197//197 21//21 20//20
f 198//198 188//188 189//189
f 197//197 22//22 21//21
f 198//198 189//189 190//190
f 197//197 23//23 22//22
f 198//198 190//190 191//191
f 197//197 24//24 23//23
f 198//198 191//191 192//192
f 197//197 25//25 24//24
f 198//198 192//192 193//193
f 197//197 26//26 25//25
f 198//198 193//193 194//194
f 197//197 27//27 26//26
f 198//198 194//194 195//195
f 197//197 28//28 27//27
f 198//198 195//195 196//196
f 197//197 1//1 28//28
f 198//198 196//196 169//169
