# Generated by generate_bionic_fish.py
# Units: meters
# Explicit smooth normals included for Stonefish.
# Tail3 link-local mesh. Origin is Joint3.
o Tail3
s 1
v -0.025000000 0.010042122 0.000000000
v -0.025000000 0.009790345 0.008938329
v -0.025000000 0.009047639 0.017428453
v -0.025000000 0.007851247 0.025044642
v -0.025000000 0.006261160 0.031404988
v -0.025000000 0.004357113 0.036190556
v -0.025000000 0.002234582 0.039161379
v -0.025000000 0.000000000 0.040168487
v -0.025000000 -0.002234582 0.039161379
v -0.025000000 -0.004357113 0.036190556
v -0.025000000 -0.006261160 0.031404988
v -0.025000000 -0.007851247 0.025044642
v -0.025000000 -0.009047639 0.017428453
v -0.025000000 -0.009790345 0.008938329
v -0.025000000 -0.010042122 0.000000000
v -0.025000000 -0.009790345 -0.008938329
v -0.025000000 -0.009047639 -0.017428453
v -0.025000000 -0.007851247 -0.025044642
v -0.025000000 -0.006261160 -0.031404988
v -0.025000000 -0.004357113 -0.036190556
v -0.025000000 -0.002234582 -0.039161379
v -0.025000000 -0.000000000 -0.040168487
v -0.025000000 0.002234582 -0.039161379
v -0.025000000 0.004357113 -0.036190556
v -0.025000000 0.006261160 -0.031404988
v -0.025000000 0.007851247 -0.025044642
v -0.025000000 0.009047639 -0.017428453
v -0.025000000 0.009790345 -0.008938329
v -0.020833333 0.010785983 0.000000000
v -0.020833333 0.010515555 0.008979710
v -0.020833333 0.009717835 0.017509141
v -0.020833333 0.008432821 0.025160589
v -0.020833333 0.006724950 0.031550381
v -0.020833333 0.004679862 0.036358105
v -0.020833333 0.002400107 0.039342682
v -0.020833333 0.000000000 0.040354452
v -0.020833333 -0.002400107 0.039342682
v -0.020833333 -0.004679862 0.036358105
v -0.020833333 -0.006724950 0.031550381
v -0.020833333 -0.008432821 0.025160589
v -0.020833333 -0.009717835 0.017509141
v -0.020833333 -0.010515555 0.008979710
v -0.020833333 -0.010785983 0.000000000
v -0.020833333 -0.010515555 -0.008979710
v -0.020833333 -0.009717835 -0.017509141
v -0.020833333 -0.008432821 -0.025160589
v -0.020833333 -0.006724950 -0.031550381
v -0.020833333 -0.004679862 -0.036358105
v -0.020833333 -0.002400107 -0.039342682
v -0.020833333 -0.000000000 -0.040354452
v -0.020833333 0.002400107 -0.039342682
v -0.020833333 0.004679862 -0.036358105
v -0.020833333 0.006724950 -0.031550381
v -0.020833333 0.008432821 -0.025160589
v -0.020833333 0.009717835 -0.017509141
v -0.020833333 0.010515555 -0.008979710
v -0.016666667 0.012645635 0.000000000
v -0.016666667 0.012328582 0.009083163
v -0.016666667 0.011393323 0.017710859
v -0.016666667 0.009886755 0.025450458
v -0.016666667 0.007884424 0.031913865
v -0.016666667 0.005486735 0.036776977
v -0.016666667 0.002813918 0.039795938
v -0.016666667 0.000000000 0.040819365
v -0.016666667 -0.002813918 0.039795938
v -0.016666667 -0.005486735 0.036776977
v -0.016666667 -0.007884424 0.031913865
v -0.016666667 -0.009886755 0.025450458
v -0.016666667 -0.011393323 0.017710859
v -0.016666667 -0.012328582 0.009083163
v -0.016666667 -0.012645635 0.000000000
v -0.016666667 -0.012328582 -0.009083163
v -0.016666667 -0.011393323 -0.017710859
v -0.016666667 -0.009886755 -0.025450458
v -0.016666667 -0.007884424 -0.031913865
v -0.016666667 -0.005486735 -0.036776977
v -0.016666667 -0.002813918 -0.039795938
v -0.016666667 -0.000000000 -0.040819365
v -0.016666667 0.002813918 -0.039795938
v -0.016666667 0.005486735 -0.036776977
v -0.016666667 0.007884424 -0.031913865
v -0.016666667 0.009886755 -0.025450458
v -0.016666667 0.011393323 -0.017710859
v -0.016666667 0.012328582 -0.009083163
v -0.012500000 0.015063183 0.000000000
v -0.012500000 0.014685517 0.009217652
v -0.012500000 0.013571459 0.017973092
v -0.012500000 0.011776870 0.025827287
v -0.012500000 0.009391741 0.032386394
v -0.012500000 0.006535670 0.037321511
v -0.012500000 0.003351873 0.040385172
v -0.012500000 0.000000000 0.041423752
v -0.012500000 -0.003351873 0.040385172
v -0.012500000 -0.006535670 0.037321511
v -0.012500000 -0.009391741 0.032386394
v -0.012500000 -0.011776870 0.025827287
v -0.012500000 -0.013571459 0.017973092
v -0.012500000 -0.014685517 0.009217652
v -0.012500000 -0.015063183 0.000000000
v -0.012500000 -0.014685517 -0.009217652
v -0.012500000 -0.013571459 -0.017973092
v -0.012500000 -0.011776870 -0.025827287
v -0.012500000 -0.009391741 -0.032386394
v -0.012500000 -0.006535670 -0.037321511
v -0.012500000 -0.003351873 -0.040385172
v -0.012500000 -0.000000000 -0.041423752
v -0.012500000 0.003351873 -0.040385172
v -0.012500000 0.006535670 -0.037321511
v -0.012500000 0.009391741 -0.032386394
v -0.012500000 0.011776870 -0.025827287
v -0.012500000 0.013571459 -0.017973092
v -0.012500000 0.014685517 -0.009217652
v -0.008333333 0.017480730 0.000000000
v -0.008333333 0.017042452 0.009352141
v -0.008333333 0.015749594 0.018235326
v -0.008333333 0.013666985 0.026204116
v -0.008333333 0.010899057 0.032858922
v -0.008333333 0.007584605 0.037866045
v -0.008333333 0.003889828 0.040974406
v -0.008333333 0.000000000 0.042028139
v -0.008333333 -0.003889828 0.040974406
v -0.008333333 -0.007584605 0.037866045
v -0.008333333 -0.010899057 0.032858922
v -0.008333333 -0.013666985 0.026204116
v -0.008333333 -0.015749594 0.018235326
v -0.008333333 -0.017042452 0.009352141
v -0.008333333 -0.017480730 0.000000000
v -0.008333333 -0.017042452 -0.009352141
v -0.008333333 -0.015749594 -0.018235326
v -0.008333333 -0.013666985 -0.026204116
v -0.008333333 -0.010899057 -0.032858922
v -0.008333333 -0.007584605 -0.037866045
v -0.008333333 -0.003889828 -0.040974406
v -0.008333333 -0.000000000 -0.042028139
v -0.008333333 0.003889828 -0.040974406
v -0.008333333 0.007584605 -0.037866045
v -0.008333333 0.010899057 -0.032858922
v -0.008333333 0.013666985 -0.026204116
v -0.008333333 0.015749594 -0.018235326
v -0.008333333 0.017042452 -0.009352141
v -0.004166667 0.019340383 0.000000000
v -0.004166667 0.018855479 0.009455594
v -0.004166667 0.017425083 0.018437044
v -0.004166667 0.015120920 0.026493985
v -0.004166667 0.012058531 0.033222406
v -0.004166667 0.008391478 0.038284917
v -0.004166667 0.004303640 0.041427663
v -0.004166667 0.000000000 0.042493052
v -0.004166667 -0.004303640 0.041427663
v -0.004166667 -0.008391478 0.038284917
v -0.004166667 -0.012058531 0.033222406
v -0.004166667 -0.015120920 0.026493985
v -0.004166667 -0.017425083 0.018437044
v -0.004166667 -0.018855479 0.009455594
v -0.004166667 -0.019340383 0.000000000
v -0.004166667 -0.018855479 -0.009455594
v -0.004166667 -0.017425083 -0.018437044
v -0.004166667 -0.015120920 -0.026493985
v -0.004166667 -0.012058531 -0.033222406
v -0.004166667 -0.008391478 -0.038284917
v -0.004166667 -0.004303640 -0.041427663
v -0.004166667 -0.000000000 -0.042493052
v -0.004166667 0.004303640 -0.041427663
v -0.004166667 0.008391478 -0.038284917
v -0.004166667 0.012058531 -0.033222406
v -0.004166667 0.015120920 -0.026493985
v -0.004166667 0.017425083 -0.018437044
v -0.004166667 0.018855479 -0.009455594
v 0.000000000 0.020084243 0.000000000
v 0.000000000 0.019580690 0.009496975
v 0.000000000 0.018095278 0.018517732
v 0.000000000 0.015702494 0.026609932
v 0.000000000 0.012522321 0.033367799
v 0.000000000 0.008714227 0.038452466
v 0.000000000 0.004469165 0.041608965
v 0.000000000 0.000000000 0.042679017
v 0.000000000 -0.004469165 0.041608965
v 0.000000000 -0.008714227 0.038452466
v 0.000000000 -0.012522321 0.033367799
v 0.000000000 -0.015702494 0.026609932
v 0.000000000 -0.018095278 0.018517732
v 0.000000000 -0.019580690 0.009496975
v 0.000000000 -0.020084243 0.000000000
v 0.000000000 -0.019580690 -0.009496975
v 0.000000000 -0.018095278 -0.018517732
v 0.000000000 -0.015702494 -0.026609932
v 0.000000000 -0.012522321 -0.033367799
v 0.000000000 -0.008714227 -0.038452466
v 0.000000000 -0.004469165 -0.041608965
v 0.000000000 -0.000000000 -0.042679017
v 0.000000000 0.004469165 -0.041608965
v 0.000000000 0.008714227 -0.038452466
v 0.000000000 0.012522321 -0.033367799
v 0.000000000 0.015702494 -0.026609932
v 0.000000000 0.018095278 -0.018517732
v 0.000000000 0.019580690 -0.009496975
v -0.025000000 0.000000000 0.000000000
v 0.000000000 0.000000000 0.000000000
vn -0.871990057 0.489498770 0.004928951
vn -0.877101343 0.479164648 0.033082845
vn -0.890072045 0.451679648 0.061296415
vn -0.910366378 0.404081207 0.089170822
vn -0.935988176 0.332556357 0.115466029
vn -0.962296569 0.234561512 0.137717862
vn -0.981893933 0.112526887 0.152387677
vn -0.987459155 -0.023005058 0.156189579
vn -0.976678041 -0.155413123 0.148144404
vn -0.954097707 -0.269658799 0.130313841
vn -0.927512652 -0.358356084 0.106307089
vn -0.903407563 -0.421381345 0.079325515
vn -0.885363371 -0.462057219 0.051330577
vn -0.874770074 -0.483983377 0.023182048
vn -0.871990057 -0.489498770 -0.004928951
vn -0.877101343 -0.479164648 -0.033082845
vn -0.890072045 -0.451679648 -0.061296415
vn -0.910366378 -0.404081207 -0.089170822
vn -0.935988176 -0.332556357 -0.115466029
vn -0.962296569 -0.234561512 -0.137717862
vn -0.981893933 -0.112526887 -0.152387677
vn -0.987459155 0.023005058 -0.156189579
vn -0.976678041 0.155413123 -0.148144404
vn -0.954097707 0.269658799 -0.130313841
vn -0.927512652 0.358356084 -0.106307089
vn -0.903407563 0.421381345 -0.079325515
vn -0.885363371 0.462057219 -0.051330577
vn -0.874770074 0.483983377 -0.023182048
vn -0.296401202 0.955062821 0.001155762
vn -0.287462665 0.955884725 0.060411988
vn -0.266297352 0.955599975 0.126152324
vn -0.233718669 0.950024617 0.206951226
vn -0.191590768 0.928698538 0.317509060
vn -0.144033447 0.861381074 0.487110882
vn -0.101201481 0.639206741 0.762347035
vn -0.088047425 -0.001109671 0.996115666
vn -0.118244984 -0.639752028 0.759431015
vn -0.164974443 -0.859680444 0.483459375
vn -0.210837255 -0.925713800 0.314008937
vn -0.249126816 -0.946773441 0.203852593
vn -0.276908779 -0.952932203 0.123457459
vn -0.292848540 -0.954398103 0.057999947
vn -0.296401202 -0.955062821 -0.001155762
vn -0.287462665 -0.955884725 -0.060411988
vn -0.266297352 -0.955599975 -0.126152324
vn -0.233718669 -0.950024617 -0.206951226
vn -0.191590768 -0.928698538 -0.317509060
vn -0.144033447 -0.861381074 -0.487110882
vn -0.101201481 -0.639206741 -0.762347035
vn -0.088047425 0.001109671 -0.996115666
vn -0.118244984 0.639752028 -0.759431015
vn -0.164974443 0.859680444 -0.483459375
vn -0.210837255 0.925713800 -0.314008937
vn -0.249126816 0.946773441 -0.203852593
vn -0.276908779 0.952932203 -0.123457459
vn -0.292848540 0.954398103 -0.057999947
vn -0.454043286 0.890977903 0.001752191
vn -0.444546015 0.893368195 0.065361376
vn -0.418075931 0.898069350 0.136689278
vn -0.374447247 0.899394816 0.225562019
vn -0.314489782 0.883388727 0.347448605
vn -0.242428847 0.813325226 0.528895388
vn -0.172060186 0.580386987 0.795956178
vn -0.140524794 -0.001560681 0.990075930
vn -0.179635891 -0.582308567 0.792873054
vn -0.251921275 -0.813243034 0.524567859
vn -0.323045683 -0.882031022 0.343020060
vn -0.381075344 -0.897639397 0.221416113
vn -0.422500055 -0.896570685 0.132871029
vn -0.446743733 -0.892526681 0.061775076
vn -0.454043286 -0.890977903 -0.001752191
vn -0.444546015 -0.893368195 -0.065361376
vn -0.418075931 -0.898069350 -0.136689278
vn -0.374447247 -0.899394816 -0.225562019
vn -0.314489782 -0.883388727 -0.347448605
vn -0.242428847 -0.813325226 -0.528895388
vn -0.172060186 -0.580386987 -0.795956178
vn -0.140524794 0.001560681 -0.990075930
vn -0.179635891 0.582308567 -0.792873054
vn -0.251921275 0.813243034 -0.524567859
vn -0.323045683 0.882031022 -0.343020060
vn -0.381075344 0.897639397 -0.221416113
vn -0.422500055 0.896570685 -0.132871029
vn -0.446743733 0.892526681 -0.061775076
vn -0.498993279 0.866603773 0.001899523
vn -0.490130709 0.868502386 0.073996577
vn -0.463239344 0.872615235 0.154764213
vn -0.417588151 0.872139994 0.254935223
vn -0.353202578 0.850421455 0.389911897
vn -0.273744805 0.766431999 0.581072950
vn -0.194079788 0.520102218 0.831761215
vn -0.155269097 -0.001488665 0.987871091
vn -0.194195028 -0.522915919 0.829968212
vn -0.273911678 -0.768646494 0.578061381
vn -0.353362474 -0.851976503 0.386356054
vn -0.417714504 -0.873166696 0.251186216
vn -0.463324035 -0.873235528 0.150965399
vn -0.490172761 -0.868794199 0.070194753
vn -0.498993279 -0.866603773 -0.001899523
vn -0.490130709 -0.868502386 -0.073996577
vn -0.463239344 -0.872615235 -0.154764213
vn -0.417588151 -0.872139994 -0.254935223
vn -0.353202578 -0.850421455 -0.389911897
vn -0.273744805 -0.766431999 -0.581072950
vn -0.194079788 -0.520102218 -0.831761215
vn -0.155269097 0.001488665 -0.987871091
vn -0.194195028 0.522915919 -0.829968212
vn -0.273911678 0.768646494 -0.578061381
vn -0.353362474 0.851976503 -0.386356054
vn -0.417714504 0.873166696 -0.251186216
vn -0.463324035 0.873235528 -0.150965399
vn -0.490172761 0.868794199 -0.070194753
vn -0.453713114 0.891146176 0.001704029
vn -0.446118692 0.890843823 0.085880120
vn -0.421075761 0.889187918 0.178997347
vn -0.378242587 0.878513803 0.291797951
vn -0.318137707 0.840674541 0.438240477
vn -0.244710551 0.734285031 0.633199999
vn -0.172067522 0.474499415 0.863274622
vn -0.135654238 -0.001144172 0.990755580
vn -0.166179007 -0.477285552 0.862892252
vn -0.236571606 -0.737827715 0.632174136
vn -0.310417714 -0.844474895 0.436466488
vn -0.372116659 -0.881936284 0.289339911
vn -0.416940029 -0.891728195 0.176016584
vn -0.444053691 -0.892186643 0.082579140
vn -0.453713114 -0.891146176 -0.001704029
vn -0.446118692 -0.890843823 -0.085880120
vn -0.421075761 -0.889187918 -0.178997347
vn -0.378242587 -0.878513803 -0.291797951
vn -0.318137707 -0.840674541 -0.438240477
vn -0.244710551 -0.734285031 -0.633199999
vn -0.172067522 -0.474499415 -0.863274622
vn -0.135654238 0.001144172 -0.990755580
vn -0.166179007 0.477285552 -0.862892252
vn -0.236571606 0.737827715 -0.632174136
vn -0.310417714 0.844474895 -0.436466488
vn -0.372116659 0.881936284 -0.289339911
vn -0.416940029 0.891728195 -0.176016584
vn -0.444053691 0.892186643 -0.082579140
vn -0.295891971 0.955220776 0.001100245
vn -0.291894058 0.951304503 0.099083809
vn -0.274859751 0.939323587 0.205239653
vn -0.245243200 0.911833458 0.329265118
vn -0.204350794 0.851461212 0.482964344
vn -0.155578960 0.720199822 0.676097186
vn -0.107999738 0.448044731 0.887463788
vn -0.082201252 -0.000635956 0.996615548
vn -0.096641143 -0.449890697 0.887839428
vn -0.138908550 -0.723243830 0.676478216
vn -0.187545854 -0.855375994 0.482864849
vn -0.231171095 -0.915799909 0.328436372
vn -0.264950374 -0.942499512 0.203705594
vn -0.286811792 -0.953057575 0.097057991
vn -0.295891971 -0.955220776 -0.001100245
vn -0.291894058 -0.951304503 -0.099083809
vn -0.274859751 -0.939323587 -0.205239653
vn -0.245243200 -0.911833458 -0.329265118
vn -0.204350794 -0.851461212 -0.482964344
vn -0.155578960 -0.720199822 -0.676097186
vn -0.107999738 -0.448044731 -0.887463788
vn -0.082201252 0.000635956 -0.996615548
vn -0.096641143 0.449890697 -0.887839428
vn -0.138908550 0.723243830 -0.676478216
vn -0.187545854 0.855375994 -0.482864849
vn -0.231171095 0.915799909 -0.328436372
vn -0.264950374 0.942499512 -0.203705594
vn -0.286811792 0.953057575 -0.097057991
vn 0.949941142 0.312383544 -0.005324372
vn 0.951260876 0.307188403 0.027166735
vn 0.956352227 0.286350865 0.058254622
vn 0.964129083 0.251007649 0.086314952
vn 0.972970444 0.203094038 0.109915094
vn 0.981102488 0.145184399 0.127903862
vn 0.986967986 0.080278732 0.139461537
vn 0.989494643 0.011593954 0.144103890
vn 0.988239317 -0.057585824 0.141657775
vn 0.983432127 -0.123992634 0.132238715
vn 0.975945297 -0.184435793 0.116250656
vn 0.967181342 -0.235899052 0.094402805
vn 0.958855742 -0.275698863 0.067718558
vn 0.952671594 -0.301678124 0.037511900
vn 0.949941142 -0.312383544 0.005324372
vn 0.951260876 -0.307188403 -0.027166735
vn 0.956352227 -0.286350865 -0.058254622
vn 0.964129083 -0.251007649 -0.086314952
vn 0.972970444 -0.203094038 -0.109915094
vn 0.981102488 -0.145184399 -0.127903862
vn 0.986967986 -0.080278732 -0.139461537
vn 0.989494643 -0.011593954 -0.144103890
vn 0.988239317 0.057585824 -0.141657775
vn 0.983432127 0.123992634 -0.132238715
vn 0.975945297 0.184435793 -0.116250656
vn 0.967181342 0.235899052 -0.094402805
vn 0.958855742 0.275698863 -0.067718558
vn 0.952671594 0.301678124 -0.037511900
vn -1.000000000 0.000000000 0.000000000
vn 1.000000000 0.000000000 0.000000000
f 1//1 30//30 29//29
f 1//1 2//2 30//30
f 2//2 31//31 30//30
f 2//2 3//3 31//31
f 3//3 32//32 31//31
f 3//3 4//4 32//32
f 4//4 33//33 32//32
f 4//4 5//5 33//33
f 5//5 34//34 33//33
f 5//5 6//6 34//34
f 6//6 35//35 34//34
f 6//6 7//7 35//35
f 7//7 36//36 35//35
f 7//7 8//8 36//36
f 8//8 37//37 36//36
f 8//8 9//9 37//37
f 9//9 38//38 37//37
f 9//9 10//10 38//38
f 10//10 39//39 38//38
f 10//10 11//11 39//39
f 11//11 40//40 39//39
f 11//11 12//12 40//40
f 12//12 41//41 40//40
f 12//12 13//13 41//41
f 13//13 42//42 41//41
f 13//13 14//14 42//42
f 14//14 43//43 42//42
f 14//14 15//15 43//43
f 15//15 44//44 43//43
f 15//15 16//16 44//44
f 16//16 45//45 44//44
f 16//16 17//17 45//45
f 17//17 46//46 45//45
f 17//17 18//18 46//46
f 18//18 47//47 46//46
f 18//18 19//19 47//47
f 19//19 48//48 47//47
f 19//19 20//20 48//48
f 20//20 49//49 48//48
f 20//20 21//21 49//49
f 21//21 50//50 49//49
f 21//21 22//22 50//50
f 22//22 51//51 50//50
f 22//22 23//23 51//51
f 23//23 52//52 51//51
f 23//23 24//24 52//52
f 24//24 53//53 52//52
f 24//24 25//25 53//53
f 25//25 54//54 53//53
f 25//25 26//26 54//54
f 26//26 55//55 54//54
f 26//26 27//27 55//55
f 27//27 56//56 55//55
f 27//27 28//28 56//56
f 28//28 29//29 56//56
f 28//28 1//1 29//29
f 29//29 58//58 57//57
f 29//29 30//30 58//58
f 30//30 59//59 58//58
f 30//30 31//31 59//59
f 31//31 60//60 59//59
f 31//31 32//32 60//60
f 32//32 61//61 60//60
f 32//32 33//33 61//61
f 33//33 62//62 61//61
f 33//33 34//34 62//62
f 34//34 63//63 62//62
f 34//34 35//35 63//63
f 35//35 64//64 63//63
f 35//35 36//36 64//64
f 36//36 65//65 64//64
f 36//36 37//37 65//65
f 37//37 66//66 65//65
f 37//37 38//38 66//66
f 38//38 67//67 66//66
f 38//38 39//39 67//67
f 39//39 68//68 67//67
f 39//39 40//40 68//68
f 40//40 69//69 68//68
f 40//40 41//41 69//69
f 41//41 70//70 69//69
f 41//41 42//42 70//70
f 42//42 71//71 70//70
f 42//42 43//43 71//71
f 43//43 72//72 71//71
f 43//43 44//44 72//72
f 44//44 73//73 72//72
f 44//44 45//45 73//73
f 45//45 74//74 73//73
f 45//45 46//46 74//74
f 46//46 75//75 74//74
f 46//46 47//47 75//75
f 47//47 76//76 75//75
f 47//47 48//48 76//76
f 48//48 77//77 76//76
f 48//48 49//49 77//77
f 49//49 78//78 77//77
f 49//49 50//50 78//78
f 50//50 79//79 78//78
f 50//50 51//51 79//79
f 51//51 80//80 79//79
f 51//51 52//52 80//80
f 52//52 81//81 80//80
f 52//52 53//53 81//81
f 53//53 82//82 81//81
f 53//53 54//54 82//82
f 54//54 83//83 82//82
f 54//54 55//55 83//83
f 55//55 84//84 83//83
f 55//55 56//56 84//84
f 56//56 57//57 84//84
f 56//56 29//29 57//57
f 57//57 86//86 85//85
f 57//57 58//58 86//86
f 58//58 87//87 86//86
f 58//58 59//59 87//87
f 59//59 88//88 87//87
f 59//59 60//60 88//88
f 60//60 89//89 88//88
f 60//60 61//61 89//89
f 61//61 90//90 89//89
f 61//61 62//62 90//90
f 62//62 91//91 90//90
f 62//62 63//63 91//91
f 63//63 92//92 91//91
f 63//63 64//64 92//92
f 64//64 93//93 92//92
f 64//64 65//65 93//93
f 65//65 94//94 93//93
f 65//65 66//66 94//94
f 66//66 95//95 94//94
f 66//66 67//67 95//95
f 67//67 96//96 95//95
f 67//67 68//68 96//96
f 68//68 97//97 96//96
f 68//68 69//69 97//97
f 69//69 98//98 97//97
f 69//69 70//70 98//98
f 70//70 99//99 98//98
f 70//70 71//71 99//99
f 71//71 100//100 99//99
f 71//71 72//72 100//100
f 72//72 101//101 100//100
f 72//72 73//73 101//101
f 73//73 102//102 101//101
f 73//73 74//74 102//102
f 74//74 103//103 102//102
f 74//74 75//75 103//103
f 75//75 104//104 103//103
f 75//75 76//76 104//104
f 76//76 105//105 104//104
f 76//76 77//77 105//105
f 77//77 106//106 105//105
f 77//77 78//78 106//106
f 78//78 107//107 106//106
f 78//78 79//79 107//107
f 79//79 108//108 107//107
f 79//79 80//80 108//108
f 80//80 109//109 108//108
f 80//80 81//81 109//109
f 81//81 110//110 109//109
f 81//81 82//82 110//110
f 82//82 111//111 110//110
f 82//82 83//83 111//111
f 83//83 112//112 111//111
f 83//83 84//84 112//112
f 84//84 85//85 112//112
f 84//84 57//57 85//85
f 85//85 114//114 113//113
f 85//85 86//86 114//114
f 86//86 115//115 114//114
f 86//86 87//87 115//115
f 87//87 116//116 115//115
f 87//87 88//88 116//116
f 88//88 117//117 116//116
f 88//88 89//89 117//117
f 89//89 118//118 117//117
f 89//89 90//90 118//118
f 90//90 119//119 118//118
f 90//90 91//91 119//119
f 91//91 120//120 119//119
f 91//91 92//92 120//120
f 92//92 121//121 120//120
f 92//92 93//93 121//121
f 93//93 122//122 121//121
f 93//93 94//94 122//122
f 94//94 123//123 122//122
f 94//94 95//95 123//123
f 95//95 124//124 123//123
f 95//95 96//96 124//124
f 96//96 125//125 124//124
f 96//96 97//97 125//125
f 97//97 126//126 125//125
f 97//97 98//98 126//126
f 98//98 127//127 126//126
f 98//98 99//99 127//127
f 99//99 128//128 127//127
f 99//99 100//100 128//128
f 100//100 129//129 128//128
f 100//100 101//101 129//129
f 101//101 130//130 129//129
f 101//101 102//102 130//130
f 102//102 131//131 130//130
f 102//102 103//103 131//131
f 103//103 132//132 131//131
f 103//103 104//104 132//132
f 104//104 133//133 132//132
f 104//104 105//105 133//133
f 105//105 134//134 133//133
f 105//105 106//106 134//134
f 106//106 135//135 134//134
f 106//106 107//107 135//135
f 107//107 136//136 135//135
f 107//107 108//108 136//136
f 108//108 137//137 136//136
f 108//108 109//109 137//137
f 109//109 138//138 137//137
f 109//109 110//110 138//138
f 110//110 139//139 138//138
f 110//110 111//111 139//139
f 111//111 140//140 139//139
f 111//111 112//112 140//140
f 112//112 113//113 140//140
f 112//112 85//85 113//113
f 113//113 142//142 141//141
f 113//113 114//114 142//142
f 114//114 143//143 142//142
f 114//114 115//115 143//143
f 115//115 144//144 143//143
f 115//115 116//116 144//144
f 116//116 145//145 144//144
f 116//116 117//117 145//145
f 117//117 146//146 145//145
f 117//117 118//118 146//146
f 118//118 147//147 146//146
f 118//118 119//119 147//147
f 119//119 148//148 147//147
f 119//119 120//120 148//148
f 120//120 149//149 148//148
f 120//120 121//121 149//149
f 121//121 150//150 149//149
f 121//121 122//122 150//150
f 122//122 151//151 150//150
f 122//122 123//123 151//151
f 123//123 152//152 151//151
f 123//123 124//124 152//152
f 124//124 153//153 152//152
f 124//124 125//125 153//153
f 125//125 154//154 153//153
f 125//125 126//126 154//154
f 126//126 155//155 154//154
f 126//126 127//127 155//155
f 127//127 156//156 155//155
f 127//127 128//128 156//156
f 128//128 157//157 156//156
f 128//128 129//129 157//157
f 129//129 158//158 157//157
f 129//129 130//130 158//158
f 130//130 159//159 158//158
f 130//130 131//131 159//159
f 131//131 160//160 159//159
f 131//131 132//132 160//160
f 132//132 161//161 160//160
f 132//132 133//133 161//161
f 133//133 162//162 161//161
f 133//133 134//134 162//162
f 134//134 163//163 162//162
f 134//134 135//135 163//163
f 135//135 164//164 163//163
f 135//135 136//136 164//164
f 136//136 165//165 164//164
f 136//136 137//137 165//165
f 137//137 166//166 165//165
f 137//137 138//138 166//166
f 138//138 167//167 166//166
f 138//138 139//139 167//167
f 139//139 168//168 167//167
f 139//139 140//140 168//168
f 140//140 141//141 168//168
f 140//140 113//113 141//141
f 141//141 170//170 169//169
f 141//141 142//142 170//170
f 142//142 171//171 170//170
f 142//142 143//143 171//171
f 143//143 172//172 171//171
f 143//143 144//144 172//172
f 144//144 173//173 172//172
f 144//144 145//145 173//173
f 145//145 174//174 173//173
f 145//145 146//146 174//174
f 146//146 175//175 174//174
f 146//146 147//147 175//175
f 147//147 176//176 175//175
f 147//147 148//148 176//176
f 148//148 177//177 176//176
f 148//148 149//149 177//177
f 149//149 178//178 177//177
f 149//149 150//150 178//178
f 150//150 179//179 178//178
f 150//150 151//151 179//179
f 151//151 180//180 179//179
f 151//151 152//152 180//180
f 152//152 181//181 180//180
f 152//152 153//153 181//181
f 153//153 182//182 181//181
f 153//153 154//154 182//182
f 154//154 183//183 182//182
f 154//154 155//155 183//183
f 155//155 184//184 183//183
f 155//155 156//156 184//184
f 156//156 185//185 184//184
f 156//156 157//157 185//185
f 157//157 186//186 185//185
f 157//157 158//158 186//186
f 158//158 187//187 186//186
f 158//158 159//159 187//187
f 159//159 188//188 187//187
f 159//159 160//160 188//188
f 160//160 189//189 188//188
f 160//160 161//161 189//189
f 161//161 190//190 189//189
f 161//161 162//162 190//190
f 162//162 191//191 190//190
f 162//162 163//163 191//191
f 163//163 192//192 191//191
f 163//163 164//164 192//192
f 164//164 193//193 192//192
f 164//164 165//165 193//193
f 165//165 194//194 193//193
f 165//165 166//166 194//194
f 166//166 195//195 194//194
f 166//166 167//167 195//195
f 167//167 196//196 195//195
f 167//167 168//168 196//196
f 168//168 169//169 196//196
f 168//168 141//141 169//169
f 197//197 2//2 1//1
f 198//198 169//169 170//170
f 197//197 3//3 2//2
f 198//198 170//170 171//171
f 197//197 4//4 3//3
f 198//198 171//171 172//172
f 197//197 5//5 4//4
f 198//198 172//172 173//173
f 197//197 6//6 5//5
f 198//198 173//173 174//174
f 197//197 7//7 6//6
f 198//198 174//174 175//175
f 197//197 8//8 7//7
f 198//198 175//175 176//176
f 197//197 9//9 8//8
f 198//198 176//176 177//177
f 197//197 10//10 9//9
f 198//198 177//177 178//178
f 197//197 11//11 10//10
f 198//198 178//178 179//179
f 197//197 12//12 11//11
f 198//198 179//179 180//180
f 197//197 13//13 12//12
f 198//198 180//180 181//181
f 197//197 14//14 13//13
f 198//198 181//181 182//182
f 197//197 15//15 14//14
f 198//198 182//182 183//183
f 197//197 16//16 15//15
f 198//198 183//183 184//184
f 197//197 17//17 16//16
f 198//198 184//184 185//185
f 197//197 18//18 17//17
f 198//198 185//185 186//186
f 197//197 19//19 18//18
f 198//198 186//186 187//187
f 197//197 20//20 19//19
f 198//198 187//187 188//188
f 197//197 21//21 20//20
f 198//198 188//188 189//189
f 197//197 22//22 21//21
f 198//198 189//189 190//190
f 197//197 23//23 22//22
f 198//198 190//190 191//191
f 197//197 24//24 23//23
f 198//198 191//191 192//192
f 197//197 25//25 24//24
f 198//198 192//192 193//193
f 197//197 26//26 25//25
f 198//198 193//193 194//194
f 197//197 27//27 26//26
f 198//198 194//194 195//195
f 197//197 28//28 27//27
f 198//198 195//195 196//196
f 197//197 1//1 28//28
f 198//198 196//196 169//169
