# Generated by generate_bionic_fish.py
# Units: meters
# Explicit smooth normals included for Stonefish.
# Tail4 link-local mesh. Origin is Joint4.
o Tail4
s 1
v -0.021550000 0.006025273 0.000000000
v -0.021550000 0.005874207 0.006703747
v -0.021550000 0.005428583 0.013071340
v -0.021550000 0.004710748 0.018783481
v -0.021550000 0.003756696 0.023553741
v -0.021550000 0.002614268 0.027142917
v -0.021550000 0.001340749 0.029371034
v -0.021550000 0.000000000 0.030126365
v -0.021550000 -0.001340749 0.029371034
v -0.021550000 -0.002614268 0.027142917
v -0.021550000 -0.003756696 0.023553741
v -0.021550000 -0.004710748 0.018783481
v -0.021550000 -0.005428583 0.013071340
v -0.021550000 -0.005874207 0.006703747
v -0.021550000 -0.006025273 0.000000000
v -0.021550000 -0.005874207 -0.006703747
v -0.021550000 -0.005428583 -0.013071340
v -0.021550000 -0.004710748 -0.018783481
v -0.021550000 -0.003756696 -0.023553741
v -0.021550000 -0.002614268 -0.027142917
v -0.021550000 -0.001340749 -0.029371034
v -0.021550000 -0.000000000 -0.030126365
v -0.021550000 0.001340749 -0.029371034
v -0.021550000 0.002614268 -0.027142917
v -0.021550000 0.003756696 -0.023553741
v -0.021550000 0.004710748 -0.018783481
v -0.021550000 0.005428583 -0.013071340
v -0.021550000 0.005874207 -0.006703747
v -0.017958333 0.006322817 0.000000000
v -0.017958333 0.006164291 0.006869272
v -0.017958333 0.005696662 0.013394089
v -0.017958333 0.004943378 0.019247271
v -0.017958333 0.003942212 0.024135315
v -0.017958333 0.002743368 0.027813113
v -0.017958333 0.001406959 0.030096245
v -0.017958333 0.000000000 0.030870226
v -0.017958333 -0.001406959 0.030096245
v -0.017958333 -0.002743368 0.027813113
v -0.017958333 -0.003942212 0.024135315
v -0.017958333 -0.004943378 0.019247271
v -0.017958333 -0.005696662 0.013394089
v -0.017958333 -0.006164291 0.006869272
v -0.017958333 -0.006322817 0.000000000
v -0.017958333 -0.006164291 -0.006869272
v -0.017958333 -0.005696662 -0.013394089
v -0.017958333 -0.004943378 -0.019247271
v -0.017958333 -0.003942212 -0.024135315
v -0.017958333 -0.002743368 -0.027813113
v -0.017958333 -0.001406959 -0.030096245
v -0.017958333 -0.000000000 -0.030870226
v -0.017958333 0.001406959 -0.030096245
v -0.017958333 0.002743368 -0.027813113
v -0.017958333 0.003942212 -0.024135315
v -0.017958333 0.004943378 -0.019247271
v -0.017958333 0.005696662 -0.013394089
v -0.017958333 0.006164291 -0.006869272
v -0.014366667 0.007066678 0.000000000
v -0.014366667 0.006889502 0.007283083
v -0.014366667 0.006366857 0.014200962
v -0.014366667 0.005524952 0.020406745
v -0.014366667 0.004406002 0.025589249
v -0.014366667 0.003066117 0.029488601
v -0.014366667 0.001572484 0.031909272
v -0.014366667 0.000000000 0.032729878
v -0.014366667 -0.001572484 0.031909272
v -0.014366667 -0.003066117 0.029488601
v -0.014366667 -0.004406002 0.025589249
v -0.014366667 -0.005524952 0.020406745
v -0.014366667 -0.006366857 0.014200962
v -0.014366667 -0.006889502 0.007283083
v -0.014366667 -0.007066678 0.000000000
v -0.014366667 -0.006889502 -0.007283083
v -0.014366667 -0.006366857 -0.014200962
v -0.014366667 -0.005524952 -0.020406745
v -0.014366667 -0.004406002 -0.025589249
v -0.014366667 -0.003066117 -0.029488601
v -0.014366667 -0.001572484 -0.031909272
v -0.014366667 -0.000000000 -0.032729878
v -0.014366667 0.001572484 -0.031909272
v -0.014366667 0.003066117 -0.029488601
v -0.014366667 0.004406002 -0.025589249
v -0.014366667 0.005524952 -0.020406745
v -0.014366667 0.006366857 -0.014200962
v -0.014366667 0.006889502 -0.007283083
v -0.010775000 0.008033697 0.000000000
v -0.010775000 0.007832276 0.007821038
v -0.010775000 0.007238111 0.015249897
v -0.010775000 0.006280998 0.021914062
v -0.010775000 0.005008928 0.027479364
v -0.010775000 0.003485691 0.031666737
v -0.010775000 0.001787666 0.034266207
v -0.010775000 0.000000000 0.035147426
v -0.010775000 -0.001787666 0.034266207
v -0.010775000 -0.003485691 0.031666737
v -0.010775000 -0.005008928 0.027479364
v -0.010775000 -0.006280998 0.021914062
v -0.010775000 -0.007238111 0.015249897
v -0.010775000 -0.007832276 0.007821038
v -0.010775000 -0.008033697 0.000000000
v -0.010775000 -0.007832276 -0.007821038
v -0.010775000 -0.007238111 -0.015249897
v -0.010775000 -0.006280998 -0.021914062
v -0.010775000 -0.005008928 -0.027479364
v -0.010775000 -0.003485691 -0.031666737
v -0.010775000 -0.001787666 -0.034266207
v -0.010775000 -0.000000000 -0.035147426
v -0.010775000 0.001787666 -0.034266207
v -0.010775000 0.003485691 -0.031666737
v -0.010775000 0.005008928 -0.027479364
v -0.010775000 0.006280998 -0.021914062
v -0.010775000 0.007238111 -0.015249897
v -0.010775000 0.007832276 -0.007821038
v -0.007183333 0.009000717 0.000000000
v -0.007183333 0.008775050 0.008358993
v -0.007183333 0.008109365 0.016298831
v -0.007183333 0.007037044 0.023421378
v -0.007183333 0.005611855 0.029369479
v -0.007183333 0.003905265 0.033844872
v -0.007183333 0.002002848 0.036623142
v -0.007183333 0.000000000 0.037564974
v -0.007183333 -0.002002848 0.036623142
v -0.007183333 -0.003905265 0.033844872
v -0.007183333 -0.005611855 0.029369479
v -0.007183333 -0.007037044 0.023421378
v -0.007183333 -0.008109365 0.016298831
v -0.007183333 -0.008775050 0.008358993
v -0.007183333 -0.009000717 0.000000000
v -0.007183333 -0.008775050 -0.008358993
v -0.007183333 -0.008109365 -0.016298831
v -0.007183333 -0.007037044 -0.023421378
v -0.007183333 -0.005611855 -0.029369479
v -0.007183333 -0.003905265 -0.033844872
v -0.007183333 -0.002002848 -0.036623142
v -0.007183333 -0.000000000 -0.037564974
v -0.007183333 0.002002848 -0.036623142
v -0.007183333 0.003905265 -0.033844872
v -0.007183333 0.005611855 -0.029369479
v -0.007183333 0.007037044 -0.023421378
v -0.007183333 0.008109365 -0.016298831
v -0.007183333 0.008775050 -0.008358993
v -0.003591667 0.009744577 0.000000000
v -0.003591667 0.009500260 0.008772805
v -0.003591667 0.008779561 0.017105704
v -0.003591667 0.007618617 0.024580852
v -0.003591667 0.006075645 0.030823414
v -0.003591667 0.004228014 0.035520361
v -0.003591667 0.002168372 0.038436168
v -0.003591667 0.000000000 0.039424626
v -0.003591667 -0.002168372 0.038436168
v -0.003591667 -0.004228014 0.035520361
v -0.003591667 -0.006075645 0.030823414
v -0.003591667 -0.007618617 0.024580852
v -0.003591667 -0.008779561 0.017105704
v -0.003591667 -0.009500260 0.008772805
v -0.003591667 -0.009744577 0.000000000
v -0.003591667 -0.009500260 -0.008772805
v -0.003591667 -0.008779561 -0.017105704
v -0.003591667 -0.007618617 -0.024580852
v -0.003591667 -0.006075645 -0.030823414
v -0.003591667 -0.004228014 -0.035520361
v -0.003591667 -0.002168372 -0.038436168
v -0.003591667 -0.000000000 -0.039424626
v -0.003591667 0.002168372 -0.038436168
v -0.003591667 0.004228014 -0.035520361
v -0.003591667 0.006075645 -0.030823414
v -0.003591667 0.007618617 -0.024580852
v -0.003591667 0.008779561 -0.017105704
v -0.003591667 0.009500260 -0.008772805
v 0.000000000 0.010042122 0.000000000
v 0.000000000 0.009790345 0.008938329
v 0.000000000 0.009047639 0.017428453
v 0.000000000 0.007851247 0.025044642
v 0.000000000 0.006261160 0.031404988
v 0.000000000 0.004357113 0.036190556
v 0.000000000 0.002234582 0.039161379
v 0.000000000 0.000000000 0.040168487
v 0.000000000 -0.002234582 0.039161379
v 0.000000000 -0.004357113 0.036190556
v 0.000000000 -0.006261160 0.031404988
v 0.000000000 -0.007851247 0.025044642
v 0.000000000 -0.009047639 0.017428453
v 0.000000000 -0.009790345 0.008938329
v 0.000000000 -0.010042122 0.000000000
v 0.000000000 -0.009790345 -0.008938329
v 0.000000000 -0.009047639 -0.017428453
v 0.000000000 -0.007851247 -0.025044642
v 0.000000000 -0.006261160 -0.031404988
v 0.000000000 -0.004357113 -0.036190556
v 0.000000000 -0.002234582 -0.039161379
v 0.000000000 -0.000000000 -0.040168487
v 0.000000000 0.002234582 -0.039161379
v 0.000000000 0.004357113 -0.036190556
v 0.000000000 0.006261160 -0.031404988
v 0.000000000 0.007851247 -0.025044642
v 0.000000000 0.009047639 -0.017428453
v 0.000000000 0.009790345 -0.008938329
v -0.021550000 0.000000000 0.000000000
v 0.000000000 0.000000000 0.000000000
vn -0.766033853 0.642780587 0.005025337
vn -0.775478593 0.630444682 0.034241118
vn -0.799132910 0.597749674 0.063889903
vn -0.836346621 0.540094468 0.093927081
vn -0.884160831 0.450602469 0.123357365
vn -0.934637224 0.322664873 0.149467850
vn -0.973365516 0.156522768 0.167511775
vn -0.984484486 -0.032638623 0.172409448
vn -0.962644006 -0.216601555 0.162481644
vn -0.918110322 -0.370391728 0.141008523
vn -0.867347545 -0.484630436 0.113320682
vn -0.822604199 -0.562449925 0.083500987
vn -0.789783116 -0.611042372 0.053570977
vn -0.770811002 -0.636607484 0.024110397
vn -0.766033853 -0.642780587 -0.005025337
vn -0.775478593 -0.630444682 -0.034241118
vn -0.799132910 -0.597749674 -0.063889903
vn -0.836346621 -0.540094468 -0.093927081
vn -0.884160831 -0.450602469 -0.123357365
vn -0.934637224 -0.322664873 -0.149467850
vn -0.973365516 -0.156522768 -0.167511775
vn -0.984484486 0.032638623 -0.172409448
vn -0.962644006 0.216601555 -0.162481644
vn -0.918110322 0.370391728 -0.141008523
vn -0.867347545 0.484630436 -0.113320682
vn -0.822604199 0.562449925 -0.083500987
vn -0.789783116 0.611042372 -0.053570977
vn -0.770811002 0.636607484 -0.024110397
vn -0.143747065 0.989614265 0.000623169
vn -0.143135249 0.988580899 0.047117997
vn -0.143223830 0.984788028 0.098384316
vn -0.145939835 0.976078816 0.161157405
vn -0.155752865 0.956140898 0.248063758
vn -0.183413065 0.903159148 0.388153580
vn -0.255122632 0.715346353 0.650532119
vn -0.346591806 -0.007168620 0.937988662
vn -0.257815161 -0.719708697 0.644632247
vn -0.187752449 -0.903730629 0.384733633
vn -0.160096740 -0.955995914 0.245847201
vn -0.149590042 -0.975801660 0.159480218
vn -0.145822124 -0.984546752 0.096972168
vn -0.144481027 -0.988445519 0.045833282
vn -0.143747065 -0.989614265 -0.000623169
vn -0.143135249 -0.988580899 -0.047117997
vn -0.143223830 -0.984788028 -0.098384316
vn -0.145939835 -0.976078816 -0.161157405
vn -0.155752865 -0.956140898 -0.248063758
vn -0.183413065 -0.903159148 -0.388153580
vn -0.255122632 -0.715346353 -0.650532119
vn -0.346591806 0.007168620 -0.937988662
vn -0.257815161 0.719708697 -0.644632247
vn -0.187752449 0.903730629 -0.384733633
vn -0.160096740 0.955995914 -0.245847201
vn -0.149590042 0.975801660 -0.159480218
vn -0.145822124 0.984546752 -0.096972168
vn -0.144481027 0.988445519 -0.045833282
vn -0.231472688 0.972840937 0.000952255
vn -0.231601440 0.971577274 0.048973192
vn -0.233283368 0.967059075 0.101860766
vn -0.239511413 0.956535280 0.166356671
vn -0.257158436 0.932203157 0.254689641
vn -0.301929106 0.868482130 0.393163584
vn -0.405753082 0.659496789 0.632794139
vn -0.516216139 -0.009683031 0.856403606
vn -0.403970686 -0.667454319 0.625549692
vn -0.302058636 -0.870566220 0.388426360
vn -0.258053002 -0.932827081 0.251480190
vn -0.240504044 -0.956715344 0.163870547
vn -0.234066029 -0.967091696 0.099733372
vn -0.232024435 -0.971572968 0.047017333
vn -0.231472688 -0.972840937 -0.000952255
vn -0.231601440 -0.971577274 -0.048973192
vn -0.233283368 -0.967059075 -0.101860766
vn -0.239511413 -0.956535280 -0.166356671
vn -0.257158436 -0.932203157 -0.254689641
vn -0.301929106 -0.868482130 -0.393163584
vn -0.405753082 -0.659496789 -0.632794139
vn -0.516216139 0.009683031 -0.856403606
vn -0.403970686 0.667454319 -0.625549692
vn -0.302058636 0.870566220 -0.388426360
vn -0.258053002 0.932827081 -0.251480190
vn -0.240504044 0.956715344 -0.163870547
vn -0.234066029 0.967091696 -0.099733372
vn -0.232024435 0.971572968 -0.047017333
vn -0.259112795 0.965846553 0.000998040
vn -0.259936590 0.964260332 0.051332069
vn -0.263106447 0.958851844 0.106668363
vn -0.271937512 0.946479090 0.173860063
vn -0.293946527 0.918345341 0.265023158
vn -0.345592064 0.846558534 0.404851545
vn -0.455783757 0.625015622 0.633732309
vn -0.560766163 -0.009357225 0.827921344
vn -0.452083059 -0.634134876 0.627290895
vn -0.343177246 -0.849710855 0.400275955
vn -0.292488683 -0.919730251 0.261814124
vn -0.271026382 -0.947202609 0.171324017
vn -0.262559943 -0.959243951 0.104466828
vn -0.259677717 -0.964436666 0.049288955
vn -0.259112795 -0.965846553 -0.000998040
vn -0.259936590 -0.964260332 -0.051332069
vn -0.263106447 -0.958851844 -0.106668363
vn -0.271937512 -0.946479090 -0.173860063
vn -0.293946527 -0.918345341 -0.265023158
vn -0.345592064 -0.846558534 -0.404851545
vn -0.455783757 -0.625015622 -0.633732309
vn -0.560766163 0.009357225 -0.827921344
vn -0.452083059 0.634134876 -0.627290895
vn -0.343177246 0.849710855 -0.400275955
vn -0.292488683 0.919730251 -0.261814124
vn -0.271026382 0.947202609 -0.171324017
vn -0.262559943 0.959243951 -0.104466828
vn -0.259677717 0.964436666 -0.049288955
vn -0.230411287 0.973092978 0.000834325
vn -0.231669681 0.971300719 0.053889451
vn -0.235541151 0.965371819 0.112149978
vn -0.245031364 0.952133957 0.182758197
vn -0.266954358 0.922652836 0.278293218
vn -0.316117810 0.848629376 0.424143504
vn -0.417729962 0.623844094 0.660545400
vn -0.512147201 -0.007696144 0.858863210
vn -0.413545635 -0.631874947 0.655525789
vn -0.312378709 -0.851816637 0.420509165
vn -0.263996735 -0.924278478 0.275708214
vn -0.242801297 -0.953099941 0.180687664
vn -0.234036935 -0.965947127 0.110330691
vn -0.230910394 -0.971574464 0.052186689
vn -0.230411287 -0.973092978 -0.000834325
vn -0.231669681 -0.971300719 -0.053889451
vn -0.235541151 -0.965371819 -0.112149978
vn -0.245031364 -0.952133957 -0.182758197
vn -0.266954358 -0.922652836 -0.278293218
vn -0.316117810 -0.848629376 -0.424143504
vn -0.417729962 -0.623844094 -0.660545400
vn -0.512147201 0.007696144 -0.858863210
vn -0.413545635 0.631874947 -0.655525789
vn -0.312378709 0.851816637 -0.420509165
vn -0.263996735 0.924278478 -0.275708214
vn -0.242801297 0.953099941 -0.180687664
vn -0.234036935 0.965947127 -0.110330691
vn -0.230910394 0.971574464 -0.052186689
vn -0.142358173 0.989815087 0.000493319
vn -0.143633094 0.988040475 0.056085243
vn -0.146774976 0.982210553 0.117130423
vn -0.153706942 0.969441248 0.191201051
vn -0.168865475 0.941436248 0.291859970
vn -0.202180121 0.871173685 0.447414360
vn -0.272074768 0.651768719 0.707935631
vn -0.339995195 -0.004754586 0.940415154
vn -0.267812055 -0.656751069 0.704950166
vn -0.197483461 -0.873315714 0.445331277
vn -0.164664350 -0.942636634 0.290382209
vn -0.150328923 -0.970205656 0.190005789
vn -0.144417864 -0.982686006 0.116067628
vn -0.142423158 -0.988272054 0.055081670
vn -0.142358173 -0.989815087 -0.000493319
vn -0.143633094 -0.988040475 -0.056085243
vn -0.146774976 -0.982210553 -0.117130423
vn -0.153706942 -0.969441248 -0.191201051
vn -0.168865475 -0.941436248 -0.291859970
vn -0.202180121 -0.871173685 -0.447414360
vn -0.272074768 -0.651768719 -0.707935631
vn -0.339995195 0.004754586 -0.940415154
vn -0.267812055 0.656751069 -0.704950166
vn -0.197483461 0.873315714 -0.445331277
vn -0.164664350 0.942636634 -0.290382209
vn -0.150328923 0.970205656 -0.190005789
vn -0.144417864 0.982686006 -0.116067628
vn -0.142423158 0.988272054 -0.055081670
vn 0.873338892 0.487092639 -0.004465567
vn 0.876684708 0.480528613 0.022719468
vn 0.889669463 0.453924753 0.049402080
vn 0.910589750 0.406486592 0.074799454
vn 0.936237199 0.337493470 0.097765355
vn 0.961850140 0.247431627 0.116712892
vn 0.981692447 0.139421665 0.129774957
vn 0.990601249 0.020147227 0.135289521
vn 0.986050313 -0.100804900 0.132450563
vn 0.969361013 -0.213380454 0.121688159
vn 0.945043272 -0.309808929 0.104458806
vn 0.918841422 -0.385879754 0.082627216
vn 0.895927648 -0.440410726 0.057896814
vn 0.880030960 -0.473867189 0.031549920
vn 0.873338892 -0.487092639 0.004465567
vn 0.876684708 -0.480528613 -0.022719468
vn 0.889669463 -0.453924753 -0.049402080
vn 0.910589750 -0.406486592 -0.074799454
vn 0.936237199 -0.337493470 -0.097765355
vn 0.961850140 -0.247431627 -0.116712892
vn 0.981692447 -0.139421665 -0.129774957
vn 0.990601249 -0.020147227 -0.135289521
vn 0.986050313 0.100804900 -0.132450563
vn 0.969361013 0.213380454 -0.121688159
vn 0.945043272 0.309808929 -0.104458806
vn 0.918841422 0.385879754 -0.082627216
vn 0.895927648 0.440410726 -0.057896814
vn 0.880030960 0.473867189 -0.031549920
vn -1.000000000 0.000000000 0.000000000
vn 1.000000000 0.000000000 0.000000000
f 1//1 30//30 29//29
f 1//1 2//2 30//30
f 2//2 31//31 30//30
f 2//2 3//3 31//31
f 3//3 32//32 31//31
f 3//3 4//4 32//32
f 4//4 33//33 32//32
f 4//4 5//5 33//33
f 5//5 34//34 33//33
f 5//5 6//6 34//34
f 6//6 35//35 34//34
f 6//6 7//7 35//35
f 7//7 36//36 35//35
f 7//7 8//8 36//36
f 8//8 37//37 36//36
f 8//8 9//9 37//37
f 9//9 38//38 37//37
f 9//9 10//10 38//38
f 10//10 39//39 38//38
f 10//10 11//11 39//39
f 11//11 40//40 39//39
f 11//11 12//12 40//40
f 12//12 41//41 40//40
f 12//12 13//13 41//41
f 13//13 42//42 41//41
f 13//13 14//14 42//42
f 14//14 43//43 42//42
f 14//14 15//15 43//43
f 15//15 44//44 43//43
f 15//15 16//16 44//44
f 16//16 45//45 44//44
f 16//16 17//17 45//45
f 17//17 46//46 45//45
f 17//17 18//18 46//46
f 18//18 47//47 46//46
f 18//18 19//19 47//47
f 19//19 48//48 47//47
f 19//19 20//20 48//48
f 20//20 49//49 48//48
f 20//20 21//21 49//49
f 21//21 50//50 49//49
f 21//21 22//22 50//50
f 22//22 51//51 50//50
f 22//22 23//23 51//51
f 23//23 52//52 51//51
f 23//23 24//24 52//52
f 24//24 53//53 52//52
f 24//24 25//25 53//53
f 25//25 54//54 53//53
f 25//25 26//26 54//54
f 26//26 55//55 54//54
f 26//26 27//27 55//55
f 27//27 56//56 55//55
f 27//27 28//28 56//56
f 28//28 29//29 56//56
f 28//28 1//1 29//29
f 29//29 58//58 57//57
f 29//29 30//30 58//58
f 30//30 59//59 58//58
f 30//30 31//31 59//59
f 31//31 60//60 59//59
f 31//31 32//32 60//60
f 32//32 61//61 60//60
f 32//32 33//33 61//61
f 33//33 62//62 61//61
f 33//33 34//34 62//62
f 34//34 63//63 62//62
f 34//34 35//35 63//63
f 35//35 64//64 63//63
f 35//35 36//36 64//64
f 36//36 65//65 64//64
f 36//36 37//37 65//65
f 37//37 66//66 65//65
f 37//37 38//38 66//66
f 38//38 67//67 66//66
f 38//38 39//39 67//67
f 39//39 68//68 67//67
f 39//39 40//40 68//68
f 40//40 69//69 68//68
f 40//40 41//41 69//69
f 41//41 70//70 69//69
f 41//41 42//42 70//70
f 42//42 71//71 70//70
f 42//42 43//43 71//71
f 43//43 72//72 71//71
f 43//43 44//44 72//72
f 44//44 73//73 72//72
f 44//44 45//45 73//73
f 45//45 74//74 73//73
f 45//45 46//46 74//74
f 46//46 75//75 74//74
f 46//46 47//47 75//75
f 47//47 76//76 75//75
f 47//47 48//48 76//76
f 48//48 77//77 76//76
f 48//48 49//49 77//77
f 49//49 78//78 77//77
f 49//49 50//50 78//78
f 50//50 79//79 78//78
f 50//50 51//51 79//79
f 51//51 80//80 79//79
f 51//51 52//52 80//80
f 52//52 81//81 80//80
f 52//52 53//53 81//81
f 53//53 82//82 81//81
f 53//53 54//54 82//82
f 54//54 83//83 82//82
f 54//54 55//55 83//83
f 55//55 84//84 83//83
f 55//55 56//56 84//84
f 56//56 57//57 84//84
f 56//56 29//29 57//57
f 57//57 86//86 85//85
f 57//57 58//58 86//86
f 58//58 87//87 86//86
f 58//58 59//59 87//87
f 59//59 88//88 87//87
f 59//59 60//60 88//88
f 60//60 89//89 88//88
f 60//60 61//61 89//89
f 61//61 90//90 89//89
f 61//61 62//62 90//90
f 62//62 91//91 90//90
f 62//62 63//63 91//91
f 63//63 92//92 91//91
f 63//63 64//64 92//92
f 64//64 93//93 92//92
f 64//64 65//65 93//93
f 65//65 94//94 93//93
f 65//65 66//66 94//94
f 66//66 95//95 94//94
f 66//66 67//67 95//95
f 67//67 96//96 95//95
f 67//67 68//68 96//96
f 68//68 97//97 96//96
f 68//68 69//69 97//97
f 69//69 98//98 97//97
f 69//69 70//70 98//98
f 70//70 99//99 98//98
f 70//70 71//71 99//99
f 71//71 100//100 99//99
f 71//71 72//72 100//100
f 72//72 101//101 100//100
f 72//72 73//73 101//101
f 73//73 102//102 101//101
f 73//73 74//74 102//102
f 74//74 103//103 102//102
f 74//74 75//75 103//103
f 75//75 104//104 103//103
f 75//75 76//76 104//104
f 76//76 105//105 104//104
f 76//76 77//77 105//105
f 77//77 106//106 105//105
f 77//77 78//78 106//106
f 78//78 107//107 106//106
f 78//78 79//79 107//107
f 79//79 108//108 107//107
f 79//79 80//80 108//108
f 80//80 109//109 108//108
f 80//80 81//81 109//109
f 81//81 110//110 109//109
f 81//81 82//82 110//110
f 82//82 111//111 110//110
f 82//82 83//83 111//111
f 83//83 112//112 111//111
f 83//83 84//84 112//112
f 84//84 85//85 112//112
f 84//84 57//57 85//85
f 85//85 114//114 113//113
f 85//85 86//86 114//114
f 86//86 115//115 114//114
f 86//86 87//87 115//115
f 87//87 116//116 115//115
f 87//87 88//88 116//116
f 88//88 117//117 116//116
f 88//88 89//89 117//117
f 89//89 118//118 117//117
f 89//89 90//90 118//118
f 90//90 119//119 118//118
f 90//90 91//91 119//119
f 91//91 120//120 119//119
f 91//91 92//92 120//120
f 92//92 121//121 120//120
f 92//92 93//93 121//121
f 93//93 122//122 121//121
f 93//93 94//94 122//122
f 94//94 123//123 122//122
f 94//94 95//95 123//123
f 95//95 124//124 123//123
f 95//95 96//96 124//124
f 96//96 125//125 124//124
f 96//96 97//97 125//125
f 97//97 126//126 125//125
f 97//97 98//98 126//126
f 98//98 127//127 126//126
f 98//98 99//99 127//127
f 99//99 128//128 127//127
f 99//99 100//100 128//128
f 100//100 129//129 128//128
f 100//100 101//101 129//129
f 101//101 130//130 129//129
f 101//101 102//102 130//130
f 102//102 131//131 130//130
f 102//102 103//103 131//131
f 103//103 132//132 131//131
f 103//103 104//104 132//132
f 104//104 133//133 132//132
f 104//104 105//105 133//133
f 105//105 134//134 133//133
f 105//105 106//106 134//134
f 106//106 135//135 134//134
f 106//106 107//107 135//135
f 107//107 136//136 135//135
f 107//107 108//108 136//136
f 108//108 137//137 136//136
f 108//108 109//109 137//137
f 109//109 138//138 137//137
f 109//109 110//110 138//138
f 110//110 139//139 138//138
f 110//110 111//111 139//139
f 111//111 140//140 139//139
f 111//111 112//112 140//140
f 112//112 113//113 140//140
f 112//112 85//85 113//113
f 113//113 142//142 141//141
f 113//113 114//114 142//142
f 114//114 143//143 142//142
f 114//114 115//115 143//143
f 115//115 144//144 143//143
f 115//115 116//116 144//144
f 116//116 145//145 144//144
f 116//116 117//117 145//145
f 117//117 146//146 145//145
f 117//117 118//118 146//146
f 118//118 147//147 146//146
f 118//118 119//119 147//147
f 119//119 148//148 147//147
f 119//119 120//120 148//148
f 120//120 149//149 148//148
f 120//120 121//121 149//149
f 121//121 150//150 149//149
f 121//121 122//122 150//150
f 122//122 151//151 150//150
f 122//122 123//123 151//151
f 123//123 152//152 151//151
f 123//123 124//124 152//152
f 124//124 153//153 152//152
f 124//124 125//125 153//153
f 125//125 154//154 153//153
f 125//125 126//126 154//154
f 126//126 155//155 154//154
f 126//126 127//127 155//155
f 127//127 156//156 155//155
f 127//127 128//128 156//156
f 128//128 157//157 156//156
f 128//128 129//129 157//157
f 129//129 158//158 157//157
f 129//129 130//130 158//158
f 130//130 159//159 158//158
f 130//130 131//131 159//159
f 131//131 160//160 159//159
f 131//131 132//132 160//160
f 132//132 161//161 160//160
f 132//132 133//133 161//161
f 133//133 162//162 161//161
f 133//133 134//134 162//162
f 134//134 163//163 162//162
f 134//134 135//135 163//163
f 135//135 164//164 163//163
f 135//135 136//136 164//164
f 136//136 165//165 164//164
f 136//136 137//137 165//165
f 137//137 166//166 165//165
f 137//137 138//138 166//166
f 138//138 167//167 166//166
f 138//138 139//139 167//167
f 139//139 168//168 167//167
f 139//139 140//140 168//168
f 140//140 141//141 168//168
f 140//140 113//113 141//141
f 141//141 170//170 169//169
f 141//141 142//142 170//170
f 142//142 171//171 170//170
f 142//142 143//143 171//171
f 143//143 172//172 171//171
f 143//143 144//144 172//172
f 144//144 173//173 172//172
f 144//144 145//145 173//173
f 145//145 174//174 173//173
f 145//145 146//146 174//174
f 146//146 175//175 174//174
f 146//146 147//147 175//175
f 147//147 176//176 175//175
f 147//147 148//148 176//176
f 148//148 177//177 176//176
f 148//148 149//149 177//177
f 149//149 178//178 177//177
f 149//149 150//150 178//178
f 150//150 179//179 178//178
f 150//150 151//151 179//179
f 151//151 180//180 179//179
f 151//151 152//152 180//180
f 152//152 181//181 180//180
f 152//152 153//153 181//181
f 153//153 182//182 181//181
f 153//153 154//154 182//182
f 154//154 183//183 182//182
f 154//154 155//155 183//183
f 155//155 184//184 183//183
f 155//155 156//156 184//184
f 156//156 185//185 184//184
f 156//156 157//157 185//185
f 157//157 186//186 185//185
f 157//157 158//158 186//186
f 158//158 187//187 186//186
f 158//158 159//159 187//187
f 159//159 188//188 187//187
f 159//159 160//160 188//188
f 160//160 189//189 188//188
f 160//160 161//161 189//189
f 161//161 190//190 189//189
f 161//161 162//162 190//190
f 162//162 191//191 190//190
f 162//162 163//163 191//191
f 163//163 192//192 191//191
f 163//163 164//164 192//192
f 164//164 193//193 192//192
f 164//164 165//165 193//193
f 165//165 194//194 193//193
f 165//165 166//166 194//194
f 166//166 195//195 194//194
f 166//166 167//167 195//195
f 167//167 196//196 195//195
f 167//167 168//168 196//196
f 168//168 169//169 196//196
f 168//168 141//141 169//169
f 197//197 2//2 1//1
f 198//198 169//169 170//170
f 197//197 3//3 2//2
f 198//198 170//170 171//171
f 197//197 4//4 3//3
f 198//198 171//171 172//172
f 197//197 5//5 4//4
f 198//198 172//172 173//173
f 197//197 6//6 5//5
f 198//198 173//173 174//174
f 197//197 7//7 6//6
f 198//198 174//174 175//175
f 197//197 8//8 7//7
f 198//198 175//175 176//176
f 197//197 9//9 8//8
f 198//198 176//176 177//177
f 197//197 10//10 9//9
f 198//198 177//177 178//178
f 197//197 11//11 10//10
f 198//198 178//178 179//179
f 197//197 12//12 11//11
f 198//198 179//179 180//180
f 197//197 13//13 12//12
f 198//198 180//180 181//181
f 197//197 14//14 13//13
f 198//198 181//181 182//182
f 197//197 15//15 14//14
f 198//198 182//182 183//183
f 197//197 16//16 15//15
f 198//198 183//183 184//184
f 197//197 17//17 16//16
f 198//198 184//184 185//185
f 197//197 18//18 17//17
f 198//198 185//185 186//186
f 197//197 19//19 18//18
f 198//198 186//186 187//187
f 197//197 20//20 19//19
f 198//198 187//187 188//188
f 197//197 21//21 20//20
f 198//198 188//188 189//189
f 197//197 22//22 21//21
f 198//198 189//189 190//190
f 197//197 23//23 22//22
f 198//198 190//190 191//191
f 197//197 24//24 23//23
f 198//198 191//191 192//192
f 197//197 25//25 24//24
f 198//198 192//192 193//193
f 197//197 26//26 25//25
f 198//198 193//193 194//194
f 197//197 27//27 26//26
f 198//198 194//194 195//195
f 197//197 28//28 27//27
f 198//198 195//195 196//196
f 197//197 1//1 28//28
f 198//198 196//196 169//169
