# Generated by generate_bionic_fish.py
# Units: meters
# Explicit smooth normals included for Stonefish.
# Tail1 link-local mesh. Origin is Joint1.
o Tail1
s 1
v -0.031000000 0.030126365 0.000000000
v -0.031000000 0.029371034 0.010055620
v -0.031000000 0.027142917 0.019607010
v -0.031000000 0.023553741 0.028175222
v -0.031000000 0.018783481 0.035330611
v -0.031000000 0.013071340 0.040714376
v -0.031000000 0.006703747 0.044056551
v -0.031000000 0.000000000 0.045189548
v -0.031000000 -0.006703747 0.044056551
v -0.031000000 -0.013071340 0.040714376
v -0.031000000 -0.018783481 0.035330611
v -0.031000000 -0.023553741 0.028175222
v -0.031000000 -0.027142917 0.019607010
v -0.031000000 -0.029371034 0.010055620
v -0.031000000 -0.030126365 0.000000000
v -0.031000000 -0.029371034 -0.010055620
v -0.031000000 -0.027142917 -0.019607010
v -0.031000000 -0.023553741 -0.028175222
v -0.031000000 -0.018783481 -0.035330611
v -0.031000000 -0.013071340 -0.040714376
v -0.031000000 -0.006703747 -0.044056551
v -0.031000000 -0.000000000 -0.045189548
v -0.031000000 0.006703747 -0.044056551
v -0.031000000 0.013071340 -0.040714376
v -0.031000000 0.018783481 -0.035330611
v -0.031000000 0.023553741 -0.028175222
v -0.031000000 0.027142917 -0.019607010
v -0.031000000 0.029371034 -0.010055620
v -0.025833333 0.030870226 0.000000000
v -0.025833333 0.030096245 0.010097002
v -0.025833333 0.027813113 0.019687697
v -0.025833333 0.024135315 0.028291170
v -0.025833333 0.019247271 0.035476005
v -0.025833333 0.013394089 0.040881925
v -0.025833333 0.006869272 0.044237854
v -0.025833333 0.000000000 0.045375513
v -0.025833333 -0.006869272 0.044237854
v -0.025833333 -0.013394089 0.040881925
v -0.025833333 -0.019247271 0.035476005
v -0.025833333 -0.024135315 0.028291170
v -0.025833333 -0.027813113 0.019687697
v -0.025833333 -0.030096245 0.010097002
v -0.025833333 -0.030870226 0.000000000
v -0.025833333 -0.030096245 -0.010097002
v -0.025833333 -0.027813113 -0.019687697
v -0.025833333 -0.024135315 -0.028291170
v -0.025833333 -0.019247271 -0.035476005
v -0.025833333 -0.013394089 -0.040881925
v -0.025833333 -0.006869272 -0.044237854
v -0.025833333 -0.000000000 -0.045375513
v -0.025833333 0.006869272 -0.044237854
v -0.025833333 0.013394089 -0.040881925
v -0.025833333 0.019247271 -0.035476005
v -0.025833333 0.024135315 -0.028291170
v -0.025833333 0.027813113 -0.019687697
v -0.025833333 0.030096245 -0.010097002
v -0.020666667 0.032729878 0.000000000
v -0.020666667 0.031909272 0.010200454
v -0.020666667 0.029488601 0.019889415
v -0.020666667 0.025589249 0.028581038
v -0.020666667 0.020406745 0.035839488
v -0.020666667 0.014200962 0.041300797
v -0.020666667 0.007283083 0.044691111
v -0.020666667 0.000000000 0.045840426
v -0.020666667 -0.007283083 0.044691111
v -0.020666667 -0.014200962 0.041300797
v -0.020666667 -0.020406745 0.035839488
v -0.020666667 -0.025589249 0.028581038
v -0.020666667 -0.029488601 0.019889415
v -0.020666667 -0.031909272 0.010200454
v -0.020666667 -0.032729878 0.000000000
v -0.020666667 -0.031909272 -0.010200454
v -0.020666667 -0.029488601 -0.019889415
v -0.020666667 -0.025589249 -0.028581038
v -0.020666667 -0.020406745 -0.035839488
v -0.020666667 -0.014200962 -0.041300797
v -0.020666667 -0.007283083 -0.044691111
v -0.020666667 -0.000000000 -0.045840426
v -0.020666667 0.007283083 -0.044691111
v -0.020666667 0.014200962 -0.041300797
v -0.020666667 0.020406745 -0.035839488
v -0.020666667 0.025589249 -0.028581038
v -0.020666667 0.029488601 -0.019889415
v -0.020666667 0.031909272 -0.010200454
v -0.015500000 0.035147426 0.000000000
v -0.015500000 0.034266207 0.010334943
v -0.015500000 0.031666737 0.020151649
v -0.015500000 0.027479364 0.028957867
v -0.015500000 0.021914062 0.036312017
v -0.015500000 0.015249897 0.041845331
v -0.015500000 0.007821038 0.045280345
v -0.015500000 0.000000000 0.046444813
v -0.015500000 -0.007821038 0.045280345
v -0.015500000 -0.015249897 0.041845331
v -0.015500000 -0.021914062 0.036312017
v -0.015500000 -0.027479364 0.028957867
v -0.015500000 -0.031666737 0.020151649
v -0.015500000 -0.034266207 0.010334943
v -0.015500000 -0.035147426 0.000000000
v -0.015500000 -0.034266207 -0.010334943
v -0.015500000 -0.031666737 -0.020151649
v -0.015500000 -0.027479364 -0.028957867
v -0.015500000 -0.021914062 -0.036312017
v -0.015500000 -0.015249897 -0.041845331
v -0.015500000 -0.007821038 -0.045280345
v -0.015500000 -0.000000000 -0.046444813
v -0.015500000 0.007821038 -0.045280345
v -0.015500000 0.015249897 -0.041845331
v -0.015500000 0.021914062 -0.036312017
v -0.015500000 0.027479364 -0.028957867
v -0.015500000 0.031666737 -0.020151649
v -0.015500000 0.034266207 -0.010334943
v -0.010333333 0.037564974 0.000000000
v -0.010333333 0.036623142 0.010469432
v -0.010333333 0.033844872 0.020413883
v -0.010333333 0.029369479 0.029334696
v -0.010333333 0.023421378 0.036784546
v -0.010333333 0.016298831 0.042389864
v -0.010333333 0.008358993 0.045869578
v -0.010333333 0.000000000 0.047049200
v -0.010333333 -0.008358993 0.045869578
v -0.010333333 -0.016298831 0.042389864
v -0.010333333 -0.023421378 0.036784546
v -0.010333333 -0.029369479 0.029334696
v -0.010333333 -0.033844872 0.020413883
v -0.010333333 -0.036623142 0.010469432
v -0.010333333 -0.037564974 0.000000000
v -0.010333333 -0.036623142 -0.010469432
v -0.010333333 -0.033844872 -0.020413883
v -0.010333333 -0.029369479 -0.029334696
v -0.010333333 -0.023421378 -0.036784546
v -0.010333333 -0.016298831 -0.042389864
v -0.010333333 -0.008358993 -0.045869578
v -0.010333333 -0.000000000 -0.047049200
v -0.010333333 0.008358993 -0.045869578
v -0.010333333 0.016298831 -0.042389864
v -0.010333333 0.023421378 -0.036784546
v -0.010333333 0.029369479 -0.029334696
v -0.010333333 0.033844872 -0.020413883
v -0.010333333 0.036623142 -0.010469432
v -0.005166667 0.039424626 0.000000000
v -0.005166667 0.038436168 0.010572885
v -0.005166667 0.035520361 0.020615601
v -0.005166667 0.030823414 0.029624565
v -0.005166667 0.024580852 0.037148029
v -0.005166667 0.017105704 0.042808737
v -0.005166667 0.008772805 0.046322835
v -0.005166667 0.000000000 0.047514113
v -0.005166667 -0.008772805 0.046322835
v -0.005166667 -0.017105704 0.042808737
v -0.005166667 -0.024580852 0.037148029
v -0.005166667 -0.030823414 0.029624565
v -0.005166667 -0.035520361 0.020615601
v -0.005166667 -0.038436168 0.010572885
v -0.005166667 -0.039424626 0.000000000
v -0.005166667 -0.038436168 -0.010572885
v -0.005166667 -0.035520361 -0.020615601
v -0.005166667 -0.030823414 -0.029624565
v -0.005166667 -0.024580852 -0.037148029
v -0.005166667 -0.017105704 -0.042808737
v -0.005166667 -0.008772805 -0.046322835
v -0.005166667 -0.000000000 -0.047514113
v -0.005166667 0.008772805 -0.046322835
v -0.005166667 0.017105704 -0.042808737
v -0.005166667 0.024580852 -0.037148029
v -0.005166667 0.030823414 -0.029624565
v -0.005166667 0.035520361 -0.020615601
v -0.005166667 0.038436168 -0.010572885
v 0.000000000 0.040168487 0.000000000
v 0.000000000 0.039161379 0.010614266
v 0.000000000 0.036190556 0.020696288
v 0.000000000 0.031404988 0.029740512
v 0.000000000 0.025044642 0.037293423
v 0.000000000 0.017428453 0.042976285
v 0.000000000 0.008938329 0.046504138
v 0.000000000 0.000000000 0.047700078
v 0.000000000 -0.008938329 0.046504138
v 0.000000000 -0.017428453 0.042976285
v 0.000000000 -0.025044642 0.037293423
v 0.000000000 -0.031404988 0.029740512
v 0.000000000 -0.036190556 0.020696288
v 0.000000000 -0.039161379 0.010614266
v 0.000000000 -0.040168487 0.000000000
v 0.000000000 -0.039161379 -0.010614266
v 0.000000000 -0.036190556 -0.020696288
v 0.000000000 -0.031404988 -0.029740512
v 0.000000000 -0.025044642 -0.037293423
v 0.000000000 -0.017428453 -0.042976285
v 0.000000000 -0.008938329 -0.046504138
v 0.000000000 -0.000000000 -0.047700078
v 0.000000000 0.008938329 -0.046504138
v 0.000000000 0.017428453 -0.042976285
v 0.000000000 0.025044642 -0.037293423
v 0.000000000 0.031404988 -0.029740512
v 0.000000000 0.036190556 -0.020696288
v 0.000000000 0.039161379 -0.010614266
v -0.031000000 0.000000000 0.000000000
v 0.000000000 0.000000000 0.000000000
vn -0.970476401 0.241116963 0.006177783
vn -0.971376347 0.233773221 0.042167200
vn -0.973514258 0.215431467 0.076545890
vn -0.976539276 0.186414309 0.107799575
vn -0.979905042 0.147502270 0.134272816
vn -0.982936596 0.100183063 0.154269251
vn -0.984966432 0.046805210 0.166284094
vn -0.985517116 -0.009499379 0.169309706
vn -0.984456739 -0.065173504 0.163086921
vn -0.982043958 -0.116766388 0.148173124
vn -0.978836636 -0.161418240 0.125789470
vn -0.975518135 -0.197109180 0.097531224
vn -0.972727922 -0.222631679 0.065080912
vn -0.970952002 -0.237382679 0.030027883
vn -0.970476401 -0.241116963 -0.006177783
vn -0.971376347 -0.233773221 -0.042167200
vn -0.973514258 -0.215431467 -0.076545890
vn -0.976539276 -0.186414309 -0.107799575
vn -0.979905042 -0.147502270 -0.134272816
vn -0.982936596 -0.100183063 -0.154269251
vn -0.984966432 -0.046805210 -0.166284094
vn -0.985517116 0.009499379 -0.169309706
vn -0.984456739 0.065173504 -0.163086921
vn -0.982043958 0.116766388 -0.148173124
vn -0.978836636 0.161418240 -0.125789470
vn -0.975518135 0.197109180 -0.097531224
vn -0.972727922 0.222631679 -0.065080912
vn -0.970952002 0.237382679 -0.030027883
vn -0.242960022 0.970035740 0.001044118
vn -0.234587008 0.960310673 0.150905091
vn -0.214073520 0.927507850 0.306433868
vn -0.182975478 0.862714412 0.471427425
vn -0.144626381 0.750684623 0.644636181
vn -0.105364161 0.572131390 0.813365887
vn -0.075315088 0.315309603 0.945995503
vn -0.065775909 -0.000392716 0.997834343
vn -0.081414306 -0.316031601 0.945249035
vn -0.115537812 -0.572487861 0.811731891
vn -0.156102095 -0.750372512 0.642318635
vn -0.193366430 -0.861831479 0.468887967
vn -0.221757243 -0.926494577 0.304025531
vn -0.238633620 -0.959654644 0.148717717
vn -0.242960022 -0.970035740 -0.001044118
vn -0.234587008 -0.960310673 -0.150905091
vn -0.214073520 -0.927507850 -0.306433868
vn -0.182975478 -0.862714412 -0.471427425
vn -0.144626381 -0.750684623 -0.644636181
vn -0.105364161 -0.572131390 -0.813365887
vn -0.075315088 -0.315309603 -0.945995503
vn -0.065775909 0.000392716 -0.997834343
vn -0.081414306 0.316031601 -0.945249035
vn -0.115537812 0.572487861 -0.811731891
vn -0.156102095 0.750372512 -0.642318635
vn -0.193366430 0.861831479 -0.468887967
vn -0.221757243 0.926494577 -0.304025531
vn -0.238633620 0.959654644 -0.148717717
vn -0.380375475 0.924830728 0.001619651
vn -0.370148194 0.916562946 0.151336316
vn -0.341569927 0.888064701 0.307686645
vn -0.295893245 0.828919669 0.474699242
vn -0.237154256 0.722212881 0.649743344
vn -0.174862912 0.548888926 0.817400703
vn -0.125389433 0.300772301 0.945417111
vn -0.107122686 -0.000608254 0.994245624
vn -0.128311591 -0.302013878 0.944628897
vn -0.179753761 -0.549976011 0.815607119
vn -0.242639732 -0.722815879 0.647041857
vn -0.300784810 -0.828983902 0.471502055
vn -0.345120789 -0.887835296 0.304368410
vn -0.371991543 -0.916351446 0.148061877
vn -0.380375475 -0.924830728 -0.001619651
vn -0.370148194 -0.916562946 -0.151336316
vn -0.341569927 -0.888064701 -0.307686645
vn -0.295893245 -0.828919669 -0.474699242
vn -0.237154256 -0.722212881 -0.649743344
vn -0.174862912 -0.548888926 -0.817400703
vn -0.125389433 -0.300772301 -0.945417111
vn -0.107122686 0.000608254 -0.994245624
vn -0.128311591 0.302013878 -0.944628897
vn -0.179753761 0.549976011 -0.815607119
vn -0.242639732 0.722815879 -0.647041857
vn -0.300784810 0.828983902 -0.471502055
vn -0.345120789 0.887835296 -0.304368410
vn -0.371991543 0.916351446 -0.148061877
vn -0.421450866 0.906849505 0.001772848
vn -0.411098277 0.897990761 0.156878296
vn -0.380330646 0.868373794 0.318238202
vn -0.330283911 0.807340124 0.488993316
vn -0.265350940 0.698492801 0.664602652
vn -0.196342752 0.525580869 0.827776705
vn -0.141470809 0.285139876 0.947988007
vn -0.120288134 -0.000641143 0.992738814
vn -0.141571195 -0.286566838 0.947542634
vn -0.196566738 -0.527249547 0.826661619
vn -0.265673580 -0.700199818 0.662674704
vn -0.330624863 -0.808803766 0.486336989
vn -0.380604726 -0.869408735 0.315069030
vn -0.411248311 -0.898518929 0.153422818
vn -0.421450866 -0.906849505 -0.001772848
vn -0.411098277 -0.897990761 -0.156878296
vn -0.380330646 -0.868373794 -0.318238202
vn -0.330283911 -0.807340124 -0.488993316
vn -0.265350940 -0.698492801 -0.664602652
vn -0.196342752 -0.525580869 -0.827776705
vn -0.141470809 -0.285139876 -0.947988007
vn -0.120288134 0.000641143 -0.992738814
vn -0.141571195 0.286566838 -0.947542634
vn -0.196566738 0.527249547 -0.826661619
vn -0.265673580 0.700199818 -0.662674704
vn -0.330624863 0.808803766 -0.486336989
vn -0.380604726 0.869408735 -0.315069030
vn -0.411248311 0.898518929 -0.153422818
vn -0.380103180 0.924942742 0.001579811
vn -0.370904250 0.913403990 0.167699701
vn -0.342092304 0.876766429 0.338014030
vn -0.295409715 0.805638030 0.513498262
vn -0.235871204 0.686658843 0.687651371
vn -0.173947862 0.508634677 0.843227672
vn -0.125432145 0.272592976 0.953918155
vn -0.106098071 -0.000532847 0.994355528
vn -0.122995519 -0.273868858 0.953869986
vn -0.169853045 -0.510436618 0.842973547
vn -0.231259395 -0.688985290 0.686890356
vn -0.291289528 -0.808110844 0.511964134
vn -0.339103044 -0.878826733 0.335667542
vn -0.369354629 -0.914566796 0.164756590
vn -0.380103180 -0.924942742 -0.001579811
vn -0.370904250 -0.913403990 -0.167699701
vn -0.342092304 -0.876766429 -0.338014030
vn -0.295409715 -0.805638030 -0.513498262
vn -0.235871204 -0.686658843 -0.687651371
vn -0.173947862 -0.508634677 -0.843227672
vn -0.125432145 -0.272592976 -0.953918155
vn -0.106098071 0.000532847 -0.994355528
vn -0.122995519 0.273868858 -0.953869986
vn -0.169853045 0.510436618 -0.842973547
vn -0.231259395 0.688985290 -0.686890356
vn -0.291289528 0.808110844 -0.511964134
vn -0.339103044 0.878826733 -0.335667542
vn -0.369354629 0.914566796 -0.164756590
vn -0.242568008 0.970133889 0.000999223
vn -0.237277818 0.954417803 0.181068753
vn -0.218076483 0.906389441 0.361802195
vn -0.186941539 0.819749315 0.541353785
vn -0.148094872 0.686171936 0.712205015
vn -0.108610430 0.499976108 0.859201761
vn -0.077832167 0.264995221 0.961103369
vn -0.064575467 -0.000310847 0.997912778
vn -0.072976486 -0.265789599 0.961264959
vn -0.100206795 -0.501268466 0.859469908
vn -0.138207185 -0.688102024 0.712330246
vn -0.177665568 -0.822064464 0.540966693
vn -0.211048128 -0.908497081 0.360682328
vn -0.233525662 -0.955673143 0.179317060
vn -0.242568008 -0.970133889 -0.000999223
vn -0.237277818 -0.954417803 -0.181068753
vn -0.218076483 -0.906389441 -0.361802195
vn -0.186941539 -0.819749315 -0.541353785
vn -0.148094872 -0.686171936 -0.712205015
vn -0.108610430 -0.499976108 -0.859201761
vn -0.077832167 -0.264995221 -0.961103369
vn -0.064575467 0.000310847 -0.997912778
vn -0.072976486 0.265789599 -0.961264959
vn -0.100206795 0.501268466 -0.859469908
vn -0.138207185 0.688102024 -0.712330246
vn -0.177665568 0.822064464 -0.540966693
vn -0.211048128 0.908497081 -0.360682328
vn -0.233525662 0.955673143 -0.179317060
vn 0.980910729 0.194364719 -0.006041281
vn 0.981112221 0.191044783 0.030343066
vn 0.981896462 0.177885934 0.065084046
vn 0.983096592 0.155696271 0.096331521
vn 0.984463842 0.125784694 0.122511859
vn 0.985725155 0.089808810 0.142408906
vn 0.986638798 0.049623579 0.155181771
vn 0.987036055 0.007167416 0.160338560
vn 0.986845555 -0.035600976 0.157697245
vn 0.986102055 -0.076727411 0.147362281
vn 0.984941734 -0.114278459 0.129731313
vn 0.983583388 -0.146382469 0.105526733
vn 0.982293368 -0.171317409 0.075829312
vn 0.981335022 -0.187644968 0.042082538
vn 0.980910729 -0.194364719 0.006041281
vn 0.981112221 -0.191044783 -0.030343066
vn 0.981896462 -0.177885934 -0.065084046
vn 0.983096592 -0.155696271 -0.096331521
vn 0.984463842 -0.125784694 -0.122511859
vn 0.985725155 -0.089808810 -0.142408906
vn 0.986638798 -0.049623579 -0.155181771
vn 0.987036055 -0.007167416 -0.160338560
vn 0.986845555 0.035600976 -0.157697245
vn 0.986102055 0.076727411 -0.147362281
vn 0.984941734 0.114278459 -0.129731313
vn 0.983583388 0.146382469 -0.105526733
vn 0.982293368 0.171317409 -0.075829312
vn 0.981335022 0.187644968 -0.042082538
vn -1.000000000 0.000000000 0.000000000
vn 1.000000000 0.000000000 0.000000000
f 1//1 30//30 29//29
f 1//1 2//2 30//30
f 2//2 31//31 30//30
f 2//2 3//3 31//31
f 3//3 32//32 31//31
f 3//3 4//4 32//32
f 4//4 33//33 32//32
f 4//4 5//5 33//33
f 5//5 34//34 33//33
f 5//5 6//6 34//34
f 6//6 35//35 34//34
f 6//6 7//7 35//35
f 7//7 36//36 35//35
f 7//7 8//8 36//36
f 8//8 37//37 36//36
f 8//8 9//9 37//37
f 9//9 38//38 37//37
f 9//9 10//10 38//38
f 10//10 39//39 38//38
f 10//10 11//11 39//39
f 11//11 40//40 39//39
f 11//11 12//12 40//40
f 12//12 41//41 40//40
f 12//12 13//13 41//41
f 13//13 42//42 41//41
f 13//13 14//14 42//42
f 14//14 43//43 42//42
f 14//14 15//15 43//43
f 15//15 44//44 43//43
f 15//15 16//16 44//44
f 16//16 45//45 44//44
f 16//16 17//17 45//45
f 17//17 46//46 45//45
f 17//17 18//18 46//46
f 18//18 47//47 46//46
f 18//18 19//19 47//47
f 19//19 48//48 47//47
f 19//19 20//20 48//48
f 20//20 49//49 48//48
f 20//20 21//21 49//49
f 21//21 50//50 49//49
f 21//21 22//22 50//50
f 22//22 51//51 50//50
f 22//22 23//23 51//51
f 23//23 52//52 51//51
f 23//23 24//24 52//52
f 24//24 53//53 52//52
f 24//24 25//25 53//53
f 25//25 54//54 53//53
f 25//25 26//26 54//54
f 26//26 55//55 54//54
f 26//26 27//27 55//55
f 27//27 56//56 55//55
f 27//27 28//28 56//56
f 28//28 29//29 56//56
f 28//28 1//1 29//29
f 29//29 58//58 57//57
f 29//29 30//30 58//58
f 30//30 59//59 58//58
f 30//30 31//31 59//59
f 31//31 60//60 59//59
f 31//31 32//32 60//60
f 32//32 61//61 60//60
f 32//32 33//33 61//61
f 33//33 62//62 61//61
f 33//33 34//34 62//62
f 34//34 63//63 62//62
f 34//34 35//35 63//63
f 35//35 64//64 63//63
f 35//35 36//36 64//64
f 36//36 65//65 64//64
f 36//36 37//37 65//65
f 37//37 66//66 65//65
f 37//37 38//38 66//66
f 38//38 67//67 66//66
f 38//38 39//39 67//67
f 39//39 68//68 67//67
f 39//39 40//40 68//68
f 40//40 69//69 68//68
f 40//40 41//41 69//69
f 41//41 70//70 69//69
f 41//41 42//42 70//70
f 42//42 71//71 70//70
f 42//42 43//43 71//71
f 43//43 72//72 71//71
f 43//43 44//44 72//72
f 44//44 73//73 72//72
f 44//44 45//45 73//73
f 45//45 74//74 73//73
f 45//45 46//46 74//74
f 46//46 75//75 74//74
f 46//46 47//47 75//75
f 47//47 76//76 75//75
f 47//47 48//48 76//76
f 48//48 77//77 76//76
f 48//48 49//49 77//77
f 49//49 78//78 77//77
f 49//49 50//50 78//78
f 50//50 79//79 78//78
f 50//50 51//51 79//79
f 51//51 80//80 79//79
f 51//51 52//52 80//80
f 52//52 81//81 80//80
f 52//52 53//53 81//81
f 53//53 82//82 81//81
f 53//53 54//54 82//82
f 54//54 83//83 82//82
f 54//54 55//55 83//83
f 55//55 84//84 83//83
f 55//55 56//56 84//84
f 56//56 57//57 84//84
f 56//56 29//29 57//57
f 57//57 86//86 85//85
f 57//57 58//58 86//86
f 58//58 87//87 86//86
f 58//58 59//59 87//87
f 59//59 88//88 87//87
f 59//59 60//60 88//88
f 60//60 89//89 88//88
f 60//60 61//61 89//89
f 61//61 90//90 89//89
f 61//61 62//62 90//90
f 62//62 91//91 90//90
f 62//62 63//63 91//91
f 63//63 92//92 91//91
f 63//63 64//64 92//92
f 64//64 93//93 92//92
f 64//64 65//65 93//93
f 65//65 94//94 93//93
f 65//65 66//66 94//94
f 66//66 95//95 94//94
f 66//66 67//67 95//95
f 67//67 96//96 95//95
f 67//67 68//68 96//96
f 68//68 97//97 96//96
f 68//68 69//69 97//97
f 69//69 98//98 97//97
f 69//69 70//70 98//98
f 70//70 99//99 98//98
f 70//70 71//71 99//99
f 71//71 100//100 99//99
f 71//71 72//72 100//100
f 72//72 101//101 100//100
f 72//72 73//73 101//101
f 73//73 102//102 101//101
f 73//73 74//74 102//102
f 74//74 103//103 102//102
f 74//74 75//75 103//103
f 75//75 104//104 103//103
f 75//75 76//76 104//104
f 76//76 105//105 104//104
f 76//76 77//77 105//105
f 77//77 106//106 105//105
f 77//77 78//78 106//106
f 78//78 107//107 106//106
f 78//78 79//79 107//107
f 79//79 108//108 107//107
f 79//79 80//80 108//108
f 80//80 109//109 108//108
f 80//80 81//81 109//109
f 81//81 110//110 109//109
f 81//81 82//82 110//110
f 82//82 111//111 110//110
f 82//82 83//83 111//111
f 83//83 112//112 111//111
f 83//83 84//84 112//112
f 84//84 85//85 112//112
f 84//84 57//57 85//85
f 85//85 114//114 113//113
f 85//85 86//86 114//114
f 86//86 115//115 114//114
f 86//86 87//87 115//115
f 87//87 116//116 115//115
f 87//87 88//88 116//116
f 88//88 117//117 116//116
f 88//88 89//89 117//117
f 89//89 118//118 117//117
f 89//89 90//90 118//118
f 90//90 119//119 118//118
f 90//90 91//91 119//119
f 91//91 120//120 119//119
f 91//91 92//92 120//120
f 92//92 121//121 120//120
f 92//92 93//93 121//121
f 93//93 122//122 121//121
f 93//93 94//94 122//122
f 94//94 123//123 122//122
f 94//94 95//95 123//123
f 95//95 124//124 123//123
f 95//95 96//96 124//124
f 96//96 125//125 124//124
f 96//96 97//97 125//125
f 97//97 126//126 125//125
f 97//97 98//98 126//126
f 98//98 127//127 126//126
f 98//98 99//99 127//127
f 99//99 128//128 127//127
f 99//99 100//100 128//128
f 100//100 129//129 128//128
f 100//100 101//101 129//129
f 101//101 130//130 129//129
f 101//101 102//102 130//130
f 102//102 131//131 130//130
f 102//102 103//103 131//131
f 103//103 132//132 131//131
f 103//103 104//104 132//132
f 104//104 133//133 132//132
f 104//104 105//105 133//133
f 105//105 134//134 133//133
f 105//105 106//106 134//134
f 106//106 135//135 134//134
f 106//106 107//107 135//135
f 107//107 136//136 135//135
f 107//107 108//108 136//136
f 108//108 137//137 136//136
f 108//108 109//109 137//137
f 109//109 138//138 137//137
f 109//109 110//110 138//138
f 110//110 139//139 138//138
f 110//110 111//111 139//139
f 111//111 140//140 139//139
f 111//111 112//112 140//140
f 112//112 113//113 140//140
f 112//112 85//85 113//113
f 113//113 142//142 141//141
f 113//113 114//114 142//142
f 114//114 143//143 142//142
f 114//114 115//115 143//143
f 115//115 144//144 143//143
f 115//115 116//116 144//144
f 116//116 145//145 144//144
f 116//116 117//117 145//145
f 117//117 146//146 145//145
f 117//117 118//118 146//146
f 118//118 147//147 146//146
f 118//118 119//119 147//147
f 119//119 148//148 147//147
f 119//119 120//120 148//148
f 120//120 149//149 148//148
f 120//120 121//121 149//149
f 121//121 150//150 149//149
f 121//121 122//122 150//150
f 122//122 151//151 150//150
f 122//122 123//123 151//151
f 123//123 152//152 151//151
f 123//123 124//124 152//152
f 124//124 153//153 152//152
f 124//124 125//125 153//153
f 125//125 154//154 153//153
f 125//125 126//126 154//154
f 126//126 155//155 154//154
f 126//126 127//127 155//155
f 127//127 156//156 155//155
f 127//127 128//128 156//156
f 128//128 157//157 156//156
f 128//128 129//129 157//157
f 129//129 158//158 157//157
f 129//129 130//130 158//158
f 130//130 159//159 158//158
f 130//130 131//131 159//159
f 131//131 160//160 159//159
f 131//131 132//132 160//160
f 132//132 161//161 160//160
f 132//132 133//133 161//161
f 133//133 162//162 161//161
f 133//133 134//134 162//162
f 134//134 163//163 162//162
f 134//134 135//135 163//163
f 135//135 164//164 163//163
f 135//135 136//136 164//164
f 136//136 165//165 164//164
f 136//136 137//137 165//165
f 137//137 166//166 165//165
f 137//137 138//138 166//166
f 138//138 167//167 166//166
f 138//138 139//139 167//167
f 139//139 168//168 167//167
f 139//139 140//140 168//168
f 140//140 141//141 168//168
f 140//140 113//113 141//141
f 141//141 170//170 169//169
f 141//141 142//142 170//170
f 142//142 171//171 170//170
f 142//142 143//143 171//171
f 143//143 172//172 171//171
f 143//143 144//144 172//172
f 144//144 173//173 172//172
f 144//144 145//145 173//173
f 145//145 174//174 173//173
f 145//145 146//146 174//174
f 146//146 175//175 174//174
f 146//146 147//147 175//175
f 147//147 176//176 175//175
f 147//147 148//148 176//176
f 148//148 177//177 176//176
f 148//148 149//149 177//177
f 149//149 178//178 177//177
f 149//149 150//150 178//178
f 150//150 179//179 178//178
f 150//150 151//151 179//179
f 151//151 180//180 179//179
f 151//151 152//152 180//180
f 152//152 181//181 180//180
f 152//152 153//153 181//181
f 153//153 182//182 181//181
f 153//153 154//154 182//182
f 154//154 183//183 182//182
f 154//154 155//155 183//183
f 155//155 184//184 183//183
f 155//155 156//156 184//184
f 156//156 185//185 184//184
f 156//156 157//157 185//185
f 157//157 186//186 185//185
f 157//157 158//158 186//186
f 158//158 187//187 186//186
f 158//158 159//159 187//187
f 159//159 188//188 187//187
f 159//159 160//160 188//188
f 160//160 189//189 188//188
f 160//160 161//161 189//189
f 161//161 190//190 189//189
f 161//161 162//162 190//190
f 162//162 191//191 190//190
f 162//162 163//163 191//191
f 163//163 192//192 191//191
f 163//163 164//164 192//192
f 164//164 193//193 192//192
f 164//164 165//165 193//193
f 165//165 194//194 193//193
f 165//165 166//166 194//194
f 166//166 195//195 194//194
f 166//166 167//167 195//195
f 167//167 196//196 195//195
f 167//167 168//168 196//196
f 168//168 169//169 196//196
f 168//168 141//141 169//169
f 197//197 2//2 1//1
f 198//198 169//169 170//170
f 197//197 3//3 2//2
f 198//198 170//170 171//171
f 197//197 4//4 3//3
f 198//198 171//171 172//172
f 197//197 5//5 4//4
f 198//198 172//172 173//173
f 197//197 6//6 5//5
f 198//198 173//173 174//174
f 197//197 7//7 6//6
f 198//198 174//174 175//175
f 197//197 8//8 7//7
f 198//198 175//175 176//176
f 197//197 9//9 8//8
f 198//198 176//176 177//177
f 197//197 10//10 9//9
f 198//198 177//177 178//178
f 197//197 11//11 10//10
f 198//198 178//178 179//179
f 197//197 12//12 11//11
f 198//198 179//179 180//180
f 197//197 13//13 12//12
f 198//198 180//180 181//181
f 197//197 14//14 13//13
f 198//198 181//181 182//182
f 197//197 15//15 14//14
f 198//198 182//182 183//183
f 197//197 16//16 15//15
f 198//198 183//183 184//184
f 197//197 17//17 16//16
f 198//198 184//184 185//185
f 197//197 18//18 17//17
f 198//198 185//185 186//186
f 197//197 19//19 18//18
f 198//198 186//186 187//187
f 197//197 20//20 19//19
f 198//198 187//187 188//188
f 197//197 21//21 20//20
f 198//198 188//188 189//189
f 197//197 22//22 21//21
f 198//198 189//189 190//190
f 197//197 23//23 22//22
f 198//198 190//190 191//191
f 197//197 24//24 23//23
f 198//198 191//191 192//192
f 197//197 25//25 24//24
f 198//198 192//192 193//193
f 197//197 26//26 25//25
f 198//198 193//193 194//194
f 197//197 27//27 26//26
f 198//198 194//194 195//195
f 197//197 28//28 27//27
f 198//198 195//195 196//196
f 197//197 1//1 28//28
f 198//198 196//196 169//169
