# Generated by generate_bionic_fish.py
# Units: meters
# Explicit smooth normals included for Stonefish.
# Tail0 link-local mesh. Origin is Joint0.
o Tail0
s 1
v -0.029500000 0.040168487 0.000000000
v -0.029500000 0.039161379 0.010614266
v -0.029500000 0.036190556 0.020696288
v -0.029500000 0.031404988 0.029740512
v -0.029500000 0.025044642 0.037293423
v -0.029500000 0.017428453 0.042976285
v -0.029500000 0.008938329 0.046504138
v -0.029500000 0.000000000 0.047700078
v -0.029500000 -0.008938329 0.046504138
v -0.029500000 -0.017428453 0.042976285
v -0.029500000 -0.025044642 0.037293423
v -0.029500000 -0.031404988 0.029740512
v -0.029500000 -0.036190556 0.020696288
v -0.029500000 -0.039161379 0.010614266
v -0.029500000 -0.040168487 0.000000000
v -0.029500000 -0.039161379 -0.010614266
v -0.029500000 -0.036190556 -0.020696288
v -0.029500000 -0.031404988 -0.029740512
v -0.029500000 -0.025044642 -0.037293423
v -0.029500000 -0.017428453 -0.042976285
v -0.029500000 -0.008938329 -0.046504138
v -0.029500000 -0.000000000 -0.047700078
v -0.029500000 0.008938329 -0.046504138
v -0.029500000 0.017428453 -0.042976285
v -0.029500000 0.025044642 -0.037293423
v -0.029500000 0.031404988 -0.029740512
v -0.029500000 0.036190556 -0.020696288
v -0.029500000 0.039161379 -0.010614266
v -0.024583333 0.040912348 0.000000000
v -0.024583333 0.039886590 0.010655647
v -0.024583333 0.036860752 0.020776976
v -0.024583333 0.031986562 0.029856460
v -0.024583333 0.025508432 0.037438816
v -0.024583333 0.017751202 0.043143834
v -0.024583333 0.009103854 0.046685440
v -0.024583333 0.000000000 0.047886043
v -0.024583333 -0.009103854 0.046685440
v -0.024583333 -0.017751202 0.043143834
v -0.024583333 -0.025508432 0.037438816
v -0.024583333 -0.031986562 0.029856460
v -0.024583333 -0.036860752 0.020776976
v -0.024583333 -0.039886590 0.010655647
v -0.024583333 -0.040912348 0.000000000
v -0.024583333 -0.039886590 -0.010655647
v -0.024583333 -0.036860752 -0.020776976
v -0.024583333 -0.031986562 -0.029856460
v -0.024583333 -0.025508432 -0.037438816
v -0.024583333 -0.017751202 -0.043143834
v -0.024583333 -0.009103854 -0.046685440
v -0.024583333 -0.000000000 -0.047886043
v -0.024583333 0.009103854 -0.046685440
v -0.024583333 0.017751202 -0.043143834
v -0.024583333 0.025508432 -0.037438816
v -0.024583333 0.031986562 -0.029856460
v -0.024583333 0.036860752 -0.020776976
v -0.024583333 0.039886590 -0.010655647
v -0.019666667 0.042772000 0.000000000
v -0.019666667 0.041699617 0.010759100
v -0.019666667 0.038536240 0.020978694
v -0.019666667 0.033440496 0.030146328
v -0.019666667 0.026667906 0.037802300
v -0.019666667 0.018558075 0.043562707
v -0.019666667 0.009517665 0.047138697
v -0.019666667 0.000000000 0.048350956
v -0.019666667 -0.009517665 0.047138697
v -0.019666667 -0.018558075 0.043562707
v -0.019666667 -0.026667906 0.037802300
v -0.019666667 -0.033440496 0.030146328
v -0.019666667 -0.038536240 0.020978694
v -0.019666667 -0.041699617 0.010759100
v -0.019666667 -0.042772000 0.000000000
v -0.019666667 -0.041699617 -0.010759100
v -0.019666667 -0.038536240 -0.020978694
v -0.019666667 -0.033440496 -0.030146328
v -0.019666667 -0.026667906 -0.037802300
v -0.019666667 -0.018558075 -0.043562707
v -0.019666667 -0.009517665 -0.047138697
v -0.019666667 -0.000000000 -0.048350956
v -0.019666667 0.009517665 -0.047138697
v -0.019666667 0.018558075 -0.043562707
v -0.019666667 0.026667906 -0.037802300
v -0.019666667 0.033440496 -0.030146328
v -0.019666667 0.038536240 -0.020978694
v -0.019666667 0.041699617 -0.010759100
v -0.014750000 0.045189548 0.000000000
v -0.014750000 0.044056551 0.010893589
v -0.014750000 0.040714376 0.021240927
v -0.014750000 0.035330611 0.030523157
v -0.014750000 0.028175222 0.038274829
v -0.014750000 0.019607010 0.044107240
v -0.014750000 0.010055620 0.047727931
v -0.014750000 0.000000000 0.048955343
v -0.014750000 -0.010055620 0.047727931
v -0.014750000 -0.019607010 0.044107240
v -0.014750000 -0.028175222 0.038274829
v -0.014750000 -0.035330611 0.030523157
v -0.014750000 -0.040714376 0.021240927
v -0.014750000 -0.044056551 0.010893589
v -0.014750000 -0.045189548 0.000000000
v -0.014750000 -0.044056551 -0.010893589
v -0.014750000 -0.040714376 -0.021240927
v -0.014750000 -0.035330611 -0.030523157
v -0.014750000 -0.028175222 -0.038274829
v -0.014750000 -0.019607010 -0.044107240
v -0.014750000 -0.010055620 -0.047727931
v -0.014750000 -0.000000000 -0.048955343
v -0.014750000 0.010055620 -0.047727931
v -0.014750000 0.019607010 -0.044107240
v -0.014750000 0.028175222 -0.038274829
v -0.014750000 0.035330611 -0.030523157
v -0.014750000 0.040714376 -0.021240927
v -0.014750000 0.044056551 -0.010893589
v -0.009833333 0.047607096 0.000000000
v -0.009833333 0.046413486 0.011028077
v -0.009833333 0.042892511 0.021503161
v -0.009833333 0.037220726 0.030899986
v -0.009833333 0.029682539 0.038747357
v -0.009833333 0.020655945 0.044651774
v -0.009833333 0.010593575 0.048317164
v -0.009833333 0.000000000 0.049559730
v -0.009833333 -0.010593575 0.048317164
v -0.009833333 -0.020655945 0.044651774
v -0.009833333 -0.029682539 0.038747357
v -0.009833333 -0.037220726 0.030899986
v -0.009833333 -0.042892511 0.021503161
v -0.009833333 -0.046413486 0.011028077
v -0.009833333 -0.047607096 0.000000000
v -0.009833333 -0.046413486 -0.011028077
v -0.009833333 -0.042892511 -0.021503161
v -0.009833333 -0.037220726 -0.030899986
v -0.009833333 -0.029682539 -0.038747357
v -0.009833333 -0.020655945 -0.044651774
v -0.009833333 -0.010593575 -0.048317164
v -0.009833333 -0.000000000 -0.049559730
v -0.009833333 0.010593575 -0.048317164
v -0.009833333 0.020655945 -0.044651774
v -0.009833333 0.029682539 -0.038747357
v -0.009833333 0.037220726 -0.030899986
v -0.009833333 0.042892511 -0.021503161
v -0.009833333 0.046413486 -0.011028077
v -0.004916667 0.049466748 0.000000000
v -0.004916667 0.048226513 0.011131530
v -0.004916667 0.044568000 0.021704879
v -0.004916667 0.038674661 0.031189855
v -0.004916667 0.030842013 0.039110841
v -0.004916667 0.021462817 0.045070646
v -0.004916667 0.011007387 0.048770421
v -0.004916667 0.000000000 0.050024643
v -0.004916667 -0.011007387 0.048770421
v -0.004916667 -0.021462817 0.045070646
v -0.004916667 -0.030842013 0.039110841
v -0.004916667 -0.038674661 0.031189855
v -0.004916667 -0.044568000 0.021704879
v -0.004916667 -0.048226513 0.011131530
v -0.004916667 -0.049466748 0.000000000
v -0.004916667 -0.048226513 -0.011131530
v -0.004916667 -0.044568000 -0.021704879
v -0.004916667 -0.038674661 -0.031189855
v -0.004916667 -0.030842013 -0.039110841
v -0.004916667 -0.021462817 -0.045070646
v -0.004916667 -0.011007387 -0.048770421
v -0.004916667 -0.000000000 -0.050024643
v -0.004916667 0.011007387 -0.048770421
v -0.004916667 0.021462817 -0.045070646
v -0.004916667 0.030842013 -0.039110841
v -0.004916667 0.038674661 -0.031189855
v -0.004916667 0.044568000 -0.021704879
v -0.004916667 0.048226513 -0.011131530
v 0.000000000 0.050210609 0.000000000
v 0.000000000 0.048951724 0.011172912
v 0.000000000 0.045238195 0.021785567
v 0.000000000 0.039256235 0.031305802
v 0.000000000 0.031305802 0.039256235
v 0.000000000 0.021785567 0.045238195
v 0.000000000 0.011172912 0.048951724
v 0.000000000 0.000000000 0.050210609
v 0.000000000 -0.011172912 0.048951724
v 0.000000000 -0.021785567 0.045238195
v 0.000000000 -0.031305802 0.039256235
v 0.000000000 -0.039256235 0.031305802
v 0.000000000 -0.045238195 0.021785567
v 0.000000000 -0.048951724 0.011172912
v 0.000000000 -0.050210609 0.000000000
v 0.000000000 -0.048951724 -0.011172912
v 0.000000000 -0.045238195 -0.021785567
v 0.000000000 -0.039256235 -0.031305802
v 0.000000000 -0.031305802 -0.039256235
v 0.000000000 -0.021785567 -0.045238195
v 0.000000000 -0.011172912 -0.048951724
v 0.000000000 -0.000000000 -0.050210609
v 0.000000000 0.011172912 -0.048951724
v 0.000000000 0.021785567 -0.045238195
v 0.000000000 0.031305802 -0.039256235
v 0.000000000 0.039256235 -0.031305802
v 0.000000000 0.045238195 -0.021785567
v 0.000000000 0.048951724 -0.011172912
v -0.029500000 0.000000000 0.000000000
v 0.000000000 0.000000000 0.000000000
vn -0.984356234 0.176098574 0.005665334
vn -0.984593046 0.170513446 0.038751756
vn -0.985155606 0.156672446 0.070158229
vn -0.985943902 0.135017392 0.098412016
vn -0.986809742 0.106358849 0.122042319
vn -0.987579977 0.071954757 0.139672121
vn -0.988091727 0.033530984 0.150167949
vn -0.988232421 -0.006799811 0.152808522
vn -0.987970874 -0.046725972 0.147411787
vn -0.987366093 -0.083985464 0.134367560
vn -0.986549882 -0.116597379 0.114561696
vn -0.985691444 -0.143007855 0.089225174
vn -0.984958357 -0.162125829 0.059768303
vn -0.984485540 -0.173272860 0.027653905
vn -0.984356234 -0.176098574 -0.005665334
vn -0.984593046 -0.170513446 -0.038751756
vn -0.985155606 -0.156672446 -0.070158229
vn -0.985943902 -0.135017392 -0.098412016
vn -0.986809742 -0.106358849 -0.122042319
vn -0.987579977 -0.071954757 -0.139672121
vn -0.988091727 -0.033530984 -0.150167949
vn -0.988232421 0.006799811 -0.152808522
vn -0.987970874 0.046725972 -0.147411787
vn -0.987366093 0.083985464 -0.134367560
vn -0.986549882 0.116597379 -0.114561696
vn -0.985691444 0.143007855 -0.089225174
vn -0.984958357 0.162125829 -0.059768303
vn -0.984485540 0.173272860 -0.027653905
vn -0.254605797 0.967044422 0.000986380
vn -0.244943706 0.951302708 0.187151646
vn -0.220979558 0.901113376 0.373045197
vn -0.185602292 0.810695997 0.555269114
vn -0.144188057 0.673470945 0.725014959
vn -0.104794271 0.486597391 0.867318361
vn -0.076903516 0.256145415 0.963574271
vn -0.068357742 -0.000296707 0.997660830
vn -0.081839008 -0.256709419 0.963017472
vn -0.113420784 -0.486949567 0.866034552
vn -0.154461161 -0.673330311 0.723027000
vn -0.195344052 -0.810010936 0.552922222
vn -0.228417783 -0.900208350 0.370742826
vn -0.248932047 -0.950675019 0.185067137
vn -0.254605797 -0.967044422 -0.000986380
vn -0.244943706 -0.951302708 -0.187151646
vn -0.220979558 -0.901113376 -0.373045197
vn -0.185602292 -0.810695997 -0.555269114
vn -0.144188057 -0.673470945 -0.725014959
vn -0.104794271 -0.486597391 -0.867318361
vn -0.076903516 -0.256145415 -0.963574271
vn -0.068357742 0.000296707 -0.997660830
vn -0.081839008 0.256709419 -0.963017472
vn -0.113420784 0.486949567 -0.866034552
vn -0.154461161 0.673330311 -0.723027000
vn -0.195344052 0.810010936 -0.552922222
vn -0.228417783 0.900208350 -0.370742826
vn -0.248932047 0.950675019 -0.185067137
vn -0.396845871 0.917883997 0.001524059
vn -0.384820410 0.904377803 0.184428960
vn -0.351339391 0.860577793 0.368736347
vn -0.299359491 0.778523801 0.551619966
vn -0.235954335 0.649339865 0.722968389
vn -0.173506705 0.469624188 0.865649205
vn -0.127621041 0.246875990 0.960606639
vn -0.111472744 -0.000465533 0.993767383
vn -0.130014885 -0.247840593 0.960037067
vn -0.177693986 -0.470548103 0.864297015
vn -0.240909048 -0.649972517 0.720762483
vn -0.303986161 -0.778718547 0.548807652
vn -0.354803773 -0.860459903 0.365681608
vn -0.386648762 -0.904218778 0.181359138
vn -0.396845871 -0.917883997 -0.001524059
vn -0.384820410 -0.904377803 -0.184428960
vn -0.351339391 -0.860577793 -0.368736347
vn -0.299359491 -0.778523801 -0.551619966
vn -0.235954335 -0.649339865 -0.722968389
vn -0.173506705 -0.469624188 -0.865649205
vn -0.127621041 -0.246875990 -0.960606639
vn -0.111472744 0.000465533 -0.993767383
vn -0.130014885 0.247840593 -0.960037067
vn -0.177693986 0.470548103 -0.864297015
vn -0.240909048 0.649972517 -0.720762483
vn -0.303986161 0.778718547 -0.548807652
vn -0.354803773 0.860459903 -0.365681608
vn -0.386648762 0.904218778 -0.181359138
vn -0.438959109 0.898505494 0.001666457
vn -0.426642271 0.884655461 0.188045442
vn -0.390569783 0.840592776 0.375311909
vn -0.333771014 0.758376516 0.559876745
vn -0.263991601 0.629766912 0.730549157
vn -0.195044472 0.452971236 0.869927993
vn -0.144109834 0.236972018 0.960768764
vn -0.125353963 -0.000498352 0.992111957
vn -0.144198801 -0.238083681 0.960480539
vn -0.195252686 -0.454328835 0.869172996
vn -0.264320390 -0.631284927 0.729118696
vn -0.334154166 -0.759808792 0.557702064
vn -0.390902175 -0.841683958 0.372509872
vn -0.426832713 -0.885237697 0.184846029
vn -0.438959109 -0.898505494 -0.001666457
vn -0.426642271 -0.884655461 -0.188045442
vn -0.390569783 -0.840592776 -0.375311909
vn -0.333771014 -0.758376516 -0.559876745
vn -0.263991601 -0.629766912 -0.730549157
vn -0.195044472 -0.452971236 -0.869927993
vn -0.144109834 -0.236972018 -0.960768764
vn -0.125353963 0.000498352 -0.992111957
vn -0.144198801 0.238083681 -0.960480539
vn -0.195252686 0.454328835 -0.869172996
vn -0.264320390 0.631284927 -0.729118696
vn -0.334154166 0.759808792 -0.557702064
vn -0.390902175 0.841683958 -0.372509872
vn -0.426832713 0.885237697 -0.184846029
vn -0.396577700 0.917999952 0.001488488
vn -0.385397848 0.901091817 0.198751193
vn -0.351391621 0.849381655 0.393795294
vn -0.298411906 0.757404090 0.580766200
vn -0.234680728 0.620777780 0.748037368
vn -0.173007057 0.441344174 0.880502060
vn -0.127904733 0.229123454 0.964957420
vn -0.110725622 -0.000420017 0.993850925
vn -0.125867144 -0.230123407 0.964987399
vn -0.169472120 -0.442789084 0.880464098
vn -0.230545660 -0.622775048 0.747662985
vn -0.294602275 -0.759711646 0.579696227
vn -0.348577604 -0.851444352 0.391836918
vn -0.383928201 -0.902308603 0.196056932
vn -0.396577700 -0.917999952 -0.001488488
vn -0.385397848 -0.901091817 -0.198751193
vn -0.351391621 -0.849381655 -0.393795294
vn -0.298411906 -0.757404090 -0.580766200
vn -0.234680728 -0.620777780 -0.748037368
vn -0.173007057 -0.441344174 -0.880502060
vn -0.127904733 -0.229123454 -0.964957420
vn -0.110725622 0.000420017 -0.993850925
vn -0.125867144 0.230123407 -0.964987399
vn -0.169472120 0.442789084 -0.880464098
vn -0.230545660 0.622775048 -0.747662985
vn -0.294602275 0.759711646 -0.579696227
vn -0.348577604 0.851444352 -0.391836918
vn -0.383928201 0.902308603 -0.196056932
vn -0.254215116 0.967147238 0.000946108
vn -0.247390903 0.945070770 0.213632818
vn -0.224296687 0.879959310 0.418763190
vn -0.188728420 0.771526265 0.607559714
vn -0.147154910 0.621579988 0.769404803
vn -0.107883043 0.435939403 0.893486478
vn -0.079247778 0.224524594 0.971240700
vn -0.067477940 -0.000247457 0.997720736
vn -0.075144464 -0.225150206 0.971421996
vn -0.100573684 -0.436970219 0.893835534
vn -0.138223747 -0.623215844 0.769737753
vn -0.180039362 -0.773657249 0.607486864
vn -0.217527337 -0.882050481 0.417933973
vn -0.243716689 -0.946380213 0.212053454
vn -0.254215116 -0.967147238 -0.000946108
vn -0.247390903 -0.945070770 -0.213632818
vn -0.224296687 -0.879959310 -0.418763190
vn -0.188728420 -0.771526265 -0.607559714
vn -0.147154910 -0.621579988 -0.769404803
vn -0.107883043 -0.435939403 -0.893486478
vn -0.079247778 -0.224524594 -0.971240700
vn -0.067477940 0.000247457 -0.997720736
vn -0.075144464 0.225150206 -0.971421996
vn -0.100573684 0.436970219 -0.893835534
vn -0.138223747 0.623215844 -0.769737753
vn -0.180039362 0.773657249 -0.607486864
vn -0.217527337 0.882050481 -0.417933973
vn -0.243716689 0.946380213 -0.212053454
vn 0.988920187 0.148346421 -0.005495786
vn 0.988930687 0.145804076 0.027518508
vn 0.988982994 0.135747525 0.059035975
vn 0.989066123 0.118800176 0.087376895
vn 0.989162990 0.095966805 0.111116839
vn 0.989254263 0.068514482 0.129157922
vn 0.989322294 0.037856761 0.140741839
vn 0.989354281 0.005468568 0.145424214
vn 0.989344308 -0.027159869 0.143039091
vn 0.989294209 -0.058540638 0.133678578
vn 0.989213306 -0.087199895 0.117699676
vn 0.989117007 -0.111708556 0.095753560
vn 0.989024216 -0.130748906 0.068817321
vn 0.988953725 -0.143217708 0.038199721
vn 0.988920187 -0.148346421 0.005495786
vn 0.988930687 -0.145804076 -0.027518508
vn 0.988982994 -0.135747525 -0.059035975
vn 0.989066123 -0.118800176 -0.087376895
vn 0.989162990 -0.095966805 -0.111116839
vn 0.989254263 -0.068514482 -0.129157922
vn 0.989322294 -0.037856761 -0.140741839
vn 0.989354281 -0.005468568 -0.145424214
vn 0.989344308 0.027159869 -0.143039091
vn 0.989294209 0.058540638 -0.133678578
vn 0.989213306 0.087199895 -0.117699676
vn 0.989117007 0.111708556 -0.095753560
vn 0.989024216 0.130748906 -0.068817321
vn 0.988953725 0.143217708 -0.038199721
vn -1.000000000 0.000000000 0.000000000
vn 1.000000000 0.000000000 0.000000000
f 1//1 30//30 29//29
f 1//1 2//2 30//30
f 2//2 31//31 30//30
f 2//2 3//3 31//31
f 3//3 32//32 31//31
f 3//3 4//4 32//32
f 4//4 33//33 32//32
f 4//4 5//5 33//33
f 5//5 34//34 33//33
f 5//5 6//6 34//34
f 6//6 35//35 34//34
f 6//6 7//7 35//35
f 7//7 36//36 35//35
f 7//7 8//8 36//36
f 8//8 37//37 36//36
f 8//8 9//9 37//37
f 9//9 38//38 37//37
f 9//9 10//10 38//38
f 10//10 39//39 38//38
f 10//10 11//11 39//39
f 11//11 40//40 39//39
f 11//11 12//12 40//40
f 12//12 41//41 40//40
f 12//12 13//13 41//41
f 13//13 42//42 41//41
f 13//13 14//14 42//42
f 14//14 43//43 42//42
f 14//14 15//15 43//43
f 15//15 44//44 43//43
f 15//15 16//16 44//44
f 16//16 45//45 44//44
f 16//16 17//17 45//45
f 17//17 46//46 45//45
f 17//17 18//18 46//46
f 18//18 47//47 46//46
f 18//18 19//19 47//47
f 19//19 48//48 47//47
f 19//19 20//20 48//48
f 20//20 49//49 48//48
f 20//20 21//21 49//49
f 21//21 50//50 49//49
f 21//21 22//22 50//50
f 22//22 51//51 50//50
f 22//22 23//23 51//51
f 23//23 52//52 51//51
f 23//23 24//24 52//52
f 24//24 53//53 52//52
f 24//24 25//25 53//53
f 25//25 54//54 53//53
f 25//25 26//26 54//54
f 26//26 55//55 54//54
f 26//26 27//27 55//55
f 27//27 56//56 55//55
f 27//27 28//28 56//56
f 28//28 29//29 56//56
f 28//28 1//1 29//29
f 29//29 58//58 57//57
f 29//29 30//30 58//58
f 30//30 59//59 58//58
f 30//30 31//31 59//59
f 31//31 60//60 59//59
f 31//31 32//32 60//60
f 32//32 61//61 60//60
f 32//32 33//33 61//61
f 33//33 62//62 61//61
f 33//33 34//34 62//62
f 34//34 63//63 62//62
f 34//34 35//35 63//63
f 35//35 64//64 63//63
f 35//35 36//36 64//64
f 36//36 65//65 64//64
f 36//36 37//37 65//65
f 37//37 66//66 65//65
f 37//37 38//38 66//66
f 38//38 67//67 66//66
f 38//38 39//39 67//67
f 39//39 68//68 67//67
f 39//39 40//40 68//68
f 40//40 69//69 68//68
f 40//40 41//41 69//69
f 41//41 70//70 69//69
f 41//41 42//42 70//70
f 42//42 71//71 70//70
f 42//42 43//43 71//71
f 43//43 72//72 71//71
f 43//43 44//44 72//72
f 44//44 73//73 72//72
f 44//44 45//45 73//73
f 45//45 74//74 73//73
f 45//45 46//46 74//74
f 46//46 75//75 74//74
f 46//46 47//47 75//75
f 47//47 76//76 75//75
f 47//47 48//48 76//76
f 48//48 77//77 76//76
f 48//48 49//49 77//77
f 49//49 78//78 77//77
f 49//49 50//50 78//78
f 50//50 79//79 78//78
f 50//50 51//51 79//79
f 51//51 80//80 79//79
f 51//51 52//52 80//80
f 52//52 81//81 80//80
f 52//52 53//53 81//81
f 53//53 82//82 81//81
f 53//53 54//54 82//82
f 54//54 83//83 82//82
f 54//54 55//55 83//83
f 55//55 84//84 83//83
f 55//55 56//56 84//84
f 56//56 57//57 84//84
f 56//56 29//29 57//57
f 57//57 86//86 85//85
f 57//57 58//58 86//86
f 58//58 87//87 86//86
f 58//58 59//59 87//87
f 59//59 88//88 87//87
f 59//59 60//60 88//88
f 60//60 89//89 88//88
f 60//60 61//61 89//89
f 61//61 90//90 89//89
f 61//61 62//62 90//90
f 62//62 91//91 90//90
f 62//62 63//63 91//91
f 63//63 92//92 91//91
f 63//63 64//64 92//92
f 64//64 93//93 92//92
f 64//64 65//65 93//93
f 65//65 94//94 93//93
f 65//65 66//66 94//94
f 66//66 95//95 94//94
f 66//66 67//67 95//95
f 67//67 96//96 95//95
f 67//67 68//68 96//96
f 68//68 97//97 96//96
f 68//68 69//69 97//97
f 69//69 98//98 97//97
f 69//69 70//70 98//98
f 70//70 99//99 98//98
f 70//70 71//71 99//99
f 71//71 100//100 99//99
f 71//71 72//72 100//100
f 72//72 101//101 100//100
f 72//72 73//73 101//101
f 73//73 102//102 101//101
f 73//73 74//74 102//102
f 74//74 103//103 102//102
f 74//74 75//75 103//103
f 75//75 104//104 103//103
f 75//75 76//76 104//104
f 76//76 105//105 104//104
f 76//76 77//77 105//105
f 77//77 106//106 105//105
f 77//77 78//78 106//106
f 78//78 107//107 106//106
f 78//78 79//79 107//107
f 79//79 108//108 107//107
f 79//79 80//80 108//108
f 80//80 109//109 108//108
f 80//80 81//81 109//109
f 81//81 110//110 109//109
f 81//81 82//82 110//110
f 82//82 111//111 110//110
f 82//82 83//83 111//111
f 83//83 112//112 111//111
f 83//83 84//84 112//112
f 84//84 85//85 112//112
f 84//84 57//57 85//85
f 85//85 114//114 113//113
f 85//85 86//86 114//114
f 86//86 115//115 114//114
f 86//86 87//87 115//115
f 87//87 116//116 115//115
f 87//87 88//88 116//116
f 88//88 117//117 116//116
f 88//88 89//89 117//117
f 89//89 118//118 117//117
f 89//89 90//90 118//118
f 90//90 119//119 118//118
f 90//90 91//91 119//119
f 91//91 120//120 119//119
f 91//91 92//92 120//120
f 92//92 121//121 120//120
f 92//92 93//93 121//121
f 93//93 122//122 121//121
f 93//93 94//94 122//122
f 94//94 123//123 122//122
f 94//94 95//95 123//123
f 95//95 124//124 123//123
f 95//95 96//96 124//124
f 96//96 125//125 124//124
f 96//96 97//97 125//125
f 97//97 126//126 125//125
f 97//97 98//98 126//126
f 98//98 127//127 126//126
f 98//98 99//99 127//127
f 99//99 128//128 127//127
f 99//99 100//100 128//128
f 100//100 129//129 128//128
f 100//100 101//101 129//129
f 101//101 130//130 129//129
f 101//101 102//102 130//130
f 102//102 131//131 130//130
f 102//102 103//103 131//131
f 103//103 132//132 131//131
f 103//103 104//104 132//132
f 104//104 133//133 132//132
f 104//104 105//105 133//133
f 105//105 134//134 133//133
f 105//105 106//106 134//134
f 106//106 135//135 134//134
f 106//106 107//107 135//135
f 107//107 136//136 135//135
f 107//107 108//108 136//136
f 108//108 137//137 136//136
f 108//108 109//109 137//137
f 109//109 138//138 137//137
f 109//109 110//110 138//138
f 110//110 139//139 138//138
f 110//110 111//111 139//139
f 111//111 140//140 139//139
f 111//111 112//112 140//140
f 112//112 113//113 140//140
f 112//112 85//85 113//113
f 113//113 142//142 141//141
f 113//113 114//114 142//142
f 114//114 143//143 142//142
f 114//114 115//115 143//143
f 115//115 144//144 143//143
f 115//115 116//116 144//144
f 116//116 145//145 144//144
f 116//116 117//117 145//145
f 117//117 146//146 145//145
f 117//117 118//118 146//146
f 118//118 147//147 146//146
f 118//118 119//119 147//147
f 119//119 148//148 147//147
f 119//119 120//120 148//148
f 120//120 149//149 148//148
f 120//120 121//121 149//149
f 121//121 150//150 149//149
f 121//121 122//122 150//150
f 122//122 151//151 150//150
f 122//122 123//123 151//151
f 123//123 152//152 151//151
f 123//123 124//124 152//152
f 124//124 153//153 152//152
f 124//124 125//125 153//153
f 125//125 154//154 153//153
f 125//125 126//126 154//154
f 126//126 155//155 154//154
f 126//126 127//127 155//155
f 127//127 156//156 155//155
f 127//127 128//128 156//156
f 128//128 157//157 156//156
f 128//128 129//129 157//157
f 129//129 158//158 157//157
f 129//129 130//130 158//158
f 130//130 159//159 158//158
f 130//130 131//131 159//159
f 131//131 160//160 159//159
f 131//131 132//132 160//160
f 132//132 161//161 160//160
f 132//132 133//133 161//161
f 133//133 162//162 161//161
f 133//133 134//134 162//162
f 134//134 163//163 162//162
f 134//134 135//135 163//163
f 135//135 164//164 163//163
f 135//135 136//136 164//164
f 136//136 165//165 164//164
f 136//136 137//137 165//165
f 137//137 166//166 165//165
f 137//137 138//138 166//166
f 138//138 167//167 166//166
f 138//138 139//139 167//167
f 139//139 168//168 167//167
f 139//139 140//140 168//168
f 140//140 141//141 168//168
f 140//140 113//113 141//141
f 141//141 170//170 169//169
f 141//141 142//142 170//170
f 142//142 171//171 170//170
f 142//142 143//143 171//171
f 143//143 172//172 171//171
f 143//143 144//144 172//172
f 144//144 173//173 172//172
f 144//144 145//145 173//173
f 145//145 174//174 173//173
f 145//145 146//146 174//174
f 146//146 175//175 174//174
f 146//146 147//147 175//175
f 147//147 176//176 175//175
f 147//147 148//148 176//176
f 148//148 177//177 176//176
f 148//148 149//149 177//177
f 149//149 178//178 177//177
f 149//149 150//150 178//178
f 150//150 179//179 178//178
f 150//150 151//151 179//179
f 151//151 180//180 179//179
f 151//151 152//152 180//180
f 152//152 181//181 180//180
f 152//152 153//153 181//181
f 153//153 182//182 181//181
f 153//153 154//154 182//182
f 154//154 183//183 182//182
f 154//154 155//155 183//183
f 155//155 184//184 183//183
f 155//155 156//156 184//184
f 156//156 185//185 184//184
f 156//156 157//157 185//185
f 157//157 186//186 185//185
f 157//157 158//158 186//186
f 158//158 187//187 186//186
f 158//158 159//159 187//187
f 159//159 188//188 187//187
f 159//159 160//160 188//188
f 160//160 189//189 188//188
f 160//160 161//161 189//189
f 161//161 190//190 189//189
f 161//161 162//162 190//190
f 162//162 191//191 190//190
f 162//162 163//163 191//191
f 163//163 192//192 191//191
f 163//163 164//164 192//192
f 164//164 193//193 192//192
f 164//164 165//165 193//193
f 165//165 194//194 193//193
f 165//165 166//166 194//194
f 166//166 195//195 194//194
f 166//166 167//167 195//195
f 167//167 196//196 195//195
f 167//167 168//168 196//196
f 168//168 169//169 196//196
f 168//168 141//141 169//169
f 197//197 2//2 1//1
f 198//198 169//169 170//170
f 197//197 3//3 2//2
f 198//198 170//170 171//171
f 197//197 4//4 3//3
f 198//198 171//171 172//172
f 197//197 5//5 4//4
f 198//198 172//172 173//173
f 197//197 6//6 5//5
f 198//198 173//173 174//174
f 197//197 7//7 6//6
f 198//198 174//174 175//175
f 197//197 8//8 7//7
f 198//198 175//175 176//176
f 197//197 9//9 8//8
f 198//198 176//176 177//177
f 197//197 10//10 9//9
f 198//198 177//177 178//178
f 197//197 11//11 10//10
f 198//198 178//178 179//179
f 197//197 12//12 11//11
f 198//198 179//179 180//180
f 197//197 13//13 12//12
f 198//198 180//180 181//181
f 197//197 14//14 13//13
f 198//198 181//181 182//182
f 197//197 15//15 14//14
f 198//198 182//182 183//183
f 197//197 16//16 15//15
f 198//198 183//183 184//184
f 197//197 17//17 16//16
f 198//198 184//184 185//185
f 197//197 18//18 17//17
f 198//198 185//185 186//186
f 197//197 19//19 18//18
f 198//198 186//186 187//187
f 197//197 20//20 19//19
f 198//198 187//187 188//188
f 197//197 21//21 20//20
f 198//198 188//188 189//189
f 197//197 22//22 21//21
f 198//198 189//189 190//190
f 197//197 23//23 22//22
f 198//198 190//190 191//191
f 197//197 24//24 23//23
f 198//198 191//191 192//192
f 197//197 25//25 24//24
f 198//198 192//192 193//193
f 197//197 26//26 25//25
f 198//198 193//193 194//194
f 197//197 27//27 26//26
f 198//198 194//194 195//195
f 197//197 28//28 27//27
f 198//198 195//195 196//196
f 197//197 1//1 28//28
f 198//198 196//196 169//169
