# Generated by generate_bionic_fish.py
# Units: meters
# Explicit smooth normals included for Stonefish.
# Low-poly closed body physics mesh.
o Body
s 1
v -0.181000000 0.051688094 0.000000000
v -0.181000000 0.042630031 0.031885213
v -0.181000000 0.017772074 0.049383070
v -0.181000000 -0.017772074 0.049383070
v -0.181000000 -0.042630031 0.031885213
v -0.181000000 -0.051688094 0.000000000
v -0.181000000 -0.042630031 -0.031885213
v -0.181000000 -0.017772074 -0.049383070
v -0.181000000 0.017772074 -0.049383070
v -0.181000000 0.042630031 -0.031885213
v -0.150833333 0.061299401 0.000000000
v -0.150833333 0.050557007 0.035442611
v -0.150833333 0.021076759 0.054892685
v -0.150833333 -0.021076759 0.054892685
v -0.150833333 -0.050557007 0.035442611
v -0.150833333 -0.061299401 0.000000000
v -0.150833333 -0.050557007 -0.035442611
v -0.150833333 -0.021076759 -0.054892685
v -0.150833333 0.021076759 -0.054892685
v -0.150833333 0.050557007 -0.035442611
v -0.145000000 0.062025712 0.000000000
v -0.145000000 0.051156037 0.035711438
v -0.145000000 0.021326489 0.055309038
v -0.145000000 -0.021326489 0.055309038
v -0.145000000 -0.051156037 0.035711438
v -0.145000000 -0.062025712 0.000000000
v -0.145000000 -0.051156037 -0.035711438
v -0.145000000 -0.021326489 -0.055309038
v -0.145000000 0.021326489 -0.055309038
v -0.145000000 0.051156037 -0.035711438
v -0.120666667 0.069274656 0.000000000
v -0.120666667 0.057134642 0.039288805
v -0.120666667 0.023818915 0.060849580
v -0.120666667 -0.023818915 0.060849580
v -0.120666667 -0.057134642 0.039288805
v -0.120666667 -0.069274656 0.000000000
v -0.120666667 -0.057134642 -0.039288805
v -0.120666667 -0.023818915 -0.060849580
v -0.120666667 0.023818915 -0.060849580
v -0.120666667 0.057134642 -0.039288805
v -0.100000000 0.074947736 0.000000000
v -0.100000000 0.061813545 0.042088481
v -0.100000000 0.025769508 0.065185652
v -0.100000000 -0.025769508 0.065185652
v -0.100000000 -0.061813545 0.042088481
v -0.100000000 -0.074947736 0.000000000
v -0.100000000 -0.061813545 -0.042088481
v -0.100000000 -0.025769508 -0.065185652
v -0.100000000 0.025769508 -0.065185652
v -0.100000000 0.061813545 -0.042088481
v -0.090500000 0.075643144 0.000000000
v -0.090500000 0.062387086 0.042367319
v -0.090500000 0.026008612 0.065617510
v -0.090500000 -0.026008612 0.065617510
v -0.090500000 -0.062387086 0.042367319
v -0.090500000 -0.075643144 0.000000000
v -0.090500000 -0.062387086 -0.042367319
v -0.090500000 -0.026008612 -0.065617510
v -0.090500000 0.026008612 -0.065617510
v -0.090500000 0.062387086 -0.042367319
v -0.060333333 0.082528341 0.000000000
v -0.060333333 0.068065689 0.045128078
v -0.060333333 0.028375970 0.069893309
v -0.060333333 -0.028375970 0.069893309
v -0.060333333 -0.068065689 0.045128078
v -0.060333333 -0.082528341 0.000000000
v -0.060333333 -0.068065689 -0.045128078
v -0.060333333 -0.028375970 -0.069893309
v -0.060333333 0.028375970 -0.069893309
v -0.060333333 0.068065689 -0.045128078
v -0.040000000 0.085285355 0.000000000
v -0.040000000 0.070339551 0.046233559
v -0.040000000 0.029323923 0.071605451
v -0.040000000 -0.029323923 0.071605451
v -0.040000000 -0.070339551 0.046233559
v -0.040000000 -0.085285355 0.000000000
v -0.040000000 -0.070339551 -0.046233559
v -0.040000000 -0.029323923 -0.071605451
v -0.040000000 0.029323923 -0.071605451
v -0.040000000 0.070339551 -0.046233559
v -0.030166667 0.085470850 0.000000000
v -0.030166667 0.070492539 0.046233559
v -0.030166667 0.029387702 0.071605451
v -0.030166667 -0.029387702 0.071605451
v -0.030166667 -0.070492539 0.046233559
v -0.030166667 -0.085470850 0.000000000
v -0.030166667 -0.070492539 -0.046233559
v -0.030166667 -0.029387702 -0.071605451
v -0.030166667 0.029387702 -0.071605451
v -0.030166667 0.070492539 -0.046233559
v -0.000000000 0.087199729 0.000000000
v -0.000000000 0.071918441 0.046233559
v -0.000000000 0.029982148 0.071605451
v -0.000000000 -0.029982148 0.071605451
v -0.000000000 -0.071918441 0.046233559
v -0.000000000 -0.087199729 0.000000000
v -0.000000000 -0.071918441 -0.046233559
v -0.000000000 -0.029982148 -0.071605451
v -0.000000000 0.029982148 -0.071605451
v -0.000000000 0.071918441 -0.046233559
v 0.020000000 0.087869759 0.000000000
v 0.020000000 0.072471052 0.046233559
v 0.020000000 0.030212526 0.071605451
v 0.020000000 -0.030212526 0.071605451
v 0.020000000 -0.072471052 0.046233559
v 0.020000000 -0.087869759 0.000000000
v 0.020000000 -0.072471052 -0.046233559
v 0.020000000 -0.030212526 -0.071605451
v 0.020000000 0.030212526 -0.071605451
v 0.020000000 0.072471052 -0.046233559
v 0.030166667 0.087592660 0.000000000
v 0.030166667 0.072242513 0.046062622
v 0.030166667 0.030117250 0.071340709
v 0.030166667 -0.030117250 0.071340709
v 0.030166667 -0.072242513 0.046062622
v 0.030166667 -0.087592660 0.000000000
v 0.030166667 -0.072242513 -0.046062622
v 0.030166667 -0.030117250 -0.071340709
v 0.030166667 0.030117250 -0.071340709
v 0.030166667 0.072242513 -0.046062622
v 0.060333333 0.085537801 0.000000000
v 0.060333333 0.070547757 0.044795026
v 0.060333333 0.029410722 0.069377486
v 0.060333333 -0.029410722 0.069377486
v 0.060333333 -0.070547757 0.044795026
v 0.060333333 -0.085537801 0.000000000
v 0.060333333 -0.070547757 -0.044795026
v 0.060333333 -0.029410722 -0.069377486
v 0.060333333 0.029410722 -0.069377486
v 0.060333333 0.070547757 -0.044795026
v 0.070000000 0.085285355 0.000000000
v 0.070000000 0.070339551 0.044639298
v 0.070000000 0.029323923 0.069136298
v 0.070000000 -0.029323923 0.069136298
v 0.070000000 -0.070339551 0.044639298
v 0.070000000 -0.085285355 0.000000000
v 0.070000000 -0.070339551 -0.044639298
v 0.070000000 -0.029323923 -0.069136298
v 0.070000000 0.029323923 -0.069136298
v 0.070000000 0.070339551 -0.044639298
v 0.090500000 0.080549976 0.000000000
v 0.090500000 0.066434022 0.041718150
v 0.090500000 0.027695743 0.064612093
v 0.090500000 -0.027695743 0.064612093
v 0.090500000 -0.066434022 0.041718150
v 0.090500000 -0.080549976 0.000000000
v 0.090500000 -0.066434022 -0.041718150
v 0.090500000 -0.027695743 -0.064612093
v 0.090500000 0.027695743 -0.064612093
v 0.090500000 0.066434022 -0.041718150
v 0.120000000 0.072363331 0.000000000
v 0.120000000 0.059682043 0.036667995
v 0.120000000 0.024880904 0.056790530
v 0.120000000 -0.024880904 0.056790530
v 0.120000000 -0.059682043 0.036667995
v 0.120000000 -0.072363331 0.000000000
v 0.120000000 -0.059682043 -0.036667995
v 0.120000000 -0.024880904 -0.056790530
v 0.120000000 0.024880904 -0.056790530
v 0.120000000 0.059682043 -0.036667995
v 0.120666667 0.072332782 0.000000000
v 0.120666667 0.059656847 0.036654289
v 0.120666667 0.024870400 0.056769303
v 0.120666667 -0.024870400 0.056769303
v 0.120666667 -0.059656847 0.036654289
v 0.120666667 -0.072332782 0.000000000
v 0.120666667 -0.059656847 -0.036654289
v 0.120666667 -0.024870400 -0.056769303
v 0.120666667 0.024870400 -0.056769303
v 0.120666667 0.059656847 -0.036654289
v 0.150833333 0.045047644 0.000000000
v 0.150833333 0.037153285 0.024413138
v 0.150833333 0.015488868 0.037810496
v 0.150833333 -0.015488868 0.037810496
v 0.150833333 -0.037153285 0.024413138
v 0.150833333 -0.045047644 0.000000000
v 0.150833333 -0.037153285 -0.024413138
v 0.150833333 -0.015488868 -0.037810496
v 0.150833333 0.015488868 -0.037810496
v 0.150833333 0.037153285 -0.024413138
v 0.155000000 0.043934880 0.000000000
v 0.155000000 0.036235526 0.023913910
v 0.155000000 0.015106263 0.037037302
v 0.155000000 -0.015106263 0.037037302
v 0.155000000 -0.036235526 0.023913910
v 0.155000000 -0.043934880 0.000000000
v 0.155000000 -0.036235526 -0.023913910
v 0.155000000 -0.015106263 -0.037037302
v 0.155000000 0.015106263 -0.037037302
v 0.155000000 0.036235526 -0.023913910
v 0.181000000 0.006202571 0.000000000
v 0.181000000 0.005115604 0.006377043
v 0.181000000 0.002132649 0.009876614
v 0.181000000 -0.002132649 0.009876614
v 0.181000000 -0.005115604 0.006377043
v 0.181000000 -0.006202571 0.000000000
v 0.181000000 -0.005115604 -0.006377043
v 0.181000000 -0.002132649 -0.009876614
v 0.181000000 0.002132649 -0.009876614
v 0.181000000 0.005115604 -0.006377043
v -0.181000000 0.000000000 0.000000000
v 0.181000000 0.000000000 0.000000000
vn -0.814622222 0.576621706 0.062434306
vn -0.811861401 0.429456496 0.395535313
vn -0.780370586 0.105170714 0.616409661
vn -0.802533767 -0.226830033 0.551804031
vn -0.813104368 -0.515093432 0.271182674
vn -0.814622222 -0.576621706 -0.062434306
vn -0.811861401 -0.429456496 -0.395535313
vn -0.780370586 -0.105170714 -0.616409661
vn -0.802533767 0.226830033 -0.551804031
vn -0.813104368 0.515093432 -0.271182674
vn -0.269209394 0.961554696 -0.054211329
vn -0.254542387 0.821566967 0.510133211
vn -0.191633882 0.318657320 0.928296271
vn -0.178438725 -0.204930767 0.962373629
vn -0.232102852 -0.747100030 0.622872227
vn -0.269209394 -0.961554696 0.054211329
vn -0.254542387 -0.821566967 -0.510133211
vn -0.191633882 -0.318657320 -0.928296271
vn -0.178438725 0.204930767 -0.962373629
vn -0.232102852 0.747100030 -0.622872227
vn -0.253655122 0.964922826 0.067698006
vn -0.238805128 0.730620410 0.639660791
vn -0.209595809 0.192051098 0.958741870
vn -0.213940053 -0.317810978 0.923702244
vn -0.247406604 -0.823805265 0.510034173
vn -0.253655122 -0.964922826 -0.067698006
vn -0.238805128 -0.730620410 -0.639660791
vn -0.209595809 -0.192051098 -0.958741870
vn -0.213940053 0.317810978 -0.923702244
vn -0.247406604 0.823805265 -0.510034173
vn -0.273774214 0.961793157 0.001266245
vn -0.264440571 0.772292277 0.577612174
vn -0.232245319 0.250305642 0.939898504
vn -0.232213980 -0.250735899 0.939791560
vn -0.263485455 -0.773626485 0.576261639
vn -0.273774214 -0.961793157 -0.001266245
vn -0.264440571 -0.772292277 -0.577612174
vn -0.232245319 -0.250305642 -0.939898504
vn -0.232213980 0.250735899 -0.939791560
vn -0.263485455 0.773626485 -0.576261639
vn -0.203808906 0.978468683 -0.032572490
vn -0.198167443 0.805432887 0.558576342
vn -0.169080724 0.282059939 0.944380167
vn -0.168804689 -0.221857631 0.960356272
vn -0.191714201 -0.760233710 0.620717626
vn -0.203808906 -0.978468683 0.032572490
vn -0.198167443 -0.805432887 -0.558576342
vn -0.169080724 -0.282059939 -0.944380167
vn -0.168804689 0.221857631 -0.960356272
vn -0.191714201 0.760233710 -0.620717626
vn -0.185050625 0.980916723 0.059654407
vn -0.161937099 0.741673834 0.650919581
vn -0.129724644 0.199414495 0.971290572
vn -0.136064840 -0.303174847 0.943170913
vn -0.175627595 -0.822868159 0.540409975
vn -0.185050625 -0.980916723 -0.059654407
vn -0.161937099 -0.741673834 -0.650919581
vn -0.129724644 -0.199414495 -0.971290572
vn -0.136064840 0.303174847 -0.943170913
vn -0.175627595 0.822868159 -0.540409975
vn -0.184072441 0.982814066 -0.013922957
vn -0.170820288 0.789956466 0.588888114
vn -0.132547797 0.260700806 0.956277246
vn -0.130478250 -0.233995348 0.963442579
vn -0.164345722 -0.770312952 0.616123720
vn -0.184072441 -0.982814066 0.013922957
vn -0.170820288 -0.789956466 -0.588888114
vn -0.132547797 -0.260700806 -0.956277246
vn -0.130478250 0.233995348 -0.963442579
vn -0.164345722 0.770312952 -0.616123720
vn -0.095085494 0.994850473 -0.035089688
vn -0.087988771 0.809439504 0.580573566
vn -0.064726466 0.277016172 0.958682703
vn -0.063462167 -0.216595871 0.974196480
vn -0.081842960 -0.760352578 0.644333522
vn -0.095085494 -0.994850473 0.035089688
vn -0.087988771 -0.809439504 -0.580573566
vn -0.064726466 -0.277016172 -0.958682703
vn -0.063462167 0.216595871 -0.974196480
vn -0.081842960 0.760352578 -0.644333522
vn -0.044946170 0.997393082 0.056452468
vn -0.024935209 0.744913788 0.666694595
vn -0.003248964 0.199585975 0.979874932
vn -0.008664771 -0.291718339 0.956465019
vn -0.035517826 -0.822831864 0.567173877
vn -0.044946170 -0.997393082 -0.056452468
vn -0.024935209 -0.744913788 -0.666694595
vn -0.003248964 -0.199585975 -0.979874932
vn -0.008664771 0.291718339 -0.956465019
vn -0.035517826 0.822831864 -0.567173877
vn -0.044970306 0.998774846 -0.020651365
vn -0.032964705 0.796307225 0.603993486
vn -0.007292535 0.260286475 0.965503894
vn -0.004405601 -0.224421555 0.974482199
vn -0.027250660 -0.766756831 0.641358997
vn -0.044970306 -0.998774846 0.020651365
vn -0.032964705 -0.796307225 -0.603993486
vn -0.007292535 -0.260286475 -0.965503894
vn -0.004405601 0.224421555 -0.974482199
vn -0.027250660 0.766756831 -0.641358997
vn -0.011643306 0.999293453 -0.035735530
vn -0.007400227 0.803782935 0.594876651
vn 0.005437193 0.269464670 0.962994927
vn 0.007598192 -0.211468691 0.977355238
vn -0.001545720 -0.753735646 0.657175917
vn -0.011643306 -0.999293453 0.035735530
vn -0.007400227 -0.803782935 -0.594876651
vn 0.005437193 -0.269464670 -0.962994927
vn 0.007598192 0.211468691 -0.977355238
vn -0.001545720 0.753735646 -0.657175917
vn 0.058143260 0.996888242 0.053227759
vn 0.059770863 0.738760647 0.671312259
vn 0.058231429 0.197414571 0.978589080
vn 0.057319789 -0.281876152 0.957737060
vn 0.058969341 -0.812725316 0.579655224
vn 0.058143260 -0.996888242 -0.053227759
vn 0.059770863 -0.738760647 -0.671312259
vn 0.058231429 -0.197414571 -0.978589080
vn 0.057319789 0.281876152 -0.957737060
vn 0.058969341 0.812725316 -0.579655224
vn 0.058401228 0.996553743 -0.058906136
vn 0.059206531 0.815838827 0.575240467
vn 0.057561390 0.286259336 0.956421601
vn 0.058440527 -0.192276409 0.979599146
vn 0.060016537 -0.733681253 0.676838115
vn 0.058401228 -0.996553743 0.058906136
vn 0.059206531 -0.815838827 -0.575240467
vn 0.057561390 -0.286259336 -0.956421601
vn 0.058440527 0.192276409 -0.979599146
vn 0.060016537 0.733681253 -0.676838115
vn 0.163704325 0.985860622 0.035773280
vn 0.168572613 0.740239613 0.650867567
vn 0.165462623 0.207418764 0.964157444
vn 0.159770845 -0.263121232 0.951441272
vn 0.165580158 -0.789987012 0.590342047
vn 0.163704325 -0.985860622 -0.035773280
vn 0.168572613 -0.740239613 -0.650867567
vn 0.165462623 -0.207418764 -0.964157444
vn 0.159770845 0.263121232 -0.951441272
vn 0.165580158 0.789987012 -0.590342047
vn 0.252199382 0.967617005 0.010620906
vn 0.257738903 0.740242665 0.620976211
vn 0.251000187 0.221227350 0.942367957
vn 0.249323225 -0.235445095 0.939363368
vn 0.256258281 -0.754333156 0.604411435
vn 0.252199382 -0.967617005 -0.010620906
vn 0.257738903 -0.740242665 -0.620976211
vn 0.251000187 -0.221227350 -0.942367957
vn 0.249323225 0.235445095 -0.939363368
vn 0.256258281 0.754333156 -0.604411435
vn 0.264273465 0.957840692 -0.112697577
vn 0.266515838 0.814379860 0.515514065
vn 0.262299066 0.313976066 0.912479167
vn 0.261890324 -0.140767596 0.954776383
vn 0.270646456 -0.657088061 0.703552256
vn 0.264273465 -0.957840692 0.112697577
vn 0.266515838 -0.814379860 -0.515514065
vn 0.262299066 -0.313976066 -0.912479167
vn 0.261890324 0.140767596 -0.954776383
vn 0.270646456 0.657088061 -0.703552256
vn 0.658274166 0.750612176 0.057065619
vn 0.618855233 0.562304381 0.548481525
vn 0.549626511 0.146232826 0.822512406
vn 0.564913367 -0.245099572 0.787908045
vn 0.639652046 -0.632721284 0.436473409
vn 0.658274166 -0.750612176 -0.057065619
vn 0.618855233 -0.562304381 -0.548481525
vn 0.549626511 -0.146232826 -0.822512406
vn 0.564913367 0.245099572 -0.787908045
vn 0.639652046 0.632721284 -0.436473409
vn 0.635976559 0.766068942 -0.093124611
vn 0.622319149 0.669992909 0.404757184
vn 0.547288657 0.281856501 0.788055860
vn 0.527947882 -0.127255573 0.839688665
vn 0.593157132 -0.556410956 0.581868941
vn 0.635976559 -0.766068942 0.093124611
vn 0.622319149 -0.669992909 -0.404757184
vn 0.547288657 -0.281856501 -0.788055860
vn 0.527947882 0.127255573 -0.839688665
vn 0.593157132 0.556410956 -0.581868941
vn 0.775630517 0.631184900 -0.001709409
vn 0.750882765 0.528810838 0.395643995
vn 0.695293980 0.179632627 0.695915513
vn 0.701791137 -0.190394493 0.686468599
vn 0.763771333 -0.519352364 0.383309892
vn 0.775630517 -0.631184900 0.001709409
vn 0.750882765 -0.528810838 -0.395643995
vn 0.695293980 -0.179632627 -0.695915513
vn 0.701791137 0.190394493 -0.686468599
vn 0.763771333 0.519352364 -0.383309892
vn 0.828195129 0.548479206 -0.115166790
vn 0.824888967 0.533840386 0.185937181
vn 0.789587375 0.310160300 0.529483111
vn 0.759441418 -0.060513047 0.647755281
vn 0.803992398 -0.400871722 0.439201647
vn 0.828195129 -0.548479206 0.115166790
vn 0.824888967 -0.533840386 -0.185937181
vn 0.789587375 -0.310160300 -0.529483111
vn 0.759441418 0.060513047 -0.647755281
vn 0.803992398 0.400871722 -0.439201647
vn -1.000000000 0.000000000 0.000000000
vn 1.000000000 0.000000000 0.000000000
f 1//1 12//12 11//11
f 1//1 2//2 12//12
f 2//2 13//13 12//12
f 2//2 3//3 13//13
f 3//3 14//14 13//13
f 3//3 4//4 14//14
f 4//4 15//15 14//14
f 4//4 5//5 15//15
f 5//5 16//16 15//15
f 5//5 6//6 16//16
f 6//6 17//17 16//16
f 6//6 7//7 17//17
f 7//7 18//18 17//17
f 7//7 8//8 18//18
f 8//8 19//19 18//18
f 8//8 9//9 19//19
f 9//9 20//20 19//19
f 9//9 10//10 20//20
f 10//10 11//11 20//20
f 10//10 1//1 11//11
f 11//11 22//22 21//21
f 11//11 12//12 22//22
f 12//12 23//23 22//22
f 12//12 13//13 23//23
f 13//13 24//24 23//23
f 13//13 14//14 24//24
f 14//14 25//25 24//24
f 14//14 15//15 25//25
f 15//15 26//26 25//25
f 15//15 16//16 26//26
f 16//16 27//27 26//26
f 16//16 17//17 27//27
f 17//17 28//28 27//27
f 17//17 18//18 28//28
f 18//18 29//29 28//28
f 18//18 19//19 29//29
f 19//19 30//30 29//29
f 19//19 20//20 30//30
f 20//20 21//21 30//30
f 20//20 11//11 21//21
f 21//21 32//32 31//31
f 21//21 22//22 32//32
f 22//22 33//33 32//32
f 22//22 23//23 33//33
f 23//23 34//34 33//33
f 23//23 24//24 34//34
f 24//24 35//35 34//34
f 24//24 25//25 35//35
f 25//25 36//36 35//35
f 25//25 26//26 36//36
f 26//26 37//37 36//36
f 26//26 27//27 37//37
f 27//27 38//38 37//37
f 27//27 28//28 38//38
f 28//28 39//39 38//38
f 28//28 29//29 39//39
f 29//29 40//40 39//39
f 29//29 30//30 40//40
f 30//30 31//31 40//40
f 30//30 21//21 31//31
f 31//31 42//42 41//41
f 31//31 32//32 42//42
f 32//32 43//43 42//42
f 32//32 33//33 43//43
f 33//33 44//44 43//43
f 33//33 34//34 44//44
f 34//34 45//45 44//44
f 34//34 35//35 45//45
f 35//35 46//46 45//45
f 35//35 36//36 46//46
f 36//36 47//47 46//46
f 36//36 37//37 47//47
f 37//37 48//48 47//47
f 37//37 38//38 48//48
f 38//38 49//49 48//48
f 38//38 39//39 49//49
f 39//39 50//50 49//49
f 39//39 40//40 50//50
f 40//40 41//41 50//50
f 40//40 31//31 41//41
f 41//41 52//52 51//51
f 41//41 42//42 52//52
f 42//42 53//53 52//52
f 42//42 43//43 53//53
f 43//43 54//54 53//53
f 43//43 44//44 54//54
f 44//44 55//55 54//54
f 44//44 45//45 55//55
f 45//45 56//56 55//55
f 45//45 46//46 56//56
f 46//46 57//57 56//56
f 46//46 47//47 57//57
f 47//47 58//58 57//57
f 47//47 48//48 58//58
f 48//48 59//59 58//58
f 48//48 49//49 59//59
f 49//49 60//60 59//59
f 49//49 50//50 60//60
f 50//50 51//51 60//60
f 50//50 41//41 51//51
f 51//51 62//62 61//61
f 51//51 52//52 62//62
f 52//52 63//63 62//62
f 52//52 53//53 63//63
f 53//53 64//64 63//63
f 53//53 54//54 64//64
f 54//54 65//65 64//64
f 54//54 55//55 65//65
f 55//55 66//66 65//65
f 55//55 56//56 66//66
f 56//56 67//67 66//66
f 56//56 57//57 67//67
f 57//57 68//68 67//67
f 57//57 58//58 68//68
f 58//58 69//69 68//68
f 58//58 59//59 69//69
f 59//59 70//70 69//69
f 59//59 60//60 70//70
f 60//60 61//61 70//70
f 60//60 51//51 61//61
f 61//61 72//72 71//71
f 61//61 62//62 72//72
f 62//62 73//73 72//72
f 62//62 63//63 73//73
f 63//63 74//74 73//73
f 63//63 64//64 74//74
f 64//64 75//75 74//74
f 64//64 65//65 75//75
f 65//65 76//76 75//75
f 65//65 66//66 76//76
f 66//66 77//77 76//76
f 66//66 67//67 77//77
f 67//67 78//78 77//77
f 67//67 68//68 78//78
f 68//68 79//79 78//78
f 68//68 69//69 79//79
f 69//69 80//80 79//79
f 69//69 70//70 80//80
f 70//70 71//71 80//80
f 70//70 61//61 71//71
f 71//71 82//82 81//81
f 71//71 72//72 82//82
f 72//72 83//83 82//82
f 72//72 73//73 83//83
f 73//73 84//84 83//83
f 73//73 74//74 84//84
f 74//74 85//85 84//84
f 74//74 75//75 85//85
f 75//75 86//86 85//85
f 75//75 76//76 86//86
f 76//76 87//87 86//86
f 76//76 77//77 87//87
f 77//77 88//88 87//87
f 77//77 78//78 88//88
f 78//78 89//89 88//88
f 78//78 79//79 89//89
f 79//79 90//90 89//89
f 79//79 80//80 90//90
f 80//80 81//81 90//90
f 80//80 71//71 81//81
f 81//81 92//92 91//91
f 81//81 82//82 92//92
f 82//82 93//93 92//92
f 82//82 83//83 93//93
f 83//83 94//94 93//93
f 83//83 84//84 94//94
f 84//84 95//95 94//94
f 84//84 85//85 95//95
f 85//85 96//96 95//95
f 85//85 86//86 96//96
f 86//86 97//97 96//96
f 86//86 87//87 97//97
f 87//87 98//98 97//97
f 87//87 88//88 98//98
f 88//88 99//99 98//98
f 88//88 89//89 99//99
f 89//89 100//100 99//99
f 89//89 90//90 100//100
f 90//90 91//91 100//100
f 90//90 81//81 91//91
f 91//91 102//102 101//101
f 91//91 92//92 102//102
f 92//92 103//103 102//102
f 92//92 93//93 103//103
f 93//93 104//104 103//103
f 93//93 94//94 104//104
f 94//94 105//105 104//104
f 94//94 95//95 105//105
f 95//95 106//106 105//105
f 95//95 96//96 106//106
f 96//96 107//107 106//106
f 96//96 97//97 107//107
f 97//97 108//108 107//107
f 97//97 98//98 108//108
f 98//98 109//109 108//108
f 98//98 99//99 109//109
f 99//99 110//110 109//109
f 99//99 100//100 110//110
f 100//100 101//101 110//110
f 100//100 91//91 101//101
f 101//101 112//112 111//111
f 101//101 102//102 112//112
f 102//102 113//113 112//112
f 102//102 103//103 113//113
f 103//103 114//114 113//113
f 103//103 104//104 114//114
f 104//104 115//115 114//114
f 104//104 105//105 115//115
f 105//105 116//116 115//115
f 105//105 106//106 116//116
f 106//106 117//117 116//116
f 106//106 107//107 117//117
f 107//107 118//118 117//117
f 107//107 108//108 118//118
f 108//108 119//119 118//118
f 108//108 109//109 119//119
f 109//109 120//120 119//119
f 109//109 110//110 120//120
f 110//110 111//111 120//120
f 110//110 101//101 111//111
f 111//111 122//122 121//121
f 111//111 112//112 122//122
f 112//112 123//123 122//122
f 112//112 113//113 123//123
f 113//113 124//124 123//123
f 113//113 114//114 124//124
f 114//114 125//125 124//124
f 114//114 115//115 125//125
f 115//115 126//126 125//125
f 115//115 116//116 126//126
f 116//116 127//127 126//126
f 116//116 117//117 127//127
f 117//117 128//128 127//127
f 117//117 118//118 128//128
f 118//118 129//129 128//128
f 118//118 119//119 129//129
f 119//119 130//130 129//129
f 119//119 120//120 130//130
f 120//120 121//121 130//130
f 120//120 111//111 121//121
f 121//121 132//132 131//131
f 121//121 122//122 132//132
f 122//122 133//133 132//132
f 122//122 123//123 133//133
f 123//123 134//134 133//133
f 123//123 124//124 134//134
f 124//124 135//135 134//134
f 124//124 125//125 135//135
f 125//125 136//136 135//135
f 125//125 126//126 136//136
f 126//126 137//137 136//136
f 126//126 127//127 137//137
f 127//127 138//138 137//137
f 127//127 128//128 138//138
f 128//128 139//139 138//138
f 128//128 129//129 139//139
f 129//129 140//140 139//139
f 129//129 130//130 140//140
f 130//130 131//131 140//140
f 130//130 121//121 131//131
f 131//131 142//142 141//141
f 131//131 132//132 142//142
f 132//132 143//143 142//142
f 132//132 133//133 143//143
f 133//133 144//144 143//143
f 133//133 134//134 144//144
f 134//134 145//145 144//144
f 134//134 135//135 145//145
f 135//135 146//146 145//145
f 135//135 136//136 146//146
f 136//136 147//147 146//146
f 136//136 137//137 147//147
f 137//137 148//148 147//147
f 137//137 138//138 148//148
f 138//138 149//149 148//148
f 138//138 139//139 149//149
f 139//139 150//150 149//149
f 139//139 140//140 150//150
f 140//140 141//141 150//150
f 140//140 131//131 141//141
f 141//141 152//152 151//151
f 141//141 142//142 152//152
f 142//142 153//153 152//152
f 142//142 143//143 153//153
f 143//143 154//154 153//153
f 143//143 144//144 154//154
f 144//144 155//155 154//154
f 144//144 145//145 155//155
f 145//145 156//156 155//155
f 145//145 146//146 156//156
f 146//146 157//157 156//156
f 146//146 147//147 157//157
f 147//147 158//158 157//157
f 147//147 148//148 158//158
f 148//148 159//159 158//158
f 148//148 149//149 159//159
f 149//149 160//160 159//159
f 149//149 150//150 160//160
f 150//150 151//151 160//160
f 150//150 141//141 151//151
f 151//151 162//162 161//161
f 151//151 152//152 162//162
f 152//152 163//163 162//162
f 152//152 153//153 163//163
f 153//153 164//164 163//163
f 153//153 154//154 164//164
f 154//154 165//165 164//164
f 154//154 155//155 165//165
f 155//155 166//166 165//165
f 155//155 156//156 166//166
f 156//156 167//167 166//166
f 156//156 157//157 167//167
f 157//157 168//168 167//167
f 157//157 158//158 168//168
f 158//158 169//169 168//168
f 158//158 159//159 169//169
f 159//159 170//170 169//169
f 159//159 160//160 170//170
f 160//160 161//161 170//170
f 160//160 151//151 161//161
f 161//161 172//172 171//171
f 161//161 162//162 172//172
f 162//162 173//173 172//172
f 162//162 163//163 173//173
f 163//163 174//174 173//173
f 163//163 164//164 174//174
f 164//164 175//175 174//174
f 164//164 165//165 175//175
f 165//165 176//176 175//175
f 165//165 166//166 176//176
f 166//166 177//177 176//176
f 166//166 167//167 177//177
f 167//167 178//178 177//177
f 167//167 168//168 178//178
f 168//168 179//179 178//178
f 168//168 169//169 179//179
f 169//169 180//180 179//179
f 169//169 170//170 180//180
f 170//170 171//171 180//180
f 170//170 161//161 171//171
f 171//171 182//182 181//181
f 171//171 172//172 182//182
f 172//172 183//183 182//182
f 172//172 173//173 183//183
f 173//173 184//184 183//183
f 173//173 174//174 184//184
f 174//174 185//185 184//184
f 174//174 175//175 185//185
f 175//175 186//186 185//185
f 175//175 176//176 186//186
f 176//176 187//187 186//186
f 176//176 177//177 187//187
f 177//177 188//188 187//187
f 177//177 178//178 188//188
f 178//178 189//189 188//188
f 178//178 179//179 189//189
f 179//179 190//190 189//189
f 179//179 180//180 190//190
f 180//180 181//181 190//190
f 180//180 171//171 181//181
f 181//181 192//192 191//191
f 181//181 182//182 192//192
f 182//182 193//193 192//192
f 182//182 183//183 193//193
f 183//183 194//194 193//193
f 183//183 184//184 194//194
f 184//184 195//195 194//194
f 184//184 185//185 195//195
f 185//185 196//196 195//195
f 185//185 186//186 196//196
f 186//186 197//197 196//196
f 186//186 187//187 197//197
f 187//187 198//198 197//197
f 187//187 188//188 198//198
f 188//188 199//199 198//198
f 188//188 189//189 199//199
f 189//189 200//200 199//199
f 189//189 190//190 200//200
f 190//190 191//191 200//200
f 190//190 181//181 191//191
f 201//201 2//2 1//1
f 202//202 191//191 192//192
f 201//201 3//3 2//2
f 202//202 192//192 193//193
f 201//201 4//4 3//3
f 202//202 193//193 194//194
f 201//201 5//5 4//4
f 202//202 194//194 195//195
f 201//201 6//6 5//5
f 202//202 195//195 196//196
f 201//201 7//7 6//6
f 202//202 196//196 197//197
f 201//201 8//8 7//7
f 202//202 197//197 198//198
f 201//201 9//9 8//8
f 202//202 198//198 199//199
f 201//201 10//10 9//9
f 202//202 199//199 200//200
f 201//201 1//1 10//10
f 202//202 200//200 191//191
