# Generated by generate_bionic_fish.py
# Units: meters
# Explicit smooth normals included for Stonefish.
# Caudal fin physics mesh.
o CaudalFin
s 1
v -0.042041000 -0.001000000 0.000000000
v -0.042179000 -0.001000000 -0.001787000
v -0.042340000 -0.001000000 -0.003519000
v -0.042523000 -0.001000000 -0.005202000
v -0.042729000 -0.001000000 -0.006839000
v -0.042955000 -0.001000000 -0.008433000
v -0.043201000 -0.001000000 -0.009991000
v -0.043466000 -0.001000000 -0.011513000
v -0.043749000 -0.001000000 -0.013006000
v -0.044368000 -0.001000000 -0.015912000
v -0.045048000 -0.001000000 -0.018733000
v -0.045783000 -0.001000000 -0.021492000
v -0.046564000 -0.001000000 -0.024207000
v -0.047385000 -0.001000000 -0.026897000
v -0.048236000 -0.001000000 -0.029574000
v -0.050000000 -0.001000000 -0.034939000
v -0.051791000 -0.001000000 -0.040373000
v -0.052676000 -0.001000000 -0.043129000
v -0.053543000 -0.001000000 -0.045914000
v -0.054385000 -0.001000000 -0.048727000
v -0.055193000 -0.001000000 -0.051567000
v -0.055960000 -0.001000000 -0.054431000
v -0.056677000 -0.001000000 -0.057313000
v -0.057339000 -0.001000000 -0.060208000
v -0.057936000 -0.001000000 -0.063106000
v -0.058463000 -0.001000000 -0.065999000
v -0.058913000 -0.001000000 -0.068878000
v -0.059279000 -0.001000000 -0.071729000
v -0.059555000 -0.001000000 -0.074541000
v -0.059736000 -0.001000000 -0.077301000
v -0.059816000 -0.001000000 -0.079994000
v -0.059816000 -0.001000000 -0.081311000
v -0.059790000 -0.001000000 -0.082605000
v -0.059736000 -0.001000000 -0.083875000
v -0.059653000 -0.001000000 -0.085119000
v -0.059543000 -0.001000000 -0.086334000
v -0.059403000 -0.001000000 -0.087519000
v -0.059234000 -0.001000000 -0.088671000
v -0.059035000 -0.001000000 -0.089789000
v -0.058805000 -0.001000000 -0.090869000
v -0.058545000 -0.001000000 -0.091910000
v -0.058255000 -0.001000000 -0.092910000
v -0.057933000 -0.001000000 -0.093867000
v -0.057580000 -0.001000000 -0.094778000
v -0.057195000 -0.001000000 -0.095641000
v -0.056779000 -0.001000000 -0.096453000
v -0.056331000 -0.001000000 -0.097214000
v -0.055851000 -0.001000000 -0.097919000
v -0.055339000 -0.001000000 -0.098568000
v -0.054796000 -0.001000000 -0.099157000
v -0.054220000 -0.001000000 -0.099685000
v -0.053613000 -0.001000000 -0.100149000
v -0.052975000 -0.001000000 -0.100548000
v -0.052305000 -0.001000000 -0.100878000
v -0.051604000 -0.001000000 -0.101138000
v -0.050873000 -0.001000000 -0.101326000
v -0.050111000 -0.001000000 -0.101440000
v -0.049319000 -0.001000000 -0.101476000
v -0.048497000 -0.001000000 -0.101434000
v -0.047647000 -0.001000000 -0.101312000
v -0.046767000 -0.001000000 -0.101106000
v -0.045860000 -0.001000000 -0.100816000
v -0.044925000 -0.001000000 -0.100439000
v -0.043964000 -0.001000000 -0.099974000
v -0.042977000 -0.001000000 -0.099418000
v -0.041964000 -0.001000000 -0.098770000
v -0.040928000 -0.001000000 -0.098028000
v -0.039868000 -0.001000000 -0.097191000
v -0.038786000 -0.001000000 -0.096256000
v -0.037682000 -0.001000000 -0.095222000
v -0.036559000 -0.001000000 -0.094088000
v -0.035416000 -0.001000000 -0.092852000
v -0.034255000 -0.001000000 -0.091513000
v -0.033078000 -0.001000000 -0.090070000
v -0.031886000 -0.001000000 -0.088521000
v -0.030680000 -0.001000000 -0.086864000
v -0.029462000 -0.001000000 -0.085100000
v -0.028233000 -0.001000000 -0.083227000
v -0.026995000 -0.001000000 -0.081244000
v -0.025750000 -0.001000000 -0.079150000
v -0.024499000 -0.001000000 -0.076944000
v -0.023244000 -0.001000000 -0.074626000
v -0.021987000 -0.001000000 -0.072196000
v -0.020730000 -0.001000000 -0.069652000
v -0.019475000 -0.001000000 -0.066995000
v -0.018224000 -0.001000000 -0.064224000
v -0.016979000 -0.001000000 -0.061339000
v -0.015743000 -0.001000000 -0.058340000
v -0.014518000 -0.001000000 -0.055227000
v -0.013306000 -0.001000000 -0.052000000
v -0.012110000 -0.001000000 -0.048660000
v -0.010932000 -0.001000000 -0.045206000
v -0.009775000 -0.001000000 -0.041640000
v -0.008642000 -0.001000000 -0.037962000
v -0.007536000 -0.001000000 -0.034173000
v -0.006458000 -0.001000000 -0.030274000
v -0.005414000 -0.001000000 -0.026266000
v -0.004404000 -0.001000000 -0.022149000
v -0.003433000 -0.001000000 -0.017926000
v -0.002504000 -0.001000000 -0.013598000
v -0.001620000 -0.001000000 -0.009167000
v -0.000784000 -0.001000000 -0.004633000
v 0.000000000 -0.001000000 0.000000000
v -0.000784000 -0.001000000 0.004633000
v -0.001620000 -0.001000000 0.009167000
v -0.002504000 -0.001000000 0.013598000
v -0.003433000 -0.001000000 0.017926000
v -0.004404000 -0.001000000 0.022149000
v -0.005414000 -0.001000000 0.026266000
v -0.006458000 -0.001000000 0.030274000
v -0.007536000 -0.001000000 0.034173000
v -0.008642000 -0.001000000 0.037962000
v -0.009775000 -0.001000000 0.041640000
v -0.010932000 -0.001000000 0.045206000
v -0.012110000 -0.001000000 0.048660000
v -0.013306000 -0.001000000 0.052000000
v -0.014518000 -0.001000000 0.055227000
v -0.015743000 -0.001000000 0.058340000
v -0.016979000 -0.001000000 0.061339000
v -0.018224000 -0.001000000 0.064224000
v -0.019475000 -0.001000000 0.066995000
v -0.020730000 -0.001000000 0.069652000
v -0.021987000 -0.001000000 0.072196000
v -0.023244000 -0.001000000 0.074626000
v -0.024499000 -0.001000000 0.076944000
v -0.025750000 -0.001000000 0.079150000
v -0.026995000 -0.001000000 0.081244000
v -0.028233000 -0.001000000 0.083227000
v -0.029462000 -0.001000000 0.085100000
v -0.030680000 -0.001000000 0.086864000
v -0.031886000 -0.001000000 0.088521000
v -0.033078000 -0.001000000 0.090070000
v -0.034255000 -0.001000000 0.091513000
v -0.035416000 -0.001000000 0.092852000
v -0.036559000 -0.001000000 0.094088000
v -0.037682000 -0.001000000 0.095222000
v -0.038786000 -0.001000000 0.096256000
v -0.039868000 -0.001000000 0.097191000
v -0.040928000 -0.001000000 0.098028000
v -0.041964000 -0.001000000 0.098770000
v -0.042977000 -0.001000000 0.099418000
v -0.043964000 -0.001000000 0.099974000
v -0.044925000 -0.001000000 0.100439000
v -0.045860000 -0.001000000 0.100816000
v -0.046767000 -0.001000000 0.101106000
v -0.047647000 -0.001000000 0.101312000
v -0.048497000 -0.001000000 0.101434000
v -0.049319000 -0.001000000 0.101476000
v -0.050111000 -0.001000000 0.101440000
v -0.050873000 -0.001000000 0.101326000
v -0.051604000 -0.001000000 0.101138000
v -0.052305000 -0.001000000 0.100878000
v -0.052975000 -0.001000000 0.100548000
v -0.053613000 -0.001000000 0.100149000
v -0.054220000 -0.001000000 0.099685000
v -0.054796000 -0.001000000 0.099157000
v -0.055339000 -0.001000000 0.098568000
v -0.055851000 -0.001000000 0.097919000
v -0.056331000 -0.001000000 0.097214000
v -0.056779000 -0.001000000 0.096453000
v -0.057195000 -0.001000000 0.095641000
v -0.057580000 -0.001000000 0.094778000
v -0.057933000 -0.001000000 0.093867000
v -0.058255000 -0.001000000 0.092910000
v -0.058545000 -0.001000000 0.091910000
v -0.058805000 -0.001000000 0.090869000
v -0.059035000 -0.001000000 0.089789000
v -0.059234000 -0.001000000 0.088671000
v -0.059403000 -0.001000000 0.087519000
v -0.059543000 -0.001000000 0.086334000
v -0.059653000 -0.001000000 0.085119000
v -0.059736000 -0.001000000 0.083875000
v -0.059790000 -0.001000000 0.082605000
v -0.059816000 -0.001000000 0.081311000
v -0.059816000 -0.001000000 0.079994000
v -0.059736000 -0.001000000 0.077301000
v -0.059555000 -0.001000000 0.074541000
v -0.059279000 -0.001000000 0.071729000
v -0.058913000 -0.001000000 0.068878000
v -0.058463000 -0.001000000 0.065999000
v -0.057936000 -0.001000000 0.063106000
v -0.057339000 -0.001000000 0.060208000
v -0.056677000 -0.001000000 0.057313000
v -0.055960000 -0.001000000 0.054431000
v -0.055193000 -0.001000000 0.051567000
v -0.054385000 -0.001000000 0.048727000
v -0.053543000 -0.001000000 0.045914000
v -0.052676000 -0.001000000 0.043129000
v -0.051791000 -0.001000000 0.040373000
v -0.050000000 -0.001000000 0.034939000
v -0.048236000 -0.001000000 0.029574000
v -0.047385000 -0.001000000 0.026897000
v -0.046564000 -0.001000000 0.024207000
v -0.045783000 -0.001000000 0.021492000
v -0.045048000 -0.001000000 0.018733000
v -0.044368000 -0.001000000 0.015912000
v -0.043749000 -0.001000000 0.013006000
v -0.043466000 -0.001000000 0.011513000
v -0.043201000 -0.001000000 0.009991000
v -0.042955000 -0.001000000 0.008433000
v -0.042729000 -0.001000000 0.006839000
v -0.042523000 -0.001000000 0.005202000
v -0.042340000 -0.001000000 0.003519000
v -0.042179000 -0.001000000 0.001787000
v 0.000000000 0.001000000 0.000000000
v -0.000784000 0.001000000 0.004633000
v -0.001620000 0.001000000 0.009167000
v -0.002504000 0.001000000 0.013598000
v -0.003433000 0.001000000 0.017926000
v -0.004404000 0.001000000 0.022149000
v -0.005414000 0.001000000 0.026266000
v -0.006458000 0.001000000 0.030274000
v -0.007536000 0.001000000 0.034173000
v -0.008642000 0.001000000 0.037962000
v -0.009775000 0.001000000 0.041640000
v -0.010932000 0.001000000 0.045206000
v -0.012110000 0.001000000 0.048660000
v -0.013306000 0.001000000 0.052000000
v -0.014518000 0.001000000 0.055227000
v -0.015743000 0.001000000 0.058340000
v -0.016979000 0.001000000 0.061339000
v -0.018224000 0.001000000 0.064224000
v -0.019475000 0.001000000 0.066995000
v -0.020730000 0.001000000 0.069652000
v -0.021987000 0.001000000 0.072196000
v -0.023244000 0.001000000 0.074626000
v -0.024499000 0.001000000 0.076944000
v -0.025750000 0.001000000 0.079150000
v -0.026995000 0.001000000 0.081244000
v -0.028233000 0.001000000 0.083227000
v -0.029462000 0.001000000 0.085100000
v -0.030680000 0.001000000 0.086864000
v -0.031886000 0.001000000 0.088521000
v -0.033078000 0.001000000 0.090070000
v -0.034255000 0.001000000 0.091513000
v -0.035416000 0.001000000 0.092852000
v -0.036559000 0.001000000 0.094088000
v -0.037682000 0.001000000 0.095222000
v -0.038786000 0.001000000 0.096256000
v -0.039868000 0.001000000 0.097191000
v -0.040928000 0.001000000 0.098028000
v -0.041964000 0.001000000 0.098770000
v -0.042977000 0.001000000 0.099418000
v -0.043964000 0.001000000 0.099974000
v -0.044925000 0.001000000 0.100439000
v -0.045860000 0.001000000 0.100816000
v -0.046767000 0.001000000 0.101106000
v -0.047647000 0.001000000 0.101312000
v -0.048497000 0.001000000 0.101434000
v -0.049319000 0.001000000 0.101476000
v -0.050111000 0.001000000 0.101440000
v -0.050873000 0.001000000 0.101326000
v -0.051604000 0.001000000 0.101138000
v -0.052305000 0.001000000 0.100878000
v -0.052975000 0.001000000 0.100548000
v -0.053613000 0.001000000 0.100149000
v -0.054220000 0.001000000 0.099685000
v -0.054796000 0.001000000 0.099157000
v -0.055339000 0.001000000 0.098568000
v -0.055851000 0.001000000 0.097919000
v -0.056331000 0.001000000 0.097214000
v -0.056779000 0.001000000 0.096453000
v -0.057195000 0.001000000 0.095641000
v -0.057580000 0.001000000 0.094778000
v -0.057933000 0.001000000 0.093867000
v -0.058255000 0.001000000 0.092910000
v -0.058545000 0.001000000 0.091910000
v -0.058805000 0.001000000 0.090869000
v -0.059035000 0.001000000 0.089789000
v -0.059234000 0.001000000 0.088671000
v -0.059403000 0.001000000 0.087519000
v -0.059543000 0.001000000 0.086334000
v -0.059653000 0.001000000 0.085119000
v -0.059736000 0.001000000 0.083875000
v -0.059790000 0.001000000 0.082605000
v -0.059816000 0.001000000 0.081311000
v -0.059816000 0.001000000 0.079994000
v -0.059736000 0.001000000 0.077301000
v -0.059555000 0.001000000 0.074541000
v -0.059279000 0.001000000 0.071729000
v -0.058913000 0.001000000 0.068878000
v -0.058463000 0.001000000 0.065999000
v -0.057936000 0.001000000 0.063106000
v -0.057339000 0.001000000 0.060208000
v -0.056677000 0.001000000 0.057313000
v -0.055960000 0.001000000 0.054431000
v -0.055193000 0.001000000 0.051567000
v -0.054385000 0.001000000 0.048727000
v -0.053543000 0.001000000 0.045914000
v -0.052676000 0.001000000 0.043129000
v -0.051791000 0.001000000 0.040373000
v -0.050000000 0.001000000 0.034939000
v -0.048236000 0.001000000 0.029574000
v -0.047385000 0.001000000 0.026897000
v -0.046564000 0.001000000 0.024207000
v -0.045783000 0.001000000 0.021492000
v -0.045048000 0.001000000 0.018733000
v -0.044368000 0.001000000 0.015912000
v -0.043749000 0.001000000 0.013006000
v -0.043466000 0.001000000 0.011513000
v -0.043201000 0.001000000 0.009991000
v -0.042955000 0.001000000 0.008433000
v -0.042729000 0.001000000 0.006839000
v -0.042523000 0.001000000 0.005202000
v -0.042340000 0.001000000 0.003519000
v -0.042179000 0.001000000 0.001787000
v -0.042041000 0.001000000 0.000000000
v -0.042179000 0.001000000 -0.001787000
v -0.042340000 0.001000000 -0.003519000
v -0.042523000 0.001000000 -0.005202000
v -0.042729000 0.001000000 -0.006839000
v -0.042955000 0.001000000 -0.008433000
v -0.043201000 0.001000000 -0.009991000
v -0.043466000 0.001000000 -0.011513000
v -0.043749000 0.001000000 -0.013006000
v -0.044368000 0.001000000 -0.015912000
v -0.045048000 0.001000000 -0.018733000
v -0.045783000 0.001000000 -0.021492000
v -0.046564000 0.001000000 -0.024207000
v -0.047385000 0.001000000 -0.026897000
v -0.048236000 0.001000000 -0.029574000
v -0.050000000 0.001000000 -0.034939000
v -0.051791000 0.001000000 -0.040373000
v -0.052676000 0.001000000 -0.043129000
v -0.053543000 0.001000000 -0.045914000
v -0.054385000 0.001000000 -0.048727000
v -0.055193000 0.001000000 -0.051567000
v -0.055960000 0.001000000 -0.054431000
v -0.056677000 0.001000000 -0.057313000
v -0.057339000 0.001000000 -0.060208000
v -0.057936000 0.001000000 -0.063106000
v -0.058463000 0.001000000 -0.065999000
v -0.058913000 0.001000000 -0.068878000
v -0.059279000 0.001000000 -0.071729000
v -0.059555000 0.001000000 -0.074541000
v -0.059736000 0.001000000 -0.077301000
v -0.059816000 0.001000000 -0.079994000
v -0.059816000 0.001000000 -0.081311000
v -0.059790000 0.001000000 -0.082605000
v -0.059736000 0.001000000 -0.083875000
v -0.059653000 0.001000000 -0.085119000
v -0.059543000 0.001000000 -0.086334000
v -0.059403000 0.001000000 -0.087519000
v -0.059234000 0.001000000 -0.088671000
v -0.059035000 0.001000000 -0.089789000
v -0.058805000 0.001000000 -0.090869000
v -0.058545000 0.001000000 -0.091910000
v -0.058255000 0.001000000 -0.092910000
v -0.057933000 0.001000000 -0.093867000
v -0.057580000 0.001000000 -0.094778000
v -0.057195000 0.001000000 -0.095641000
v -0.056779000 0.001000000 -0.096453000
v -0.056331000 0.001000000 -0.097214000
v -0.055851000 0.001000000 -0.097919000
v -0.055339000 0.001000000 -0.098568000
v -0.054796000 0.001000000 -0.099157000
v -0.054220000 0.001000000 -0.099685000
v -0.053613000 0.001000000 -0.100149000
v -0.052975000 0.001000000 -0.100548000
v -0.052305000 0.001000000 -0.100878000
v -0.051604000 0.001000000 -0.101138000
v -0.050873000 0.001000000 -0.101326000
v -0.050111000 0.001000000 -0.101440000
v -0.049319000 0.001000000 -0.101476000
v -0.048497000 0.001000000 -0.101434000
v -0.047647000 0.001000000 -0.101312000
v -0.046767000 0.001000000 -0.101106000
v -0.045860000 0.001000000 -0.100816000
v -0.044925000 0.001000000 -0.100439000
v -0.043964000 0.001000000 -0.099974000
v -0.042977000 0.001000000 -0.099418000
v -0.041964000 0.001000000 -0.098770000
v -0.040928000 0.001000000 -0.098028000
v -0.039868000 0.001000000 -0.097191000
v -0.038786000 0.001000000 -0.096256000
v -0.037682000 0.001000000 -0.095222000
v -0.036559000 0.001000000 -0.094088000
v -0.035416000 0.001000000 -0.092852000
v -0.034255000 0.001000000 -0.091513000
v -0.033078000 0.001000000 -0.090070000
v -0.031886000 0.001000000 -0.088521000
v -0.030680000 0.001000000 -0.086864000
v -0.029462000 0.001000000 -0.085100000
v -0.028233000 0.001000000 -0.083227000
v -0.026995000 0.001000000 -0.081244000
v -0.025750000 0.001000000 -0.079150000
v -0.024499000 0.001000000 -0.076944000
v -0.023244000 0.001000000 -0.074626000
v -0.021987000 0.001000000 -0.072196000
v -0.020730000 0.001000000 -0.069652000
v -0.019475000 0.001000000 -0.066995000
v -0.018224000 0.001000000 -0.064224000
v -0.016979000 0.001000000 -0.061339000
v -0.015743000 0.001000000 -0.058340000
v -0.014518000 0.001000000 -0.055227000
v -0.013306000 0.001000000 -0.052000000
v -0.012110000 0.001000000 -0.048660000
v -0.010932000 0.001000000 -0.045206000
v -0.009775000 0.001000000 -0.041640000
v -0.008642000 0.001000000 -0.037962000
v -0.007536000 0.001000000 -0.034173000
v -0.006458000 0.001000000 -0.030274000
v -0.005414000 0.001000000 -0.026266000
v -0.004404000 0.001000000 -0.022149000
v -0.003433000 0.001000000 -0.017926000
v -0.002504000 0.001000000 -0.013598000
v -0.001620000 0.001000000 -0.009167000
v -0.000784000 0.001000000 -0.004633000
vn -0.031129162 -0.999515049 0.000801310
vn -0.071491428 -0.997421552 0.006262818
vn -0.071467790 -0.997415547 0.007387902
vn -0.030332967 -0.999533218 0.003640935
vn -0.071916821 -0.997362413 0.009807517
vn -0.071918588 -0.997350250 0.010963386
vn -0.029582089 -0.999549908 0.004988201
vn -0.072139704 -0.997305882 0.013298157
vn -0.080018998 -0.996654087 0.016661040
vn -0.041048877 -0.999111942 0.009503478
vn -0.040996419 -0.999103384 0.010569889
vn -0.071789353 -0.997216525 0.020136786
vn -0.040771105 -0.999093984 0.012203630
vn -0.040963233 -0.999078045 0.012848115
vn -0.079100879 -0.996531763 0.025835962
vn -0.041566275 -0.999041969 0.013688986
vn -0.043473787 -0.998954455 0.014143080
vn -0.043069416 -0.998980222 0.013547778
vn -0.043845171 -0.998949831 0.013297947
vn -0.044735028 -0.998914988 0.012946980
vn -0.071321823 -0.997262819 0.019495298
vn -0.045964059 -0.998874276 0.011725416
vn -0.047091118 -0.998829110 0.011083138
vn -0.048323704 -0.998778415 0.010319732
vn -0.049690590 -0.998719979 0.009447163
vn -0.051203329 -0.998652533 0.008446093
vn -0.052851082 -0.998575868 0.007280035
vn -0.054666139 -0.998487131 0.005921359
vn -0.056671472 -0.998383450 0.004339462
vn -0.046442061 -0.998919094 0.001944113
vn -0.051855037 -0.998654319 0.000778750
vn -0.052328498 -0.998629682 -0.000696820
vn -0.094403751 -0.995528526 -0.003299453
vn -0.055256484 -0.998466953 -0.003234813
vn -0.058308633 -0.998287022 -0.004808796
vn -0.103144894 -0.994603049 -0.011220783
vn -0.061925872 -0.998044693 -0.008483969
vn -0.065845800 -0.997768960 -0.011019648
vn -0.114366818 -0.993172492 -0.022991987
vn -0.070441006 -0.997376011 -0.016708019
vn -0.075500443 -0.996927654 -0.020855104
vn -0.081323857 -0.996346823 -0.026066054
vn -0.138202079 -0.989083712 -0.051123331
vn -0.088292360 -0.995384683 -0.037600425
vn -0.096200405 -0.994248164 -0.047075148
vn -0.105689662 -0.992622814 -0.059410813
vn -0.116957246 -0.990236032 -0.075852511
vn -0.193409206 -0.970310425 -0.145225884
vn -0.130707041 -0.984807445 -0.114323947
vn -0.147614520 -0.977279465 -0.152101284
vn -0.168437347 -0.963715900 -0.207076134
vn -0.194159532 -0.937216906 -0.289700791
vn -0.222753108 -0.881632926 -0.416058212
vn -0.246031927 -0.761433791 -0.599739004
vn -0.238097518 -0.536287704 -0.809756180
vn -0.175630631 -0.250561160 -0.952036232
vn -0.078923346 -0.053341998 -0.995452529
vn 0.019698971 -0.012897901 -0.999722759
vn 0.111813629 -0.123756576 -0.985992912
vn 0.188044607 -0.346272523 -0.919094427
vn 0.226911645 -0.586207181 -0.777735332
vn 0.229171201 -0.758870688 -0.609586614
vn 0.213128600 -0.858795498 -0.465882487
vn 0.193346603 -0.912759643 -0.359842917
vn 0.174595918 -0.942779303 -0.284048326
vn 0.158561038 -0.960321207 -0.229437524
vn 0.108101328 -0.984059612 -0.141211834
vn 0.123826638 -0.981283773 -0.147475834
vn 0.115971772 -0.985092632 -0.127055321
vn 0.109132527 -0.987841792 -0.110718948
vn 0.078782915 -0.994105701 -0.074478912
vn 0.093483013 -0.992175326 -0.082758978
vn 0.089627492 -0.993180170 -0.074565830
vn 0.066882098 -0.996381440 -0.052448172
vn 0.080297839 -0.994992919 -0.059509235
vn 0.061125656 -0.997206204 -0.042935321
vn 0.073668309 -0.996071016 -0.049147859
vn 0.057093871 -0.997711307 -0.036227572
vn 0.068914609 -0.996753489 -0.041632420
vn 0.054281665 -0.998036152 -0.031262435
vn 0.085909018 -0.995183186 -0.047223592
vn 0.053112450 -0.998199039 -0.027888106
vn 0.051976617 -0.998307928 -0.026071272
vn 0.051105825 -0.998392697 -0.024499318
vn 0.050470746 -0.998457733 -0.023127039
vn 0.050060260 -0.998505480 -0.021926640
vn 0.049826457 -0.998540249 -0.020849369
vn 0.049751969 -0.998563748 -0.019879215
vn 0.049836325 -0.998576499 -0.019008336
vn 0.038410171 -0.999164358 -0.013972974
vn 0.050370539 -0.998577991 -0.017458641
vn 0.050862221 -0.998564738 -0.016777902
vn 0.051425812 -0.998546757 -0.016117062
vn 0.041179671 -0.999076812 -0.012237562
vn 0.071155445 -0.997264071 -0.020031851
vn 0.035537194 -0.999323742 -0.009442783
vn 0.054150881 -0.998440781 -0.013553202
vn 0.043732728 -0.998990415 -0.010276129
vn 0.054620710 -0.998435089 -0.011997980
vn 0.043386831 -0.999018959 -0.008871439
vn 0.047252466 -0.998842907 -0.008947130
vn 0.045934089 -0.998912424 -0.008001851
vn 0.051785190 -0.998653975 0.002921044
vn 0.046697065 -0.998874023 0.008370775
vn 0.047720928 -0.998817633 0.009276299
vn 0.054158801 -0.998467857 0.011347401
vn 0.043591749 -0.999001387 0.009797394
vn 0.054108391 -0.998450548 0.012991747
vn 0.042992015 -0.999015106 0.010977439
vn 0.070965589 -0.997293284 0.019235125
vn 0.041682858 -0.999059440 0.011948820
vn 0.040774210 -0.999092225 0.012336531
vn 0.050899745 -0.998571874 0.016230474
vn 0.050325383 -0.998590230 0.016879231
vn 0.038526906 -0.999165388 0.013572237
vn 0.049468883 -0.998608287 0.018284394
vn 0.049243863 -0.998604589 0.019076592
vn 0.049138583 -0.998592926 0.019939122
vn 0.049188515 -0.998570808 0.020900491
vn 0.073872961 -0.996726571 0.032847038
vn 0.073755228 -0.996686016 0.034309637
vn 0.073531677 -0.996650719 0.035783201
vn 0.073181532 -0.996621896 0.037272766
vn 0.072726554 -0.996598014 0.038771714
vn 0.072138743 -0.996581272 0.040271212
vn 0.071417546 -0.996570896 0.041784961
vn 0.070558271 -0.996566358 0.043324641
vn 0.069552631 -0.996568621 0.044871099
vn 0.068401838 -0.996577516 0.046415985
vn 0.067103661 -0.996592233 0.047968943
vn 0.065607884 -0.996615285 0.049533607
vn 0.063942441 -0.996643159 0.051125117
vn 0.062092619 -0.996676995 0.052720717
vn 0.060043880 -0.996717249 0.054308909
vn 0.057792565 -0.996762597 0.055895834
vn 0.055301149 -0.996811009 0.057529084
vn 0.052552206 -0.996865490 0.059139328
vn 0.049529701 -0.996921116 0.060787314
vn 0.046255582 -0.996977632 0.062418132
vn 0.042653743 -0.997032466 0.064085261
vn 0.038724092 -0.997086356 0.065720945
vn 0.034425311 -0.997132555 0.067391137
vn 0.029742312 -0.997168120 0.069073410
vn 0.024622173 -0.997191731 0.070727642
vn 0.019062452 -0.997191966 0.072421026
vn 0.012918348 -0.997169726 0.074065193
vn 0.006259213 -0.997104991 0.075779017
vn -0.000965136 -0.996999352 0.077403882
vn -0.009012841 -0.996828544 0.079067199
vn -0.017780053 -0.996579868 0.080699671
vn -0.027325148 -0.996231044 0.082322797
vn -0.037806000 -0.995759122 0.083871789
vn -0.049495277 -0.995117624 0.085388129
vn -0.036577368 -0.998026128 0.051048444
vn -0.084577250 -0.991598202 0.097875910
vn -0.060009462 -0.996484365 0.058461739
vn -0.138029345 -0.983773177 0.114622143
vn -0.096449021 -0.992946703 0.068952384
vn -0.132588549 -0.987779808 0.081922696
vn -0.306973040 -0.937350223 0.164748634
vn -0.222999974 -0.969232616 0.104207238
vn -0.498758686 -0.842714750 0.202661351
vn -0.393434845 -0.908806568 0.138851165
vn -0.467585159 -0.872364791 0.142631658
vn -0.965484175 -0.058768759 0.253745030
vn -0.975308223 -0.025458409 0.219375795
vn -0.982515904 -0.006254798 0.186073579
vn -0.980914641 -0.118793005 0.153930790
vn -0.981950855 -0.141780237 0.125183400
vn -0.975907693 -0.195343515 0.097185828
vn -0.965046620 -0.252014380 0.071928941
vn -0.948985437 -0.311660335 0.047900692
vn -0.927138445 -0.373852116 0.025473477
vn -0.901358490 -0.433032651 0.005966222
vn -0.775717620 -0.630808465 -0.018516309
vn -0.540002924 -0.841161267 -0.029061402
vn -0.384573340 -0.922481905 -0.033622645
vn -0.354722180 -0.934028079 -0.041996706
vn -0.233254582 -0.971810536 -0.034301347
vn -0.182817277 -0.982634687 -0.031731931
vn -0.007638470 -0.999969682 -0.001512925
vn -0.048306879 -0.998775430 -0.010681113
vn -0.047020523 -0.998829077 -0.011381801
vn -0.045868224 -0.998875519 -0.011991797
vn -0.044834287 -0.998916172 -0.012504694
vn -0.070691018 -0.997281204 -0.020808176
vn -0.043699415 -0.998954474 -0.013428330
vn -0.042919625 -0.998985400 -0.013640961
vn -0.054078734 -0.998379234 -0.017731188
vn -0.052343795 -0.998480568 -0.017224489
vn -0.031973620 -0.999435240 -0.010338704
vn -0.071669716 -0.997181866 -0.022176071
vn -0.040896909 -0.999091283 -0.012002135
vn -0.040876508 -0.999101699 -0.011176123
vn -0.072510631 -0.997203709 -0.018082344
vn -0.041456476 -0.999097857 -0.009210416
vn -0.032239514 -0.999459139 -0.006484016
vn -0.072464537 -0.997286457 -0.012985159
vn -0.072472168 -0.997300289 -0.011828683
vn -0.029744946 -0.999547948 -0.004374625
vn -0.072156431 -0.997348494 -0.009456821
vn -0.072131839 -0.997361011 -0.008246934
vn -0.030594084 -0.999527384 -0.003001751
vn -0.071569041 -0.997418231 -0.005894397
vn 0.045490541 0.998961474 -0.002565982
vn 0.047033811 0.998859694 0.008193426
vn 0.048087078 0.998801646 0.009105161
vn 0.054583902 0.998446809 0.011160939
vn 0.043949438 0.998987111 0.009653930
vn 0.054567568 0.998427752 0.012822054
vn 0.043377579 0.998999758 0.010856796
vn 0.071617721 0.997250602 0.019029937
vn 0.042081710 0.999043933 0.011846944
vn 0.041179671 0.999076812 0.012237562
vn 0.051425812 0.998546757 0.016117062
vn 0.050862221 0.998564738 0.016777902
vn 0.038959687 0.999149536 0.013503592
vn 0.050038292 0.998581402 0.018203089
vn 0.049836325 0.998576499 0.019008336
vn 0.049751969 0.998563748 0.019879215
vn 0.049826457 0.998540249 0.020849369
vn 0.074866876 0.996654219 0.032792060
vn 0.074789507 0.996610285 0.034270543
vn 0.074598632 0.996572208 0.035761396
vn 0.074302141 0.996539093 0.037269669
vn 0.073873009 0.996513017 0.038788990
vn 0.073332738 0.996492535 0.040310498
vn 0.072661774 0.996478301 0.041848089
vn 0.071843809 0.996471140 0.043401997
vn 0.070881086 0.996470289 0.044975925
vn 0.069775179 0.996476026 0.046550555
vn 0.068510531 0.996489101 0.048122537
vn 0.067090755 0.996507208 0.049721382
vn 0.065463517 0.996533577 0.051335738
vn 0.063652543 0.996566117 0.052955903
vn 0.061659646 0.996603445 0.054586273
vn 0.059467917 0.996645864 0.056219115
vn 0.057021620 0.996695466 0.057850523
vn 0.054337272 0.996746507 0.059530345
vn 0.051384017 0.996802151 0.061197662
vn 0.048143108 0.996858678 0.062888927
vn 0.044615878 0.996916018 0.064559092
vn 0.040743490 0.996968527 0.066285171
vn 0.036529234 0.997017338 0.067985607
vn 0.031885906 0.997058265 0.069700103
vn 0.026857630 0.997083224 0.071440266
vn 0.021341307 0.997092812 0.073146924
vn 0.015328267 0.997071802 0.074919059
vn 0.008689254 0.997022240 0.076623425
vn 0.001544100 0.996923691 0.078363070
vn -0.006349569 0.996767694 0.080086496
vn -0.015094189 0.996532761 0.081820664
vn -0.024545732 0.996207219 0.083478646
vn -0.034929350 0.995756093 0.085145428
vn -0.046468774 0.995141895 0.086794367
vn -0.034786405 0.998046033 0.051903962
vn -0.081026194 0.991721713 0.099613247
vn -0.057867107 0.996542091 0.059625985
vn -0.133685109 0.984101601 0.116928738
vn -0.093839448 0.993090794 0.070461573
vn -0.129290512 0.988055127 0.083851240
vn -0.300802078 0.938577233 0.169088400
vn -0.218672382 0.969913436 0.107006147
vn -0.491409983 0.845411710 0.209273194
vn -0.387762496 0.910530177 0.143440031
vn -0.461905601 0.874485104 0.148050731
vn -0.962203268 0.059358702 0.265784527
vn -0.972682502 0.025703027 0.230712168
vn -0.980365097 0.006313456 0.197089871
vn -0.979183549 0.119773396 0.163871627
vn -0.980574464 0.142920625 0.134340669
vn -0.974705946 0.196735627 0.106034956
vn -0.964002601 0.253728817 0.079502664
vn -0.947971367 0.313481241 0.055495929
vn -0.926140422 0.375787394 0.032369018
vn -0.900312985 0.435077921 0.011988803
vn -0.698897610 0.715144717 -0.010495928
vn -0.536963354 0.843306056 -0.022477842
vn -0.382590600 0.923453403 -0.029295824
vn -0.353353759 0.934706458 -0.038274779
vn -0.232554587 0.972055666 -0.032033507
vn -0.182540919 0.982737081 -0.030110495
vn -0.007634076 0.999969807 -0.001451389
vn -0.048323704 0.998778415 -0.010319732
vn -0.047091118 0.998829110 -0.011083138
vn -0.045964059 0.998874276 -0.011725416
vn -0.044960091 0.998913188 -0.012289511
vn -0.070915752 0.997271136 -0.020524069
vn -0.043845171 0.998949831 -0.013297947
vn -0.043069416 0.998980222 -0.013547778
vn -0.043473787 0.998954455 -0.014143080
vn -0.052566542 0.998467357 -0.017311694
vn -0.039978828 0.999115201 -0.013057902
vn -0.071554243 0.997184187 -0.022442983
vn -0.040771105 0.999093984 -0.012203630
vn -0.040658307 0.999108021 -0.011404583
vn -0.071977654 0.997233590 -0.018557616
vn -0.041048877 0.999111942 -0.009503478
vn -0.039959391 0.999166664 -0.008320087
vn -0.072003489 0.997316060 -0.013273048
vn -0.071912306 0.997337245 -0.012126021
vn -0.029519501 0.999554075 -0.004500000
vn -0.071522130 0.997391323 -0.009753692
vn -0.071471829 0.997405725 -0.008578926
vn -0.030303082 0.999535847 -0.003132547
vn -0.070830792 0.997469046 -0.006204945
vn -0.071177800 0.997461961 -0.001832221
vn -0.031078131 0.999513681 0.002559582
vn -0.072151312 0.997368575 0.007079155
vn -0.030614204 0.999525147 0.003500165
vn -0.072554588 0.997319112 0.009509003
vn -0.072465648 0.997313965 0.010657611
vn -0.029813313 0.999543640 0.004866037
vn -0.072601616 0.997276167 0.013009723
vn -0.064616850 0.997825522 0.012995751
vn -0.041456476 0.999097857 0.009210416
vn -0.041300824 0.999093671 0.010299396
vn -0.072173658 0.997196854 0.019733135
vn -0.040896909 0.999091283 0.012002135
vn -0.041029403 0.999077283 0.012695333
vn -0.063321178 0.997783145 0.020474970
vn -0.041389935 0.999050234 0.013619962
vn -0.054078734 0.998379234 0.017731188
vn -0.042919625 0.998985400 0.013640961
vn -0.043699415 0.998954474 0.013428330
vn -0.044592991 0.998919001 0.013126120
vn -0.071122577 0.997270316 0.019836739
vn -0.045868224 0.998875519 0.011991797
vn -0.047020523 0.998829077 0.011381801
vn -0.048306879 0.998775430 0.010681113
vn -0.049718938 0.998714699 0.009847657
vn -0.051285771 0.998644345 0.008901766
vn -0.053022846 0.998562857 0.007797296
vn -0.054916745 0.998469768 0.006501771
vn -0.057023840 0.998360369 0.004985505
vn -0.046823148 0.998900017 0.002519887
vn -0.065198370 0.997871109 0.001556279
vn -0.052635865 0.998613711 -0.000348404
vn -0.094989576 0.995474846 -0.002609874
vn -0.055637673 0.998447075 -0.002808350
vn -0.058767413 0.998262092 -0.004380180
vn -0.103999702 0.994523403 -0.010356817
vn -0.062509572 0.998012549 -0.007968994
vn -0.066504098 0.997731572 -0.010436207
vn -0.115677777 0.993045169 -0.021907613
vn -0.071306213 0.997325513 -0.016038886
vn -0.076513619 0.996865735 -0.020109030
vn -0.082517676 0.996271674 -0.025171100
vn -0.140455833 0.988845287 -0.049569722
vn -0.089890201 0.995281699 -0.036525218
vn -0.098159803 0.994112979 -0.045869790
vn -0.107981616 0.992462337 -0.057952398
vn -0.119946749 0.990010220 -0.074111687
vn -0.198694098 0.969712792 -0.142048427
vn -0.134956486 0.984493259 -0.112070383
vn -0.153030694 0.976911264 -0.149083830
vn -0.175746608 0.963197551 -0.203380449
vn -0.204033090 0.936635119 -0.284754546
vn -0.237133899 0.881139219 -0.409098021
vn -0.266333581 0.761548741 -0.590855260
vn -0.265650410 0.537498580 -0.800328143
vn -0.208209321 0.252180156 -0.945015369
vn -0.113091862 0.053852289 -0.992124066
vn -0.012466795 0.013060215 -0.999836992
vn 0.081667143 0.125493062 -0.988727449
vn 0.160859680 0.351506282 -0.922262163
vn 0.204978687 0.592909612 -0.778743815
vn 0.211757867 0.764954939 -0.608278346
vn 0.199764303 0.863053649 -0.463931700
vn 0.182782245 0.915728592 -0.357815310
vn 0.166283904 0.944831755 -0.282210239
vn 0.151794144 0.961740880 -0.228063625
vn 0.103913181 0.984652092 -0.140222354
vn 0.119426597 0.981964462 -0.146571087
vn 0.112209548 0.985628631 -0.126274381
vn 0.105872442 0.988261453 -0.110137759
vn 0.076570185 0.994310083 -0.074057180
vn 0.091046830 0.992435812 -0.082350676
vn 0.087440564 0.993399293 -0.074242789
vn 0.065328375 0.996495806 -0.052233239
vn 0.078526742 0.995147511 -0.059287277
vn 0.059869171 0.997288357 -0.042797379
vn 0.072219185 0.996184103 -0.049006353
vn 0.056021875 0.997775182 -0.036141884
vn 0.067680967 0.996841125 -0.041557901
vn 0.053349979 0.998087905 -0.031213993
vn 0.084513059 0.995304814 -0.047179133
vn 0.052286029 0.998243047 -0.027874536
vn 0.051190546 0.998348517 -0.026072332
vn 0.050372773 0.998429610 -0.024513232
vn 0.049770716 0.998492283 -0.023152463
vn 0.049393690 0.998537887 -0.021962520
vn 0.049188515 0.998570808 -0.020900491
vn 0.049138583 0.998592926 -0.019939122
vn 0.049243863 0.998604589 -0.019076592
vn 0.037972664 0.999180209 -0.014035230
vn 0.049811532 0.998604473 -0.017547579
vn 0.050325383 0.998590230 -0.016879231
vn 0.050899745 0.998571874 -0.016230474
vn 0.040774210 0.999092225 -0.012336531
vn 0.070483066 0.997308331 -0.020204695
vn 0.035212466 0.999334273 -0.009544290
vn 0.053670019 0.998464687 -0.013703925
vn 0.043364370 0.999005065 -0.010412044
vn 0.054176594 0.998457126 -0.012176374
vn 0.043048598 0.999032264 -0.009019581
vn 0.046892646 0.998858344 -0.009115292
vn 0.052113122 0.998597495 -0.009341641
f 2//2 102//102 1//1
f 1//1 102//102 103//103
f 1//1 103//103 204//204
f 204//204 103//103 203//203
f 203//203 103//103 104//104
f 203//203 104//104 202//202
f 202//202 104//104 201//201
f 201//201 104//104 200//200
f 200//200 104//104 105//105
f 200//200 105//105 199//199
f 199//199 105//105 198//198
f 198//198 105//105 197//197
f 197//197 105//105 106//106
f 197//197 106//106 196//196
f 196//196 106//106 107//107
f 196//196 107//107 195//195
f 195//195 107//107 194//194
f 194//194 107//107 108//108
f 194//194 108//108 193//193
f 193//193 108//108 109//109
f 193//193 109//109 192//192
f 192//192 109//109 191//191
f 191//191 109//109 110//110
f 191//191 110//110 111//111
f 2//2 3//3 102//102
f 102//102 3//3 4//4
f 102//102 4//4 101//101
f 101//101 4//4 5//5
f 101//101 5//5 6//6
f 6//6 7//7 101//101
f 101//101 7//7 100//100
f 100//100 7//7 8//8
f 100//100 8//8 9//9
f 9//9 10//10 100//100
f 100//100 10//10 99//99
f 99//99 10//10 11//11
f 99//99 11//11 98//98
f 98//98 11//11 12//12
f 98//98 12//12 13//13
f 98//98 13//13 97//97
f 97//97 13//13 14//14
f 97//97 14//14 96//96
f 96//96 14//14 15//15
f 96//96 15//15 16//16
f 17//17 94//94 16//16
f 16//16 94//94 95//95
f 16//16 95//95 96//96
f 94//94 17//17 93//93
f 93//93 17//17 18//18
f 93//93 18//18 92//92
f 92//92 18//18 19//19
f 92//92 19//19 91//91
f 91//91 19//19 20//20
f 91//91 20//20 90//90
f 90//90 20//20 21//21
f 90//90 21//21 22//22
f 90//90 22//22 89//89
f 89//89 22//22 23//23
f 89//89 23//23 88//88
f 88//88 23//23 24//24
f 88//88 24//24 87//87
f 87//87 24//24 25//25
f 87//87 25//25 86//86
f 86//86 25//25 26//26
f 86//86 26//26 85//85
f 85//85 26//26 27//27
f 85//85 27//27 84//84
f 84//84 27//27 28//28
f 84//84 28//28 83//83
f 83//83 28//28 29//29
f 83//83 29//29 82//82
f 82//82 29//29 30//30
f 82//82 30//30 81//81
f 81//81 30//30 80//80
f 80//80 30//30 31//31
f 80//80 31//31 79//79
f 79//79 31//31 32//32
f 79//79 32//32 78//78
f 78//78 32//32 33//33
f 78//78 33//33 34//34
f 78//78 34//34 77//77
f 77//77 34//34 35//35
f 77//77 35//35 76//76
f 76//76 35//35 36//36
f 76//76 36//36 37//37
f 76//76 37//37 75//75
f 75//75 37//37 38//38
f 75//75 38//38 74//74
f 74//74 38//38 39//39
f 74//74 39//39 40//40
f 74//74 40//40 73//73
f 73//73 40//40 41//41
f 73//73 41//41 72//72
f 72//72 41//41 42//42
f 72//72 42//42 71//71
f 71//71 42//42 43//43
f 71//71 43//43 44//44
f 71//71 44//44 70//70
f 70//70 44//44 45//45
f 70//70 45//45 69//69
f 69//69 45//45 46//46
f 69//69 46//46 68//68
f 68//68 46//46 47//47
f 68//68 47//47 67//67
f 67//67 47//47 48//48
f 67//67 48//48 49//49
f 67//67 49//49 66//66
f 66//66 49//49 50//50
f 66//66 50//50 65//65
f 65//65 50//50 51//51
f 65//65 51//51 64//64
f 64//64 51//51 52//52
f 64//64 52//52 63//63
f 63//63 52//52 53//53
f 63//63 53//53 62//62
f 62//62 53//53 54//54
f 62//62 54//54 61//61
f 61//61 54//54 55//55
f 61//61 55//55 60//60
f 60//60 55//55 56//56
f 60//60 56//56 59//59
f 59//59 56//56 57//57
f 59//59 57//57 58//58
f 191//191 111//111 190//190
f 190//190 111//111 112//112
f 190//190 112//112 189//189
f 189//189 112//112 113//113
f 189//189 113//113 188//188
f 188//188 113//113 114//114
f 188//188 114//114 187//187
f 187//187 114//114 115//115
f 187//187 115//115 186//186
f 186//186 115//115 185//185
f 185//185 115//115 116//116
f 185//185 116//116 184//184
f 184//184 116//116 117//117
f 184//184 117//117 183//183
f 183//183 117//117 118//118
f 183//183 118//118 182//182
f 182//182 118//118 119//119
f 182//182 119//119 181//181
f 181//181 119//119 120//120
f 181//181 120//120 121//121
f 121//121 122//122 181//181
f 181//181 122//122 123//123
f 181//181 123//123 124//124
f 124//124 125//125 181//181
f 181//181 125//125 126//126
f 181//181 126//126 127//127
f 127//127 128//128 181//181
f 181//181 128//128 129//129
f 181//181 129//129 130//130
f 130//130 131//131 181//181
f 181//181 131//131 132//132
f 181//181 132//132 133//133
f 133//133 134//134 181//181
f 181//181 134//134 135//135
f 181//181 135//135 136//136
f 136//136 137//137 181//181
f 181//181 137//137 138//138
f 181//181 138//138 139//139
f 139//139 140//140 181//181
f 181//181 140//140 141//141
f 181//181 141//141 142//142
f 142//142 143//143 181//181
f 181//181 143//143 144//144
f 181//181 144//144 145//145
f 145//145 146//146 181//181
f 181//181 146//146 147//147
f 181//181 147//147 148//148
f 148//148 149//149 181//181
f 181//181 149//149 150//150
f 181//181 150//150 151//151
f 151//151 152//152 181//181
f 181//181 152//152 153//153
f 181//181 153//153 154//154
f 181//181 154//154 180//180
f 180//180 154//154 155//155
f 180//180 155//155 156//156
f 180//180 156//156 179//179
f 179//179 156//156 157//157
f 179//179 157//157 158//158
f 179//179 158//158 178//178
f 178//178 158//158 159//159
f 178//178 159//159 177//177
f 177//177 159//159 160//160
f 177//177 160//160 161//161
f 177//177 161//161 176//176
f 176//176 161//161 162//162
f 176//176 162//162 163//163
f 176//176 163//163 175//175
f 175//175 163//163 164//164
f 175//175 164//164 174//174
f 174//174 164//164 173//173
f 173//173 164//164 172//172
f 172//172 164//164 171//171
f 171//171 164//164 170//170
f 170//170 164//164 169//169
f 169//169 164//164 168//168
f 168//168 164//164 165//165
f 168//168 165//165 166//166
f 166//166 167//167 168//168
f 205//205 206//206 103//103
f 103//103 206//206 104//104
f 104//104 206//206 207//207
f 104//104 207//207 105//105
f 105//105 207//207 208//208
f 105//105 208//208 106//106
f 106//106 208//208 209//209
f 106//106 209//209 107//107
f 107//107 209//209 210//210
f 107//107 210//210 108//108
f 108//108 210//210 211//211
f 108//108 211//211 109//109
f 109//109 211//211 212//212
f 109//109 212//212 110//110
f 110//110 212//212 213//213
f 110//110 213//213 111//111
f 111//111 213//213 214//214
f 111//111 214//214 112//112
f 112//112 214//214 215//215
f 112//112 215//215 113//113
f 113//113 215//215 216//216
f 113//113 216//216 114//114
f 114//114 216//216 217//217
f 114//114 217//217 115//115
f 115//115 217//217 218//218
f 115//115 218//218 116//116
f 116//116 218//218 219//219
f 116//116 219//219 117//117
f 117//117 219//219 220//220
f 117//117 220//220 118//118
f 118//118 220//220 221//221
f 118//118 221//221 119//119
f 119//119 221//221 222//222
f 119//119 222//222 120//120
f 120//120 222//222 223//223
f 120//120 223//223 121//121
f 121//121 223//223 224//224
f 121//121 224//224 122//122
f 122//122 224//224 225//225
f 122//122 225//225 123//123
f 123//123 225//225 226//226
f 123//123 226//226 124//124
f 124//124 226//226 227//227
f 124//124 227//227 125//125
f 125//125 227//227 228//228
f 125//125 228//228 126//126
f 126//126 228//228 229//229
f 126//126 229//229 127//127
f 127//127 229//229 230//230
f 127//127 230//230 128//128
f 128//128 230//230 231//231
f 128//128 231//231 129//129
f 129//129 231//231 232//232
f 129//129 232//232 130//130
f 130//130 232//232 233//233
f 130//130 233//233 131//131
f 131//131 233//233 234//234
f 131//131 234//234 132//132
f 132//132 234//234 235//235
f 132//132 235//235 133//133
f 133//133 235//235 236//236
f 133//133 236//236 134//134
f 134//134 236//236 237//237
f 134//134 237//237 135//135
f 135//135 237//237 238//238
f 135//135 238//238 136//136
f 136//136 238//238 239//239
f 136//136 239//239 137//137
f 137//137 239//239 240//240
f 137//137 240//240 138//138
f 138//138 240//240 241//241
f 138//138 241//241 139//139
f 139//139 241//241 242//242
f 139//139 242//242 140//140
f 140//140 242//242 243//243
f 140//140 243//243 141//141
f 141//141 243//243 244//244
f 141//141 244//244 142//142
f 142//142 244//244 245//245
f 142//142 245//245 143//143
f 143//143 245//245 246//246
f 143//143 246//246 144//144
f 144//144 246//246 247//247
f 144//144 247//247 145//145
f 145//145 247//247 248//248
f 145//145 248//248 146//146
f 146//146 248//248 249//249
f 146//146 249//249 147//147
f 147//147 249//249 250//250
f 147//147 250//250 148//148
f 148//148 250//250 251//251
f 148//148 251//251 149//149
f 149//149 251//251 252//252
f 149//149 252//252 150//150
f 150//150 252//252 253//253
f 150//150 253//253 151//151
f 151//151 253//253 254//254
f 151//151 254//254 152//152
f 152//152 254//254 255//255
f 152//152 255//255 153//153
f 153//153 255//255 256//256
f 153//153 256//256 154//154
f 154//154 256//256 257//257
f 154//154 257//257 155//155
f 155//155 257//257 258//258
f 155//155 258//258 156//156
f 156//156 258//258 259//259
f 156//156 259//259 157//157
f 157//157 259//259 260//260
f 157//157 260//260 158//158
f 158//158 260//260 261//261
f 158//158 261//261 159//159
f 159//159 261//261 262//262
f 159//159 262//262 160//160
f 160//160 262//262 263//263
f 160//160 263//263 161//161
f 161//161 263//263 264//264
f 161//161 264//264 162//162
f 162//162 264//264 265//265
f 162//162 265//265 163//163
f 163//163 265//265 266//266
f 163//163 266//266 164//164
f 164//164 266//266 267//267
f 164//164 267//267 165//165
f 165//165 267//267 268//268
f 165//165 268//268 166//166
f 166//166 268//268 269//269
f 166//166 269//269 167//167
f 167//167 269//269 270//270
f 167//167 270//270 168//168
f 168//168 270//270 271//271
f 168//168 271//271 169//169
f 169//169 271//271 272//272
f 169//169 272//272 170//170
f 170//170 272//272 273//273
f 170//170 273//273 171//171
f 171//171 273//273 274//274
f 171//171 274//274 172//172
f 172//172 274//274 275//275
f 172//172 275//275 173//173
f 173//173 275//275 276//276
f 173//173 276//276 174//174
f 174//174 276//276 277//277
f 174//174 277//277 175//175
f 175//175 277//277 278//278
f 175//175 278//278 176//176
f 176//176 278//278 279//279
f 176//176 279//279 177//177
f 177//177 279//279 280//280
f 177//177 280//280 178//178
f 178//178 280//280 281//281
f 178//178 281//281 179//179
f 179//179 281//281 282//282
f 179//179 282//282 180//180
f 180//180 282//282 283//283
f 180//180 283//283 181//181
f 181//181 283//283 284//284
f 181//181 284//284 182//182
f 182//182 284//284 285//285
f 182//182 285//285 183//183
f 183//183 285//285 286//286
f 183//183 286//286 184//184
f 184//184 286//286 287//287
f 184//184 287//287 185//185
f 185//185 287//287 288//288
f 185//185 288//288 186//186
f 186//186 288//288 289//289
f 186//186 289//289 187//187
f 187//187 289//289 290//290
f 187//187 290//290 188//188
f 188//188 290//290 291//291
f 188//188 291//291 189//189
f 189//189 291//291 292//292
f 189//189 292//292 190//190
f 190//190 292//292 293//293
f 190//190 293//293 191//191
f 191//191 293//293 294//294
f 191//191 294//294 192//192
f 192//192 294//294 295//295
f 192//192 295//295 193//193
f 193//193 295//295 296//296
f 193//193 296//296 194//194
f 194//194 296//296 297//297
f 194//194 297//297 195//195
f 195//195 297//297 298//298
f 195//195 298//298 196//196
f 196//196 298//298 299//299
f 196//196 299//299 197//197
f 197//197 299//299 300//300
f 197//197 300//300 198//198
f 198//198 300//300 301//301
f 198//198 301//301 199//199
f 199//199 301//301 302//302
f 199//199 302//302 200//200
f 200//200 302//302 303//303
f 200//200 303//303 201//201
f 201//201 303//303 304//304
f 201//201 304//304 202//202
f 202//202 304//304 305//305
f 202//202 305//305 203//203
f 203//203 305//305 306//306
f 203//203 306//306 204//204
f 204//204 306//306 307//307
f 204//204 307//307 1//1
f 307//307 308//308 1//1
f 1//1 308//308 2//2
f 2//2 308//308 309//309
f 2//2 309//309 3//3
f 3//3 309//309 310//310
f 3//3 310//310 4//4
f 4//4 310//310 311//311
f 4//4 311//311 5//5
f 5//5 311//311 312//312
f 5//5 312//312 6//6
f 6//6 312//312 313//313
f 6//6 313//313 7//7
f 7//7 313//313 314//314
f 7//7 314//314 8//8
f 8//8 314//314 315//315
f 8//8 315//315 9//9
f 9//9 315//315 316//316
f 9//9 316//316 10//10
f 10//10 316//316 317//317
f 10//10 317//317 11//11
f 11//11 317//317 318//318
f 11//11 318//318 12//12
f 12//12 318//318 319//319
f 12//12 319//319 13//13
f 13//13 319//319 320//320
f 13//13 320//320 14//14
f 14//14 320//320 321//321
f 14//14 321//321 15//15
f 15//15 321//321 322//322
f 15//15 322//322 16//16
f 16//16 322//322 323//323
f 16//16 323//323 17//17
f 17//17 323//323 324//324
f 17//17 324//324 18//18
f 18//18 324//324 325//325
f 18//18 325//325 19//19
f 19//19 325//325 326//326
f 19//19 326//326 20//20
f 20//20 326//326 327//327
f 20//20 327//327 21//21
f 21//21 327//327 328//328
f 21//21 328//328 22//22
f 22//22 328//328 329//329
f 22//22 329//329 23//23
f 23//23 329//329 330//330
f 23//23 330//330 24//24
f 24//24 330//330 331//331
f 24//24 331//331 25//25
f 25//25 331//331 332//332
f 25//25 332//332 26//26
f 26//26 332//332 333//333
f 26//26 333//333 27//27
f 27//27 333//333 334//334
f 27//27 334//334 28//28
f 28//28 334//334 335//335
f 28//28 335//335 29//29
f 29//29 335//335 336//336
f 29//29 336//336 30//30
f 30//30 336//336 337//337
f 30//30 337//337 31//31
f 31//31 337//337 338//338
f 31//31 338//338 32//32
f 32//32 338//338 339//339
f 32//32 339//339 33//33
f 33//33 339//339 340//340
f 33//33 340//340 34//34
f 34//34 340//340 341//341
f 34//34 341//341 35//35
f 35//35 341//341 342//342
f 35//35 342//342 36//36
f 36//36 342//342 343//343
f 36//36 343//343 37//37
f 37//37 343//343 344//344
f 37//37 344//344 38//38
f 38//38 344//344 345//345
f 38//38 345//345 39//39
f 39//39 345//345 346//346
f 39//39 346//346 40//40
f 40//40 346//346 347//347
f 40//40 347//347 41//41
f 41//41 347//347 348//348
f 41//41 348//348 42//42
f 42//42 348//348 349//349
f 42//42 349//349 43//43
f 43//43 349//349 350//350
f 43//43 350//350 44//44
f 44//44 350//350 351//351
f 44//44 351//351 45//45
f 45//45 351//351 352//352
f 45//45 352//352 46//46
f 46//46 352//352 353//353
f 46//46 353//353 47//47
f 47//47 353//353 354//354
f 47//47 354//354 48//48
f 48//48 354//354 355//355
f 48//48 355//355 49//49
f 49//49 355//355 356//356
f 49//49 356//356 50//50
f 50//50 356//356 357//357
f 50//50 357//357 51//51
f 51//51 357//357 358//358
f 51//51 358//358 52//52
f 52//52 358//358 359//359
f 52//52 359//359 53//53
f 53//53 359//359 360//360
f 53//53 360//360 54//54
f 54//54 360//360 361//361
f 54//54 361//361 55//55
f 55//55 361//361 362//362
f 55//55 362//362 56//56
f 56//56 362//362 363//363
f 56//56 363//363 57//57
f 57//57 363//363 364//364
f 57//57 364//364 58//58
f 58//58 364//364 365//365
f 58//58 365//365 59//59
f 59//59 365//365 366//366
f 59//59 366//366 60//60
f 60//60 366//366 367//367
f 60//60 367//367 61//61
f 61//61 367//367 368//368
f 61//61 368//368 62//62
f 62//62 368//368 369//369
f 62//62 369//369 63//63
f 63//63 369//369 370//370
f 63//63 370//370 64//64
f 64//64 370//370 371//371
f 64//64 371//371 65//65
f 65//65 371//371 372//372
f 65//65 372//372 66//66
f 66//66 372//372 373//373
f 66//66 373//373 67//67
f 67//67 373//373 374//374
f 67//67 374//374 68//68
f 68//68 374//374 375//375
f 68//68 375//375 69//69
f 69//69 375//375 376//376
f 69//69 376//376 70//70
f 70//70 376//376 377//377
f 70//70 377//377 71//71
f 71//71 377//377 378//378
f 71//71 378//378 72//72
f 72//72 378//378 379//379
f 72//72 379//379 73//73
f 73//73 379//379 380//380
f 73//73 380//380 74//74
f 74//74 380//380 381//381
f 74//74 381//381 75//75
f 75//75 381//381 382//382
f 75//75 382//382 76//76
f 76//76 382//382 383//383
f 76//76 383//383 77//77
f 77//77 383//383 384//384
f 77//77 384//384 78//78
f 78//78 384//384 385//385
f 78//78 385//385 79//79
f 79//79 385//385 386//386
f 79//79 386//386 80//80
f 80//80 386//386 387//387
f 80//80 387//387 81//81
f 81//81 387//387 388//388
f 81//81 388//388 82//82
f 82//82 388//388 389//389
f 82//82 389//389 83//83
f 83//83 389//389 390//390
f 83//83 390//390 84//84
f 84//84 390//390 391//391
f 84//84 391//391 85//85
f 85//85 391//391 392//392
f 85//85 392//392 86//86
f 86//86 392//392 393//393
f 86//86 393//393 87//87
f 87//87 393//393 394//394
f 87//87 394//394 88//88
f 88//88 394//394 395//395
f 88//88 395//395 89//89
f 89//89 395//395 396//396
f 89//89 396//396 90//90
f 90//90 396//396 397//397
f 90//90 397//397 91//91
f 91//91 397//397 398//398
f 91//91 398//398 92//92
f 92//92 398//398 399//399
f 92//92 399//399 93//93
f 93//93 399//399 400//400
f 93//93 400//400 94//94
f 94//94 400//400 401//401
f 94//94 401//401 95//95
f 95//95 401//401 402//402
f 95//95 402//402 96//96
f 96//96 402//402 403//403
f 96//96 403//403 97//97
f 97//97 403//403 404//404
f 97//97 404//404 98//98
f 98//98 404//404 405//405
f 98//98 405//405 99//99
f 99//99 405//405 406//406
f 99//99 406//406 100//100
f 100//100 406//406 407//407
f 100//100 407//407 101//101
f 101//101 407//407 408//408
f 101//101 408//408 102//102
f 102//102 408//408 205//205
f 102//102 205//205 103//103
f 408//408 308//308 205//205
f 205//205 308//308 307//307
f 205//205 307//307 306//306
f 407//407 310//310 408//408
f 408//408 310//310 309//309
f 408//408 309//309 308//308
f 406//406 313//313 407//407
f 407//407 313//313 312//312
f 407//407 312//312 311//311
f 405//405 316//316 406//406
f 406//406 316//316 315//315
f 406//406 315//315 314//314
f 316//316 405//405 317//317
f 317//317 405//405 404//404
f 317//317 404//404 318//318
f 318//318 404//404 319//319
f 319//319 404//404 403//403
f 319//319 403//403 320//320
f 320//320 403//403 402//402
f 320//320 402//402 321//321
f 321//321 402//402 322//322
f 322//322 402//402 401//401
f 322//322 401//401 400//400
f 322//322 400//400 323//323
f 323//323 400//400 399//399
f 323//323 399//399 324//324
f 324//324 399//399 398//398
f 324//324 398//398 325//325
f 325//325 398//398 397//397
f 325//325 397//397 326//326
f 326//326 397//397 396//396
f 326//326 396//396 327//327
f 327//327 396//396 328//328
f 328//328 396//396 395//395
f 328//328 395//395 329//329
f 329//329 395//395 394//394
f 329//329 394//394 330//330
f 330//330 394//394 393//393
f 330//330 393//393 331//331
f 331//331 393//393 392//392
f 331//331 392//392 332//332
f 332//332 392//392 391//391
f 332//332 391//391 333//333
f 333//333 391//391 390//390
f 333//333 390//390 334//334
f 334//334 390//390 389//389
f 334//334 389//389 335//335
f 335//335 389//389 388//388
f 335//335 388//388 336//336
f 336//336 388//388 387//387
f 336//336 387//387 386//386
f 336//336 386//386 337//337
f 337//337 386//386 385//385
f 337//337 385//385 338//338
f 338//338 385//385 384//384
f 338//338 384//384 339//339
f 339//339 384//384 340//340
f 340//340 384//384 383//383
f 340//340 383//383 341//341
f 341//341 383//383 382//382
f 341//341 382//382 342//342
f 342//342 382//382 343//343
f 343//343 382//382 381//381
f 343//343 381//381 344//344
f 344//344 381//381 380//380
f 344//344 380//380 345//345
f 345//345 380//380 346//346
f 346//346 380//380 379//379
f 346//346 379//379 347//347
f 347//347 379//379 378//378
f 347//347 378//378 348//348
f 348//348 378//378 377//377
f 348//348 377//377 349//349
f 349//349 377//377 350//350
f 350//350 377//377 376//376
f 350//350 376//376 351//351
f 351//351 376//376 375//375
f 351//351 375//375 352//352
f 352//352 375//375 374//374
f 352//352 374//374 353//353
f 353//353 374//374 373//373
f 353//353 373//373 354//354
f 354//354 373//373 355//355
f 355//355 373//373 372//372
f 355//355 372//372 356//356
f 356//356 372//372 371//371
f 356//356 371//371 357//357
f 357//357 371//371 370//370
f 357//357 370//370 358//358
f 358//358 370//370 369//369
f 358//358 369//369 359//359
f 359//359 369//369 368//368
f 359//359 368//368 360//360
f 360//360 368//368 367//367
f 360//360 367//367 361//361
f 361//361 367//367 366//366
f 361//361 366//366 362//362
f 362//362 366//366 365//365
f 362//362 365//365 363//363
f 363//363 365//365 364//364
f 314//314 313//313 406//406
f 311//311 310//310 407//407
f 306//306 305//305 205//205
f 205//205 305//305 206//206
f 206//206 305//305 304//304
f 206//206 304//304 303//303
f 303//303 302//302 206//206
f 206//206 302//302 207//207
f 207//207 302//302 301//301
f 207//207 301//301 300//300
f 300//300 299//299 207//207
f 207//207 299//299 208//208
f 208//208 299//299 298//298
f 208//208 298//298 209//209
f 209//209 298//298 297//297
f 209//209 297//297 296//296
f 209//209 296//296 210//210
f 210//210 296//296 295//295
f 210//210 295//295 211//211
f 211//211 295//295 294//294
f 211//211 294//294 293//293
f 292//292 213//213 293//293
f 293//293 213//213 212//212
f 293//293 212//212 211//211
f 213//213 292//292 214//214
f 214//214 292//292 291//291
f 214//214 291//291 215//215
f 215//215 291//291 290//290
f 215//215 290//290 216//216
f 216//216 290//290 289//289
f 216//216 289//289 217//217
f 217//217 289//289 288//288
f 217//217 288//288 287//287
f 217//217 287//287 218//218
f 218//218 287//287 286//286
f 218//218 286//286 219//219
f 219//219 286//286 285//285
f 219//219 285//285 220//220
f 220//220 285//285 284//284
f 220//220 284//284 221//221
f 221//221 284//284 283//283
f 221//221 283//283 222//222
f 222//222 283//283 223//223
f 223//223 283//283 224//224
f 224//224 283//283 225//225
f 225//225 283//283 226//226
f 226//226 283//283 227//227
f 227//227 283//283 228//228
f 228//228 283//283 229//229
f 229//229 283//283 230//230
f 230//230 283//283 231//231
f 231//231 283//283 232//232
f 232//232 283//283 233//233
f 233//233 283//283 234//234
f 234//234 283//283 235//235
f 235//235 283//283 236//236
f 236//236 283//283 237//237
f 237//237 283//283 238//238
f 238//238 283//283 239//239
f 239//239 283//283 240//240
f 240//240 283//283 241//241
f 241//241 283//283 242//242
f 242//242 283//283 243//243
f 243//243 283//283 244//244
f 244//244 283//283 245//245
f 245//245 283//283 246//246
f 246//246 283//283 247//247
f 247//247 283//283 248//248
f 248//248 283//283 249//249
f 249//249 283//283 250//250
f 250//250 283//283 251//251
f 251//251 283//283 252//252
f 252//252 283//283 253//253
f 253//253 283//283 254//254
f 254//254 283//283 255//255
f 255//255 283//283 256//256
f 256//256 283//283 282//282
f 256//256 282//282 257//257
f 257//257 282//282 258//258
f 258//258 282//282 281//281
f 258//258 281//281 259//259
f 259//259 281//281 260//260
f 260//260 281//281 280//280
f 260//260 280//280 261//261
f 261//261 280//280 279//279
f 261//261 279//279 262//262
f 262//262 279//279 263//263
f 263//263 279//279 278//278
f 263//263 278//278 264//264
f 264//264 278//278 265//265
f 265//265 278//278 277//277
f 265//265 277//277 266//266
f 266//266 277//277 276//276
f 266//266 276//276 275//275
f 275//275 274//274 266//266
f 266//266 274//274 273//273
f 266//266 273//273 272//272
f 272//272 271//271 266//266
f 266//266 271//271 270//270
f 266//266 270//270 267//267
f 267//267 270//270 268//268
f 268//268 270//270 269//269
