# Generated by generate_bionic_fish.py
# Units: meters
# Explicit smooth normals included for Stonefish.
# Dorsal fin physics mesh.
o DorsalFin
s 1
v 0.060000000 -0.001500000 0.000000000
v 0.000000000 -0.001500000 0.000000000
v -0.025455000 -0.001500000 -0.095000000
v -0.024670000 -0.001500000 -0.094981000
v -0.023858000 -0.001500000 -0.094925000
v -0.023019000 -0.001500000 -0.094832000
v -0.022154000 -0.001500000 -0.094702000
v -0.021263000 -0.001500000 -0.094536000
v -0.020347000 -0.001500000 -0.094334000
v -0.019407000 -0.001500000 -0.094098000
v -0.018445000 -0.001500000 -0.093828000
v -0.017462000 -0.001500000 -0.093526000
v -0.016458000 -0.001500000 -0.093192000
v -0.015437000 -0.001500000 -0.092829000
v -0.014398000 -0.001500000 -0.092437000
v -0.013345000 -0.001500000 -0.092017000
v -0.012278000 -0.001500000 -0.091572000
v -0.011200000 -0.001500000 -0.091103000
v -0.010113000 -0.001500000 -0.090612000
v -0.009018000 -0.001500000 -0.090099000
v -0.007918000 -0.001500000 -0.089568000
v -0.006814000 -0.001500000 -0.089018000
v -0.005708000 -0.001500000 -0.088453000
v -0.004603000 -0.001500000 -0.087874000
v -0.003500000 -0.001500000 -0.087282000
v -0.001308000 -0.001500000 -0.086065000
v 0.000854000 -0.001500000 -0.084817000
v 0.001918000 -0.001500000 -0.084185000
v 0.002971000 -0.001500000 -0.083549000
v 0.004009000 -0.001500000 -0.082910000
v 0.005031000 -0.001500000 -0.082270000
v 0.006037000 -0.001500000 -0.081630000
v 0.007025000 -0.001500000 -0.080990000
v 0.007994000 -0.001500000 -0.080352000
v 0.008944000 -0.001500000 -0.079717000
v 0.009873000 -0.001500000 -0.079083000
v 0.010783000 -0.001500000 -0.078453000
v 0.011673000 -0.001500000 -0.077825000
v 0.012542000 -0.001500000 -0.077200000
v 0.013392000 -0.001500000 -0.076578000
v 0.014224000 -0.001500000 -0.075957000
v 0.015037000 -0.001500000 -0.075338000
v 0.015834000 -0.001500000 -0.074720000
v 0.016615000 -0.001500000 -0.074100000
v 0.017382000 -0.001500000 -0.073480000
v 0.018881000 -0.001500000 -0.072228000
v 0.020344000 -0.001500000 -0.070952000
v 0.021788000 -0.001500000 -0.069642000
v 0.023225000 -0.001500000 -0.068287000
v 0.023944000 -0.001500000 -0.067590000
v 0.024665000 -0.001500000 -0.066879000
v 0.025388000 -0.001500000 -0.066153000
v 0.026115000 -0.001500000 -0.065413000
v 0.026845000 -0.001500000 -0.064657000
v 0.027579000 -0.001500000 -0.063886000
v 0.028317000 -0.001500000 -0.063100000
v 0.029058000 -0.001500000 -0.062299000
v 0.029803000 -0.001500000 -0.061483000
v 0.030551000 -0.001500000 -0.060652000
v 0.031303000 -0.001500000 -0.059807000
v 0.032058000 -0.001500000 -0.058948000
v 0.032815000 -0.001500000 -0.058074000
v 0.033574000 -0.001500000 -0.057188000
v 0.035098000 -0.001500000 -0.055376000
v 0.036624000 -0.001500000 -0.053517000
v 0.038146000 -0.001500000 -0.051616000
v 0.039658000 -0.001500000 -0.049679000
v 0.041152000 -0.001500000 -0.047713000
v 0.042622000 -0.001500000 -0.045724000
v 0.044060000 -0.001500000 -0.043719000
v 0.045457000 -0.001500000 -0.041705000
v 0.046808000 -0.001500000 -0.039689000
v 0.047464000 -0.001500000 -0.038681000
v 0.048105000 -0.001500000 -0.037675000
v 0.048732000 -0.001500000 -0.036672000
v 0.049343000 -0.001500000 -0.035671000
v 0.049938000 -0.001500000 -0.034674000
v 0.050516000 -0.001500000 -0.033681000
v 0.051077000 -0.001500000 -0.032692000
v 0.051621000 -0.001500000 -0.031709000
v 0.052147000 -0.001500000 -0.030730000
v 0.052654000 -0.001500000 -0.029758000
v 0.053143000 -0.001500000 -0.028791000
v 0.053613000 -0.001500000 -0.027831000
v 0.054065000 -0.001500000 -0.026877000
v 0.054498000 -0.001500000 -0.025929000
v 0.054912000 -0.001500000 -0.024988000
v 0.055307000 -0.001500000 -0.024054000
v 0.055685000 -0.001500000 -0.023126000
v 0.056043000 -0.001500000 -0.022205000
v 0.056384000 -0.001500000 -0.021290000
v 0.056707000 -0.001500000 -0.020382000
v 0.057012000 -0.001500000 -0.019480000
v 0.057300000 -0.001500000 -0.018585000
v 0.057571000 -0.001500000 -0.017695000
v 0.057825000 -0.001500000 -0.016811000
v 0.058064000 -0.001500000 -0.015933000
v 0.058286000 -0.001500000 -0.015060000
v 0.058493000 -0.001500000 -0.014192000
v 0.058684000 -0.001500000 -0.013329000
v 0.058861000 -0.001500000 -0.012471000
v 0.059024000 -0.001500000 -0.011617000
v 0.059173000 -0.001500000 -0.010768000
v 0.059308000 -0.001500000 -0.009922000
v 0.059430000 -0.001500000 -0.009080000
v 0.059539000 -0.001500000 -0.008241000
v 0.059721000 -0.001500000 -0.006574000
v 0.059856000 -0.001500000 -0.004917000
v 0.059947000 -0.001500000 -0.003270000
v 0.059994000 -0.001500000 -0.001631000
v 0.000000000 0.001500000 0.000000000
v -0.025455000 0.001500000 -0.095000000
v -0.024670000 0.001500000 -0.094981000
v -0.023858000 0.001500000 -0.094925000
v -0.023019000 0.001500000 -0.094832000
v -0.022154000 0.001500000 -0.094702000
v -0.021263000 0.001500000 -0.094536000
v -0.020347000 0.001500000 -0.094334000
v -0.019407000 0.001500000 -0.094098000
v -0.018445000 0.001500000 -0.093828000
v -0.017462000 0.001500000 -0.093526000
v -0.016458000 0.001500000 -0.093192000
v -0.015437000 0.001500000 -0.092829000
v -0.014398000 0.001500000 -0.092437000
v -0.013345000 0.001500000 -0.092017000
v -0.012278000 0.001500000 -0.091572000
v -0.011200000 0.001500000 -0.091103000
v -0.010113000 0.001500000 -0.090612000
v -0.009018000 0.001500000 -0.090099000
v -0.007918000 0.001500000 -0.089568000
v -0.006814000 0.001500000 -0.089018000
v -0.005708000 0.001500000 -0.088453000
v -0.004603000 0.001500000 -0.087874000
v -0.003500000 0.001500000 -0.087282000
v -0.001308000 0.001500000 -0.086065000
v 0.000854000 0.001500000 -0.084817000
v 0.001918000 0.001500000 -0.084185000
v 0.002971000 0.001500000 -0.083549000
v 0.004009000 0.001500000 -0.082910000
v 0.005031000 0.001500000 -0.082270000
v 0.006037000 0.001500000 -0.081630000
v 0.007025000 0.001500000 -0.080990000
v 0.007994000 0.001500000 -0.080352000
v 0.008944000 0.001500000 -0.079717000
v 0.009873000 0.001500000 -0.079083000
v 0.010783000 0.001500000 -0.078453000
v 0.011673000 0.001500000 -0.077825000
v 0.012542000 0.001500000 -0.077200000
v 0.013392000 0.001500000 -0.076578000
v 0.014224000 0.001500000 -0.075957000
v 0.015037000 0.001500000 -0.075338000
v 0.015834000 0.001500000 -0.074720000
v 0.016615000 0.001500000 -0.074100000
v 0.017382000 0.001500000 -0.073480000
v 0.018881000 0.001500000 -0.072228000
v 0.020344000 0.001500000 -0.070952000
v 0.021788000 0.001500000 -0.069642000
v 0.023225000 0.001500000 -0.068287000
v 0.023944000 0.001500000 -0.067590000
v 0.024665000 0.001500000 -0.066879000
v 0.025388000 0.001500000 -0.066153000
v 0.026115000 0.001500000 -0.065413000
v 0.026845000 0.001500000 -0.064657000
v 0.027579000 0.001500000 -0.063886000
v 0.028317000 0.001500000 -0.063100000
v 0.029058000 0.001500000 -0.062299000
v 0.029803000 0.001500000 -0.061483000
v 0.030551000 0.001500000 -0.060652000
v 0.031303000 0.001500000 -0.059807000
v 0.032058000 0.001500000 -0.058948000
v 0.032815000 0.001500000 -0.058074000
v 0.033574000 0.001500000 -0.057188000
v 0.035098000 0.001500000 -0.055376000
v 0.036624000 0.001500000 -0.053517000
v 0.038146000 0.001500000 -0.051616000
v 0.039658000 0.001500000 -0.049679000
v 0.041152000 0.001500000 -0.047713000
v 0.042622000 0.001500000 -0.045724000
v 0.044060000 0.001500000 -0.043719000
v 0.045457000 0.001500000 -0.041705000
v 0.046808000 0.001500000 -0.039689000
v 0.047464000 0.001500000 -0.038681000
v 0.048105000 0.001500000 -0.037675000
v 0.048732000 0.001500000 -0.036672000
v 0.049343000 0.001500000 -0.035671000
v 0.049938000 0.001500000 -0.034674000
v 0.050516000 0.001500000 -0.033681000
v 0.051077000 0.001500000 -0.032692000
v 0.051621000 0.001500000 -0.031709000
v 0.052147000 0.001500000 -0.030730000
v 0.052654000 0.001500000 -0.029758000
v 0.053143000 0.001500000 -0.028791000
v 0.053613000 0.001500000 -0.027831000
v 0.054065000 0.001500000 -0.026877000
v 0.054498000 0.001500000 -0.025929000
v 0.054912000 0.001500000 -0.024988000
v 0.055307000 0.001500000 -0.024054000
v 0.055685000 0.001500000 -0.023126000
v 0.056043000 0.001500000 -0.022205000
v 0.056384000 0.001500000 -0.021290000
v 0.056707000 0.001500000 -0.020382000
v 0.057012000 0.001500000 -0.019480000
v 0.057300000 0.001500000 -0.018585000
v 0.057571000 0.001500000 -0.017695000
v 0.057825000 0.001500000 -0.016811000
v 0.058064000 0.001500000 -0.015933000
v 0.058286000 0.001500000 -0.015060000
v 0.058493000 0.001500000 -0.014192000
v 0.058684000 0.001500000 -0.013329000
v 0.058861000 0.001500000 -0.012471000
v 0.059024000 0.001500000 -0.011617000
v 0.059173000 0.001500000 -0.010768000
v 0.059308000 0.001500000 -0.009922000
v 0.059430000 0.001500000 -0.009080000
v 0.059539000 0.001500000 -0.008241000
v 0.059721000 0.001500000 -0.006574000
v 0.059856000 0.001500000 -0.004917000
v 0.059947000 0.001500000 -0.003270000
v 0.059994000 0.001500000 -0.001631000
v 0.060000000 0.001500000 0.000000000
vn 0.013115203 -0.262304051 0.964896148
vn -0.062347414 -0.997390717 0.036394483
vn -0.253651291 -0.965189482 0.063798794
vn 0.054298763 -0.003942118 -0.998516952
vn 0.096721793 -0.015204773 -0.995195312
vn 0.136054254 -0.033012235 -0.990151217
vn 0.171666151 -0.056207412 -0.983550436
vn 0.204161721 -0.084077378 -0.975319940
vn 0.232783999 -0.115264690 -0.965673682
vn 0.258586512 -0.149363035 -0.954370840
vn 0.281064195 -0.185465923 -0.941597212
vn 0.300743100 -0.222685280 -0.927342900
vn 0.317324777 -0.260416769 -0.911859689
vn 0.331369730 -0.297696364 -0.895304963
vn 0.343522573 -0.336132376 -0.876930594
vn 0.003362561 -0.999960885 -0.008180520
vn 0.022366760 -0.998390091 -0.052124415
vn 0.023304028 -0.998363172 -0.052229290
vn 0.024223614 -0.998336142 -0.052327477
vn 0.025043608 -0.998312481 -0.052392818
vn 0.025865298 -0.998287997 -0.052460090
vn 0.026601828 -0.998266179 -0.052506942
vn 0.027295517 -0.998246155 -0.052531592
vn 0.027988414 -0.998225283 -0.052563607
vn 0.032204030 -0.997773980 -0.058395081
vn 0.029928789 -0.998171156 -0.052522485
vn 0.027341105 -0.998535031 -0.046693208
vn 0.031559411 -0.998119810 -0.052543768
vn 0.032109091 -0.998105012 -0.052491821
vn 0.032662169 -0.998088902 -0.052456908
vn 0.033176341 -0.998073592 -0.052425531
vn 0.033717879 -0.998058460 -0.052368080
vn 0.034254302 -0.998043181 -0.052311110
vn 0.034754829 -0.998028567 -0.052259751
vn 0.035358781 -0.998011830 -0.052174176
vn 0.035909669 -0.997994980 -0.052120211
vn 0.036481128 -0.997978805 -0.052032998
vn 0.037107295 -0.997961265 -0.051926502
vn 0.037718836 -0.997942538 -0.051845740
vn 0.038366233 -0.997923086 -0.051745016
vn 0.039030992 -0.997904433 -0.051607412
vn 0.039695649 -0.997883348 -0.051508047
vn 0.040448338 -0.997861009 -0.051355021
vn 0.041149723 -0.997839481 -0.051215918
vn 0.046957398 -0.997292487 -0.056592383
vn 0.043514828 -0.997769622 -0.050618589
vn 0.045047524 -0.997717284 -0.050308465
vn 0.046508339 -0.997667968 -0.049955972
vn 0.042238268 -0.998130535 -0.044174252
vn 0.048394857 -0.997608196 -0.049354076
vn 0.049034262 -0.997588282 -0.049124941
vn 0.049586061 -0.997570382 -0.048934204
vn 0.050154268 -0.997553112 -0.048706654
vn 0.050696693 -0.997536220 -0.048490571
vn 0.051186612 -0.997521365 -0.048281013
vn 0.051684752 -0.997506900 -0.048048639
vn 0.052167756 -0.997491951 -0.047836524
vn 0.052635393 -0.997478639 -0.047601257
vn 0.053057794 -0.997466019 -0.047396332
vn 0.053456893 -0.997455018 -0.047178889
vn 0.053916766 -0.997442176 -0.046926407
vn 0.054306649 -0.997432015 -0.046692225
vn 0.060987005 -0.996810079 -0.051480604
vn 0.055574312 -0.997394953 -0.045986990
vn 0.056306543 -0.997378270 -0.045455026
vn 0.057026065 -0.997362975 -0.044890128
vn 0.057741408 -0.997349417 -0.044272676
vn 0.058467500 -0.997336113 -0.043614552
vn 0.059198511 -0.997324559 -0.042886603
vn 0.059963969 -0.997313896 -0.042063238
vn 0.060743018 -0.997303534 -0.041181877
vn 0.054565707 -0.997859603 -0.036038809
vn 0.061987402 -0.997283921 -0.039778670
vn 0.062399482 -0.997278830 -0.039258638
vn 0.062844234 -0.997273957 -0.038668549
vn 0.063277261 -0.997270334 -0.038050867
vn 0.063724281 -0.997266278 -0.037405704
vn 0.064184371 -0.997262029 -0.036726163
vn 0.064602148 -0.997259711 -0.036050404
vn 0.065075410 -0.997255267 -0.035314639
vn 0.065513455 -0.997254542 -0.034516155
vn 0.065996271 -0.997249781 -0.033724866
vn 0.066431048 -0.997249065 -0.032881873
vn 0.066889655 -0.997245638 -0.032045462
vn 0.067339960 -0.997243962 -0.031141778
vn 0.067782307 -0.997242879 -0.030202646
vn 0.068225954 -0.997241223 -0.029243164
vn 0.068656042 -0.997238245 -0.028323693
vn 0.069068979 -0.997238868 -0.027278506
vn 0.069502174 -0.997235718 -0.026274904
vn 0.069877119 -0.997235891 -0.025254016
vn 0.070283490 -0.997233969 -0.024179386
vn 0.070644760 -0.997233574 -0.023119626
vn 0.071028769 -0.997230768 -0.022038833
vn 0.071368322 -0.997230698 -0.020916449
vn 0.071686146 -0.997229170 -0.019876613
vn 0.072009947 -0.997227783 -0.018743443
vn 0.072313602 -0.997226151 -0.017628000
vn 0.072595151 -0.997225267 -0.016483633
vn 0.072856485 -0.997223591 -0.015396194
vn 0.073103493 -0.997221403 -0.014330108
vn 0.073310463 -0.997221239 -0.013242995
vn 0.073549344 -0.997217833 -0.012127971
vn 0.073726308 -0.997217355 -0.011044376
vn 0.073911724 -0.997214928 -0.009972217
vn 0.082293896 -0.996564452 -0.009327825
vn 0.074285284 -0.997214248 -0.006741005
vn 0.074476659 -0.997211356 -0.004768552
vn 0.074625002 -0.997207727 -0.002803173
vn 0.074703967 -0.997205349 -0.000899313
vn -0.031204330 0.998370491 0.047777114
vn -0.461890336 0.878524877 0.121866150
vn 0.039431631 0.003989586 -0.999214306
vn 0.082935200 0.015390616 -0.996436090
vn 0.123245443 0.033405755 -0.991813801
vn 0.160168493 0.056874604 -0.985449813
vn 0.193454632 0.085038888 -0.977416847
vn 0.223430080 0.116510408 -0.967731535
vn 0.249724993 0.150854089 -0.956493843
vn 0.273292707 0.187191439 -0.943541447
vn 0.293460380 0.224705762 -0.929186917
vn 0.310935470 0.262350823 -0.913504887
vn 0.325403120 0.299919030 -0.896750459
vn 0.337770800 0.338190489 -0.878372404
vn 0.003298391 0.999961392 -0.008144588
vn 0.021979009 0.998407926 -0.051947444
vn 0.022951054 0.998378858 -0.052085562
vn 0.023872676 0.998351241 -0.052200521
vn 0.024757675 0.998323752 -0.052313905
vn 0.025564269 0.998299052 -0.052397236
vn 0.026364522 0.998274118 -0.052475691
vn 0.027073871 0.998251343 -0.052547707
vn 0.027782147 0.998229361 -0.052595573
vn 0.025573014 0.998574860 -0.046843030
vn 0.029678755 0.998165883 -0.052764023
vn 0.034017370 0.997702074 -0.058595138
vn 0.031492874 0.998112318 -0.052725701
vn 0.032058390 0.998093408 -0.052742846
vn 0.032644700 0.998075161 -0.052728509
vn 0.033175859 0.998059088 -0.052701234
vn 0.033717319 0.998041888 -0.052683311
vn 0.034289405 0.998024166 -0.052649790
vn 0.034808777 0.998008560 -0.052604787
vn 0.035376615 0.997990781 -0.052563259
vn 0.035984732 0.997973457 -0.052479314
vn 0.036519025 0.997957232 -0.052418727
vn 0.037165686 0.997937481 -0.052340192
vn 0.037778539 0.997920345 -0.052228023
vn 0.038386047 0.997903099 -0.052114461
vn 0.039072112 0.997882174 -0.052005170
vn 0.039716312 0.997864844 -0.051849474
vn 0.040404144 0.997844856 -0.051702501
vn 0.041149068 0.997823605 -0.051524828
vn 0.037493822 0.998254373 -0.045633532
vn 0.043239896 0.997760621 -0.051029941
vn 0.044654692 0.997723825 -0.050528483
vn 0.045988644 0.997687951 -0.050037959
vn 0.052294766 0.997107700 -0.055149719
vn 0.048075968 0.997625830 -0.049309270
vn 0.048695136 0.997607080 -0.049080526
vn 0.049272355 0.997590284 -0.048845268
vn 0.049798981 0.997574121 -0.048640865
vn 0.050366832 0.997557166 -0.048403342
vn 0.050859978 0.997542250 -0.048194635
vn 0.051361118 0.997526695 -0.047984660
vn 0.051847210 0.997512725 -0.047751752
vn 0.052317810 0.997498341 -0.047538473
vn 0.052764179 0.997485546 -0.047313073
vn 0.053165877 0.997473488 -0.047117190
vn 0.053607541 0.997460747 -0.046885916
vn 0.054061186 0.997447236 -0.046651889
vn 0.048521589 0.997972721 -0.041183781
vn 0.055103472 0.997421946 -0.045968134
vn 0.055890003 0.997399840 -0.045495795
vn 0.056671472 0.997378705 -0.044989584
vn 0.057456588 0.997357972 -0.044450148
vn 0.058241431 0.997338983 -0.043850751
vn 0.059040371 0.997320312 -0.043202197
vn 0.059873805 0.997302063 -0.042470247
vn 0.060721836 0.997285664 -0.041643284
vn 0.068124032 0.996643846 -0.045388988
vn 0.062027532 0.997269122 -0.040085960
vn 0.062460677 0.997263563 -0.039548070
vn 0.062885078 0.997258376 -0.039002551
vn 0.063360614 0.997252114 -0.038388208
vn 0.063808512 0.997247232 -0.037768145
vn 0.064269558 0.997242977 -0.037092716
vn 0.064731899 0.997237822 -0.036421258
vn 0.065162621 0.997235414 -0.035712214
vn 0.065668699 0.997229532 -0.034941127
vn 0.066108410 0.997228470 -0.034132923
vn 0.066590443 0.997223951 -0.033318232
vn 0.067028055 0.997222791 -0.032464528
vn 0.067480133 0.997220390 -0.031589964
vn 0.067948252 0.997217723 -0.030656948
vn 0.068394248 0.997216078 -0.029703894
vn 0.068802170 0.997216222 -0.028741393
vn 0.069241735 0.997213141 -0.027776483
vn 0.069652233 0.997213855 -0.026703812
vn 0.070054526 0.997211691 -0.025713951
vn 0.070437412 0.997211702 -0.024645319
vn 0.070826799 0.997210232 -0.023565197
vn 0.071160146 0.997211333 -0.022489792
vn 0.071527910 0.997209595 -0.021372454
vn 0.071847641 0.997209354 -0.020283518
vn 0.072145809 0.997209092 -0.019209611
vn 0.072450923 0.997208754 -0.018043439
vn 0.072733796 0.997207668 -0.016931107
vn 0.072996532 0.997207169 -0.015791432
vn 0.073216415 0.997207311 -0.014728750
vn 0.073452925 0.997205336 -0.013644951
vn 0.073635341 0.997206478 -0.012533059
vn 0.073841922 0.997204535 -0.011423060
vn 0.073998946 0.997204574 -0.010353400
vn 0.066046085 0.997785317 -0.007897888
vn 0.074433225 0.997198232 -0.007441831
vn 0.074625998 0.997196807 -0.005430354
vn 0.074745387 0.997196614 -0.003469835
vn 0.074825169 0.997195503 -0.001524245
vn 0.047717067 0.477170673 0.877514234
f 1//1 2//2 110//110
f 110//110 2//2 109//109
f 109//109 2//2 108//108
f 108//108 2//2 107//107
f 107//107 2//2 106//106
f 106//106 2//2 105//105
f 105//105 2//2 104//104
f 104//104 2//2 103//103
f 103//103 2//2 102//102
f 102//102 2//2 101//101
f 101//101 2//2 100//100
f 100//100 2//2 99//99
f 99//99 2//2 98//98
f 98//98 2//2 97//97
f 97//97 2//2 96//96
f 96//96 2//2 95//95
f 95//95 2//2 94//94
f 94//94 2//2 93//93
f 93//93 2//2 92//92
f 92//92 2//2 91//91
f 91//91 2//2 90//90
f 90//90 2//2 89//89
f 89//89 2//2 88//88
f 88//88 2//2 87//87
f 87//87 2//2 86//86
f 86//86 2//2 85//85
f 85//85 2//2 84//84
f 84//84 2//2 83//83
f 83//83 2//2 82//82
f 82//82 2//2 81//81
f 81//81 2//2 80//80
f 80//80 2//2 79//79
f 79//79 2//2 78//78
f 78//78 2//2 77//77
f 77//77 2//2 76//76
f 76//76 2//2 75//75
f 75//75 2//2 74//74
f 74//74 2//2 73//73
f 73//73 2//2 72//72
f 72//72 2//2 71//71
f 71//71 2//2 70//70
f 70//70 2//2 69//69
f 69//69 2//2 68//68
f 68//68 2//2 67//67
f 67//67 2//2 66//66
f 66//66 2//2 65//65
f 65//65 2//2 64//64
f 64//64 2//2 63//63
f 63//63 2//2 62//62
f 62//62 2//2 61//61
f 61//61 2//2 60//60
f 60//60 2//2 59//59
f 59//59 2//2 58//58
f 58//58 2//2 57//57
f 57//57 2//2 56//56
f 56//56 2//2 55//55
f 55//55 2//2 54//54
f 54//54 2//2 53//53
f 53//53 2//2 52//52
f 52//52 2//2 51//51
f 51//51 2//2 50//50
f 50//50 2//2 49//49
f 49//49 2//2 48//48
f 48//48 2//2 47//47
f 47//47 2//2 46//46
f 46//46 2//2 45//45
f 45//45 2//2 44//44
f 44//44 2//2 43//43
f 43//43 2//2 42//42
f 42//42 2//2 41//41
f 41//41 2//2 40//40
f 40//40 2//2 39//39
f 39//39 2//2 38//38
f 38//38 2//2 37//37
f 37//37 2//2 36//36
f 36//36 2//2 35//35
f 35//35 2//2 34//34
f 34//34 2//2 33//33
f 33//33 2//2 32//32
f 32//32 2//2 31//31
f 31//31 2//2 30//30
f 30//30 2//2 29//29
f 29//29 2//2 28//28
f 28//28 2//2 27//27
f 27//27 2//2 26//26
f 26//26 2//2 25//25
f 25//25 2//2 24//24
f 24//24 2//2 23//23
f 23//23 2//2 22//22
f 22//22 2//2 21//21
f 21//21 2//2 20//20
f 20//20 2//2 19//19
f 19//19 2//2 18//18
f 18//18 2//2 17//17
f 17//17 2//2 16//16
f 16//16 2//2 3//3
f 16//16 3//3 15//15
f 15//15 3//3 14//14
f 14//14 3//3 13//13
f 13//13 3//3 12//12
f 12//12 3//3 11//11
f 11//11 3//3 10//10
f 10//10 3//3 9//9
f 9//9 3//3 8//8
f 8//8 3//3 7//7
f 7//7 3//3 6//6
f 6//6 3//3 5//5
f 5//5 3//3 4//4
f 111//111 112//112 2//2
f 2//2 112//112 3//3
f 112//112 113//113 3//3
f 3//3 113//113 4//4
f 4//4 113//113 114//114
f 4//4 114//114 5//5
f 5//5 114//114 115//115
f 5//5 115//115 6//6
f 6//6 115//115 116//116
f 6//6 116//116 7//7
f 7//7 116//116 117//117
f 7//7 117//117 8//8
f 8//8 117//117 118//118
f 8//8 118//118 9//9
f 9//9 118//118 119//119
f 9//9 119//119 10//10
f 10//10 119//119 120//120
f 10//10 120//120 11//11
f 11//11 120//120 121//121
f 11//11 121//121 12//12
f 12//12 121//121 122//122
f 12//12 122//122 13//13
f 13//13 122//122 123//123
f 13//13 123//123 14//14
f 14//14 123//123 124//124
f 14//14 124//124 15//15
f 15//15 124//124 125//125
f 15//15 125//125 16//16
f 16//16 125//125 126//126
f 16//16 126//126 17//17
f 17//17 126//126 127//127
f 17//17 127//127 18//18
f 18//18 127//127 128//128
f 18//18 128//128 19//19
f 19//19 128//128 129//129
f 19//19 129//129 20//20
f 20//20 129//129 130//130
f 20//20 130//130 21//21
f 21//21 130//130 131//131
f 21//21 131//131 22//22
f 22//22 131//131 132//132
f 22//22 132//132 23//23
f 23//23 132//132 133//133
f 23//23 133//133 24//24
f 24//24 133//133 134//134
f 24//24 134//134 25//25
f 25//25 134//134 135//135
f 25//25 135//135 26//26
f 26//26 135//135 136//136
f 26//26 136//136 27//27
f 27//27 136//136 137//137
f 27//27 137//137 28//28
f 28//28 137//137 138//138
f 28//28 138//138 29//29
f 29//29 138//138 139//139
f 29//29 139//139 30//30
f 30//30 139//139 140//140
f 30//30 140//140 31//31
f 31//31 140//140 141//141
f 31//31 141//141 32//32
f 32//32 141//141 142//142
f 32//32 142//142 33//33
f 33//33 142//142 143//143
f 33//33 143//143 34//34
f 34//34 143//143 144//144
f 34//34 144//144 35//35
f 35//35 144//144 145//145
f 35//35 145//145 36//36
f 36//36 145//145 146//146
f 36//36 146//146 37//37
f 37//37 146//146 147//147
f 37//37 147//147 38//38
f 38//38 147//147 148//148
f 38//38 148//148 39//39
f 39//39 148//148 149//149
f 39//39 149//149 40//40
f 40//40 149//149 150//150
f 40//40 150//150 41//41
f 41//41 150//150 151//151
f 41//41 151//151 42//42
f 42//42 151//151 152//152
f 42//42 152//152 43//43
f 43//43 152//152 153//153
f 43//43 153//153 44//44
f 44//44 153//153 154//154
f 44//44 154//154 45//45
f 45//45 154//154 155//155
f 45//45 155//155 46//46
f 46//46 155//155 156//156
f 46//46 156//156 47//47
f 47//47 156//156 157//157
f 47//47 157//157 48//48
f 48//48 157//157 158//158
f 48//48 158//158 49//49
f 49//49 158//158 159//159
f 49//49 159//159 50//50
f 50//50 159//159 160//160
f 50//50 160//160 51//51
f 51//51 160//160 161//161
f 51//51 161//161 52//52
f 52//52 161//161 162//162
f 52//52 162//162 53//53
f 53//53 162//162 163//163
f 53//53 163//163 54//54
f 54//54 163//163 164//164
f 54//54 164//164 55//55
f 55//55 164//164 165//165
f 55//55 165//165 56//56
f 56//56 165//165 166//166
f 56//56 166//166 57//57
f 57//57 166//166 167//167
f 57//57 167//167 58//58
f 58//58 167//167 168//168
f 58//58 168//168 59//59
f 59//59 168//168 169//169
f 59//59 169//169 60//60
f 60//60 169//169 170//170
f 60//60 170//170 61//61
f 61//61 170//170 171//171
f 61//61 171//171 62//62
f 62//62 171//171 172//172
f 62//62 172//172 63//63
f 63//63 172//172 173//173
f 63//63 173//173 64//64
f 64//64 173//173 174//174
f 64//64 174//174 65//65
f 65//65 174//174 175//175
f 65//65 175//175 66//66
f 66//66 175//175 176//176
f 66//66 176//176 67//67
f 67//67 176//176 177//177
f 67//67 177//177 68//68
f 68//68 177//177 178//178
f 68//68 178//178 69//69
f 69//69 178//178 179//179
f 69//69 179//179 70//70
f 70//70 179//179 180//180
f 70//70 180//180 71//71
f 71//71 180//180 181//181
f 71//71 181//181 72//72
f 72//72 181//181 182//182
f 72//72 182//182 73//73
f 73//73 182//182 183//183
f 73//73 183//183 74//74
f 74//74 183//183 184//184
f 74//74 184//184 75//75
f 75//75 184//184 185//185
f 75//75 185//185 76//76
f 76//76 185//185 186//186
f 76//76 186//186 77//77
f 77//77 186//186 187//187
f 77//77 187//187 78//78
f 78//78 187//187 188//188
f 78//78 188//188 79//79
f 79//79 188//188 189//189
f 79//79 189//189 80//80
f 80//80 189//189 190//190
f 80//80 190//190 81//81
f 81//81 190//190 191//191
f 81//81 191//191 82//82
f 82//82 191//191 192//192
f 82//82 192//192 83//83
f 83//83 192//192 193//193
f 83//83 193//193 84//84
f 84//84 193//193 194//194
f 84//84 194//194 85//85
f 85//85 194//194 195//195
f 85//85 195//195 86//86
f 86//86 195//195 196//196
f 86//86 196//196 87//87
f 87//87 196//196 197//197
f 87//87 197//197 88//88
f 88//88 197//197 198//198
f 88//88 198//198 89//89
f 89//89 198//198 199//199
f 89//89 199//199 90//90
f 90//90 199//199 200//200
f 90//90 200//200 91//91
f 91//91 200//200 201//201
f 91//91 201//201 92//92
f 92//92 201//201 202//202
f 92//92 202//202 93//93
f 93//93 202//202 203//203
f 93//93 203//203 94//94
f 94//94 203//203 204//204
f 94//94 204//204 95//95
f 95//95 204//204 205//205
f 95//95 205//205 96//96
f 96//96 205//205 206//206
f 96//96 206//206 97//97
f 97//97 206//206 207//207
f 97//97 207//207 98//98
f 98//98 207//207 208//208
f 98//98 208//208 99//99
f 99//99 208//208 209//209
f 99//99 209//209 100//100
f 100//100 209//209 210//210
f 100//100 210//210 101//101
f 101//101 210//210 211//211
f 101//101 211//211 102//102
f 102//102 211//211 212//212
f 102//102 212//212 103//103
f 103//103 212//212 213//213
f 103//103 213//213 104//104
f 104//104 213//213 214//214
f 104//104 214//214 105//105
f 105//105 214//214 215//215
f 105//105 215//215 106//106
f 106//106 215//215 216//216
f 106//106 216//216 107//107
f 107//107 216//216 217//217
f 107//107 217//217 108//108
f 108//108 217//217 218//218
f 108//108 218//218 109//109
f 109//109 218//218 219//219
f 109//109 219//219 110//110
f 110//110 219//219 220//220
f 110//110 220//220 1//1
f 220//220 111//111 1//1
f 1//1 111//111 2//2
f 220//220 219//219 111//111
f 111//111 219//219 218//218
f 111//111 218//218 217//217
f 217//217 216//216 111//111
f 111//111 216//216 215//215
f 111//111 215//215 214//214
f 214//214 213//213 111//111
f 111//111 213//213 212//212
f 111//111 212//212 211//211
f 211//211 210//210 111//111
f 111//111 210//210 209//209
f 111//111 209//209 208//208
f 208//208 207//207 111//111
f 111//111 207//207 206//206
f 111//111 206//206 205//205
f 205//205 204//204 111//111
f 111//111 204//204 203//203
f 111//111 203//203 202//202
f 202//202 201//201 111//111
f 111//111 201//201 200//200
f 111//111 200//200 199//199
f 199//199 198//198 111//111
f 111//111 198//198 197//197
f 111//111 197//197 196//196
f 196//196 195//195 111//111
f 111//111 195//195 194//194
f 111//111 194//194 193//193
f 193//193 192//192 111//111
f 111//111 192//192 191//191
f 111//111 191//191 190//190
f 190//190 189//189 111//111
f 111//111 189//189 188//188
f 111//111 188//188 187//187
f 187//187 186//186 111//111
f 111//111 186//186 185//185
f 111//111 185//185 184//184
f 184//184 183//183 111//111
f 111//111 183//183 182//182
f 111//111 182//182 181//181
f 181//181 180//180 111//111
f 111//111 180//180 179//179
f 111//111 179//179 178//178
f 178//178 177//177 111//111
f 111//111 177//177 176//176
f 111//111 176//176 175//175
f 175//175 174//174 111//111
f 111//111 174//174 173//173
f 111//111 173//173 172//172
f 172//172 171//171 111//111
f 111//111 171//171 170//170
f 111//111 170//170 169//169
f 169//169 168//168 111//111
f 111//111 168//168 167//167
f 111//111 167//167 166//166
f 166//166 165//165 111//111
f 111//111 165//165 164//164
f 111//111 164//164 163//163
f 163//163 162//162 111//111
f 111//111 162//162 161//161
f 111//111 161//161 160//160
f 160//160 159//159 111//111
f 111//111 159//159 158//158
f 111//111 158//158 157//157
f 157//157 156//156 111//111
f 111//111 156//156 155//155
f 111//111 155//155 154//154
f 154//154 153//153 111//111
f 111//111 153//153 152//152
f 111//111 152//152 151//151
f 151//151 150//150 111//111
f 111//111 150//150 149//149
f 111//111 149//149 148//148
f 148//148 147//147 111//111
f 111//111 147//147 146//146
f 111//111 146//146 145//145
f 145//145 144//144 111//111
f 111//111 144//144 143//143
f 111//111 143//143 142//142
f 142//142 141//141 111//111
f 111//111 141//141 140//140
f 111//111 140//140 139//139
f 139//139 138//138 111//111
f 111//111 138//138 137//137
f 111//111 137//137 136//136
f 136//136 135//135 111//111
f 111//111 135//135 134//134
f 111//111 134//134 133//133
f 133//133 132//132 111//111
f 111//111 132//132 131//131
f 111//111 131//131 130//130
f 130//130 129//129 111//111
f 111//111 129//129 128//128
f 111//111 128//128 127//127
f 127//127 126//126 111//111
f 111//111 126//126 125//125
f 111//111 125//125 112//112
f 112//112 125//125 124//124
f 112//112 124//124 123//123
f 123//123 122//122 112//112
f 112//112 122//122 121//121
f 112//112 121//121 120//120
f 120//120 119//119 112//112
f 112//112 119//119 118//118
f 112//112 118//118 117//117
f 117//117 116//116 112//112
f 112//112 116//116 115//115
f 112//112 115//115 114//114
f 114//114 113//113 112//112
