# Generated by generate_bionic_fish.py
# Units: meters
# Low-poly left pectoral physics hydrofoil.
o LeftPectoralFin
v 0.052500000 -0.000000000 0.000000006
v 0.047300866 -0.000000000 0.001179987
v 0.032733215 -0.000000000 0.001888118
v 0.011682349 -0.000000000 0.001946704
v -0.011682349 -0.000000000 0.001484074
v -0.032733215 -0.000000000 0.000812467
v -0.047300866 -0.000000000 0.000232441
v -0.052500000 -0.000000000 -0.000000000
v -0.047300866 -0.000000000 -0.000232441
v -0.032733215 -0.000000000 -0.000812467
v -0.011682349 -0.000000000 -0.001484074
v 0.011682349 -0.000000000 -0.001946704
v 0.032733215 -0.000000000 -0.001888118
v 0.047300866 -0.000000000 -0.001179987
v 0.039492655 -0.022000000 0.000000006
v 0.034788676 -0.022000000 0.001109188
v 0.021608420 -0.022000000 0.001774831
v 0.002562399 -0.022000000 0.001829902
v -0.018577090 -0.022000000 0.001395029
v -0.037623111 -0.022000000 0.000763719
v -0.050803366 -0.022000000 0.000218495
v -0.055507345 -0.022000000 -0.000000000
v -0.050803366 -0.022000000 -0.000218495
v -0.037623111 -0.022000000 -0.000763719
v -0.018577090 -0.022000000 -0.001395029
v 0.002562399 -0.022000000 -0.001829902
v 0.021608420 -0.022000000 -0.001774831
v 0.034788676 -0.022000000 -0.001109188
v 0.026485310 -0.044000000 0.000000005
v 0.022276487 -0.044000000 0.001038388
v 0.010483626 -0.044000000 0.001661544
v -0.006557551 -0.044000000 0.001713100
v -0.025471830 -0.044000000 0.001305985
v -0.042513007 -0.044000000 0.000714971
v -0.054305867 -0.044000000 0.000204548
v -0.058514690 -0.044000000 -0.000000000
v -0.054305867 -0.044000000 -0.000204548
v -0.042513007 -0.044000000 -0.000714971
v -0.025471830 -0.044000000 -0.001305985
v -0.006557551 -0.044000000 -0.001713100
v 0.010483626 -0.044000000 -0.001661544
v 0.022276487 -0.044000000 -0.001038388
v 0.013477965 -0.066000000 0.000000005
v 0.009764297 -0.066000000 0.000967589
v -0.000641168 -0.066000000 0.001548257
v -0.015677500 -0.066000000 0.001596298
v -0.032366570 -0.066000000 0.001216940
v -0.047402903 -0.066000000 0.000666223
v -0.057808368 -0.066000000 0.000190602
v -0.061522035 -0.066000000 -0.000000000
v -0.057808368 -0.066000000 -0.000190602
v -0.047402903 -0.066000000 -0.000666223
v -0.032366570 -0.066000000 -0.001216940
v -0.015677500 -0.066000000 -0.001596298
v -0.000641168 -0.066000000 -0.001548257
v 0.009764297 -0.066000000 -0.000967589
v 0.000470619 -0.088000000 0.000000005
v -0.002747892 -0.088000000 0.000896790
v -0.011765962 -0.088000000 0.001434970
v -0.024797450 -0.088000000 0.001479495
v -0.039261311 -0.088000000 0.001127896
v -0.052292799 -0.088000000 0.000617475
v -0.061310869 -0.088000000 0.000176655
v -0.064529381 -0.088000000 -0.000000000
v -0.061310869 -0.088000000 -0.000176655
v -0.052292799 -0.088000000 -0.000617475
v -0.039261311 -0.088000000 -0.001127896
v -0.024797450 -0.088000000 -0.001479495
v -0.011765962 -0.088000000 -0.001434970
v -0.002747892 -0.088000000 -0.000896790
v -0.012536726 -0.110000000 0.000000004
v -0.015260082 -0.110000000 0.000825991
v -0.022890756 -0.110000000 0.001321683
v -0.033917400 -0.110000000 0.001362693
v -0.046156051 -0.110000000 0.001038852
v -0.057182695 -0.110000000 0.000568727
v -0.064813370 -0.110000000 0.000162709
v -0.067536726 -0.110000000 -0.000000000
v -0.064813370 -0.110000000 -0.000162709
v -0.057182695 -0.110000000 -0.000568727
v -0.046156051 -0.110000000 -0.001038852
v -0.033917400 -0.110000000 -0.001362693
v -0.022890756 -0.110000000 -0.001321683
v -0.015260082 -0.110000000 -0.000825991
v 0.000000000 0.000000000 0.000000000
v -0.040036726 -0.110000000 0.000000000
f 1 16 15
f 1 2 16
f 2 17 16
f 2 3 17
f 3 18 17
f 3 4 18
f 4 19 18
f 4 5 19
f 5 20 19
f 5 6 20
f 6 21 20
f 6 7 21
f 7 22 21
f 7 8 22
f 8 23 22
f 8 9 23
f 9 24 23
f 9 10 24
f 10 25 24
f 10 11 25
f 11 26 25
f 11 12 26
f 12 27 26
f 12 13 27
f 13 28 27
f 13 14 28
f 14 15 28
f 14 1 15
f 15 30 29
f 15 16 30
f 16 31 30
f 16 17 31
f 17 32 31
f 17 18 32
f 18 33 32
f 18 19 33
f 19 34 33
f 19 20 34
f 20 35 34
f 20 21 35
f 21 36 35
f 21 22 36
f 22 37 36
f 22 23 37
f 23 38 37
f 23 24 38
f 24 39 38
f 24 25 39
f 25 40 39
f 25 26 40
f 26 41 40
f 26 27 41
f 27 42 41
f 27 28 42
f 28 29 42
f 28 15 29
f 29 44 43
f 29 30 44
f 30 45 44
f 30 31 45
f 31 46 45
f 31 32 46
f 32 47 46
f 32 33 47
f 33 48 47
f 33 34 48
f 34 49 48
f 34 35 49
f 35 50 49
f 35 36 50
f 36 51 50
f 36 37 51
f 37 52 51
f 37 38 52
f 38 53 52
f 38 39 53
f 39 54 53
f 39 40 54
f 40 55 54
f 40 41 55
f 41 56 55
f 41 42 56
f 42 43 56
f 42 29 43
f 43 58 57
f 43 44 58
f 44 59 58
f 44 45 59
f 45 60 59
f 45 46 60
f 46 61 60
f 46 47 61
f 47 62 61
f 47 48 62
f 48 63 62
f 48 49 63
f 49 64 63
f 49 50 64
f 50 65 64
f 50 51 65
f 51 66 65
f 51 52 66
f 52 67 66
f 52 53 67
f 53 68 67
f 53 54 68
f 54 69 68
f 54 55 69
f 55 70 69
f 55 56 70
f 56 57 70
f 56 43 57
f 57 72 71
f 57 58 72
f 58 73 72
f 58 59 73
f 59 74 73
f 59 60 74
f 60 75 74
f 60 61 75
f 61 76 75
f 61 62 76
f 62 77 76
f 62 63 77
f 63 78 77
f 63 64 78
f 64 79 78
f 64 65 79
f 65 80 79
f 65 66 80
f 66 81 80
f 66 67 81
f 67 82 81
f 67 68 82
f 68 83 82
f 68 69 83
f 69 84 83
f 69 70 84
f 70 71 84
f 70 57 71
f 85 2 1
f 85 3 2
f 85 4 3
f 85 5 4
f 85 6 5
f 85 7 6
f 85 8 7
f 85 9 8
f 85 10 9
f 85 11 10
f 85 12 11
f 85 13 12
f 85 14 13
f 85 1 14
f 86 71 72
f 86 72 73
f 86 73 74
f 86 74 75
f 86 75 76
f 86 76 77
f 86 77 78
f 86 78 79
f 86 79 80
f 86 80 81
f 86 81 82
f 86 82 83
f 86 83 84
f 86 84 71
