# Generated by generate_bionic_fish.py
# Units: meters
# Low-poly right pectoral physics hydrofoil.
o RightPectoralFin
v 0.052500000 0.000000000 0.000000006
v 0.047300866 0.000000000 0.001179987
v 0.032733215 0.000000000 0.001888118
v 0.011682349 0.000000000 0.001946704
v -0.011682349 0.000000000 0.001484074
v -0.032733215 0.000000000 0.000812467
v -0.047300866 0.000000000 0.000232441
v -0.052500000 0.000000000 -0.000000000
v -0.047300866 0.000000000 -0.000232441
v -0.032733215 0.000000000 -0.000812467
v -0.011682349 0.000000000 -0.001484074
v 0.011682349 0.000000000 -0.001946704
v 0.032733215 0.000000000 -0.001888118
v 0.047300866 0.000000000 -0.001179987
v 0.039492655 0.022000000 0.000000006
v 0.034788676 0.022000000 0.001109188
v 0.021608420 0.022000000 0.001774831
v 0.002562399 0.022000000 0.001829902
v -0.018577090 0.022000000 0.001395029
v -0.037623111 0.022000000 0.000763719
v -0.050803366 0.022000000 0.000218495
v -0.055507345 0.022000000 -0.000000000
v -0.050803366 0.022000000 -0.000218495
v -0.037623111 0.022000000 -0.000763719
v -0.018577090 0.022000000 -0.001395029
v 0.002562399 0.022000000 -0.001829902
v 0.021608420 0.022000000 -0.001774831
v 0.034788676 0.022000000 -0.001109188
v 0.026485310 0.044000000 0.000000005
v 0.022276487 0.044000000 0.001038388
v 0.010483626 0.044000000 0.001661544
v -0.006557551 0.044000000 0.001713100
v -0.025471830 0.044000000 0.001305985
v -0.042513007 0.044000000 0.000714971
v -0.054305867 0.044000000 0.000204548
v -0.058514690 0.044000000 -0.000000000
v -0.054305867 0.044000000 -0.000204548
v -0.042513007 0.044000000 -0.000714971
v -0.025471830 0.044000000 -0.001305985
v -0.006557551 0.044000000 -0.001713100
v 0.010483626 0.044000000 -0.001661544
v 0.022276487 0.044000000 -0.001038388
v 0.013477965 0.066000000 0.000000005
v 0.009764297 0.066000000 0.000967589
v -0.000641168 0.066000000 0.001548257
v -0.015677500 0.066000000 0.001596298
v -0.032366570 0.066000000 0.001216940
v -0.047402903 0.066000000 0.000666223
v -0.057808368 0.066000000 0.000190602
v -0.061522035 0.066000000 -0.000000000
v -0.057808368 0.066000000 -0.000190602
v -0.047402903 0.066000000 -0.000666223
v -0.032366570 0.066000000 -0.001216940
v -0.015677500 0.066000000 -0.001596298
v -0.000641168 0.066000000 -0.001548257
v 0.009764297 0.066000000 -0.000967589
v 0.000470619 0.088000000 0.000000005
v -0.002747892 0.088000000 0.000896790
v -0.011765962 0.088000000 0.001434970
v -0.024797450 0.088000000 0.001479495
v -0.039261311 0.088000000 0.001127896
v -0.052292799 0.088000000 0.000617475
v -0.061310869 0.088000000 0.000176655
v -0.064529381 0.088000000 -0.000000000
v -0.061310869 0.088000000 -0.000176655
v -0.052292799 0.088000000 -0.000617475
v -0.039261311 0.088000000 -0.001127896
v -0.024797450 0.088000000 -0.001479495
v -0.011765962 0.088000000 -0.001434970
v -0.002747892 0.088000000 -0.000896790
v -0.012536726 0.110000000 0.000000004
v -0.015260082 0.110000000 0.000825991
v -0.022890756 0.110000000 0.001321683
v -0.033917400 0.110000000 0.001362693
v -0.046156051 0.110000000 0.001038852
v -0.057182695 0.110000000 0.000568727
v -0.064813370 0.110000000 0.000162709
v -0.067536726 0.110000000 -0.000000000
v -0.064813370 0.110000000 -0.000162709
v -0.057182695 0.110000000 -0.000568727
v -0.046156051 0.110000000 -0.001038852
v -0.033917400 0.110000000 -0.001362693
v -0.022890756 0.110000000 -0.001321683
v -0.015260082 0.110000000 -0.000825991
v 0.000000000 0.000000000 0.000000000
v -0.040036726 0.110000000 0.000000000
f 1 15 16
f 1 16 2
f 2 16 17
f 2 17 3
f 3 17 18
f 3 18 4
f 4 18 19
f 4 19 5
f 5 19 20
f 5 20 6
f 6 20 21
f 6 21 7
f 7 21 22
f 7 22 8
f 8 22 23
f 8 23 9
f 9 23 24
f 9 24 10
f 10 24 25
f 10 25 11
f 11 25 26
f 11 26 12
f 12 26 27
f 12 27 13
f 13 27 28
f 13 28 14
f 14 28 15
f 14 15 1
f 15 29 30
f 15 30 16
f 16 30 31
f 16 31 17
f 17 31 32
f 17 32 18
f 18 32 33
f 18 33 19
f 19 33 34
f 19 34 20
f 20 34 35
f 20 35 21
f 21 35 36
f 21 36 22
f 22 36 37
f 22 37 23
f 23 37 38
f 23 38 24
f 24 38 39
f 24 39 25
f 25 39 40
f 25 40 26
f 26 40 41
f 26 41 27
f 27 41 42
f 27 42 28
f 28 42 29
f 28 29 15
f 29 43 44
f 29 44 30
f 30 44 45
f 30 45 31
f 31 45 46
f 31 46 32
f 32 46 47
f 32 47 33
f 33 47 48
f 33 48 34
f 34 48 49
f 34 49 35
f 35 49 50
f 35 50 36
f 36 50 51
f 36 51 37
f 37 51 52
f 37 52 38
f 38 52 53
f 38 53 39
f 39 53 54
f 39 54 40
f 40 54 55
f 40 55 41
f 41 55 56
f 41 56 42
f 42 56 43
f 42 43 29
f 43 57 58
f 43 58 44
f 44 58 59
f 44 59 45
f 45 59 60
f 45 60 46
f 46 60 61
f 46 61 47
f 47 61 62
f 47 62 48
f 48 62 63
f 48 63 49
f 49 63 64
f 49 64 50
f 50 64 65
f 50 65 51
f 51 65 66
f 51 66 52
f 52 66 67
f 52 67 53
f 53 67 68
f 53 68 54
f 54 68 69
f 54 69 55
f 55 69 70
f 55 70 56
f 56 70 57
f 56 57 43
f 57 71 72
f 57 72 58
f 58 72 73
f 58 73 59
f 59 73 74
f 59 74 60
f 60 74 75
f 60 75 61
f 61 75 76
f 61 76 62
f 62 76 77
f 62 77 63
f 63 77 78
f 63 78 64
f 64 78 79
f 64 79 65
f 65 79 80
f 65 80 66
f 66 80 81
f 66 81 67
f 67 81 82
f 67 82 68
f 68 82 83
f 68 83 69
f 69 83 84
f 69 84 70
f 70 84 71
f 70 71 57
f 85 1 2
f 85 2 3
f 85 3 4
f 85 4 5
f 85 5 6
f 85 6 7
f 85 7 8
f 85 8 9
f 85 9 10
f 85 10 11
f 85 11 12
f 85 12 13
f 85 13 14
f 85 14 1
f 86 72 71
f 86 73 72
f 86 74 73
f 86 75 74
f 86 76 75
f 86 77 76
f 86 78 77
f 86 79 78
f 86 80 79
f 86 81 80
f 86 82 81
f 86 83 82
f 86 84 83
f 86 71 84
