# Generated by generate_bionic_fish.py
# Units: meters
# Low-poly Tail4 link-local physics mesh. Origin is Joint4.
o Tail4
v -0.021550000 0.006203429 0.000000000
v -0.021550000 0.005018680 0.018231421
v -0.021550000 0.001916965 0.029499060
v -0.021550000 -0.001916965 0.029499060
v -0.021550000 -0.005018680 0.018231421
v -0.021550000 -0.006203429 0.000000000
v -0.021550000 -0.005018680 -0.018231421
v -0.021550000 -0.001916965 -0.029499060
v -0.021550000 0.001916965 -0.029499060
v -0.021550000 0.005018680 -0.018231421
v -0.010775000 0.008271239 0.000000000
v -0.010775000 0.006691573 0.021269992
v -0.010775000 0.002555953 0.034415570
v -0.010775000 -0.002555953 0.034415570
v -0.010775000 -0.006691573 0.021269992
v -0.010775000 -0.008271239 0.000000000
v -0.010775000 -0.006691573 -0.021269992
v -0.010775000 -0.002555953 -0.034415570
v -0.010775000 0.002555953 -0.034415570
v -0.010775000 0.006691573 -0.021269992
v 0.000000000 0.010339049 0.000000000
v 0.000000000 0.008364466 0.024308562
v 0.000000000 0.003194942 0.039332080
v 0.000000000 -0.003194942 0.039332080
v 0.000000000 -0.008364466 0.024308562
v 0.000000000 -0.010339049 0.000000000
v 0.000000000 -0.008364466 -0.024308562
v 0.000000000 -0.003194942 -0.039332080
v 0.000000000 0.003194942 -0.039332080
v 0.000000000 0.008364466 -0.024308562
v -0.021550000 0.000000000 0.000000000
v 0.000000000 0.000000000 0.000000000
f 1 12 11
f 1 2 12
f 2 13 12
f 2 3 13
f 3 14 13
f 3 4 14
f 4 15 14
f 4 5 15
f 5 16 15
f 5 6 16
f 6 17 16
f 6 7 17
f 7 18 17
f 7 8 18
f 8 19 18
f 8 9 19
f 9 20 19
f 9 10 20
f 10 11 20
f 10 1 11
f 11 22 21
f 11 12 22
f 12 23 22
f 12 13 23
f 13 24 23
f 13 14 24
f 14 25 24
f 14 15 25
f 15 26 25
f 15 16 26
f 16 27 26
f 16 17 27
f 17 28 27
f 17 18 28
f 18 29 28
f 18 19 29
f 19 30 29
f 19 20 30
f 20 21 30
f 20 11 21
f 31 2 1
f 32 21 22
f 31 3 2
f 32 22 23
f 31 4 3
f 32 23 24
f 31 5 4
f 32 24 25
f 31 6 5
f 32 25 26
f 31 7 6
f 32 26 27
f 31 8 7
f 32 27 28
f 31 9 8
f 32 28 29
f 31 10 9
f 32 29 30
f 31 1 10
f 32 30 21
