# Generated by generate_bionic_fish.py
# Units: meters
# Explicit smooth normals included for Stonefish.
# Low-poly Tail2 physics mesh.
o Tail2
s 1
v -0.030500000 0.020678098 0.000000000
v -0.030500000 0.016728933 0.025827847
v -0.030500000 0.006389884 0.041790334
v -0.030500000 -0.006389884 0.041790334
v -0.030500000 -0.016728933 0.025827847
v -0.030500000 -0.020678098 0.000000000
v -0.030500000 -0.016728933 -0.025827847
v -0.030500000 -0.006389884 -0.041790334
v -0.030500000 0.006389884 -0.041790334
v -0.030500000 0.016728933 -0.025827847
v -0.015250000 0.025847622 0.000000000
v -0.015250000 0.020911166 0.026587490
v -0.015250000 0.007987355 0.043019462
v -0.015250000 -0.007987355 0.043019462
v -0.015250000 -0.020911166 0.026587490
v -0.015250000 -0.025847622 0.000000000
v -0.015250000 -0.020911166 -0.026587490
v -0.015250000 -0.007987355 -0.043019462
v -0.015250000 0.007987355 -0.043019462
v -0.015250000 0.020911166 -0.026587490
v 0.000000000 0.031017147 0.000000000
v 0.000000000 0.025093399 0.027347132
v 0.000000000 0.009584825 0.044248589
v 0.000000000 -0.009584825 0.044248589
v 0.000000000 -0.025093399 0.027347132
v 0.000000000 -0.031017147 0.000000000
v 0.000000000 -0.025093399 -0.027347132
v 0.000000000 -0.009584825 -0.044248589
v 0.000000000 0.009584825 -0.044248589
v 0.000000000 0.025093399 -0.027347132
v -0.030500000 0.000000000 0.000000000
v 0.000000000 0.000000000 0.000000000
vn -0.771574249 0.634876967 0.040055152
vn -0.797585416 0.546465351 0.255407761
vn -0.871002080 0.185712283 0.454825599
vn -0.851594377 -0.350409725 0.389871828
vn -0.789040399 -0.591411101 0.166277355
vn -0.771574249 -0.634876967 -0.040055152
vn -0.797585416 -0.546465351 -0.255407761
vn -0.871002080 -0.185712283 -0.454825599
vn -0.851594377 0.350409725 -0.389871828
vn -0.789040399 0.591411101 -0.166277355
vn -0.305176005 0.952223022 0.011786515
vn -0.256327459 0.888456654 0.380711187
vn -0.143829124 0.483035169 0.863707247
vn -0.144674240 -0.495217121 0.856638411
vn -0.257510620 -0.896580066 0.360322725
vn -0.305176005 -0.952223022 -0.011786515
vn -0.256327459 -0.888456654 -0.380711187
vn -0.143829124 -0.483035169 -0.863707247
vn -0.144674240 0.495217121 -0.856638411
vn -0.257510620 0.896580066 -0.360322725
vn 0.722773240 0.689814262 -0.041894251
vn 0.762315124 0.606544380 0.225786552
vn 0.867886563 0.284943416 0.406915425
vn 0.892033829 -0.143055639 0.428731539
vn 0.806965844 -0.513940662 0.290983027
vn 0.722773240 -0.689814262 0.041894251
vn 0.762315124 -0.606544380 -0.225786552
vn 0.867886563 -0.284943416 -0.406915425
vn 0.892033829 0.143055639 -0.428731539
vn 0.806965844 0.513940662 -0.290983027
vn -1.000000000 0.000000000 0.000000000
vn 1.000000000 0.000000000 0.000000000
f 1//1 12//12 11//11
f 1//1 2//2 12//12
f 2//2 13//13 12//12
f 2//2 3//3 13//13
f 3//3 14//14 13//13
f 3//3 4//4 14//14
f 4//4 15//15 14//14
f 4//4 5//5 15//15
f 5//5 16//16 15//15
f 5//5 6//6 16//16
f 6//6 17//17 16//16
f 6//6 7//7 17//17
f 7//7 18//18 17//17
f 7//7 8//8 18//18
f 8//8 19//19 18//18
f 8//8 9//9 19//19
f 9//9 20//20 19//19
f 9//9 10//10 20//20
f 10//10 11//11 20//20
f 10//10 1//1 11//11
f 11//11 22//22 21//21
f 11//11 12//12 22//22
f 12//12 23//23 22//22
f 12//12 13//13 23//23
f 13//13 24//24 23//23
f 13//13 14//14 24//24
f 14//14 25//25 24//24
f 14//14 15//15 25//25
f 15//15 26//26 25//25
f 15//15 16//16 26//26
f 16//16 27//27 26//26
f 16//16 17//17 27//27
f 17//17 28//28 27//27
f 17//17 18//18 28//28
f 18//18 29//29 28//28
f 18//18 19//19 29//29
f 19//19 30//30 29//29
f 19//19 20//20 30//30
f 20//20 21//21 30//30
f 20//20 11//11 21//21
f 31//31 2//2 1//1
f 32//32 21//21 22//22
f 31//31 3//3 2//2
f 32//32 22//22 23//23
f 31//31 4//4 3//3
f 32//32 23//23 24//24
f 31//31 5//5 4//4
f 32//32 24//24 25//25
f 31//31 6//6 5//5
f 32//32 25//25 26//26
f 31//31 7//7 6//6
f 32//32 26//26 27//27
f 31//31 8//8 7//7
f 32//32 27//27 28//28
f 31//31 9//9 8//8
f 32//32 28//28 29//29
f 31//31 10//10 9//9
f 32//32 29//29 30//30
f 31//31 1//1 10//10
f 32//32 30//30 21//21
