# Generated by generate_bionic_fish.py
# Units: meters
# Explicit smooth normals included for Stonefish.
# Low-poly Tail3 physics mesh.
o Tail3
s 1
v -0.025000000 0.010339049 0.000000000
v -0.025000000 0.008364466 0.024308562
v -0.025000000 0.003194942 0.039332080
v -0.025000000 -0.003194942 0.039332080
v -0.025000000 -0.008364466 0.024308562
v -0.025000000 -0.010339049 0.000000000
v -0.025000000 -0.008364466 -0.024308562
v -0.025000000 -0.003194942 -0.039332080
v -0.025000000 0.003194942 -0.039332080
v -0.025000000 0.008364466 -0.024308562
v -0.012500000 0.015508573 0.000000000
v -0.012500000 0.012546699 0.025068205
v -0.012500000 0.004792413 0.040561207
v -0.012500000 -0.004792413 0.040561207
v -0.012500000 -0.012546699 0.025068205
v -0.012500000 -0.015508573 0.000000000
v -0.012500000 -0.012546699 -0.025068205
v -0.012500000 -0.004792413 -0.040561207
v -0.012500000 0.004792413 -0.040561207
v -0.012500000 0.012546699 -0.025068205
v 0.000000000 0.020678098 0.000000000
v 0.000000000 0.016728933 0.025827847
v 0.000000000 0.006389884 0.041790334
v 0.000000000 -0.006389884 0.041790334
v 0.000000000 -0.016728933 0.025827847
v 0.000000000 -0.020678098 0.000000000
v 0.000000000 -0.016728933 -0.025827847
v 0.000000000 -0.006389884 -0.041790334
v 0.000000000 0.006389884 -0.041790334
v 0.000000000 0.016728933 -0.025827847
v -0.025000000 0.000000000 0.000000000
v 0.000000000 0.000000000 0.000000000
vn -0.682621929 0.730182063 0.029350582
vn -0.705454151 0.683952127 0.185859971
vn -0.862518981 0.293092903 0.412501586
vn -0.804540270 -0.501836284 0.317608720
vn -0.701537487 -0.704016958 0.110477495
vn -0.682621929 -0.730182063 -0.029350582
vn -0.705454151 -0.683952127 -0.185859971
vn -0.862518981 -0.293092903 -0.412501586
vn -0.804540270 0.501836284 -0.317608720
vn -0.701537487 0.704016958 -0.110477495
vn -0.363016936 0.931702257 0.012231451
vn -0.313208222 0.914988331 0.254355979
vn -0.195933421 0.645426623 0.738264566
vn -0.196702808 -0.661184765 0.723977010
vn -0.313780935 -0.921043475 0.230695562
vn -0.363016936 -0.931702257 -0.012231451
vn -0.313208222 -0.914988331 -0.254355979
vn -0.195933421 -0.645426623 -0.738264566
vn -0.196702808 0.661184765 -0.723977010
vn -0.313780935 0.921043475 -0.230695562
vn 0.585963682 0.809734168 -0.031259237
vn 0.657370066 0.729672564 0.188261907
vn 0.863564595 0.359866101 0.353203312
vn 0.910628125 -0.181255464 0.371352762
vn 0.741632273 -0.626056178 0.240905028
vn 0.585963682 -0.809734168 0.031259237
vn 0.657370066 -0.729672564 -0.188261907
vn 0.863564595 -0.359866101 -0.353203312
vn 0.910628125 0.181255464 -0.371352762
vn 0.741632273 0.626056178 -0.240905028
vn -1.000000000 0.000000000 0.000000000
vn 1.000000000 0.000000000 0.000000000
f 1//1 12//12 11//11
f 1//1 2//2 12//12
f 2//2 13//13 12//12
f 2//2 3//3 13//13
f 3//3 14//14 13//13
f 3//3 4//4 14//14
f 4//4 15//15 14//14
f 4//4 5//5 15//15
f 5//5 16//16 15//15
f 5//5 6//6 16//16
f 6//6 17//17 16//16
f 6//6 7//7 17//17
f 7//7 18//18 17//17
f 7//7 8//8 18//18
f 8//8 19//19 18//18
f 8//8 9//9 19//19
f 9//9 20//20 19//19
f 9//9 10//10 20//20
f 10//10 11//11 20//20
f 10//10 1//1 11//11
f 11//11 22//22 21//21
f 11//11 12//12 22//22
f 12//12 23//23 22//22
f 12//12 13//13 23//23
f 13//13 24//24 23//23
f 13//13 14//14 24//24
f 14//14 25//25 24//24
f 14//14 15//15 25//25
f 15//15 26//26 25//25
f 15//15 16//16 26//26
f 16//16 27//27 26//26
f 16//16 17//17 27//27
f 17//17 28//28 27//27
f 17//17 18//18 28//28
f 18//18 29//29 28//28
f 18//18 19//19 29//29
f 19//19 30//30 29//29
f 19//19 20//20 30//30
f 20//20 21//21 30//30
f 20//20 11//11 21//21
f 31//31 2//2 1//1
f 32//32 21//21 22//22
f 31//31 3//3 2//2
f 32//32 22//22 23//23
f 31//31 4//4 3//3
f 32//32 23//23 24//24
f 31//31 5//5 4//4
f 32//32 24//24 25//25
f 31//31 6//6 5//5
f 32//32 25//25 26//26
f 31//31 7//7 6//6
f 32//32 26//26 27//27
f 31//31 8//8 7//7
f 32//32 27//27 28//28
f 31//31 9//9 8//8
f 32//32 28//28 29//29
f 31//31 10//10 9//9
f 32//32 29//29 30//30
f 31//31 1//1 10//10
f 32//32 30//30 21//21
