# Generated by generate_bionic_fish.py
# Units: meters
# Explicit smooth normals included for Stonefish.
# Low-poly Tail1 physics mesh.
o Tail1
s 1
v -0.031000000 0.031017147 0.000000000
v -0.031000000 0.025093399 0.027347132
v -0.031000000 0.009584825 0.044248589
v -0.031000000 -0.009584825 0.044248589
v -0.031000000 -0.025093399 0.027347132
v -0.031000000 -0.031017147 0.000000000
v -0.031000000 -0.025093399 -0.027347132
v -0.031000000 -0.009584825 -0.044248589
v -0.031000000 0.009584825 -0.044248589
v -0.031000000 0.025093399 -0.027347132
v -0.015500000 0.036186671 0.000000000
v -0.015500000 0.029275632 0.028106775
v -0.015500000 0.011182296 0.045477717
v -0.015500000 -0.011182296 0.045477717
v -0.015500000 -0.029275632 0.028106775
v -0.015500000 -0.036186671 0.000000000
v -0.015500000 -0.029275632 -0.028106775
v -0.015500000 -0.011182296 -0.045477717
v -0.015500000 0.011182296 -0.045477717
v -0.015500000 0.029275632 -0.028106775
v 0.000000000 0.041356196 0.000000000
v 0.000000000 0.033457865 0.028866417
v 0.000000000 0.012779767 0.046706844
v 0.000000000 -0.012779767 0.046706844
v 0.000000000 -0.033457865 0.028866417
v 0.000000000 -0.041356196 0.000000000
v 0.000000000 -0.033457865 -0.028866417
v 0.000000000 -0.012779767 -0.046706844
v 0.000000000 0.012779767 -0.046706844
v 0.000000000 0.033457865 -0.028866417
v -0.031000000 0.000000000 0.000000000
v 0.000000000 0.000000000 0.000000000
vn -0.852681709 0.520620458 0.043453904
vn -0.864068956 0.423698504 0.271780089
vn -0.889338398 0.129898445 0.438410320
vn -0.884852354 -0.253743021 0.390705504
vn -0.861443110 -0.472868014 0.185233932
vn -0.852681709 -0.520620458 -0.043453904
vn -0.864068956 -0.423698504 -0.271780089
vn -0.889338398 -0.129898445 -0.438410320
vn -0.884852354 0.253743021 -0.390705504
vn -0.861443110 0.472868014 -0.185233932
vn -0.301557343 0.953382692 0.011162984
vn -0.245672075 0.844784373 0.475378369
vn -0.129826828 0.386562897 0.913079471
vn -0.130554391 -0.395797041 0.909010590
vn -0.247204393 -0.853676893 0.458394754
vn -0.301557343 -0.953382692 -0.011162984
vn -0.245672075 -0.844784373 -0.475378369
vn -0.129826828 -0.386562897 -0.913079471
vn -0.130554391 0.395797041 -0.909010590
vn -0.247204393 0.853676893 -0.458394754
vn 0.827377345 0.559834942 -0.045072913
vn 0.844670458 0.483635105 0.229409904
vn 0.889756805 0.219148595 0.400383217
vn 0.900469784 -0.109462354 0.420918236
vn 0.865247065 -0.405252487 0.295157480
vn 0.827377345 -0.559834942 0.045072913
vn 0.844670458 -0.483635105 -0.229409904
vn 0.889756805 -0.219148595 -0.400383217
vn 0.900469784 0.109462354 -0.420918236
vn 0.865247065 0.405252487 -0.295157480
vn -1.000000000 0.000000000 0.000000000
vn 1.000000000 0.000000000 0.000000000
f 1//1 12//12 11//11
f 1//1 2//2 12//12
f 2//2 13//13 12//12
f 2//2 3//3 13//13
f 3//3 14//14 13//13
f 3//3 4//4 14//14
f 4//4 15//15 14//14
f 4//4 5//5 15//15
f 5//5 16//16 15//15
f 5//5 6//6 16//16
f 6//6 17//17 16//16
f 6//6 7//7 17//17
f 7//7 18//18 17//17
f 7//7 8//8 18//18
f 8//8 19//19 18//18
f 8//8 9//9 19//19
f 9//9 20//20 19//19
f 9//9 10//10 20//20
f 10//10 11//11 20//20
f 10//10 1//1 11//11
f 11//11 22//22 21//21
f 11//11 12//12 22//22
f 12//12 23//23 22//22
f 12//12 13//13 23//23
f 13//13 24//24 23//23
f 13//13 14//14 24//24
f 14//14 25//25 24//24
f 14//14 15//15 25//25
f 15//15 26//26 25//25
f 15//15 16//16 26//26
f 16//16 27//27 26//26
f 16//16 17//17 27//27
f 17//17 28//28 27//27
f 17//17 18//18 28//28
f 18//18 29//29 28//28
f 18//18 19//19 29//29
f 19//19 30//30 29//29
f 19//19 20//20 30//30
f 20//20 21//21 30//30
f 20//20 11//11 21//21
f 31//31 2//2 1//1
f 32//32 21//21 22//22
f 31//31 3//3 2//2
f 32//32 22//22 23//23
f 31//31 4//4 3//3
f 32//32 23//23 24//24
f 31//31 5//5 4//4
f 32//32 24//24 25//25
f 31//31 6//6 5//5
f 32//32 25//25 26//26
f 31//31 7//7 6//6
f 32//32 26//26 27//27
f 31//31 8//8 7//7
f 32//32 27//27 28//28
f 31//31 9//9 8//8
f 32//32 28//28 29//29
f 31//31 10//10 9//9
f 32//32 29//29 30//30
f 31//31 1//1 10//10
f 32//32 30//30 21//21
